%TF.GenerationSoftware,KiCad,Pcbnew,9.0.6*%
%TF.CreationDate,2025-11-03T22:24:35+01:00*%
%TF.ProjectId,capSensor,63617053-656e-4736-9f72-2e6b69636164,rev?*%
%TF.SameCoordinates,Original*%
%TF.FileFunction,Copper,L2,Inr*%
%TF.FilePolarity,Positive*%
%FSLAX46Y46*%
G04 Gerber Fmt 4.6, Leading zero omitted, Abs format (unit mm)*
G04 Created by KiCad (PCBNEW 9.0.6) date 2025-11-03 22:24:35*
%MOMM*%
%LPD*%
G01*
G04 APERTURE LIST*
G04 Aperture macros list*
%AMRoundRect*
0 Rectangle with rounded corners*
0 $1 Rounding radius*
0 $2 $3 $4 $5 $6 $7 $8 $9 X,Y pos of 4 corners*
0 Add a 4 corners polygon primitive as box body*
4,1,4,$2,$3,$4,$5,$6,$7,$8,$9,$2,$3,0*
0 Add four circle primitives for the rounded corners*
1,1,$1+$1,$2,$3*
1,1,$1+$1,$4,$5*
1,1,$1+$1,$6,$7*
1,1,$1+$1,$8,$9*
0 Add four rect primitives between the rounded corners*
20,1,$1+$1,$2,$3,$4,$5,0*
20,1,$1+$1,$4,$5,$6,$7,0*
20,1,$1+$1,$6,$7,$8,$9,0*
20,1,$1+$1,$8,$9,$2,$3,0*%
%AMFreePoly0*
4,1,237,-0.020828,1.303997,-0.020644,1.303987,0.007356,1.301987,0.007683,1.301953,0.036683,1.297953,0.036879,1.297922,0.064879,1.292922,0.065213,1.292851,0.093213,1.285851,0.093374,1.285808,0.121374,1.277808,0.121737,1.277689,0.148737,1.267689,0.148886,1.267630,0.175886,1.256630,0.176095,1.256540,0.202095,1.244540,0.202443,1.244363,0.227443,1.230363,0.227572,1.230287,
0.252572,1.215287,0.252855,1.215105,0.275855,1.199105,0.276082,1.198938,0.299082,1.180938,0.321166,1.162870,0.321448,1.162621,0.342448,1.142621,0.342621,1.142448,0.362621,1.121448,0.362870,1.121166,0.380938,1.099082,0.398938,1.076082,0.399105,1.075855,0.415105,1.052855,0.415287,1.052572,0.430287,1.027572,0.430363,1.027443,0.444363,1.002443,0.444540,1.002095,
0.456540,0.976095,0.456630,0.975886,0.467630,0.948886,0.467689,0.948737,0.477689,0.921737,0.477808,0.921374,0.485808,0.893374,0.485851,0.893213,0.492851,0.865213,0.492922,0.864879,0.497922,0.836879,0.497953,0.836683,0.501953,0.807683,0.501987,0.807356,0.503987,0.779356,0.503997,0.779172,0.504997,0.750172,0.505000,0.750000,0.505000,-0.750000,0.504997,-0.750172,
0.503997,-0.779172,0.503987,-0.779356,0.501987,-0.807356,0.501953,-0.807683,0.497953,-0.836683,0.497922,-0.836879,0.492922,-0.864879,0.492851,-0.865213,0.485851,-0.893213,0.485808,-0.893374,0.477808,-0.921374,0.477689,-0.921737,0.467689,-0.948737,0.467630,-0.948886,0.456630,-0.975886,0.456540,-0.976095,0.444540,-1.002095,0.444363,-1.002443,0.430363,-1.027443,0.430287,-1.027572,
0.415287,-1.052572,0.415105,-1.052855,0.399105,-1.075855,0.398938,-1.076082,0.380938,-1.099082,0.362870,-1.121166,0.362621,-1.121448,0.342621,-1.142448,0.342448,-1.142621,0.321448,-1.162621,0.321166,-1.162870,0.299082,-1.180938,0.276082,-1.198938,0.275855,-1.199105,0.252855,-1.215105,0.252572,-1.215287,0.227572,-1.230287,0.227443,-1.230363,0.202443,-1.244363,0.202095,-1.244540,
0.176095,-1.256540,0.175886,-1.256630,0.148886,-1.267630,0.148737,-1.267689,0.121737,-1.277689,0.121374,-1.277808,0.093374,-1.285808,0.093213,-1.285851,0.065213,-1.292851,0.064879,-1.292922,0.036879,-1.297922,0.036683,-1.297953,0.007683,-1.301953,0.007356,-1.301987,-0.020644,-1.303987,-0.020828,-1.303997,-0.049828,-1.304997,-0.050172,-1.304997,-0.079172,-1.303997,-0.079356,-1.303987,
-0.107356,-1.301987,-0.107683,-1.301953,-0.136683,-1.297953,-0.136879,-1.297922,-0.164879,-1.292922,-0.165213,-1.292851,-0.193213,-1.285851,-0.193374,-1.285808,-0.221374,-1.277808,-0.221737,-1.277689,-0.248737,-1.267689,-0.248886,-1.267630,-0.275886,-1.256630,-0.276095,-1.256540,-0.302095,-1.244540,-0.302443,-1.244363,-0.327443,-1.230363,-0.327572,-1.230287,-0.352572,-1.215287,-0.352855,-1.215105,
-0.375855,-1.199105,-0.376082,-1.198938,-0.399082,-1.180938,-0.421166,-1.162870,-0.421448,-1.162621,-0.442448,-1.142621,-0.442621,-1.142448,-0.462621,-1.121448,-0.462870,-1.121166,-0.480938,-1.099082,-0.498938,-1.076082,-0.499105,-1.075855,-0.515105,-1.052855,-0.515287,-1.052572,-0.530287,-1.027572,-0.530363,-1.027443,-0.544363,-1.002443,-0.544540,-1.002095,-0.556540,-0.976095,-0.556630,-0.975886,
-0.567630,-0.948886,-0.567689,-0.948737,-0.577689,-0.921737,-0.577808,-0.921374,-0.585808,-0.893374,-0.585851,-0.893213,-0.592851,-0.865213,-0.592922,-0.864879,-0.597922,-0.836879,-0.597953,-0.836683,-0.601953,-0.807683,-0.601987,-0.807356,-0.603987,-0.779356,-0.603997,-0.779172,-0.604997,-0.750172,-0.605000,-0.750000,-0.605000,0.750000,-0.604997,0.750172,-0.603997,0.779172,-0.603987,0.779356,
-0.601987,0.807356,-0.601953,0.807683,-0.597953,0.836683,-0.597922,0.836879,-0.592922,0.864879,-0.592851,0.865213,-0.585851,0.893213,-0.585808,0.893374,-0.577808,0.921374,-0.577689,0.921737,-0.567689,0.948737,-0.567630,0.948886,-0.556630,0.975886,-0.556540,0.976095,-0.544540,1.002095,-0.544363,1.002443,-0.530363,1.027443,-0.530287,1.027572,-0.515287,1.052572,-0.515105,1.052855,
-0.499105,1.075855,-0.498938,1.076082,-0.480938,1.099082,-0.462870,1.121166,-0.462621,1.121448,-0.442621,1.142448,-0.442448,1.142621,-0.421448,1.162621,-0.421166,1.162870,-0.399082,1.180938,-0.376082,1.198938,-0.375855,1.199105,-0.352855,1.215105,-0.352572,1.215287,-0.327572,1.230287,-0.327443,1.230363,-0.302443,1.244363,-0.302095,1.244540,-0.276095,1.256540,-0.275886,1.256630,
-0.248886,1.267630,-0.248737,1.267689,-0.221737,1.277689,-0.221374,1.277808,-0.193374,1.285808,-0.193213,1.285851,-0.165213,1.292851,-0.164879,1.292922,-0.136879,1.297922,-0.136683,1.297953,-0.107683,1.301953,-0.107356,1.301987,-0.079356,1.303987,-0.079172,1.303997,-0.050172,1.304997,-0.049828,1.304997,-0.020828,1.303997,-0.020828,1.303997,$1*%
%AMFreePoly1*
4,1,237,0.079172,1.303997,0.079356,1.303987,0.107356,1.301987,0.107683,1.301953,0.136683,1.297953,0.136879,1.297922,0.164879,1.292922,0.165213,1.292851,0.193213,1.285851,0.193374,1.285808,0.221374,1.277808,0.221737,1.277689,0.248737,1.267689,0.248886,1.267630,0.275886,1.256630,0.276095,1.256540,0.302095,1.244540,0.302443,1.244363,0.327443,1.230363,0.327572,1.230287,
0.352572,1.215287,0.352855,1.215105,0.375855,1.199105,0.376082,1.198938,0.399082,1.180938,0.421166,1.162870,0.421448,1.162621,0.442448,1.142621,0.442621,1.142448,0.462621,1.121448,0.462870,1.121166,0.480938,1.099082,0.498938,1.076082,0.499105,1.075855,0.515105,1.052855,0.515287,1.052572,0.530287,1.027572,0.530363,1.027443,0.544363,1.002443,0.544540,1.002095,
0.556540,0.976095,0.556630,0.975886,0.567630,0.948886,0.567689,0.948737,0.577689,0.921737,0.577808,0.921374,0.585808,0.893374,0.585851,0.893213,0.592851,0.865213,0.592922,0.864879,0.597922,0.836879,0.597953,0.836683,0.601953,0.807683,0.601987,0.807356,0.603987,0.779356,0.603997,0.779172,0.604997,0.750172,0.605000,0.750000,0.605000,-0.750000,0.604997,-0.750172,
0.603997,-0.779172,0.603987,-0.779356,0.601987,-0.807356,0.601953,-0.807683,0.597953,-0.836683,0.597922,-0.836879,0.592922,-0.864879,0.592851,-0.865213,0.585851,-0.893213,0.585808,-0.893374,0.577808,-0.921374,0.577689,-0.921737,0.567689,-0.948737,0.567630,-0.948886,0.556630,-0.975886,0.556540,-0.976095,0.544540,-1.002095,0.544363,-1.002443,0.530363,-1.027443,0.530287,-1.027572,
0.515287,-1.052572,0.515105,-1.052855,0.499105,-1.075855,0.498938,-1.076082,0.480938,-1.099082,0.462870,-1.121166,0.462621,-1.121448,0.442621,-1.142448,0.442448,-1.142621,0.421448,-1.162621,0.421166,-1.162870,0.399082,-1.180938,0.376082,-1.198938,0.375855,-1.199105,0.352855,-1.215105,0.352572,-1.215287,0.327572,-1.230287,0.327443,-1.230363,0.302443,-1.244363,0.302095,-1.244540,
0.276095,-1.256540,0.275886,-1.256630,0.248886,-1.267630,0.248737,-1.267689,0.221737,-1.277689,0.221374,-1.277808,0.193374,-1.285808,0.193213,-1.285851,0.165213,-1.292851,0.164879,-1.292922,0.136879,-1.297922,0.136683,-1.297953,0.107683,-1.301953,0.107356,-1.301987,0.079356,-1.303987,0.079172,-1.303997,0.050172,-1.304997,0.049828,-1.304997,0.020828,-1.303997,0.020644,-1.303987,
-0.007356,-1.301987,-0.007683,-1.301953,-0.036683,-1.297953,-0.036879,-1.297922,-0.064879,-1.292922,-0.065213,-1.292851,-0.093213,-1.285851,-0.093374,-1.285808,-0.121374,-1.277808,-0.121737,-1.277689,-0.148737,-1.267689,-0.148886,-1.267630,-0.175886,-1.256630,-0.176095,-1.256540,-0.202095,-1.244540,-0.202443,-1.244363,-0.227443,-1.230363,-0.227572,-1.230287,-0.252572,-1.215287,-0.252855,-1.215105,
-0.275855,-1.199105,-0.276082,-1.198938,-0.299082,-1.180938,-0.321166,-1.162870,-0.321448,-1.162621,-0.342448,-1.142621,-0.342621,-1.142448,-0.362621,-1.121448,-0.362870,-1.121166,-0.380938,-1.099082,-0.398938,-1.076082,-0.399105,-1.075855,-0.415105,-1.052855,-0.415287,-1.052572,-0.430287,-1.027572,-0.430363,-1.027443,-0.444363,-1.002443,-0.444540,-1.002095,-0.456540,-0.976095,-0.456630,-0.975886,
-0.467630,-0.948886,-0.467689,-0.948737,-0.477689,-0.921737,-0.477808,-0.921374,-0.485808,-0.893374,-0.485851,-0.893213,-0.492851,-0.865213,-0.492922,-0.864879,-0.497922,-0.836879,-0.497953,-0.836683,-0.501953,-0.807683,-0.501987,-0.807356,-0.503987,-0.779356,-0.503997,-0.779172,-0.504997,-0.750172,-0.505000,-0.750000,-0.505000,0.750000,-0.504997,0.750172,-0.503997,0.779172,-0.503987,0.779356,
-0.501987,0.807356,-0.501953,0.807683,-0.497953,0.836683,-0.497922,0.836879,-0.492922,0.864879,-0.492851,0.865213,-0.485851,0.893213,-0.485808,0.893374,-0.477808,0.921374,-0.477689,0.921737,-0.467689,0.948737,-0.467630,0.948886,-0.456630,0.975886,-0.456540,0.976095,-0.444540,1.002095,-0.444363,1.002443,-0.430363,1.027443,-0.430287,1.027572,-0.415287,1.052572,-0.415105,1.052855,
-0.399105,1.075855,-0.398938,1.076082,-0.380938,1.099082,-0.362870,1.121166,-0.362621,1.121448,-0.342621,1.142448,-0.342448,1.142621,-0.321448,1.162621,-0.321166,1.162870,-0.299082,1.180938,-0.276082,1.198938,-0.275855,1.199105,-0.252855,1.215105,-0.252572,1.215287,-0.227572,1.230287,-0.227443,1.230363,-0.202443,1.244363,-0.202095,1.244540,-0.176095,1.256540,-0.175886,1.256630,
-0.148886,1.267630,-0.148737,1.267689,-0.121737,1.277689,-0.121374,1.277808,-0.093374,1.285808,-0.093213,1.285851,-0.065213,1.292851,-0.064879,1.292922,-0.036879,1.297922,-0.036683,1.297953,-0.007683,1.301953,-0.007356,1.301987,0.020644,1.303987,0.020828,1.303997,0.049828,1.304997,0.050172,1.304997,0.079172,1.303997,0.079172,1.303997,$1*%
G04 Aperture macros list end*
%TA.AperFunction,ComponentPad*%
%ADD10C,0.750000*%
%TD*%
%TA.AperFunction,ComponentPad*%
%ADD11FreePoly0,90.000000*%
%TD*%
%TA.AperFunction,ComponentPad*%
%ADD12FreePoly1,90.000000*%
%TD*%
%TA.AperFunction,ComponentPad*%
%ADD13O,2.300000X1.200000*%
%TD*%
%TA.AperFunction,ComponentPad*%
%ADD14RoundRect,0.250000X-0.750000X0.750000X-0.750000X-0.750000X0.750000X-0.750000X0.750000X0.750000X0*%
%TD*%
%TA.AperFunction,ComponentPad*%
%ADD15C,2.000000*%
%TD*%
%TA.AperFunction,ComponentPad*%
%ADD16C,0.499999*%
%TD*%
%TA.AperFunction,HeatsinkPad*%
%ADD17C,0.600000*%
%TD*%
%TA.AperFunction,ViaPad*%
%ADD18C,0.500000*%
%TD*%
%TA.AperFunction,ViaPad*%
%ADD19C,0.600000*%
%TD*%
G04 APERTURE END LIST*
D10*
%TO.N,unconnected-(J4-MID_PLATE-PadMID1)_1*%
%TO.C,J4*%
X144256000Y-122392000D03*
%TO.N,unconnected-(J4-MID_PLATE-PadMID1)*%
X144256000Y-115752000D03*
D11*
%TO.N,/SHIELD1*%
X143681000Y-123692000D03*
D12*
X143681000Y-114452000D03*
D13*
X147231000Y-123392000D03*
X147231000Y-114752000D03*
%TD*%
D14*
%TO.N,unconnected-(J5-Pin_1-Pad1)*%
%TO.C,J5*%
X69590068Y-113118000D03*
D15*
%TO.N,/CAP_SHIELD*%
X69590068Y-115658000D03*
%TD*%
D14*
%TO.N,Net-(J6-Pin_1)*%
%TO.C,J6*%
X69575818Y-126492000D03*
D15*
%TO.N,GND*%
X69575818Y-129032000D03*
%TD*%
D16*
%TO.N,GND*%
%TO.C,U7*%
X81596002Y-123190000D03*
X81946001Y-122439999D03*
X81946001Y-123940001D03*
X82296000Y-123190000D03*
%TD*%
D17*
%TO.N,GND*%
%TO.C,U9*%
X130744250Y-96672500D03*
X130744250Y-97772500D03*
X131294250Y-96122500D03*
X131294250Y-97222500D03*
X131294250Y-98322500D03*
X131844250Y-96672500D03*
X131844250Y-97772500D03*
X132394250Y-96122500D03*
X132394250Y-97222500D03*
X132394250Y-98322500D03*
X132944250Y-96672500D03*
X132944250Y-97772500D03*
%TD*%
D14*
%TO.N,Net-(J7-Pin_1)*%
%TO.C,J7*%
X69604318Y-119805000D03*
D15*
%TO.N,GND*%
X69604318Y-122345000D03*
%TD*%
D18*
%TO.N,GND*%
X92456000Y-129540000D03*
X117094000Y-119634000D03*
X140716000Y-113792000D03*
X74676000Y-91440000D03*
X118364000Y-119634000D03*
X85378000Y-87884000D03*
X145034000Y-100838000D03*
X109100000Y-121800000D03*
X113030000Y-130302000D03*
X67056000Y-99060000D03*
X143510000Y-102108000D03*
X100076000Y-119380000D03*
X125730000Y-112268000D03*
X72136000Y-121920000D03*
X134620000Y-102108000D03*
X96236000Y-112746000D03*
X100076000Y-121920000D03*
X94686500Y-114498500D03*
X83003000Y-87376000D03*
X136398000Y-99822000D03*
X129286000Y-101854000D03*
X124460000Y-111252000D03*
X82296000Y-111760000D03*
X132080000Y-102108000D03*
X135382000Y-129794000D03*
X101480000Y-86868000D03*
X101346000Y-124460000D03*
X87376000Y-99060000D03*
X101346000Y-127000000D03*
X145796000Y-130302000D03*
X126238000Y-130302000D03*
X92456000Y-116840000D03*
X125730000Y-109982000D03*
X112776000Y-126746000D03*
X126492000Y-126746000D03*
X87757000Y-114681000D03*
X109100000Y-123600000D03*
X146558000Y-102108000D03*
X111327140Y-112924146D03*
X121066500Y-111922500D03*
X118110000Y-111506000D03*
X114046000Y-102362000D03*
X82296000Y-91440000D03*
X108966000Y-109728000D03*
X142500000Y-122500000D03*
X79756000Y-86360000D03*
X117856000Y-113792000D03*
X142250000Y-115750000D03*
X132842000Y-130556000D03*
X137160000Y-121412000D03*
X125984000Y-119777000D03*
X148500000Y-126910000D03*
X84328000Y-116648500D03*
X77216000Y-86360000D03*
X123952000Y-114951000D03*
X140970000Y-106172000D03*
X126238000Y-123698000D03*
X131872516Y-119007340D03*
X87376000Y-101600000D03*
X67056000Y-104140000D03*
X137922000Y-108966000D03*
X89916000Y-104140000D03*
X128270000Y-98044000D03*
X108816000Y-113792000D03*
X143764000Y-92710000D03*
X107442000Y-99060000D03*
X87376000Y-129540000D03*
X85378000Y-92964000D03*
X109100000Y-124200000D03*
X143510000Y-100838000D03*
X148500000Y-111162000D03*
X134874000Y-97536000D03*
X108966000Y-107950000D03*
X116302500Y-93218000D03*
X123190000Y-126746000D03*
X94996000Y-119380000D03*
X84836000Y-101600000D03*
X108722500Y-92953500D03*
X146812000Y-93980000D03*
X144071500Y-128470500D03*
X137772815Y-123134000D03*
X128016000Y-100330000D03*
X92456000Y-121920000D03*
X87376000Y-111760000D03*
X101346000Y-117348000D03*
X110236000Y-88900000D03*
X130810000Y-100076000D03*
X137160000Y-129540000D03*
X82296000Y-86360000D03*
X89916000Y-99060000D03*
X71628000Y-87884000D03*
X82296000Y-93980000D03*
X82296000Y-109220000D03*
X98736000Y-111912635D03*
X137668000Y-110236000D03*
X94996000Y-127000000D03*
X146812000Y-92710000D03*
X105156000Y-119380000D03*
X147320000Y-129794000D03*
X143764000Y-93980000D03*
X87376000Y-109220000D03*
X84836000Y-111760000D03*
X74676000Y-96520000D03*
X135382000Y-110236000D03*
X109100000Y-123000000D03*
X101480000Y-90932000D03*
X105156000Y-86360000D03*
X134366000Y-108966000D03*
X79756000Y-129540000D03*
X145288000Y-93980000D03*
X69596000Y-101600000D03*
X133350000Y-100076000D03*
X87376000Y-104140000D03*
X74676000Y-121920000D03*
X74676000Y-124460000D03*
X123444000Y-130302000D03*
X108966000Y-112014000D03*
X113284000Y-109982000D03*
X139700000Y-108966000D03*
X124172000Y-121047000D03*
X125984000Y-116475000D03*
X146558000Y-100838000D03*
X124968000Y-125222000D03*
X112776000Y-123444000D03*
X87376000Y-96520000D03*
X117348000Y-100838000D03*
X114046000Y-100838000D03*
X77216000Y-109220000D03*
X117672000Y-118960000D03*
X137414000Y-126492000D03*
X127508000Y-105664000D03*
X136652000Y-120396000D03*
X95480000Y-90932000D03*
X119888000Y-110490000D03*
X82296000Y-96520000D03*
X74676000Y-129540000D03*
X97536000Y-124460000D03*
X106934000Y-129032000D03*
X72136000Y-124460000D03*
X145542000Y-110744000D03*
X112776000Y-86360000D03*
X89916000Y-86360000D03*
X95480000Y-86614000D03*
X143510000Y-130810000D03*
X138176000Y-112014000D03*
X100076000Y-129540000D03*
X127762000Y-129032000D03*
X145066000Y-95282000D03*
X74676000Y-86360000D03*
X122682000Y-115967000D03*
X69596000Y-106680000D03*
D19*
X67056000Y-88900000D03*
D18*
X69596000Y-86360000D03*
X145034000Y-102108000D03*
X145288000Y-92710000D03*
X71628000Y-92964000D03*
X120904000Y-103124000D03*
X142748000Y-110744000D03*
X111252000Y-108204000D03*
X80803000Y-87376000D03*
X124172000Y-119015000D03*
X74676000Y-93980000D03*
X84836000Y-127000000D03*
X130048000Y-120793000D03*
X106934000Y-127000000D03*
X130048000Y-130556000D03*
X118364000Y-118237000D03*
X145542000Y-128778000D03*
X111252000Y-110998000D03*
X82296000Y-129540000D03*
X111252000Y-121031000D03*
X109100000Y-122400000D03*
X124968000Y-128270000D03*
X89916000Y-119380000D03*
X69596000Y-109220000D03*
X117348000Y-102362000D03*
X130550500Y-110490000D03*
X105156000Y-91440000D03*
X85365500Y-124735500D03*
X117094000Y-118237000D03*
X82296000Y-119380000D03*
X90401116Y-125600296D03*
X72136000Y-109220000D03*
%TO.N,/SHIELD1*%
X139000000Y-121250000D03*
%TO.N,+3V3*%
X107000000Y-110400000D03*
X100600000Y-110300000D03*
X73422000Y-102362000D03*
X101400000Y-108800000D03*
X106200000Y-110400000D03*
X129540000Y-113538000D03*
X100600000Y-108800000D03*
X75303000Y-87511000D03*
X113157000Y-93091000D03*
X147955000Y-106680000D03*
X101400000Y-109600000D03*
X120904000Y-91022500D03*
X67818000Y-95385000D03*
X84328000Y-114698500D03*
X107000000Y-109600000D03*
X135250000Y-117643000D03*
X106200000Y-109600000D03*
X116602000Y-107696000D03*
X84201000Y-123444000D03*
X83296000Y-102362000D03*
X100600000Y-109600000D03*
X145066000Y-99282000D03*
X128016000Y-126492000D03*
X88480000Y-91440000D03*
X106200000Y-108800000D03*
X78603000Y-87493000D03*
X101400000Y-110300000D03*
X107000000Y-108800000D03*
%TO.N,VBUS*%
X144462000Y-117538000D03*
X139000000Y-125000000D03*
X139750000Y-125000000D03*
X132588000Y-116459000D03*
X140500000Y-125000000D03*
X138750000Y-118000000D03*
X144907000Y-117983000D03*
X141250000Y-125000000D03*
X144907000Y-120015000D03*
X144461000Y-120461000D03*
%TO.N,/+5V_USB*%
X140500000Y-130500000D03*
X139000000Y-130500000D03*
X139750000Y-130500000D03*
X117602000Y-116168238D03*
X141250000Y-130500000D03*
X114800000Y-118400000D03*
X116800000Y-130485000D03*
X119000000Y-130485000D03*
X114860000Y-119460000D03*
%TO.N,/BOOT*%
X120981500Y-101522500D03*
X98552000Y-96012000D03*
%TO.N,/EN*%
X92688500Y-96012000D03*
X120904000Y-92710000D03*
%TO.N,/VBAT*%
X105000000Y-123600000D03*
X105000000Y-124200000D03*
X105000000Y-123000000D03*
X105000000Y-121800000D03*
X119600000Y-117000000D03*
X105000000Y-122400000D03*
%TO.N,/RTS*%
X132842000Y-122063000D03*
X101092000Y-97298000D03*
%TO.N,/DTS*%
X131826000Y-120793000D03*
X95250000Y-97298000D03*
%TO.N,/MISO_DO*%
X103886000Y-99314000D03*
X138176000Y-93980000D03*
%TO.N,/I2C_SCL*%
X119380000Y-108926000D03*
X87884000Y-116586000D03*
%TO.N,/I2C_SDA*%
X87884000Y-115824000D03*
X119380000Y-106426000D03*
%TO.N,/USR_LED2*%
X142423886Y-104348684D03*
D19*
X140989866Y-91113937D03*
D18*
%TO.N,/USR_LED1*%
X141322500Y-107950000D03*
X123243500Y-100022500D03*
%TO.N,/CS*%
X107442000Y-95250000D03*
X138522500Y-103022500D03*
%TD*%
%TA.AperFunction,Conductor*%
%TO.N,GND*%
G36*
X116443039Y-84340185D02*
G01*
X116488794Y-84392989D01*
X116500000Y-84444500D01*
X116500000Y-90500000D01*
X120122512Y-90500000D01*
X120189551Y-90519685D01*
X120235306Y-90572489D01*
X120245250Y-90641647D01*
X120237073Y-90671452D01*
X120182343Y-90803582D01*
X120182340Y-90803592D01*
X120153500Y-90948579D01*
X120153500Y-90948582D01*
X120153500Y-91096418D01*
X120153500Y-91096420D01*
X120153499Y-91096420D01*
X120182340Y-91241407D01*
X120182343Y-91241417D01*
X120238912Y-91377988D01*
X120238919Y-91378001D01*
X120321048Y-91500915D01*
X120321051Y-91500919D01*
X120425580Y-91605448D01*
X120425584Y-91605451D01*
X120548498Y-91687580D01*
X120548511Y-91687587D01*
X120664723Y-91735723D01*
X120685087Y-91744158D01*
X120685891Y-91744317D01*
X120687473Y-91744633D01*
X120688604Y-91745224D01*
X120690919Y-91745927D01*
X120690785Y-91746365D01*
X120749384Y-91777019D01*
X120783958Y-91837735D01*
X120780217Y-91907504D01*
X120739350Y-91964176D01*
X120690844Y-91986327D01*
X120690919Y-91986573D01*
X120689094Y-91987126D01*
X120687473Y-91987867D01*
X120685093Y-91988340D01*
X120685082Y-91988343D01*
X120548511Y-92044912D01*
X120548498Y-92044919D01*
X120425584Y-92127048D01*
X120425580Y-92127051D01*
X120321051Y-92231580D01*
X120321048Y-92231584D01*
X120238919Y-92354498D01*
X120238912Y-92354511D01*
X120182343Y-92491082D01*
X120182340Y-92491092D01*
X120153500Y-92636079D01*
X120153500Y-92636082D01*
X120153500Y-92783918D01*
X120153500Y-92783920D01*
X120153499Y-92783920D01*
X120182340Y-92928907D01*
X120182343Y-92928917D01*
X120238912Y-93065488D01*
X120238919Y-93065501D01*
X120321048Y-93188415D01*
X120321051Y-93188419D01*
X120425580Y-93292948D01*
X120425584Y-93292951D01*
X120548498Y-93375080D01*
X120548511Y-93375087D01*
X120685082Y-93431656D01*
X120685087Y-93431658D01*
X120685091Y-93431658D01*
X120685092Y-93431659D01*
X120830079Y-93460500D01*
X120830082Y-93460500D01*
X120977920Y-93460500D01*
X121075462Y-93441096D01*
X121122913Y-93431658D01*
X121259495Y-93375084D01*
X121382416Y-93292951D01*
X121486951Y-93188416D01*
X121569084Y-93065495D01*
X121625658Y-92928913D01*
X121654500Y-92783918D01*
X121654500Y-92636082D01*
X121654500Y-92636079D01*
X121625659Y-92491092D01*
X121625658Y-92491091D01*
X121625658Y-92491087D01*
X121598665Y-92425919D01*
X121569087Y-92354511D01*
X121569080Y-92354498D01*
X121486951Y-92231584D01*
X121486948Y-92231580D01*
X121382419Y-92127051D01*
X121382415Y-92127048D01*
X121259501Y-92044919D01*
X121259488Y-92044912D01*
X121122917Y-91988343D01*
X121122914Y-91988342D01*
X121122144Y-91988189D01*
X121120526Y-91987867D01*
X121119393Y-91987274D01*
X121117081Y-91986573D01*
X121117214Y-91986134D01*
X121058617Y-91955483D01*
X121024042Y-91894768D01*
X121027781Y-91824999D01*
X121068646Y-91768326D01*
X121117155Y-91746172D01*
X121117081Y-91745927D01*
X121118902Y-91745374D01*
X121120526Y-91744632D01*
X121122913Y-91744158D01*
X121259495Y-91687584D01*
X121382416Y-91605451D01*
X121486951Y-91500916D01*
X121569084Y-91377995D01*
X121625658Y-91241413D01*
X121654500Y-91096418D01*
X121654500Y-90948582D01*
X121654500Y-90948579D01*
X121625659Y-90803592D01*
X121625658Y-90803591D01*
X121625658Y-90803587D01*
X121625656Y-90803582D01*
X121570927Y-90671452D01*
X121563458Y-90601983D01*
X121594734Y-90539504D01*
X121654823Y-90503852D01*
X121685488Y-90500000D01*
X140205344Y-90500000D01*
X140272383Y-90519685D01*
X140318138Y-90572489D01*
X140328082Y-90641647D01*
X140308446Y-90692891D01*
X140280475Y-90734751D01*
X140280468Y-90734764D01*
X140220130Y-90880435D01*
X140220127Y-90880447D01*
X140189366Y-91035090D01*
X140189366Y-91192783D01*
X140220127Y-91347426D01*
X140220130Y-91347438D01*
X140280468Y-91493109D01*
X140280475Y-91493122D01*
X140368076Y-91624225D01*
X140368079Y-91624229D01*
X140479573Y-91735723D01*
X140479577Y-91735726D01*
X140610680Y-91823327D01*
X140610693Y-91823334D01*
X140756364Y-91883672D01*
X140756369Y-91883674D01*
X140876170Y-91907504D01*
X140911019Y-91914436D01*
X140911022Y-91914437D01*
X140911024Y-91914437D01*
X141068710Y-91914437D01*
X141068711Y-91914436D01*
X141223363Y-91883674D01*
X141369045Y-91823331D01*
X141500155Y-91735726D01*
X141611655Y-91624226D01*
X141699260Y-91493116D01*
X141759603Y-91347434D01*
X141790366Y-91192779D01*
X141790366Y-91035095D01*
X141790366Y-91035092D01*
X141790365Y-91035090D01*
X141759603Y-90880440D01*
X141715894Y-90774916D01*
X141699263Y-90734764D01*
X141699256Y-90734751D01*
X141671286Y-90692891D01*
X141650408Y-90626213D01*
X141668893Y-90558833D01*
X141720871Y-90512143D01*
X141774388Y-90500000D01*
X145500000Y-90500000D01*
X145500000Y-84444500D01*
X145519685Y-84377461D01*
X145572489Y-84331706D01*
X145624000Y-84320500D01*
X147254108Y-84320500D01*
X147315933Y-84320500D01*
X147324042Y-84320765D01*
X147346774Y-84322254D01*
X147578114Y-84337417D01*
X147594172Y-84339532D01*
X147839888Y-84388408D01*
X147855554Y-84392606D01*
X148006736Y-84443925D01*
X148092788Y-84473136D01*
X148107765Y-84479339D01*
X148325336Y-84586633D01*
X148332460Y-84590146D01*
X148346508Y-84598256D01*
X148554815Y-84737443D01*
X148567679Y-84747314D01*
X148756033Y-84912497D01*
X148767502Y-84923966D01*
X148932685Y-85112320D01*
X148942559Y-85125188D01*
X149081743Y-85333492D01*
X149089853Y-85347539D01*
X149200657Y-85572227D01*
X149206864Y-85587213D01*
X149287393Y-85824445D01*
X149291591Y-85840111D01*
X149340465Y-86085813D01*
X149342583Y-86101895D01*
X149359235Y-86355956D01*
X149359500Y-86364066D01*
X149359500Y-129535933D01*
X149359235Y-129544043D01*
X149342583Y-129798104D01*
X149340465Y-129814186D01*
X149291591Y-130059888D01*
X149287393Y-130075554D01*
X149206864Y-130312786D01*
X149200657Y-130327772D01*
X149089853Y-130552460D01*
X149081743Y-130566507D01*
X148942559Y-130774811D01*
X148932685Y-130787679D01*
X148767502Y-130976033D01*
X148756033Y-130987502D01*
X148567679Y-131152685D01*
X148554811Y-131162559D01*
X148346507Y-131301743D01*
X148332460Y-131309853D01*
X148107772Y-131420657D01*
X148092786Y-131426864D01*
X147855554Y-131507393D01*
X147839888Y-131511591D01*
X147594186Y-131560465D01*
X147578104Y-131562583D01*
X147324043Y-131579235D01*
X147315933Y-131579500D01*
X65140500Y-131579500D01*
X65073461Y-131559815D01*
X65027706Y-131507011D01*
X65016500Y-131455500D01*
X65016500Y-130558920D01*
X116049499Y-130558920D01*
X116078340Y-130703907D01*
X116078343Y-130703917D01*
X116134912Y-130840488D01*
X116134919Y-130840501D01*
X116217048Y-130963415D01*
X116217051Y-130963419D01*
X116321580Y-131067948D01*
X116321584Y-131067951D01*
X116444498Y-131150080D01*
X116444511Y-131150087D01*
X116490633Y-131169191D01*
X116581087Y-131206658D01*
X116581091Y-131206658D01*
X116581092Y-131206659D01*
X116726079Y-131235500D01*
X116726082Y-131235500D01*
X116873920Y-131235500D01*
X116971462Y-131216096D01*
X117018913Y-131206658D01*
X117155495Y-131150084D01*
X117278416Y-131067951D01*
X117382951Y-130963416D01*
X117465084Y-130840495D01*
X117521658Y-130703913D01*
X117547516Y-130573920D01*
X117550500Y-130558920D01*
X118249499Y-130558920D01*
X118278340Y-130703907D01*
X118278343Y-130703917D01*
X118334912Y-130840488D01*
X118334919Y-130840501D01*
X118417048Y-130963415D01*
X118417051Y-130963419D01*
X118521580Y-131067948D01*
X118521584Y-131067951D01*
X118644498Y-131150080D01*
X118644511Y-131150087D01*
X118690633Y-131169191D01*
X118781087Y-131206658D01*
X118781091Y-131206658D01*
X118781092Y-131206659D01*
X118926079Y-131235500D01*
X118926082Y-131235500D01*
X119073920Y-131235500D01*
X119171462Y-131216096D01*
X119218913Y-131206658D01*
X119355495Y-131150084D01*
X119478416Y-131067951D01*
X119582951Y-130963416D01*
X119665084Y-130840495D01*
X119721658Y-130703913D01*
X119747516Y-130573920D01*
X138249499Y-130573920D01*
X138278340Y-130718907D01*
X138278343Y-130718917D01*
X138334912Y-130855488D01*
X138334919Y-130855501D01*
X138417048Y-130978415D01*
X138417051Y-130978419D01*
X138521580Y-131082948D01*
X138521584Y-131082951D01*
X138644498Y-131165080D01*
X138644511Y-131165087D01*
X138744876Y-131206659D01*
X138781087Y-131221658D01*
X138781091Y-131221658D01*
X138781092Y-131221659D01*
X138926079Y-131250500D01*
X138926082Y-131250500D01*
X139073920Y-131250500D01*
X139171462Y-131231096D01*
X139218913Y-131221658D01*
X139327548Y-131176659D01*
X139397016Y-131169191D01*
X139422449Y-131176658D01*
X139531087Y-131221658D01*
X139531091Y-131221658D01*
X139531092Y-131221659D01*
X139676079Y-131250500D01*
X139676082Y-131250500D01*
X139823920Y-131250500D01*
X139921462Y-131231096D01*
X139968913Y-131221658D01*
X140077548Y-131176659D01*
X140147016Y-131169191D01*
X140172449Y-131176658D01*
X140281087Y-131221658D01*
X140281091Y-131221658D01*
X140281092Y-131221659D01*
X140426079Y-131250500D01*
X140426082Y-131250500D01*
X140573920Y-131250500D01*
X140671462Y-131231096D01*
X140718913Y-131221658D01*
X140827548Y-131176659D01*
X140897016Y-131169191D01*
X140922449Y-131176658D01*
X141031087Y-131221658D01*
X141031091Y-131221658D01*
X141031092Y-131221659D01*
X141176079Y-131250500D01*
X141176082Y-131250500D01*
X141323920Y-131250500D01*
X141421462Y-131231096D01*
X141468913Y-131221658D01*
X141605495Y-131165084D01*
X141728416Y-131082951D01*
X141832951Y-130978416D01*
X141915084Y-130855495D01*
X141971658Y-130718913D01*
X142000500Y-130573918D01*
X142000500Y-130426082D01*
X142000500Y-130426079D01*
X141971659Y-130281092D01*
X141971658Y-130281091D01*
X141971658Y-130281087D01*
X141960711Y-130254658D01*
X141915087Y-130144511D01*
X141915080Y-130144498D01*
X141832951Y-130021584D01*
X141832948Y-130021580D01*
X141728419Y-129917051D01*
X141728415Y-129917048D01*
X141605501Y-129834919D01*
X141605488Y-129834912D01*
X141468917Y-129778343D01*
X141468907Y-129778340D01*
X141323920Y-129749500D01*
X141323918Y-129749500D01*
X141176082Y-129749500D01*
X141176080Y-129749500D01*
X141031092Y-129778340D01*
X141031082Y-129778343D01*
X140922452Y-129823339D01*
X140852983Y-129830808D01*
X140827548Y-129823339D01*
X140718917Y-129778343D01*
X140718907Y-129778340D01*
X140573920Y-129749500D01*
X140573918Y-129749500D01*
X140426082Y-129749500D01*
X140426080Y-129749500D01*
X140281092Y-129778340D01*
X140281082Y-129778343D01*
X140172452Y-129823339D01*
X140102983Y-129830808D01*
X140077548Y-129823339D01*
X139968917Y-129778343D01*
X139968907Y-129778340D01*
X139823920Y-129749500D01*
X139823918Y-129749500D01*
X139676082Y-129749500D01*
X139676080Y-129749500D01*
X139531092Y-129778340D01*
X139531082Y-129778343D01*
X139422452Y-129823339D01*
X139352983Y-129830808D01*
X139327548Y-129823339D01*
X139218917Y-129778343D01*
X139218907Y-129778340D01*
X139073920Y-129749500D01*
X139073918Y-129749500D01*
X138926082Y-129749500D01*
X138926080Y-129749500D01*
X138781092Y-129778340D01*
X138781082Y-129778343D01*
X138644511Y-129834912D01*
X138644498Y-129834919D01*
X138521584Y-129917048D01*
X138521580Y-129917051D01*
X138417051Y-130021580D01*
X138417048Y-130021584D01*
X138334919Y-130144498D01*
X138334912Y-130144511D01*
X138278343Y-130281082D01*
X138278340Y-130281092D01*
X138249500Y-130426079D01*
X138249500Y-130426082D01*
X138249500Y-130573918D01*
X138249500Y-130573920D01*
X138249499Y-130573920D01*
X119747516Y-130573920D01*
X119750500Y-130558920D01*
X119750500Y-130411079D01*
X119721659Y-130266092D01*
X119721658Y-130266091D01*
X119721658Y-130266087D01*
X119671300Y-130144511D01*
X119665087Y-130129511D01*
X119665080Y-130129498D01*
X119582951Y-130006584D01*
X119582948Y-130006580D01*
X119478419Y-129902051D01*
X119478415Y-129902048D01*
X119355501Y-129819919D01*
X119355488Y-129819912D01*
X119218917Y-129763343D01*
X119218907Y-129763340D01*
X119073920Y-129734500D01*
X119073918Y-129734500D01*
X118926082Y-129734500D01*
X118926080Y-129734500D01*
X118781092Y-129763340D01*
X118781082Y-129763343D01*
X118644511Y-129819912D01*
X118644498Y-129819919D01*
X118521584Y-129902048D01*
X118521580Y-129902051D01*
X118417051Y-130006580D01*
X118417048Y-130006584D01*
X118334919Y-130129498D01*
X118334912Y-130129511D01*
X118278343Y-130266082D01*
X118278340Y-130266092D01*
X118249500Y-130411079D01*
X118249500Y-130411082D01*
X118249500Y-130558918D01*
X118249500Y-130558920D01*
X118249499Y-130558920D01*
X117550500Y-130558920D01*
X117550500Y-130411079D01*
X117521659Y-130266092D01*
X117521658Y-130266091D01*
X117521658Y-130266087D01*
X117471300Y-130144511D01*
X117465087Y-130129511D01*
X117465080Y-130129498D01*
X117382951Y-130006584D01*
X117382948Y-130006580D01*
X117278419Y-129902051D01*
X117278415Y-129902048D01*
X117155501Y-129819919D01*
X117155488Y-129819912D01*
X117018917Y-129763343D01*
X117018907Y-129763340D01*
X116873920Y-129734500D01*
X116873918Y-129734500D01*
X116726082Y-129734500D01*
X116726080Y-129734500D01*
X116581092Y-129763340D01*
X116581082Y-129763343D01*
X116444511Y-129819912D01*
X116444498Y-129819919D01*
X116321584Y-129902048D01*
X116321580Y-129902051D01*
X116217051Y-130006580D01*
X116217048Y-130006584D01*
X116134919Y-130129498D01*
X116134912Y-130129511D01*
X116078343Y-130266082D01*
X116078340Y-130266092D01*
X116049500Y-130411079D01*
X116049500Y-130411082D01*
X116049500Y-130558918D01*
X116049500Y-130558920D01*
X116049499Y-130558920D01*
X65016500Y-130558920D01*
X65016500Y-125691983D01*
X68075318Y-125691983D01*
X68075318Y-127292001D01*
X68075319Y-127292018D01*
X68085818Y-127394796D01*
X68085819Y-127394799D01*
X68141003Y-127561331D01*
X68141004Y-127561334D01*
X68233106Y-127710656D01*
X68357162Y-127834712D01*
X68506484Y-127926814D01*
X68673021Y-127981999D01*
X68775809Y-127992500D01*
X68838510Y-127992499D01*
X68905547Y-128012183D01*
X68926190Y-128028818D01*
X69364759Y-128467387D01*
X69344227Y-128472889D01*
X69207410Y-128551881D01*
X69095699Y-128663592D01*
X69016707Y-128800409D01*
X69011205Y-128820941D01*
X68353158Y-128162894D01*
X68292902Y-128245830D01*
X68185715Y-128456197D01*
X68112752Y-128680752D01*
X68075818Y-128913947D01*
X68075818Y-129150052D01*
X68112752Y-129383247D01*
X68185715Y-129607802D01*
X68292905Y-129818174D01*
X68353156Y-129901104D01*
X68353158Y-129901105D01*
X69011205Y-129243058D01*
X69016707Y-129263591D01*
X69095699Y-129400408D01*
X69207410Y-129512119D01*
X69344227Y-129591111D01*
X69364758Y-129596612D01*
X68706711Y-130254658D01*
X68789646Y-130314914D01*
X69000015Y-130422102D01*
X69224570Y-130495065D01*
X69224569Y-130495065D01*
X69457766Y-130532000D01*
X69693870Y-130532000D01*
X69927065Y-130495065D01*
X70151620Y-130422102D01*
X70361981Y-130314918D01*
X70361994Y-130314910D01*
X70376082Y-130304675D01*
X70376086Y-130304672D01*
X70444922Y-130254658D01*
X70444923Y-130254658D01*
X69786876Y-129596612D01*
X69807409Y-129591111D01*
X69944226Y-129512119D01*
X70055937Y-129400408D01*
X70134929Y-129263591D01*
X70140430Y-129243059D01*
X70798476Y-129901105D01*
X70798476Y-129901104D01*
X70858732Y-129818169D01*
X70858736Y-129818163D01*
X70965920Y-129607802D01*
X71038883Y-129383247D01*
X71075818Y-129150052D01*
X71075818Y-128913947D01*
X71038883Y-128680752D01*
X70965920Y-128456197D01*
X70858732Y-128245828D01*
X70798476Y-128162894D01*
X70798476Y-128162893D01*
X70140430Y-128820940D01*
X70134929Y-128800409D01*
X70055937Y-128663592D01*
X69944226Y-128551881D01*
X69807409Y-128472889D01*
X69786876Y-128467387D01*
X70225445Y-128028818D01*
X70286768Y-127995333D01*
X70313125Y-127992499D01*
X70375826Y-127992499D01*
X70478615Y-127981999D01*
X70645152Y-127926814D01*
X70794474Y-127834712D01*
X70918530Y-127710656D01*
X71010632Y-127561334D01*
X71065817Y-127394797D01*
X71076318Y-127292009D01*
X71076318Y-126565920D01*
X127265499Y-126565920D01*
X127294340Y-126710907D01*
X127294343Y-126710917D01*
X127350912Y-126847488D01*
X127350919Y-126847501D01*
X127433048Y-126970415D01*
X127433051Y-126970419D01*
X127537580Y-127074948D01*
X127537584Y-127074951D01*
X127660498Y-127157080D01*
X127660511Y-127157087D01*
X127797082Y-127213656D01*
X127797087Y-127213658D01*
X127797091Y-127213658D01*
X127797092Y-127213659D01*
X127942079Y-127242500D01*
X127942082Y-127242500D01*
X128089920Y-127242500D01*
X128187462Y-127223096D01*
X128234913Y-127213658D01*
X128371495Y-127157084D01*
X128494416Y-127074951D01*
X128598951Y-126970416D01*
X128681084Y-126847495D01*
X128737658Y-126710913D01*
X128766500Y-126565918D01*
X128766500Y-126418082D01*
X128766500Y-126418079D01*
X128737659Y-126273092D01*
X128737658Y-126273091D01*
X128737658Y-126273087D01*
X128737656Y-126273082D01*
X128681087Y-126136511D01*
X128681080Y-126136498D01*
X128598951Y-126013584D01*
X128598948Y-126013580D01*
X128494419Y-125909051D01*
X128494415Y-125909048D01*
X128371501Y-125826919D01*
X128371488Y-125826912D01*
X128234917Y-125770343D01*
X128234907Y-125770340D01*
X128089920Y-125741500D01*
X128089918Y-125741500D01*
X127942082Y-125741500D01*
X127942080Y-125741500D01*
X127797092Y-125770340D01*
X127797082Y-125770343D01*
X127660511Y-125826912D01*
X127660498Y-125826919D01*
X127537584Y-125909048D01*
X127537580Y-125909051D01*
X127433051Y-126013580D01*
X127433048Y-126013584D01*
X127350919Y-126136498D01*
X127350912Y-126136511D01*
X127294343Y-126273082D01*
X127294340Y-126273092D01*
X127265500Y-126418079D01*
X127265500Y-126418082D01*
X127265500Y-126565918D01*
X127265500Y-126565920D01*
X127265499Y-126565920D01*
X71076318Y-126565920D01*
X71076317Y-125691992D01*
X71065817Y-125589203D01*
X71010632Y-125422666D01*
X70918530Y-125273344D01*
X70794474Y-125149288D01*
X70672282Y-125073920D01*
X138249499Y-125073920D01*
X138278340Y-125218907D01*
X138278343Y-125218917D01*
X138334912Y-125355488D01*
X138334919Y-125355501D01*
X138417048Y-125478415D01*
X138417051Y-125478419D01*
X138521580Y-125582948D01*
X138521584Y-125582951D01*
X138644498Y-125665080D01*
X138644511Y-125665087D01*
X138709481Y-125691998D01*
X138781087Y-125721658D01*
X138781091Y-125721658D01*
X138781092Y-125721659D01*
X138926079Y-125750500D01*
X138926082Y-125750500D01*
X139073920Y-125750500D01*
X139171462Y-125731096D01*
X139218913Y-125721658D01*
X139327548Y-125676659D01*
X139397016Y-125669191D01*
X139422449Y-125676658D01*
X139531087Y-125721658D01*
X139531091Y-125721658D01*
X139531092Y-125721659D01*
X139676079Y-125750500D01*
X139676082Y-125750500D01*
X139823920Y-125750500D01*
X139921462Y-125731096D01*
X139968913Y-125721658D01*
X140077548Y-125676659D01*
X140147016Y-125669191D01*
X140172449Y-125676658D01*
X140281087Y-125721658D01*
X140281091Y-125721658D01*
X140281092Y-125721659D01*
X140426079Y-125750500D01*
X140426082Y-125750500D01*
X140573920Y-125750500D01*
X140671462Y-125731096D01*
X140718913Y-125721658D01*
X140827548Y-125676659D01*
X140897016Y-125669191D01*
X140922449Y-125676658D01*
X141031087Y-125721658D01*
X141031091Y-125721658D01*
X141031092Y-125721659D01*
X141176079Y-125750500D01*
X141176082Y-125750500D01*
X141323920Y-125750500D01*
X141421462Y-125731096D01*
X141468913Y-125721658D01*
X141605495Y-125665084D01*
X141728416Y-125582951D01*
X141832951Y-125478416D01*
X141915084Y-125355495D01*
X141971658Y-125218913D01*
X141981096Y-125171462D01*
X142000500Y-125073920D01*
X142000500Y-124926079D01*
X141971659Y-124781092D01*
X141971658Y-124781091D01*
X141971658Y-124781087D01*
X141971656Y-124781082D01*
X141915087Y-124644511D01*
X141915080Y-124644498D01*
X141832951Y-124521584D01*
X141832948Y-124521580D01*
X141728419Y-124417051D01*
X141728415Y-124417048D01*
X141605501Y-124334919D01*
X141605488Y-124334912D01*
X141468917Y-124278343D01*
X141468907Y-124278340D01*
X141323920Y-124249500D01*
X141323918Y-124249500D01*
X141176082Y-124249500D01*
X141176080Y-124249500D01*
X141031092Y-124278340D01*
X141031082Y-124278343D01*
X140922452Y-124323339D01*
X140852983Y-124330808D01*
X140827548Y-124323339D01*
X140718917Y-124278343D01*
X140718907Y-124278340D01*
X140573920Y-124249500D01*
X140573918Y-124249500D01*
X140426082Y-124249500D01*
X140426080Y-124249500D01*
X140281092Y-124278340D01*
X140281082Y-124278343D01*
X140172452Y-124323339D01*
X140102983Y-124330808D01*
X140077548Y-124323339D01*
X139968917Y-124278343D01*
X139968907Y-124278340D01*
X139823920Y-124249500D01*
X139823918Y-124249500D01*
X139676082Y-124249500D01*
X139676080Y-124249500D01*
X139531092Y-124278340D01*
X139531082Y-124278343D01*
X139422452Y-124323339D01*
X139352983Y-124330808D01*
X139327548Y-124323339D01*
X139218917Y-124278343D01*
X139218907Y-124278340D01*
X139073920Y-124249500D01*
X139073918Y-124249500D01*
X138926082Y-124249500D01*
X138926080Y-124249500D01*
X138781092Y-124278340D01*
X138781082Y-124278343D01*
X138644511Y-124334912D01*
X138644498Y-124334919D01*
X138521584Y-124417048D01*
X138521580Y-124417051D01*
X138417051Y-124521580D01*
X138417048Y-124521584D01*
X138334919Y-124644498D01*
X138334912Y-124644511D01*
X138278343Y-124781082D01*
X138278340Y-124781092D01*
X138249500Y-124926079D01*
X138249500Y-124926082D01*
X138249500Y-125073918D01*
X138249500Y-125073920D01*
X138249499Y-125073920D01*
X70672282Y-125073920D01*
X70645152Y-125057186D01*
X70478615Y-125002001D01*
X70478613Y-125002000D01*
X70375828Y-124991500D01*
X68775816Y-124991500D01*
X68775799Y-124991501D01*
X68673021Y-125002000D01*
X68673018Y-125002001D01*
X68506486Y-125057185D01*
X68506481Y-125057187D01*
X68357160Y-125149289D01*
X68233107Y-125273342D01*
X68141005Y-125422663D01*
X68141003Y-125422668D01*
X68122530Y-125478416D01*
X68085819Y-125589203D01*
X68085819Y-125589204D01*
X68085818Y-125589204D01*
X68075318Y-125691983D01*
X65016500Y-125691983D01*
X65016500Y-124617577D01*
X81621974Y-124617577D01*
X81727233Y-124661177D01*
X81727241Y-124661179D01*
X81872128Y-124689999D01*
X81872132Y-124690000D01*
X82019870Y-124690000D01*
X82019873Y-124689999D01*
X82164760Y-124661179D01*
X82164768Y-124661177D01*
X82270026Y-124617577D01*
X81946002Y-124293553D01*
X81946001Y-124293553D01*
X81621974Y-124617577D01*
X65016500Y-124617577D01*
X65016500Y-119004983D01*
X68103818Y-119004983D01*
X68103818Y-120605001D01*
X68103819Y-120605018D01*
X68114318Y-120707796D01*
X68114319Y-120707799D01*
X68150338Y-120816495D01*
X68169504Y-120874334D01*
X68261606Y-121023656D01*
X68385662Y-121147712D01*
X68534984Y-121239814D01*
X68701521Y-121294999D01*
X68804309Y-121305500D01*
X68867010Y-121305499D01*
X68934047Y-121325183D01*
X68954690Y-121341818D01*
X69393259Y-121780387D01*
X69372727Y-121785889D01*
X69235910Y-121864881D01*
X69124199Y-121976592D01*
X69045207Y-122113409D01*
X69039705Y-122133941D01*
X68381658Y-121475894D01*
X68321402Y-121558830D01*
X68214215Y-121769197D01*
X68141252Y-121993752D01*
X68104318Y-122226947D01*
X68104318Y-122463052D01*
X68141252Y-122696247D01*
X68214215Y-122920802D01*
X68321405Y-123131174D01*
X68381656Y-123214104D01*
X68381658Y-123214105D01*
X69039705Y-122556058D01*
X69045207Y-122576591D01*
X69124199Y-122713408D01*
X69235910Y-122825119D01*
X69372727Y-122904111D01*
X69393258Y-122909612D01*
X68735211Y-123567658D01*
X68818146Y-123627914D01*
X69028515Y-123735102D01*
X69253070Y-123808065D01*
X69253069Y-123808065D01*
X69486266Y-123845000D01*
X69722370Y-123845000D01*
X69955565Y-123808065D01*
X70180120Y-123735102D01*
X70390481Y-123627918D01*
X70390487Y-123627914D01*
X70473422Y-123567658D01*
X70473423Y-123567658D01*
X69815376Y-122909612D01*
X69835909Y-122904111D01*
X69972726Y-122825119D01*
X70084437Y-122713408D01*
X70163429Y-122576591D01*
X70168930Y-122556059D01*
X70826976Y-123214105D01*
X70826976Y-123214104D01*
X70887232Y-123131169D01*
X70887239Y-123131158D01*
X70894898Y-123116127D01*
X80846003Y-123116127D01*
X80846003Y-123263872D01*
X80874822Y-123408759D01*
X80874825Y-123408768D01*
X80918423Y-123514024D01*
X81242450Y-123190000D01*
X80918424Y-122865974D01*
X80874824Y-122971236D01*
X80874822Y-122971240D01*
X80846003Y-123116127D01*
X70894898Y-123116127D01*
X70926683Y-123053746D01*
X70926683Y-123053745D01*
X70994420Y-122920802D01*
X71067383Y-122696247D01*
X71104318Y-122463052D01*
X71104318Y-122366126D01*
X81196002Y-122366126D01*
X81196002Y-122436448D01*
X81685097Y-122925543D01*
X81718582Y-122986866D01*
X81713598Y-123056558D01*
X81685097Y-123100905D01*
X81667844Y-123118158D01*
X81653554Y-123103868D01*
X81616211Y-123088400D01*
X81575793Y-123088400D01*
X81538450Y-123103868D01*
X81509870Y-123132448D01*
X81494402Y-123169791D01*
X81494402Y-123210209D01*
X81509870Y-123247552D01*
X81538450Y-123276132D01*
X81575793Y-123291600D01*
X81616211Y-123291600D01*
X81653554Y-123276132D01*
X81667844Y-123261842D01*
X81685097Y-123279095D01*
X81718582Y-123340418D01*
X81713598Y-123410110D01*
X81685097Y-123454457D01*
X81196002Y-123943551D01*
X81196002Y-124013873D01*
X81224821Y-124158760D01*
X81224824Y-124158769D01*
X81268422Y-124264025D01*
X81681543Y-123850905D01*
X81742866Y-123817420D01*
X81812557Y-123822404D01*
X81856905Y-123850905D01*
X81874159Y-123868159D01*
X81859869Y-123882449D01*
X81844401Y-123919792D01*
X81844401Y-123960210D01*
X81859869Y-123997553D01*
X81888449Y-124026133D01*
X81925792Y-124041601D01*
X81966210Y-124041601D01*
X82003553Y-124026133D01*
X82032133Y-123997553D01*
X82047601Y-123960210D01*
X82047601Y-123919792D01*
X82032133Y-123882449D01*
X82017842Y-123868158D01*
X82035094Y-123850906D01*
X82096417Y-123817421D01*
X82166109Y-123822405D01*
X82210457Y-123850906D01*
X82623577Y-124264026D01*
X82667177Y-124158768D01*
X82667179Y-124158760D01*
X82695999Y-124013873D01*
X82696000Y-124013870D01*
X82696000Y-123943552D01*
X82270368Y-123517920D01*
X83450499Y-123517920D01*
X83479340Y-123662907D01*
X83479343Y-123662917D01*
X83535912Y-123799488D01*
X83535919Y-123799501D01*
X83618048Y-123922415D01*
X83618051Y-123922419D01*
X83722580Y-124026948D01*
X83722584Y-124026951D01*
X83845498Y-124109080D01*
X83845511Y-124109087D01*
X83965453Y-124158768D01*
X83982087Y-124165658D01*
X83982091Y-124165658D01*
X83982092Y-124165659D01*
X84127079Y-124194500D01*
X84127082Y-124194500D01*
X84274920Y-124194500D01*
X84394872Y-124170639D01*
X84419913Y-124165658D01*
X84556495Y-124109084D01*
X84679416Y-124026951D01*
X84783951Y-123922416D01*
X84866084Y-123799495D01*
X84922658Y-123662913D01*
X84942059Y-123565380D01*
X84951500Y-123517920D01*
X84951500Y-123370079D01*
X84922659Y-123225092D01*
X84922658Y-123225091D01*
X84922658Y-123225087D01*
X84908124Y-123189999D01*
X84866087Y-123088511D01*
X84866080Y-123088498D01*
X84783951Y-122965584D01*
X84783948Y-122965580D01*
X84679419Y-122861051D01*
X84679415Y-122861048D01*
X84556501Y-122778919D01*
X84556488Y-122778912D01*
X84419917Y-122722343D01*
X84419907Y-122722340D01*
X84274920Y-122693500D01*
X84274918Y-122693500D01*
X84127082Y-122693500D01*
X84127080Y-122693500D01*
X83982092Y-122722340D01*
X83982082Y-122722343D01*
X83845511Y-122778912D01*
X83845498Y-122778919D01*
X83722584Y-122861048D01*
X83722580Y-122861051D01*
X83618051Y-122965580D01*
X83618048Y-122965584D01*
X83535919Y-123088498D01*
X83535912Y-123088511D01*
X83479343Y-123225082D01*
X83479340Y-123225092D01*
X83450500Y-123370079D01*
X83450500Y-123370082D01*
X83450500Y-123517918D01*
X83450500Y-123517920D01*
X83450499Y-123517920D01*
X82270368Y-123517920D01*
X82206905Y-123454457D01*
X82173420Y-123393134D01*
X82178404Y-123323442D01*
X82206905Y-123279095D01*
X82224158Y-123261842D01*
X82238448Y-123276132D01*
X82275791Y-123291600D01*
X82316209Y-123291600D01*
X82353552Y-123276132D01*
X82382132Y-123247552D01*
X82397600Y-123210209D01*
X82397600Y-123189999D01*
X82649552Y-123189999D01*
X82649552Y-123190001D01*
X82973576Y-123514025D01*
X83017176Y-123408767D01*
X83017178Y-123408759D01*
X83030896Y-123339799D01*
X83045998Y-123263872D01*
X83045999Y-123263869D01*
X83045999Y-123116131D01*
X83045998Y-123116127D01*
X83017178Y-122971240D01*
X83017176Y-122971232D01*
X82973576Y-122865973D01*
X82649552Y-123189999D01*
X82397600Y-123189999D01*
X82397600Y-123169791D01*
X82382132Y-123132448D01*
X82353552Y-123103868D01*
X82316209Y-123088400D01*
X82275791Y-123088400D01*
X82238448Y-123103868D01*
X82224158Y-123118158D01*
X82206905Y-123100905D01*
X82173420Y-123039582D01*
X82178404Y-122969890D01*
X82206905Y-122925543D01*
X82695999Y-122436448D01*
X82696000Y-122436447D01*
X82696000Y-122366130D01*
X82695999Y-122366126D01*
X82667179Y-122221239D01*
X82667177Y-122221231D01*
X82623577Y-122115972D01*
X82210457Y-122529093D01*
X82149134Y-122562578D01*
X82079442Y-122557594D01*
X82035095Y-122529093D01*
X82017843Y-122511841D01*
X82032133Y-122497551D01*
X82047601Y-122460208D01*
X82047601Y-122419790D01*
X82032133Y-122382447D01*
X82003553Y-122353867D01*
X81966210Y-122338399D01*
X81925792Y-122338399D01*
X81888449Y-122353867D01*
X81859869Y-122382447D01*
X81844401Y-122419790D01*
X81844401Y-122460208D01*
X81859869Y-122497551D01*
X81874159Y-122511841D01*
X81856906Y-122529094D01*
X81795583Y-122562579D01*
X81725891Y-122557595D01*
X81681544Y-122529094D01*
X81268423Y-122115973D01*
X81224823Y-122221235D01*
X81224821Y-122221239D01*
X81196002Y-122366126D01*
X71104318Y-122366126D01*
X71104318Y-122226947D01*
X71067383Y-121993751D01*
X71017931Y-121841553D01*
X70994420Y-121769195D01*
X70990968Y-121762421D01*
X81621975Y-121762421D01*
X81946001Y-122086447D01*
X81946002Y-122086447D01*
X82158528Y-121873920D01*
X104249499Y-121873920D01*
X104278340Y-122018907D01*
X104278342Y-122018913D01*
X104292274Y-122052549D01*
X104299741Y-122122019D01*
X104292274Y-122147451D01*
X104278342Y-122181086D01*
X104278340Y-122181092D01*
X104249500Y-122326079D01*
X104249500Y-122326082D01*
X104249500Y-122473918D01*
X104249500Y-122473920D01*
X104249499Y-122473920D01*
X104278339Y-122618901D01*
X104278342Y-122618913D01*
X104292274Y-122652549D01*
X104299741Y-122722019D01*
X104292274Y-122747451D01*
X104278342Y-122781086D01*
X104278340Y-122781092D01*
X104249500Y-122926079D01*
X104249500Y-122926082D01*
X104249500Y-123073918D01*
X104249500Y-123073920D01*
X104249499Y-123073920D01*
X104278340Y-123218907D01*
X104278342Y-123218913D01*
X104292274Y-123252549D01*
X104299741Y-123322019D01*
X104292274Y-123347451D01*
X104278342Y-123381086D01*
X104278340Y-123381092D01*
X104249500Y-123526079D01*
X104249500Y-123526082D01*
X104249500Y-123673918D01*
X104249500Y-123673920D01*
X104249499Y-123673920D01*
X104278340Y-123818907D01*
X104278342Y-123818913D01*
X104292274Y-123852549D01*
X104299741Y-123922019D01*
X104292274Y-123947451D01*
X104278342Y-123981086D01*
X104278340Y-123981092D01*
X104249500Y-124126079D01*
X104249500Y-124126082D01*
X104249500Y-124273918D01*
X104249500Y-124273920D01*
X104249499Y-124273920D01*
X104278340Y-124418907D01*
X104278343Y-124418917D01*
X104334912Y-124555488D01*
X104334919Y-124555501D01*
X104417048Y-124678415D01*
X104417051Y-124678419D01*
X104521580Y-124782948D01*
X104521584Y-124782951D01*
X104644498Y-124865080D01*
X104644511Y-124865087D01*
X104781082Y-124921656D01*
X104781087Y-124921658D01*
X104781091Y-124921658D01*
X104781092Y-124921659D01*
X104926079Y-124950500D01*
X104926082Y-124950500D01*
X105073920Y-124950500D01*
X105171462Y-124931096D01*
X105218913Y-124921658D01*
X105355495Y-124865084D01*
X105441790Y-124807424D01*
X105478416Y-124782951D01*
X105582948Y-124678419D01*
X105582951Y-124678416D01*
X105665084Y-124555495D01*
X105667371Y-124549975D01*
X105686282Y-124504319D01*
X105721658Y-124418913D01*
X105735774Y-124347948D01*
X105750500Y-124273920D01*
X105750500Y-124126079D01*
X105721659Y-123981092D01*
X105721658Y-123981088D01*
X105721657Y-123981086D01*
X105707725Y-123947452D01*
X105705332Y-123925191D01*
X105698349Y-123903920D01*
X105701304Y-123887727D01*
X105700257Y-123877984D01*
X105702265Y-123868844D01*
X105704429Y-123860505D01*
X105721658Y-123818913D01*
X105737021Y-123741678D01*
X141865506Y-123741678D01*
X141865506Y-123742321D01*
X141865807Y-123759811D01*
X141866803Y-123788698D01*
X141867181Y-123797471D01*
X141867202Y-123797873D01*
X141867809Y-123807711D01*
X141869809Y-123835716D01*
X141871320Y-123852806D01*
X141871381Y-123853391D01*
X141873336Y-123869447D01*
X141877322Y-123898353D01*
X141878804Y-123908365D01*
X141878859Y-123908714D01*
X141879647Y-123913390D01*
X141880528Y-123918620D01*
X141880539Y-123918681D01*
X141885525Y-123946607D01*
X141888884Y-123963708D01*
X141889027Y-123964374D01*
X141892893Y-123981033D01*
X141899889Y-124009016D01*
X141901906Y-124016816D01*
X141902029Y-124017276D01*
X141904330Y-124025604D01*
X141912332Y-124053612D01*
X141918045Y-124072240D01*
X141918274Y-124072937D01*
X141924587Y-124091031D01*
X141934553Y-124117940D01*
X141937174Y-124124864D01*
X141937252Y-124125066D01*
X141940575Y-124133438D01*
X141940597Y-124133493D01*
X141940599Y-124133497D01*
X141950891Y-124158760D01*
X141951607Y-124160516D01*
X141955857Y-124170631D01*
X141956040Y-124171053D01*
X141960922Y-124181972D01*
X141972948Y-124208027D01*
X141981747Y-124226137D01*
X141982118Y-124226863D01*
X141991221Y-124243872D01*
X142005212Y-124268858D01*
X142008755Y-124275077D01*
X142008986Y-124275477D01*
X142012987Y-124282265D01*
X142027970Y-124307237D01*
X142036936Y-124321625D01*
X142037305Y-124322197D01*
X142046814Y-124336372D01*
X142062843Y-124359413D01*
X142071213Y-124371084D01*
X142071569Y-124371566D01*
X142080056Y-124382727D01*
X142098033Y-124405698D01*
X142101171Y-124409665D01*
X142101296Y-124409823D01*
X142105017Y-124414424D01*
X142123008Y-124436414D01*
X142123024Y-124436433D01*
X142123025Y-124436434D01*
X142135374Y-124450959D01*
X142135873Y-124451524D01*
X142148707Y-124465518D01*
X142148722Y-124465534D01*
X142148725Y-124465537D01*
X142168680Y-124486491D01*
X142177352Y-124495375D01*
X142177624Y-124495647D01*
X142186508Y-124504319D01*
X142207462Y-124524274D01*
X142207482Y-124524293D01*
X142221476Y-124537127D01*
X142222041Y-124537626D01*
X142236566Y-124549975D01*
X142236585Y-124549991D01*
X142258575Y-124567982D01*
X142263176Y-124571703D01*
X142263334Y-124571828D01*
X142267301Y-124574966D01*
X142290272Y-124592943D01*
X142290291Y-124592957D01*
X142290293Y-124592959D01*
X142301423Y-124601423D01*
X142301875Y-124601757D01*
X142301900Y-124601775D01*
X142301915Y-124601786D01*
X142313586Y-124610156D01*
X142336627Y-124626185D01*
X142350802Y-124635694D01*
X142351374Y-124636063D01*
X142365762Y-124645029D01*
X142365777Y-124645038D01*
X142390777Y-124660038D01*
X142397515Y-124664009D01*
X142397522Y-124664013D01*
X142397864Y-124664211D01*
X142404141Y-124667787D01*
X142429127Y-124681778D01*
X142446136Y-124690881D01*
X142446163Y-124690894D01*
X142446169Y-124690898D01*
X142446864Y-124691253D01*
X142464975Y-124700053D01*
X142490975Y-124712053D01*
X142491027Y-124712077D01*
X142498513Y-124715424D01*
X142501943Y-124716958D01*
X142502361Y-124717139D01*
X142512503Y-124721401D01*
X142539503Y-124732401D01*
X142539561Y-124732424D01*
X142547933Y-124735747D01*
X142548135Y-124735825D01*
X142548166Y-124735836D01*
X142548221Y-124735858D01*
X142554960Y-124738409D01*
X142555018Y-124738430D01*
X142555059Y-124738446D01*
X142581968Y-124748412D01*
X142588212Y-124750590D01*
X142600058Y-124754724D01*
X142600490Y-124754865D01*
X142600759Y-124754954D01*
X142600768Y-124754956D01*
X142600784Y-124754962D01*
X142613346Y-124758814D01*
X142619387Y-124760667D01*
X142647381Y-124768665D01*
X142655816Y-124770996D01*
X142656138Y-124771082D01*
X142663973Y-124773108D01*
X142691973Y-124780108D01*
X142708607Y-124783969D01*
X142709274Y-124784112D01*
X142726380Y-124787472D01*
X142754380Y-124792472D01*
X142764272Y-124794138D01*
X142764664Y-124794200D01*
X142774564Y-124795665D01*
X142774577Y-124795666D01*
X142774646Y-124795677D01*
X142793916Y-124798334D01*
X142803564Y-124799665D01*
X142811580Y-124800640D01*
X142819608Y-124801618D01*
X142820193Y-124801679D01*
X142820250Y-124801685D01*
X142837273Y-124803190D01*
X142865273Y-124805190D01*
X142875153Y-124805799D01*
X142875520Y-124805818D01*
X142884234Y-124806194D01*
X142884287Y-124806195D01*
X142884291Y-124806196D01*
X142913247Y-124807195D01*
X142920378Y-124807379D01*
X142921865Y-124807418D01*
X142922210Y-124807424D01*
X142922270Y-124807424D01*
X142922297Y-124807425D01*
X142930952Y-124807500D01*
X142931000Y-124807500D01*
X144431048Y-124807500D01*
X144439702Y-124807425D01*
X144439727Y-124807424D01*
X144439790Y-124807424D01*
X144440135Y-124807418D01*
X144441899Y-124807372D01*
X144448752Y-124807195D01*
X144477708Y-124806196D01*
X144477766Y-124806194D01*
X144486480Y-124805818D01*
X144486847Y-124805799D01*
X144496727Y-124805190D01*
X144524727Y-124803190D01*
X144541750Y-124801685D01*
X144541880Y-124801671D01*
X144542391Y-124801618D01*
X144548608Y-124800860D01*
X144558436Y-124799665D01*
X144571936Y-124797802D01*
X144587353Y-124795677D01*
X144587407Y-124795668D01*
X144587436Y-124795665D01*
X144597336Y-124794200D01*
X144597728Y-124794138D01*
X144607620Y-124792472D01*
X144635620Y-124787472D01*
X144652726Y-124784112D01*
X144653393Y-124783969D01*
X144670027Y-124780108D01*
X144698027Y-124773108D01*
X144705862Y-124771082D01*
X144706184Y-124770996D01*
X144714619Y-124768665D01*
X144742619Y-124760665D01*
X144761216Y-124754962D01*
X144761942Y-124754724D01*
X144780040Y-124748409D01*
X144807040Y-124738409D01*
X144813779Y-124735858D01*
X144814079Y-124735742D01*
X144822497Y-124732401D01*
X144849497Y-124721401D01*
X144859639Y-124717139D01*
X144860057Y-124716958D01*
X144867979Y-124713415D01*
X144870972Y-124712077D01*
X144870992Y-124712067D01*
X144871025Y-124712053D01*
X144897025Y-124700053D01*
X144915136Y-124691253D01*
X144915831Y-124690898D01*
X144932875Y-124681777D01*
X144947518Y-124673576D01*
X144957858Y-124667787D01*
X144964135Y-124664211D01*
X144964152Y-124664201D01*
X144964226Y-124664159D01*
X144964485Y-124664009D01*
X144971223Y-124660038D01*
X144996223Y-124645038D01*
X145010634Y-124636058D01*
X145011200Y-124635692D01*
X145025384Y-124626177D01*
X145048384Y-124610177D01*
X145060125Y-124601757D01*
X145060577Y-124601423D01*
X145071707Y-124592959D01*
X145094707Y-124574959D01*
X145098661Y-124571832D01*
X145098769Y-124571745D01*
X145098823Y-124571703D01*
X145099923Y-124570812D01*
X145103434Y-124567975D01*
X145125434Y-124549975D01*
X145139959Y-124537626D01*
X145140524Y-124537127D01*
X145154518Y-124524293D01*
X145175518Y-124504293D01*
X145184339Y-124495683D01*
X145184683Y-124495339D01*
X145193293Y-124486518D01*
X145213293Y-124465518D01*
X145226127Y-124451524D01*
X145226626Y-124450959D01*
X145238975Y-124436434D01*
X145256975Y-124414434D01*
X145260697Y-124409830D01*
X145260832Y-124409661D01*
X145263959Y-124405707D01*
X145281959Y-124382707D01*
X145290423Y-124371577D01*
X145290757Y-124371125D01*
X145299177Y-124359384D01*
X145315177Y-124336384D01*
X145324692Y-124322200D01*
X145325058Y-124321634D01*
X145334038Y-124307223D01*
X145349038Y-124282223D01*
X145353009Y-124275485D01*
X145353159Y-124275226D01*
X145353182Y-124275185D01*
X145353245Y-124275077D01*
X145356787Y-124268858D01*
X145367627Y-124249500D01*
X145370777Y-124243875D01*
X145379898Y-124226831D01*
X145380253Y-124226136D01*
X145389053Y-124208025D01*
X145401053Y-124182025D01*
X145405958Y-124171057D01*
X145406139Y-124170639D01*
X145410401Y-124160497D01*
X145421401Y-124133497D01*
X145424742Y-124125079D01*
X145424858Y-124124779D01*
X145427409Y-124118040D01*
X145437409Y-124091040D01*
X145443724Y-124072942D01*
X145443962Y-124072216D01*
X145449665Y-124053619D01*
X145457665Y-124025619D01*
X145459996Y-124017184D01*
X145460082Y-124016862D01*
X145462108Y-124009027D01*
X145469108Y-123981027D01*
X145472969Y-123964393D01*
X145473112Y-123963726D01*
X145476472Y-123946620D01*
X145476955Y-123943913D01*
X145508111Y-123881376D01*
X145568133Y-123845610D01*
X145637963Y-123847972D01*
X145695430Y-123887711D01*
X145709511Y-123909405D01*
X145715938Y-123922019D01*
X145739768Y-123968788D01*
X145841586Y-124108928D01*
X145964072Y-124231414D01*
X146104212Y-124333232D01*
X146258555Y-124411873D01*
X146423299Y-124465402D01*
X146594389Y-124492500D01*
X146594390Y-124492500D01*
X147867610Y-124492500D01*
X147867611Y-124492500D01*
X148038701Y-124465402D01*
X148203445Y-124411873D01*
X148357788Y-124333232D01*
X148497928Y-124231414D01*
X148620414Y-124108928D01*
X148722232Y-123968788D01*
X148800873Y-123814445D01*
X148854402Y-123649701D01*
X148881500Y-123478611D01*
X148881500Y-123305389D01*
X148854402Y-123134299D01*
X148800873Y-122969555D01*
X148722232Y-122815212D01*
X148620414Y-122675072D01*
X148497928Y-122552586D01*
X148357788Y-122450768D01*
X148203445Y-122372127D01*
X148038701Y-122318598D01*
X148038699Y-122318597D01*
X148038698Y-122318597D01*
X147907271Y-122297781D01*
X147867611Y-122291500D01*
X146594389Y-122291500D01*
X146554728Y-122297781D01*
X146423302Y-122318597D01*
X146258552Y-122372128D01*
X146104211Y-122450768D01*
X146039821Y-122497551D01*
X145964072Y-122552586D01*
X145964069Y-122552588D01*
X145841588Y-122675069D01*
X145841588Y-122675070D01*
X145841586Y-122675072D01*
X145806523Y-122723332D01*
X145739768Y-122815211D01*
X145661128Y-122969552D01*
X145607597Y-123134302D01*
X145598260Y-123193256D01*
X145568331Y-123256391D01*
X145509019Y-123293322D01*
X145439157Y-123292324D01*
X145380924Y-123253714D01*
X145367595Y-123234443D01*
X145362358Y-123225092D01*
X145356777Y-123215125D01*
X145356196Y-123214105D01*
X145353211Y-123208864D01*
X145353013Y-123208522D01*
X145353009Y-123208515D01*
X145349038Y-123201777D01*
X145334038Y-123176777D01*
X145325058Y-123162366D01*
X145324990Y-123162261D01*
X145324694Y-123161802D01*
X145315185Y-123147627D01*
X145299156Y-123124586D01*
X145290786Y-123112915D01*
X145290775Y-123112900D01*
X145290757Y-123112875D01*
X145290423Y-123112423D01*
X145281959Y-123101293D01*
X145281943Y-123101272D01*
X145263966Y-123078301D01*
X145260828Y-123074334D01*
X145260703Y-123074176D01*
X145256982Y-123069575D01*
X145238991Y-123047585D01*
X145226606Y-123033018D01*
X145226160Y-123032513D01*
X145226151Y-123032503D01*
X145226127Y-123032476D01*
X145213293Y-123018482D01*
X145213274Y-123018462D01*
X145193319Y-122997508D01*
X145184647Y-122988624D01*
X145184375Y-122988352D01*
X145175491Y-122979680D01*
X145154537Y-122959725D01*
X145154534Y-122959722D01*
X145154518Y-122959707D01*
X145140524Y-122946873D01*
X145139959Y-122946374D01*
X145125434Y-122934025D01*
X145125433Y-122934024D01*
X145125414Y-122934008D01*
X145103424Y-122916017D01*
X145098823Y-122912296D01*
X145098665Y-122912171D01*
X145094657Y-122909001D01*
X145089417Y-122904900D01*
X145048759Y-122848079D01*
X145045275Y-122778296D01*
X145051281Y-122759811D01*
X145097855Y-122647374D01*
X145131500Y-122478229D01*
X145131500Y-122305771D01*
X145131500Y-122305768D01*
X145131499Y-122305766D01*
X145115821Y-122226947D01*
X145097855Y-122136626D01*
X145073565Y-122077984D01*
X145031861Y-121977301D01*
X145031854Y-121977288D01*
X144936045Y-121833901D01*
X144936042Y-121833897D01*
X144814102Y-121711957D01*
X144814098Y-121711954D01*
X144670711Y-121616145D01*
X144670698Y-121616138D01*
X144511378Y-121550146D01*
X144511366Y-121550143D01*
X144342232Y-121516500D01*
X144342229Y-121516500D01*
X144169771Y-121516500D01*
X144169768Y-121516500D01*
X144000633Y-121550143D01*
X144000621Y-121550146D01*
X143841301Y-121616138D01*
X143841288Y-121616145D01*
X143697901Y-121711954D01*
X143697897Y-121711957D01*
X143575957Y-121833897D01*
X143575954Y-121833901D01*
X143480145Y-121977288D01*
X143480138Y-121977301D01*
X143414146Y-122136621D01*
X143414143Y-122136633D01*
X143380500Y-122305766D01*
X143380500Y-122305771D01*
X143380500Y-122478229D01*
X143380500Y-122478231D01*
X143380499Y-122478231D01*
X143390461Y-122528308D01*
X143384234Y-122597900D01*
X143341371Y-122653077D01*
X143275481Y-122676322D01*
X143268844Y-122676500D01*
X142930952Y-122676500D01*
X142922297Y-122676574D01*
X142921793Y-122676583D01*
X142913247Y-122676804D01*
X142884291Y-122677803D01*
X142875528Y-122678181D01*
X142875126Y-122678202D01*
X142865288Y-122678809D01*
X142865280Y-122678809D01*
X142865273Y-122678810D01*
X142859687Y-122679209D01*
X142837283Y-122680809D01*
X142820193Y-122682320D01*
X142819608Y-122682381D01*
X142803552Y-122684336D01*
X142774646Y-122688322D01*
X142764634Y-122689804D01*
X142764285Y-122689859D01*
X142758381Y-122690853D01*
X142754380Y-122691528D01*
X142754325Y-122691537D01*
X142754318Y-122691539D01*
X142726392Y-122696525D01*
X142709291Y-122699884D01*
X142708625Y-122700027D01*
X142708617Y-122700028D01*
X142708607Y-122700031D01*
X142704930Y-122700884D01*
X142691966Y-122703893D01*
X142663983Y-122710889D01*
X142656183Y-122712906D01*
X142655723Y-122713029D01*
X142647395Y-122715330D01*
X142619387Y-122723332D01*
X142600759Y-122729045D01*
X142600062Y-122729274D01*
X142581968Y-122735587D01*
X142555059Y-122745553D01*
X142548135Y-122748174D01*
X142547933Y-122748252D01*
X142539561Y-122751575D01*
X142512483Y-122762607D01*
X142502368Y-122766857D01*
X142501946Y-122767040D01*
X142491027Y-122771922D01*
X142464972Y-122783948D01*
X142446862Y-122792747D01*
X142446136Y-122793118D01*
X142429127Y-122802221D01*
X142404141Y-122816212D01*
X142397864Y-122819788D01*
X142397522Y-122819986D01*
X142390734Y-122823987D01*
X142365762Y-122838970D01*
X142351374Y-122847936D01*
X142350802Y-122848305D01*
X142336627Y-122857814D01*
X142313586Y-122873843D01*
X142301920Y-122882210D01*
X142301433Y-122882569D01*
X142290272Y-122891056D01*
X142267301Y-122909033D01*
X142263334Y-122912171D01*
X142263176Y-122912296D01*
X142258575Y-122916017D01*
X142236585Y-122934008D01*
X142222018Y-122946393D01*
X142221513Y-122946839D01*
X142207462Y-122959725D01*
X142186508Y-122979680D01*
X142177624Y-122988352D01*
X142177352Y-122988624D01*
X142168680Y-122997508D01*
X142148725Y-123018462D01*
X142135839Y-123032513D01*
X142135393Y-123033018D01*
X142123008Y-123047585D01*
X142105017Y-123069575D01*
X142101296Y-123074176D01*
X142101171Y-123074334D01*
X142098033Y-123078301D01*
X142080056Y-123101272D01*
X142071569Y-123112433D01*
X142071213Y-123112915D01*
X142062843Y-123124586D01*
X142046814Y-123147627D01*
X142037305Y-123161802D01*
X142036936Y-123162374D01*
X142027970Y-123176762D01*
X142012987Y-123201734D01*
X142008986Y-123208522D01*
X142008788Y-123208864D01*
X142005212Y-123215141D01*
X141991221Y-123240127D01*
X141982118Y-123257136D01*
X141981747Y-123257862D01*
X141972948Y-123275972D01*
X141960922Y-123302027D01*
X141956040Y-123312946D01*
X141955857Y-123313368D01*
X141951607Y-123323483D01*
X141940575Y-123350561D01*
X141937252Y-123358933D01*
X141937174Y-123359135D01*
X141934553Y-123366059D01*
X141924587Y-123392968D01*
X141918274Y-123411062D01*
X141918045Y-123411759D01*
X141912332Y-123430387D01*
X141904330Y-123458395D01*
X141902029Y-123466723D01*
X141901906Y-123467183D01*
X141899889Y-123474983D01*
X141892893Y-123502966D01*
X141889027Y-123519625D01*
X141888884Y-123520291D01*
X141885525Y-123537392D01*
X141880539Y-123565318D01*
X141880528Y-123565380D01*
X141879288Y-123572739D01*
X141878864Y-123575259D01*
X141878804Y-123575634D01*
X141877322Y-123585646D01*
X141873336Y-123614552D01*
X141871381Y-123630608D01*
X141871320Y-123631193D01*
X141869809Y-123648283D01*
X141867809Y-123676288D01*
X141867202Y-123686126D01*
X141867181Y-123686528D01*
X141866803Y-123695301D01*
X141865807Y-123724188D01*
X141865506Y-123741678D01*
X105737021Y-123741678D01*
X105750500Y-123673918D01*
X105750500Y-123526082D01*
X105750500Y-123526079D01*
X105721659Y-123381092D01*
X105721658Y-123381088D01*
X105721657Y-123381086D01*
X105707725Y-123347452D01*
X105700257Y-123277984D01*
X105707726Y-123252547D01*
X105709795Y-123247552D01*
X105721658Y-123218913D01*
X105738489Y-123134299D01*
X105750500Y-123073920D01*
X105750500Y-122926079D01*
X105721659Y-122781092D01*
X105721658Y-122781088D01*
X105721657Y-122781086D01*
X105707725Y-122747452D01*
X105700257Y-122677984D01*
X105707726Y-122652547D01*
X105710458Y-122645951D01*
X105721658Y-122618913D01*
X105737073Y-122541419D01*
X105750500Y-122473920D01*
X105750500Y-122326079D01*
X105721659Y-122181092D01*
X105721658Y-122181088D01*
X105721657Y-122181086D01*
X105707725Y-122147452D01*
X105700257Y-122077984D01*
X105707726Y-122052547D01*
X105721658Y-122018913D01*
X105742311Y-121915087D01*
X105750500Y-121873920D01*
X105750500Y-121726079D01*
X105721659Y-121581092D01*
X105721658Y-121581091D01*
X105721658Y-121581087D01*
X105708842Y-121550146D01*
X105665087Y-121444511D01*
X105665080Y-121444498D01*
X105582951Y-121321584D01*
X105582948Y-121321580D01*
X105478419Y-121217051D01*
X105478415Y-121217048D01*
X105355501Y-121134919D01*
X105355488Y-121134912D01*
X105218917Y-121078343D01*
X105218907Y-121078340D01*
X105073920Y-121049500D01*
X105073918Y-121049500D01*
X104926082Y-121049500D01*
X104926080Y-121049500D01*
X104781092Y-121078340D01*
X104781082Y-121078343D01*
X104644511Y-121134912D01*
X104644498Y-121134919D01*
X104521584Y-121217048D01*
X104521580Y-121217051D01*
X104417051Y-121321580D01*
X104417048Y-121321584D01*
X104334919Y-121444498D01*
X104334912Y-121444511D01*
X104278343Y-121581082D01*
X104278340Y-121581092D01*
X104249500Y-121726079D01*
X104249500Y-121726082D01*
X104249500Y-121873918D01*
X104249500Y-121873920D01*
X104249499Y-121873920D01*
X82158528Y-121873920D01*
X82270026Y-121762421D01*
X82270026Y-121762420D01*
X82164769Y-121718822D01*
X82164760Y-121718819D01*
X82019873Y-121690000D01*
X81872128Y-121690000D01*
X81727241Y-121718819D01*
X81727237Y-121718821D01*
X81621975Y-121762421D01*
X70990968Y-121762421D01*
X70887232Y-121558828D01*
X70826976Y-121475894D01*
X70826976Y-121475893D01*
X70168930Y-122133940D01*
X70163429Y-122113409D01*
X70084437Y-121976592D01*
X69972726Y-121864881D01*
X69835909Y-121785889D01*
X69815376Y-121780387D01*
X70253945Y-121341818D01*
X70315268Y-121308333D01*
X70341625Y-121305499D01*
X70404326Y-121305499D01*
X70507115Y-121294999D01*
X70673652Y-121239814D01*
X70822974Y-121147712D01*
X70947030Y-121023656D01*
X71039132Y-120874334D01*
X71041589Y-120866920D01*
X131075499Y-120866920D01*
X131104340Y-121011907D01*
X131104343Y-121011917D01*
X131160912Y-121148488D01*
X131160919Y-121148501D01*
X131243048Y-121271415D01*
X131243051Y-121271419D01*
X131347580Y-121375948D01*
X131347584Y-121375951D01*
X131470498Y-121458080D01*
X131470511Y-121458087D01*
X131604219Y-121513470D01*
X131607087Y-121514658D01*
X131607091Y-121514658D01*
X131607092Y-121514659D01*
X131752079Y-121543500D01*
X131752082Y-121543500D01*
X131899920Y-121543500D01*
X132050887Y-121513470D01*
X132051376Y-121515929D01*
X132110237Y-121515364D01*
X132169375Y-121552572D01*
X132199010Y-121615845D01*
X132189731Y-121685096D01*
X132179554Y-121703554D01*
X132176923Y-121707492D01*
X132176912Y-121707511D01*
X132120343Y-121844082D01*
X132120340Y-121844092D01*
X132091500Y-121989079D01*
X132091500Y-121989082D01*
X132091500Y-122136918D01*
X132091500Y-122136920D01*
X132091499Y-122136920D01*
X132120340Y-122281907D01*
X132120343Y-122281917D01*
X132176912Y-122418488D01*
X132176919Y-122418501D01*
X132259048Y-122541415D01*
X132259051Y-122541419D01*
X132363580Y-122645948D01*
X132363584Y-122645951D01*
X132486498Y-122728080D01*
X132486511Y-122728087D01*
X132609232Y-122778919D01*
X132623087Y-122784658D01*
X132623091Y-122784658D01*
X132623092Y-122784659D01*
X132768079Y-122813500D01*
X132768082Y-122813500D01*
X132915920Y-122813500D01*
X133020248Y-122792747D01*
X133060913Y-122784658D01*
X133166547Y-122740902D01*
X133197488Y-122728087D01*
X133197488Y-122728086D01*
X133197495Y-122728084D01*
X133320416Y-122645951D01*
X133424951Y-122541416D01*
X133507084Y-122418495D01*
X133563658Y-122281913D01*
X133583714Y-122181086D01*
X133592500Y-122136920D01*
X133592500Y-121989079D01*
X133563659Y-121844092D01*
X133563658Y-121844091D01*
X133563658Y-121844087D01*
X133529831Y-121762421D01*
X133507087Y-121707511D01*
X133507080Y-121707498D01*
X133424951Y-121584584D01*
X133424948Y-121584580D01*
X133320419Y-121480051D01*
X133320415Y-121480048D01*
X133197501Y-121397919D01*
X133197488Y-121397912D01*
X133060917Y-121341343D01*
X133060907Y-121341340D01*
X132973332Y-121323920D01*
X138249499Y-121323920D01*
X138278340Y-121468907D01*
X138278343Y-121468917D01*
X138334912Y-121605488D01*
X138334919Y-121605501D01*
X138417048Y-121728415D01*
X138417051Y-121728419D01*
X138521580Y-121832948D01*
X138521584Y-121832951D01*
X138644498Y-121915080D01*
X138644511Y-121915087D01*
X138781082Y-121971656D01*
X138781087Y-121971658D01*
X138781091Y-121971658D01*
X138781092Y-121971659D01*
X138926079Y-122000500D01*
X138926082Y-122000500D01*
X139073920Y-122000500D01*
X139190544Y-121977301D01*
X139218913Y-121971658D01*
X139355495Y-121915084D01*
X139478416Y-121832951D01*
X139582951Y-121728416D01*
X139665084Y-121605495D01*
X139721658Y-121468913D01*
X139740150Y-121375951D01*
X139750500Y-121323920D01*
X139750500Y-121176079D01*
X139721659Y-121031092D01*
X139721658Y-121031091D01*
X139721658Y-121031087D01*
X139713716Y-121011913D01*
X139665087Y-120894511D01*
X139665080Y-120894498D01*
X139582951Y-120771584D01*
X139582948Y-120771580D01*
X139478419Y-120667051D01*
X139478415Y-120667048D01*
X139355501Y-120584919D01*
X139355488Y-120584912D01*
X139234795Y-120534920D01*
X143710499Y-120534920D01*
X143739340Y-120679907D01*
X143739343Y-120679917D01*
X143795912Y-120816488D01*
X143795919Y-120816501D01*
X143878048Y-120939415D01*
X143878051Y-120939419D01*
X143982580Y-121043948D01*
X143982584Y-121043951D01*
X144105498Y-121126080D01*
X144105511Y-121126087D01*
X144226204Y-121176079D01*
X144242087Y-121182658D01*
X144242091Y-121182658D01*
X144242092Y-121182659D01*
X144387079Y-121211500D01*
X144387082Y-121211500D01*
X144534920Y-121211500D01*
X144632462Y-121192096D01*
X144679913Y-121182658D01*
X144816495Y-121126084D01*
X144939416Y-121043951D01*
X145043951Y-120939416D01*
X145126084Y-120816495D01*
X145133965Y-120797466D01*
X145146382Y-120767491D01*
X145190222Y-120713087D01*
X145213491Y-120700382D01*
X145243466Y-120687965D01*
X145262495Y-120680084D01*
X145385416Y-120597951D01*
X145489951Y-120493416D01*
X145572084Y-120370495D01*
X145628658Y-120233913D01*
X145649743Y-120127916D01*
X145657500Y-120088920D01*
X145657500Y-119941079D01*
X145628659Y-119796092D01*
X145628658Y-119796091D01*
X145628658Y-119796087D01*
X145612038Y-119755962D01*
X145572087Y-119659511D01*
X145572080Y-119659498D01*
X145489951Y-119536584D01*
X145489948Y-119536580D01*
X145385419Y-119432051D01*
X145385415Y-119432048D01*
X145262501Y-119349919D01*
X145262488Y-119349912D01*
X145125917Y-119293343D01*
X145125907Y-119293340D01*
X144980920Y-119264500D01*
X144980918Y-119264500D01*
X144833082Y-119264500D01*
X144833080Y-119264500D01*
X144688092Y-119293340D01*
X144688082Y-119293343D01*
X144551511Y-119349912D01*
X144551498Y-119349919D01*
X144428584Y-119432048D01*
X144428580Y-119432051D01*
X144324051Y-119536580D01*
X144324048Y-119536584D01*
X144241919Y-119659498D01*
X144241916Y-119659505D01*
X144221617Y-119708510D01*
X144177775Y-119762913D01*
X144154510Y-119775617D01*
X144105505Y-119795916D01*
X144105498Y-119795919D01*
X143982584Y-119878048D01*
X143982580Y-119878051D01*
X143878051Y-119982580D01*
X143878048Y-119982584D01*
X143795919Y-120105498D01*
X143795912Y-120105511D01*
X143739343Y-120242082D01*
X143739340Y-120242092D01*
X143710500Y-120387079D01*
X143710500Y-120387082D01*
X143710500Y-120534918D01*
X143710500Y-120534920D01*
X143710499Y-120534920D01*
X139234795Y-120534920D01*
X139218917Y-120528343D01*
X139218907Y-120528340D01*
X139089540Y-120502607D01*
X139073920Y-120499500D01*
X139073918Y-120499500D01*
X138926082Y-120499500D01*
X138926080Y-120499500D01*
X138781092Y-120528340D01*
X138781082Y-120528343D01*
X138644511Y-120584912D01*
X138644498Y-120584919D01*
X138521584Y-120667048D01*
X138521580Y-120667051D01*
X138417051Y-120771580D01*
X138417048Y-120771584D01*
X138334919Y-120894498D01*
X138334912Y-120894511D01*
X138278343Y-121031082D01*
X138278340Y-121031092D01*
X138249500Y-121176079D01*
X138249500Y-121176082D01*
X138249500Y-121323918D01*
X138249500Y-121323920D01*
X138249499Y-121323920D01*
X132973332Y-121323920D01*
X132915920Y-121312500D01*
X132915918Y-121312500D01*
X132768082Y-121312500D01*
X132768080Y-121312500D01*
X132617113Y-121342530D01*
X132616627Y-121340090D01*
X132607815Y-121340167D01*
X132588784Y-121345297D01*
X132573595Y-121340466D01*
X132557658Y-121340606D01*
X132540984Y-121330095D01*
X132522200Y-121324121D01*
X132512033Y-121311844D01*
X132498552Y-121303346D01*
X132490208Y-121285490D01*
X132477636Y-121270309D01*
X132475720Y-121254486D01*
X132468973Y-121240047D01*
X132471607Y-121220512D01*
X132469239Y-121200945D01*
X132476832Y-121181773D01*
X132478312Y-121170804D01*
X132479936Y-121167311D01*
X132483677Y-121159580D01*
X132491084Y-121148495D01*
X132547658Y-121011913D01*
X132562080Y-120939411D01*
X132576500Y-120866920D01*
X132576500Y-120719079D01*
X132547659Y-120574092D01*
X132547658Y-120574091D01*
X132547658Y-120574087D01*
X132516763Y-120499500D01*
X132491087Y-120437511D01*
X132491080Y-120437498D01*
X132408951Y-120314584D01*
X132408948Y-120314580D01*
X132304419Y-120210051D01*
X132304415Y-120210048D01*
X132181501Y-120127919D01*
X132181488Y-120127912D01*
X132044917Y-120071343D01*
X132044907Y-120071340D01*
X131899920Y-120042500D01*
X131899918Y-120042500D01*
X131752082Y-120042500D01*
X131752080Y-120042500D01*
X131607092Y-120071340D01*
X131607082Y-120071343D01*
X131470511Y-120127912D01*
X131470498Y-120127919D01*
X131347584Y-120210048D01*
X131347580Y-120210051D01*
X131243051Y-120314580D01*
X131243048Y-120314584D01*
X131160919Y-120437498D01*
X131160912Y-120437511D01*
X131104343Y-120574082D01*
X131104340Y-120574092D01*
X131075500Y-120719079D01*
X131075500Y-120719082D01*
X131075500Y-120866918D01*
X131075500Y-120866920D01*
X131075499Y-120866920D01*
X71041589Y-120866920D01*
X71094317Y-120707797D01*
X71104818Y-120605009D01*
X71104817Y-119004992D01*
X71102425Y-118981580D01*
X71094317Y-118902203D01*
X71094316Y-118902200D01*
X71066971Y-118819679D01*
X71039132Y-118735666D01*
X70947030Y-118586344D01*
X70834606Y-118473920D01*
X114049499Y-118473920D01*
X114078340Y-118618907D01*
X114078343Y-118618917D01*
X114134912Y-118755488D01*
X114134919Y-118755501D01*
X114217048Y-118878415D01*
X114217051Y-118878419D01*
X114222380Y-118883748D01*
X114255865Y-118945071D01*
X114250881Y-119014763D01*
X114237802Y-119040318D01*
X114194921Y-119104495D01*
X114194912Y-119104511D01*
X114138343Y-119241082D01*
X114138340Y-119241092D01*
X114109500Y-119386079D01*
X114109500Y-119386082D01*
X114109500Y-119533918D01*
X114109500Y-119533920D01*
X114109499Y-119533920D01*
X114138340Y-119678907D01*
X114138343Y-119678917D01*
X114194912Y-119815488D01*
X114194919Y-119815501D01*
X114277048Y-119938415D01*
X114277051Y-119938419D01*
X114381580Y-120042948D01*
X114381584Y-120042951D01*
X114504498Y-120125080D01*
X114504511Y-120125087D01*
X114641082Y-120181656D01*
X114641087Y-120181658D01*
X114641091Y-120181658D01*
X114641092Y-120181659D01*
X114786079Y-120210500D01*
X114786082Y-120210500D01*
X114933920Y-120210500D01*
X115031462Y-120191096D01*
X115078913Y-120181658D01*
X115215495Y-120125084D01*
X115338416Y-120042951D01*
X115442951Y-119938416D01*
X115525084Y-119815495D01*
X115581658Y-119678913D01*
X115609970Y-119536584D01*
X115610500Y-119533920D01*
X115610500Y-119386079D01*
X115581659Y-119241092D01*
X115581658Y-119241091D01*
X115581658Y-119241087D01*
X115581656Y-119241082D01*
X115525087Y-119104511D01*
X115525080Y-119104498D01*
X115442951Y-118981584D01*
X115442948Y-118981580D01*
X115437619Y-118976251D01*
X115404134Y-118914928D01*
X115409118Y-118845236D01*
X115422198Y-118819679D01*
X115465080Y-118755501D01*
X115465080Y-118755500D01*
X115465084Y-118755495D01*
X115521658Y-118618913D01*
X115549605Y-118478419D01*
X115550500Y-118473920D01*
X115550500Y-118326079D01*
X115521659Y-118181092D01*
X115521658Y-118181091D01*
X115521658Y-118181087D01*
X115477268Y-118073920D01*
X115465087Y-118044511D01*
X115465080Y-118044498D01*
X115382951Y-117921584D01*
X115382948Y-117921580D01*
X115278419Y-117817051D01*
X115278415Y-117817048D01*
X115155501Y-117734919D01*
X115155488Y-117734912D01*
X115018917Y-117678343D01*
X115018907Y-117678340D01*
X114873920Y-117649500D01*
X114873918Y-117649500D01*
X114726082Y-117649500D01*
X114726080Y-117649500D01*
X114581092Y-117678340D01*
X114581082Y-117678343D01*
X114444511Y-117734912D01*
X114444498Y-117734919D01*
X114321584Y-117817048D01*
X114321580Y-117817051D01*
X114217051Y-117921580D01*
X114217048Y-117921584D01*
X114134919Y-118044498D01*
X114134912Y-118044511D01*
X114078343Y-118181082D01*
X114078340Y-118181092D01*
X114049500Y-118326079D01*
X114049500Y-118326082D01*
X114049500Y-118473918D01*
X114049500Y-118473920D01*
X114049499Y-118473920D01*
X70834606Y-118473920D01*
X70822974Y-118462288D01*
X70673652Y-118370186D01*
X70507115Y-118315001D01*
X70507113Y-118315000D01*
X70404328Y-118304500D01*
X68804316Y-118304500D01*
X68804299Y-118304501D01*
X68701521Y-118315000D01*
X68701518Y-118315001D01*
X68534986Y-118370185D01*
X68534981Y-118370187D01*
X68385660Y-118462289D01*
X68261607Y-118586342D01*
X68169505Y-118735663D01*
X68169503Y-118735668D01*
X68162933Y-118755495D01*
X68114319Y-118902203D01*
X68114319Y-118902204D01*
X68114318Y-118902204D01*
X68103818Y-119004983D01*
X65016500Y-119004983D01*
X65016500Y-112317983D01*
X68089568Y-112317983D01*
X68089568Y-113918001D01*
X68089569Y-113918018D01*
X68100068Y-114020796D01*
X68100069Y-114020799D01*
X68155253Y-114187331D01*
X68155255Y-114187336D01*
X68185064Y-114235664D01*
X68247356Y-114336656D01*
X68371412Y-114460712D01*
X68402022Y-114479592D01*
X68419724Y-114490511D01*
X68466449Y-114542459D01*
X68477672Y-114611421D01*
X68449828Y-114675504D01*
X68448683Y-114676759D01*
X68448715Y-114676786D01*
X68445553Y-114680487D01*
X68445551Y-114680490D01*
X68407446Y-114732937D01*
X68306725Y-114871566D01*
X68199501Y-115082003D01*
X68126514Y-115306631D01*
X68089568Y-115539902D01*
X68089568Y-115776097D01*
X68126514Y-116009368D01*
X68199501Y-116233996D01*
X68276484Y-116385082D01*
X68306725Y-116444433D01*
X68445551Y-116635510D01*
X68612558Y-116802517D01*
X68803635Y-116941343D01*
X68903059Y-116992002D01*
X69014071Y-117048566D01*
X69014073Y-117048566D01*
X69014076Y-117048568D01*
X69134480Y-117087689D01*
X69238699Y-117121553D01*
X69471971Y-117158500D01*
X69471976Y-117158500D01*
X69708165Y-117158500D01*
X69941436Y-117121553D01*
X70166060Y-117048568D01*
X70376501Y-116941343D01*
X70567578Y-116802517D01*
X70734585Y-116635510D01*
X70873411Y-116444433D01*
X70980636Y-116233992D01*
X71053621Y-116009368D01*
X71063132Y-115949320D01*
X71071273Y-115897920D01*
X87133499Y-115897920D01*
X87162340Y-116042907D01*
X87162342Y-116042913D01*
X87187442Y-116103511D01*
X87209825Y-116157547D01*
X87217294Y-116227017D01*
X87209825Y-116252453D01*
X87162342Y-116367086D01*
X87162340Y-116367092D01*
X87133500Y-116512079D01*
X87133500Y-116512082D01*
X87133500Y-116659918D01*
X87133500Y-116659920D01*
X87133499Y-116659920D01*
X87162340Y-116804907D01*
X87162343Y-116804917D01*
X87218912Y-116941488D01*
X87218919Y-116941501D01*
X87301048Y-117064415D01*
X87301051Y-117064419D01*
X87405580Y-117168948D01*
X87405584Y-117168951D01*
X87528498Y-117251080D01*
X87528511Y-117251087D01*
X87641553Y-117297910D01*
X87665087Y-117307658D01*
X87665091Y-117307658D01*
X87665092Y-117307659D01*
X87810079Y-117336500D01*
X87810082Y-117336500D01*
X87957920Y-117336500D01*
X88055462Y-117317096D01*
X88102913Y-117307658D01*
X88239495Y-117251084D01*
X88362416Y-117168951D01*
X88457447Y-117073920D01*
X118849499Y-117073920D01*
X118878340Y-117218907D01*
X118878343Y-117218917D01*
X118934912Y-117355488D01*
X118934919Y-117355501D01*
X119017048Y-117478415D01*
X119017051Y-117478419D01*
X119121580Y-117582948D01*
X119121584Y-117582951D01*
X119244498Y-117665080D01*
X119244511Y-117665087D01*
X119369648Y-117716920D01*
X119381087Y-117721658D01*
X119381091Y-117721658D01*
X119381092Y-117721659D01*
X119526079Y-117750500D01*
X119526082Y-117750500D01*
X119673920Y-117750500D01*
X119771462Y-117731096D01*
X119818913Y-117721658D01*
X119830352Y-117716920D01*
X134499499Y-117716920D01*
X134528340Y-117861907D01*
X134528343Y-117861917D01*
X134584912Y-117998488D01*
X134584919Y-117998501D01*
X134667048Y-118121415D01*
X134667051Y-118121419D01*
X134771580Y-118225948D01*
X134771584Y-118225951D01*
X134894498Y-118308080D01*
X134894511Y-118308087D01*
X135008980Y-118355501D01*
X135031087Y-118364658D01*
X135031091Y-118364658D01*
X135031092Y-118364659D01*
X135176079Y-118393500D01*
X135176082Y-118393500D01*
X135323920Y-118393500D01*
X135421462Y-118374096D01*
X135468913Y-118364658D01*
X135605495Y-118308084D01*
X135728416Y-118225951D01*
X135832951Y-118121416D01*
X135864687Y-118073920D01*
X137999499Y-118073920D01*
X138028340Y-118218907D01*
X138028343Y-118218917D01*
X138084912Y-118355488D01*
X138084919Y-118355501D01*
X138167048Y-118478415D01*
X138167051Y-118478419D01*
X138271580Y-118582948D01*
X138271584Y-118582951D01*
X138394498Y-118665080D01*
X138394511Y-118665087D01*
X138531082Y-118721656D01*
X138531087Y-118721658D01*
X138531091Y-118721658D01*
X138531092Y-118721659D01*
X138676079Y-118750500D01*
X138676082Y-118750500D01*
X138823920Y-118750500D01*
X138921462Y-118731096D01*
X138968913Y-118721658D01*
X139105495Y-118665084D01*
X139228416Y-118582951D01*
X139332951Y-118478416D01*
X139415084Y-118355495D01*
X139422122Y-118338505D01*
X139461787Y-118242744D01*
X139471658Y-118218913D01*
X139491144Y-118120954D01*
X139500500Y-118073920D01*
X139500500Y-117926079D01*
X139471659Y-117781092D01*
X139471658Y-117781091D01*
X139471658Y-117781087D01*
X139471656Y-117781082D01*
X139415087Y-117644511D01*
X139415080Y-117644498D01*
X139332951Y-117521584D01*
X139332948Y-117521580D01*
X139228419Y-117417051D01*
X139228415Y-117417048D01*
X139105501Y-117334919D01*
X139105488Y-117334912D01*
X138968917Y-117278343D01*
X138968907Y-117278340D01*
X138823920Y-117249500D01*
X138823918Y-117249500D01*
X138676082Y-117249500D01*
X138676080Y-117249500D01*
X138531092Y-117278340D01*
X138531082Y-117278343D01*
X138394511Y-117334912D01*
X138394498Y-117334919D01*
X138271584Y-117417048D01*
X138271580Y-117417051D01*
X138167051Y-117521580D01*
X138167048Y-117521584D01*
X138084919Y-117644498D01*
X138084912Y-117644511D01*
X138028343Y-117781082D01*
X138028340Y-117781092D01*
X137999500Y-117926079D01*
X137999500Y-117926082D01*
X137999500Y-118073918D01*
X137999500Y-118073920D01*
X137999499Y-118073920D01*
X135864687Y-118073920D01*
X135915084Y-117998495D01*
X135971658Y-117861913D01*
X135992544Y-117756917D01*
X136000500Y-117716920D01*
X136000500Y-117569079D01*
X135971659Y-117424092D01*
X135971658Y-117424091D01*
X135971658Y-117424087D01*
X135961701Y-117400049D01*
X135915087Y-117287511D01*
X135915080Y-117287498D01*
X135832951Y-117164584D01*
X135832948Y-117164580D01*
X135728419Y-117060051D01*
X135728415Y-117060048D01*
X135605501Y-116977919D01*
X135605488Y-116977912D01*
X135468917Y-116921343D01*
X135468907Y-116921340D01*
X135323920Y-116892500D01*
X135323918Y-116892500D01*
X135176082Y-116892500D01*
X135176080Y-116892500D01*
X135031092Y-116921340D01*
X135031082Y-116921343D01*
X134894511Y-116977912D01*
X134894498Y-116977919D01*
X134771584Y-117060048D01*
X134771580Y-117060051D01*
X134667051Y-117164580D01*
X134667048Y-117164584D01*
X134584919Y-117287498D01*
X134584912Y-117287511D01*
X134528343Y-117424082D01*
X134528340Y-117424092D01*
X134499500Y-117569079D01*
X134499500Y-117569082D01*
X134499500Y-117716918D01*
X134499500Y-117716920D01*
X134499499Y-117716920D01*
X119830352Y-117716920D01*
X119955495Y-117665084D01*
X120078416Y-117582951D01*
X120182951Y-117478416D01*
X120265084Y-117355495D01*
X120321658Y-117218913D01*
X120350500Y-117073918D01*
X120350500Y-116926082D01*
X120350500Y-116926079D01*
X120321659Y-116781092D01*
X120321658Y-116781091D01*
X120321658Y-116781087D01*
X120309273Y-116751186D01*
X120265087Y-116644511D01*
X120265080Y-116644498D01*
X120190526Y-116532920D01*
X131837499Y-116532920D01*
X131866340Y-116677907D01*
X131866343Y-116677917D01*
X131922912Y-116814488D01*
X131922919Y-116814501D01*
X132005048Y-116937415D01*
X132005051Y-116937419D01*
X132109580Y-117041948D01*
X132109584Y-117041951D01*
X132232498Y-117124080D01*
X132232511Y-117124087D01*
X132369082Y-117180656D01*
X132369087Y-117180658D01*
X132369091Y-117180658D01*
X132369092Y-117180659D01*
X132514079Y-117209500D01*
X132514082Y-117209500D01*
X132661920Y-117209500D01*
X132759462Y-117190096D01*
X132806913Y-117180658D01*
X132943495Y-117124084D01*
X133066416Y-117041951D01*
X133170951Y-116937416D01*
X133253084Y-116814495D01*
X133257056Y-116804907D01*
X133279307Y-116751186D01*
X133309658Y-116677913D01*
X133321403Y-116618869D01*
X133338500Y-116532920D01*
X133338500Y-116385079D01*
X133309659Y-116240092D01*
X133309658Y-116240091D01*
X133309658Y-116240087D01*
X133289634Y-116191745D01*
X133253087Y-116103511D01*
X133253080Y-116103498D01*
X133170951Y-115980584D01*
X133170948Y-115980580D01*
X133066419Y-115876051D01*
X133066415Y-115876048D01*
X132943501Y-115793919D01*
X132943488Y-115793912D01*
X132806917Y-115737343D01*
X132806907Y-115737340D01*
X132661920Y-115708500D01*
X132661918Y-115708500D01*
X132514082Y-115708500D01*
X132514080Y-115708500D01*
X132369092Y-115737340D01*
X132369082Y-115737343D01*
X132232511Y-115793912D01*
X132232498Y-115793919D01*
X132109584Y-115876048D01*
X132109580Y-115876051D01*
X132005051Y-115980580D01*
X132005048Y-115980584D01*
X131922919Y-116103498D01*
X131922912Y-116103511D01*
X131866343Y-116240082D01*
X131866340Y-116240092D01*
X131837500Y-116385079D01*
X131837500Y-116385082D01*
X131837500Y-116532918D01*
X131837500Y-116532920D01*
X131837499Y-116532920D01*
X120190526Y-116532920D01*
X120182951Y-116521584D01*
X120182948Y-116521580D01*
X120078419Y-116417051D01*
X120078415Y-116417048D01*
X119955501Y-116334919D01*
X119955488Y-116334912D01*
X119818917Y-116278343D01*
X119818907Y-116278340D01*
X119673920Y-116249500D01*
X119673918Y-116249500D01*
X119526082Y-116249500D01*
X119526080Y-116249500D01*
X119381092Y-116278340D01*
X119381082Y-116278343D01*
X119244511Y-116334912D01*
X119244498Y-116334919D01*
X119121584Y-116417048D01*
X119121580Y-116417051D01*
X119017051Y-116521580D01*
X119017048Y-116521584D01*
X118934919Y-116644498D01*
X118934912Y-116644511D01*
X118878343Y-116781082D01*
X118878340Y-116781092D01*
X118849500Y-116926079D01*
X118849500Y-116926082D01*
X118849500Y-117073918D01*
X118849500Y-117073920D01*
X118849499Y-117073920D01*
X88457447Y-117073920D01*
X88466951Y-117064416D01*
X88549084Y-116941495D01*
X88605658Y-116804913D01*
X88630920Y-116677917D01*
X88634500Y-116659920D01*
X88634500Y-116512079D01*
X88605659Y-116367092D01*
X88605658Y-116367091D01*
X88605658Y-116367087D01*
X88558174Y-116252452D01*
X88557068Y-116242158D01*
X116851499Y-116242158D01*
X116880340Y-116387145D01*
X116880343Y-116387155D01*
X116936912Y-116523726D01*
X116936919Y-116523739D01*
X117019048Y-116646653D01*
X117019051Y-116646657D01*
X117123580Y-116751186D01*
X117123584Y-116751189D01*
X117246498Y-116833318D01*
X117246511Y-116833325D01*
X117383082Y-116889894D01*
X117383087Y-116889896D01*
X117383091Y-116889896D01*
X117383092Y-116889897D01*
X117528079Y-116918738D01*
X117528082Y-116918738D01*
X117675920Y-116918738D01*
X117773462Y-116899334D01*
X117820913Y-116889896D01*
X117957495Y-116833322D01*
X117957501Y-116833318D01*
X117982091Y-116816888D01*
X118035678Y-116781082D01*
X118080416Y-116751189D01*
X118184951Y-116646654D01*
X118267084Y-116523733D01*
X118323658Y-116387151D01*
X118345302Y-116278342D01*
X118352500Y-116242158D01*
X118352500Y-116094317D01*
X118323659Y-115949330D01*
X118323658Y-115949329D01*
X118323658Y-115949325D01*
X118323656Y-115949320D01*
X118267087Y-115812749D01*
X118267080Y-115812736D01*
X118184951Y-115689822D01*
X118184948Y-115689818D01*
X118080419Y-115585289D01*
X118080415Y-115585286D01*
X117957501Y-115503157D01*
X117957488Y-115503150D01*
X117820917Y-115446581D01*
X117820907Y-115446578D01*
X117675920Y-115417738D01*
X117675918Y-115417738D01*
X117528082Y-115417738D01*
X117528080Y-115417738D01*
X117383092Y-115446578D01*
X117383082Y-115446581D01*
X117246511Y-115503150D01*
X117246498Y-115503157D01*
X117123584Y-115585286D01*
X117123580Y-115585289D01*
X117019051Y-115689818D01*
X117019048Y-115689822D01*
X116936919Y-115812736D01*
X116936912Y-115812749D01*
X116880343Y-115949320D01*
X116880340Y-115949330D01*
X116851500Y-116094317D01*
X116851500Y-116094320D01*
X116851500Y-116242156D01*
X116851500Y-116242158D01*
X116851499Y-116242158D01*
X88557068Y-116242158D01*
X88554895Y-116221946D01*
X88549446Y-116191745D01*
X88550995Y-116185674D01*
X88550706Y-116182983D01*
X88558175Y-116157548D01*
X88568378Y-116132913D01*
X88605658Y-116042913D01*
X88634500Y-115897918D01*
X88634500Y-115750082D01*
X88634500Y-115750079D01*
X88605659Y-115605092D01*
X88605658Y-115605091D01*
X88605658Y-115605087D01*
X88605656Y-115605082D01*
X88549087Y-115468511D01*
X88549080Y-115468498D01*
X88466951Y-115345584D01*
X88466948Y-115345580D01*
X88362419Y-115241051D01*
X88362415Y-115241048D01*
X88239501Y-115158919D01*
X88239488Y-115158912D01*
X88102917Y-115102343D01*
X88102907Y-115102340D01*
X87957920Y-115073500D01*
X87957918Y-115073500D01*
X87810082Y-115073500D01*
X87810080Y-115073500D01*
X87665092Y-115102340D01*
X87665082Y-115102343D01*
X87528511Y-115158912D01*
X87528498Y-115158919D01*
X87405584Y-115241048D01*
X87405580Y-115241051D01*
X87301051Y-115345580D01*
X87301048Y-115345584D01*
X87218919Y-115468498D01*
X87218912Y-115468511D01*
X87162343Y-115605082D01*
X87162340Y-115605092D01*
X87133500Y-115750079D01*
X87133500Y-115750082D01*
X87133500Y-115897918D01*
X87133500Y-115897920D01*
X87133499Y-115897920D01*
X71071273Y-115897920D01*
X71090568Y-115776097D01*
X71090568Y-115539902D01*
X71053621Y-115306631D01*
X71018041Y-115197127D01*
X70980636Y-115082008D01*
X70980634Y-115082005D01*
X70980634Y-115082003D01*
X70902602Y-114928858D01*
X70873411Y-114871567D01*
X70801376Y-114772420D01*
X83577499Y-114772420D01*
X83606340Y-114917407D01*
X83606343Y-114917417D01*
X83662912Y-115053988D01*
X83662919Y-115054001D01*
X83745048Y-115176915D01*
X83745051Y-115176919D01*
X83849580Y-115281448D01*
X83849584Y-115281451D01*
X83972498Y-115363580D01*
X83972511Y-115363587D01*
X84109082Y-115420156D01*
X84109087Y-115420158D01*
X84109091Y-115420158D01*
X84109092Y-115420159D01*
X84254079Y-115449000D01*
X84254082Y-115449000D01*
X84401920Y-115449000D01*
X84504146Y-115428665D01*
X84546913Y-115420158D01*
X84683495Y-115363584D01*
X84806416Y-115281451D01*
X84910951Y-115176916D01*
X84993084Y-115053995D01*
X85049658Y-114917413D01*
X85066836Y-114831057D01*
X85078500Y-114772420D01*
X85078500Y-114624579D01*
X85049659Y-114479592D01*
X85049658Y-114479591D01*
X85049658Y-114479587D01*
X85049656Y-114479582D01*
X85017387Y-114401678D01*
X141865506Y-114401678D01*
X141865506Y-114402321D01*
X141865807Y-114419811D01*
X141866803Y-114448698D01*
X141867181Y-114457471D01*
X141867202Y-114457873D01*
X141867809Y-114467711D01*
X141869809Y-114495716D01*
X141871320Y-114512806D01*
X141871381Y-114513391D01*
X141873336Y-114529447D01*
X141877322Y-114558353D01*
X141878804Y-114568365D01*
X141878859Y-114568714D01*
X141879647Y-114573390D01*
X141880528Y-114578620D01*
X141880539Y-114578681D01*
X141885525Y-114606607D01*
X141885536Y-114606665D01*
X141888888Y-114623726D01*
X141889031Y-114624393D01*
X141889075Y-114624582D01*
X141892893Y-114641033D01*
X141899889Y-114669016D01*
X141901898Y-114676786D01*
X141902029Y-114677276D01*
X141904330Y-114685604D01*
X141912332Y-114713612D01*
X141918045Y-114732240D01*
X141918274Y-114732937D01*
X141924587Y-114751031D01*
X141934553Y-114777940D01*
X141937174Y-114784864D01*
X141937252Y-114785066D01*
X141940575Y-114793438D01*
X141951607Y-114820516D01*
X141955857Y-114830631D01*
X141956040Y-114831053D01*
X141960922Y-114841972D01*
X141972948Y-114868027D01*
X141981747Y-114886137D01*
X141982118Y-114886863D01*
X141991221Y-114903872D01*
X142005212Y-114928858D01*
X142008755Y-114935077D01*
X142008986Y-114935477D01*
X142012987Y-114942265D01*
X142027970Y-114967237D01*
X142036936Y-114981625D01*
X142037305Y-114982197D01*
X142046814Y-114996372D01*
X142062843Y-115019413D01*
X142071213Y-115031084D01*
X142071569Y-115031566D01*
X142080056Y-115042727D01*
X142098033Y-115065698D01*
X142101171Y-115069665D01*
X142101296Y-115069823D01*
X142105017Y-115074424D01*
X142123008Y-115096414D01*
X142123024Y-115096433D01*
X142123025Y-115096434D01*
X142135374Y-115110959D01*
X142135873Y-115111524D01*
X142148707Y-115125518D01*
X142148722Y-115125534D01*
X142148725Y-115125537D01*
X142168680Y-115146491D01*
X142177352Y-115155375D01*
X142177624Y-115155647D01*
X142186508Y-115164319D01*
X142199735Y-115176915D01*
X142207482Y-115184293D01*
X142221476Y-115197127D01*
X142222041Y-115197626D01*
X142236566Y-115209975D01*
X142236585Y-115209991D01*
X142258575Y-115227982D01*
X142263176Y-115231703D01*
X142263334Y-115231828D01*
X142267301Y-115234966D01*
X142290272Y-115252943D01*
X142290291Y-115252957D01*
X142290293Y-115252959D01*
X142301423Y-115261423D01*
X142301875Y-115261757D01*
X142301900Y-115261775D01*
X142301915Y-115261786D01*
X142313586Y-115270156D01*
X142336627Y-115286185D01*
X142350802Y-115295694D01*
X142351374Y-115296063D01*
X142365762Y-115305029D01*
X142365776Y-115305037D01*
X142365777Y-115305038D01*
X142390777Y-115320038D01*
X142397515Y-115324009D01*
X142397522Y-115324013D01*
X142397864Y-115324211D01*
X142404141Y-115327787D01*
X142429127Y-115341778D01*
X142446136Y-115350881D01*
X142446163Y-115350894D01*
X142446169Y-115350898D01*
X142446864Y-115351253D01*
X142464975Y-115360053D01*
X142490975Y-115372053D01*
X142491027Y-115372077D01*
X142498513Y-115375424D01*
X142501943Y-115376958D01*
X142502361Y-115377139D01*
X142512503Y-115381401D01*
X142539503Y-115392401D01*
X142539561Y-115392424D01*
X142547933Y-115395747D01*
X142548135Y-115395825D01*
X142548166Y-115395836D01*
X142548221Y-115395858D01*
X142554960Y-115398409D01*
X142555018Y-115398430D01*
X142555059Y-115398446D01*
X142581968Y-115408412D01*
X142588212Y-115410590D01*
X142600058Y-115414724D01*
X142600490Y-115414865D01*
X142600759Y-115414954D01*
X142600768Y-115414956D01*
X142600784Y-115414962D01*
X142613346Y-115418814D01*
X142619387Y-115420667D01*
X142647381Y-115428665D01*
X142655816Y-115430996D01*
X142656138Y-115431082D01*
X142663973Y-115433108D01*
X142691973Y-115440108D01*
X142708607Y-115443969D01*
X142709274Y-115444112D01*
X142726380Y-115447472D01*
X142754380Y-115452472D01*
X142764272Y-115454138D01*
X142764664Y-115454200D01*
X142774564Y-115455665D01*
X142774577Y-115455666D01*
X142774646Y-115455677D01*
X142793916Y-115458334D01*
X142803564Y-115459665D01*
X142811580Y-115460640D01*
X142819608Y-115461618D01*
X142820193Y-115461679D01*
X142820250Y-115461685D01*
X142837273Y-115463190D01*
X142865273Y-115465190D01*
X142875153Y-115465799D01*
X142875520Y-115465818D01*
X142884234Y-115466194D01*
X142884287Y-115466195D01*
X142884291Y-115466196D01*
X142913247Y-115467195D01*
X142920378Y-115467379D01*
X142921865Y-115467418D01*
X142922210Y-115467424D01*
X142922270Y-115467424D01*
X142922297Y-115467425D01*
X142930952Y-115467500D01*
X142931000Y-115467500D01*
X143268844Y-115467500D01*
X143335883Y-115487185D01*
X143381638Y-115539989D01*
X143391582Y-115609147D01*
X143390461Y-115615692D01*
X143380500Y-115665768D01*
X143380500Y-115838233D01*
X143414143Y-116007366D01*
X143414146Y-116007378D01*
X143480138Y-116166698D01*
X143480145Y-116166711D01*
X143575954Y-116310098D01*
X143575957Y-116310102D01*
X143697897Y-116432042D01*
X143697901Y-116432045D01*
X143841288Y-116527854D01*
X143841301Y-116527861D01*
X144000621Y-116593853D01*
X144000626Y-116593855D01*
X144126380Y-116618869D01*
X144188291Y-116651253D01*
X144222865Y-116711969D01*
X144219126Y-116781738D01*
X144178260Y-116838411D01*
X144149644Y-116855046D01*
X144106510Y-116872913D01*
X144106498Y-116872919D01*
X143983584Y-116955048D01*
X143983580Y-116955051D01*
X143879051Y-117059580D01*
X143879048Y-117059584D01*
X143796919Y-117182498D01*
X143796912Y-117182511D01*
X143740343Y-117319082D01*
X143740340Y-117319092D01*
X143711500Y-117464079D01*
X143711500Y-117464082D01*
X143711500Y-117611918D01*
X143711500Y-117611920D01*
X143711499Y-117611920D01*
X143740340Y-117756907D01*
X143740343Y-117756917D01*
X143796912Y-117893488D01*
X143796919Y-117893501D01*
X143879048Y-118016415D01*
X143879051Y-118016419D01*
X143983580Y-118120948D01*
X143983588Y-118120954D01*
X144106494Y-118203077D01*
X144106498Y-118203079D01*
X144106505Y-118203084D01*
X144154802Y-118223088D01*
X144209204Y-118266927D01*
X144221910Y-118290196D01*
X144241916Y-118338495D01*
X144241919Y-118338499D01*
X144241922Y-118338505D01*
X144324045Y-118461411D01*
X144324051Y-118461419D01*
X144428580Y-118565948D01*
X144428584Y-118565951D01*
X144551498Y-118648080D01*
X144551511Y-118648087D01*
X144688082Y-118704656D01*
X144688087Y-118704658D01*
X144688091Y-118704658D01*
X144688092Y-118704659D01*
X144833079Y-118733500D01*
X144833082Y-118733500D01*
X144980920Y-118733500D01*
X145078462Y-118714096D01*
X145125913Y-118704658D01*
X145262495Y-118648084D01*
X145385416Y-118565951D01*
X145489951Y-118461416D01*
X145572084Y-118338495D01*
X145628658Y-118201913D01*
X145644670Y-118121416D01*
X145657500Y-118056920D01*
X145657500Y-117909079D01*
X145628659Y-117764092D01*
X145628658Y-117764091D01*
X145628658Y-117764087D01*
X145625688Y-117756917D01*
X145572087Y-117627511D01*
X145572080Y-117627498D01*
X145489951Y-117504584D01*
X145489948Y-117504580D01*
X145385419Y-117400051D01*
X145385411Y-117400045D01*
X145262505Y-117317922D01*
X145262499Y-117317919D01*
X145262495Y-117317916D01*
X145214196Y-117297910D01*
X145159793Y-117254069D01*
X145147090Y-117230807D01*
X145127084Y-117182505D01*
X145111044Y-117158500D01*
X145044954Y-117059588D01*
X145044948Y-117059580D01*
X144940419Y-116955051D01*
X144940415Y-116955048D01*
X144817501Y-116872919D01*
X144817488Y-116872912D01*
X144680917Y-116816343D01*
X144680907Y-116816340D01*
X144604422Y-116801126D01*
X144542511Y-116768741D01*
X144507937Y-116708025D01*
X144511678Y-116638255D01*
X144552544Y-116581583D01*
X144581162Y-116564948D01*
X144670698Y-116527861D01*
X144670698Y-116527860D01*
X144670705Y-116527858D01*
X144814099Y-116432045D01*
X144936045Y-116310099D01*
X145031858Y-116166705D01*
X145097855Y-116007374D01*
X145131500Y-115838229D01*
X145131500Y-115665771D01*
X145131500Y-115665768D01*
X145131499Y-115665766D01*
X145115491Y-115585287D01*
X145097855Y-115496626D01*
X145051284Y-115384195D01*
X145043816Y-115314728D01*
X145075091Y-115252248D01*
X145089425Y-115239092D01*
X145094707Y-115234959D01*
X145098661Y-115231832D01*
X145098769Y-115231745D01*
X145098823Y-115231703D01*
X145099923Y-115230812D01*
X145103434Y-115227975D01*
X145125434Y-115209975D01*
X145139959Y-115197626D01*
X145140524Y-115197127D01*
X145154518Y-115184293D01*
X145175518Y-115164293D01*
X145184339Y-115155683D01*
X145184683Y-115155339D01*
X145193293Y-115146518D01*
X145213293Y-115125518D01*
X145226127Y-115111524D01*
X145226626Y-115110959D01*
X145238975Y-115096434D01*
X145256975Y-115074434D01*
X145260697Y-115069830D01*
X145260832Y-115069661D01*
X145263959Y-115065707D01*
X145281959Y-115042707D01*
X145290423Y-115031577D01*
X145290757Y-115031125D01*
X145299177Y-115019384D01*
X145315177Y-114996384D01*
X145324692Y-114982200D01*
X145325058Y-114981634D01*
X145334038Y-114967223D01*
X145349038Y-114942223D01*
X145353009Y-114935485D01*
X145353159Y-114935226D01*
X145353182Y-114935185D01*
X145353245Y-114935077D01*
X145356793Y-114928847D01*
X145367594Y-114909559D01*
X145417522Y-114860682D01*
X145485949Y-114846558D01*
X145551150Y-114871671D01*
X145592424Y-114928047D01*
X145598260Y-114950743D01*
X145607597Y-115009698D01*
X145607598Y-115009701D01*
X145657828Y-115164293D01*
X145661128Y-115174447D01*
X145662386Y-115176916D01*
X145739768Y-115328788D01*
X145841586Y-115468928D01*
X145964072Y-115591414D01*
X146104212Y-115693232D01*
X146258555Y-115771873D01*
X146423299Y-115825402D01*
X146594389Y-115852500D01*
X146594390Y-115852500D01*
X147867610Y-115852500D01*
X147867611Y-115852500D01*
X148038701Y-115825402D01*
X148203445Y-115771873D01*
X148357788Y-115693232D01*
X148497928Y-115591414D01*
X148620414Y-115468928D01*
X148722232Y-115328788D01*
X148800873Y-115174445D01*
X148854402Y-115009701D01*
X148881500Y-114838611D01*
X148881500Y-114665389D01*
X148854402Y-114494299D01*
X148800873Y-114329555D01*
X148722232Y-114175212D01*
X148620414Y-114035072D01*
X148497928Y-113912586D01*
X148357788Y-113810768D01*
X148203445Y-113732127D01*
X148038701Y-113678598D01*
X148038699Y-113678597D01*
X148038698Y-113678597D01*
X147905380Y-113657482D01*
X147867611Y-113651500D01*
X146594389Y-113651500D01*
X146556620Y-113657482D01*
X146423302Y-113678597D01*
X146258552Y-113732128D01*
X146104211Y-113810768D01*
X146034004Y-113861777D01*
X145964072Y-113912586D01*
X145964070Y-113912588D01*
X145964069Y-113912588D01*
X145841588Y-114035069D01*
X145841588Y-114035070D01*
X145841586Y-114035072D01*
X145828590Y-114052960D01*
X145739766Y-114175213D01*
X145709510Y-114234595D01*
X145661536Y-114285390D01*
X145593715Y-114302185D01*
X145527580Y-114279647D01*
X145484129Y-114224932D01*
X145476956Y-114200090D01*
X145476474Y-114197392D01*
X145476472Y-114197380D01*
X145473112Y-114180274D01*
X145472969Y-114179607D01*
X145469108Y-114162973D01*
X145462108Y-114134973D01*
X145460082Y-114127138D01*
X145459996Y-114126816D01*
X145457665Y-114118381D01*
X145449665Y-114090381D01*
X145443962Y-114071784D01*
X145443724Y-114071058D01*
X145437409Y-114052960D01*
X145430172Y-114033419D01*
X145427446Y-114026059D01*
X145425454Y-114020797D01*
X145424858Y-114019221D01*
X145424742Y-114018921D01*
X145423747Y-114016415D01*
X145421424Y-114010561D01*
X145421401Y-114010503D01*
X145410401Y-113983503D01*
X145406139Y-113973361D01*
X145405958Y-113972943D01*
X145404424Y-113969513D01*
X145401077Y-113962027D01*
X145394603Y-113948000D01*
X145389053Y-113935975D01*
X145380253Y-113917864D01*
X145379898Y-113917169D01*
X145379894Y-113917163D01*
X145379881Y-113917136D01*
X145370778Y-113900127D01*
X145356787Y-113875141D01*
X145353211Y-113868864D01*
X145353013Y-113868522D01*
X145353009Y-113868515D01*
X145349038Y-113861777D01*
X145334038Y-113836777D01*
X145325058Y-113822366D01*
X145324990Y-113822261D01*
X145324694Y-113821802D01*
X145315185Y-113807627D01*
X145299156Y-113784586D01*
X145290786Y-113772915D01*
X145290775Y-113772900D01*
X145290757Y-113772875D01*
X145290423Y-113772423D01*
X145281959Y-113761293D01*
X145281943Y-113761272D01*
X145263966Y-113738301D01*
X145260828Y-113734334D01*
X145260703Y-113734176D01*
X145256982Y-113729575D01*
X145238991Y-113707585D01*
X145226606Y-113693018D01*
X145226160Y-113692513D01*
X145226151Y-113692503D01*
X145226127Y-113692476D01*
X145213293Y-113678482D01*
X145213274Y-113678462D01*
X145193319Y-113657508D01*
X145184647Y-113648624D01*
X145184375Y-113648352D01*
X145175491Y-113639680D01*
X145154537Y-113619725D01*
X145154534Y-113619722D01*
X145154518Y-113619707D01*
X145140524Y-113606873D01*
X145139959Y-113606374D01*
X145125434Y-113594025D01*
X145125433Y-113594024D01*
X145125414Y-113594008D01*
X145103424Y-113576017D01*
X145098823Y-113572296D01*
X145098665Y-113572171D01*
X145094698Y-113569033D01*
X145071727Y-113551056D01*
X145060566Y-113542569D01*
X145060084Y-113542213D01*
X145048413Y-113533843D01*
X145025372Y-113517814D01*
X145011197Y-113508305D01*
X145010625Y-113507936D01*
X144996237Y-113498970D01*
X144971265Y-113483987D01*
X144964477Y-113479986D01*
X144964135Y-113479788D01*
X144957858Y-113476212D01*
X144932872Y-113462221D01*
X144915863Y-113453118D01*
X144915137Y-113452747D01*
X144897027Y-113443948D01*
X144870972Y-113431922D01*
X144860053Y-113427040D01*
X144859631Y-113426857D01*
X144849516Y-113422607D01*
X144849517Y-113422607D01*
X144849497Y-113422599D01*
X144822497Y-113411599D01*
X144822493Y-113411597D01*
X144822438Y-113411575D01*
X144814066Y-113408252D01*
X144813864Y-113408174D01*
X144806940Y-113405553D01*
X144780031Y-113395587D01*
X144761937Y-113389274D01*
X144761240Y-113389045D01*
X144742612Y-113383332D01*
X144714604Y-113375330D01*
X144706276Y-113373029D01*
X144706228Y-113373016D01*
X144706184Y-113373004D01*
X144705862Y-113372918D01*
X144705816Y-113372906D01*
X144698016Y-113370889D01*
X144670033Y-113363893D01*
X144661884Y-113362002D01*
X144653393Y-113360031D01*
X144653145Y-113359978D01*
X144652708Y-113359884D01*
X144635607Y-113356525D01*
X144611489Y-113352218D01*
X144607620Y-113351528D01*
X144602390Y-113350647D01*
X144597714Y-113349859D01*
X144597365Y-113349804D01*
X144587353Y-113348322D01*
X144558447Y-113344336D01*
X144542391Y-113342381D01*
X144541806Y-113342320D01*
X144541752Y-113342315D01*
X144541750Y-113342315D01*
X144524727Y-113340810D01*
X144524728Y-113340810D01*
X144524716Y-113340809D01*
X144507913Y-113339609D01*
X144496727Y-113338810D01*
X144496711Y-113338809D01*
X144486873Y-113338202D01*
X144486471Y-113338181D01*
X144477708Y-113337803D01*
X144448752Y-113336804D01*
X144440206Y-113336583D01*
X144439702Y-113336574D01*
X144431048Y-113336500D01*
X144431000Y-113336500D01*
X142931000Y-113336500D01*
X142930952Y-113336500D01*
X142922297Y-113336574D01*
X142921793Y-113336583D01*
X142913247Y-113336804D01*
X142884291Y-113337803D01*
X142875528Y-113338181D01*
X142875126Y-113338202D01*
X142865288Y-113338809D01*
X142865280Y-113338809D01*
X142865273Y-113338810D01*
X142859687Y-113339209D01*
X142837283Y-113340809D01*
X142820193Y-113342320D01*
X142819608Y-113342381D01*
X142803552Y-113344336D01*
X142774646Y-113348322D01*
X142764634Y-113349804D01*
X142764285Y-113349859D01*
X142758381Y-113350853D01*
X142754380Y-113351528D01*
X142754325Y-113351537D01*
X142754318Y-113351539D01*
X142726392Y-113356525D01*
X142709291Y-113359884D01*
X142708625Y-113360027D01*
X142708617Y-113360028D01*
X142708607Y-113360031D01*
X142704930Y-113360884D01*
X142691966Y-113363893D01*
X142663983Y-113370889D01*
X142656183Y-113372906D01*
X142655723Y-113373029D01*
X142647395Y-113375330D01*
X142619387Y-113383332D01*
X142600759Y-113389045D01*
X142600062Y-113389274D01*
X142581968Y-113395587D01*
X142555059Y-113405553D01*
X142548135Y-113408174D01*
X142547933Y-113408252D01*
X142539561Y-113411575D01*
X142512483Y-113422607D01*
X142502368Y-113426857D01*
X142501946Y-113427040D01*
X142491027Y-113431922D01*
X142464972Y-113443948D01*
X142446862Y-113452747D01*
X142446136Y-113453118D01*
X142429127Y-113462221D01*
X142404141Y-113476212D01*
X142397864Y-113479788D01*
X142397522Y-113479986D01*
X142390734Y-113483987D01*
X142365762Y-113498970D01*
X142351374Y-113507936D01*
X142350802Y-113508305D01*
X142336627Y-113517814D01*
X142313586Y-113533843D01*
X142301915Y-113542213D01*
X142301433Y-113542569D01*
X142290272Y-113551056D01*
X142267301Y-113569033D01*
X142263334Y-113572171D01*
X142263176Y-113572296D01*
X142258575Y-113576017D01*
X142236585Y-113594008D01*
X142222018Y-113606393D01*
X142221513Y-113606839D01*
X142207462Y-113619725D01*
X142186508Y-113639680D01*
X142177624Y-113648352D01*
X142177352Y-113648624D01*
X142168680Y-113657508D01*
X142148725Y-113678462D01*
X142135839Y-113692513D01*
X142135393Y-113693018D01*
X142123008Y-113707585D01*
X142105017Y-113729575D01*
X142101296Y-113734176D01*
X142101171Y-113734334D01*
X142098033Y-113738301D01*
X142080056Y-113761272D01*
X142071569Y-113772433D01*
X142071213Y-113772915D01*
X142062843Y-113784586D01*
X142046814Y-113807627D01*
X142037305Y-113821802D01*
X142036936Y-113822374D01*
X142027970Y-113836762D01*
X142012987Y-113861734D01*
X142008986Y-113868522D01*
X142008788Y-113868864D01*
X142005212Y-113875141D01*
X141991221Y-113900127D01*
X141982118Y-113917136D01*
X141981747Y-113917862D01*
X141972948Y-113935972D01*
X141960922Y-113962027D01*
X141956040Y-113972946D01*
X141955857Y-113973368D01*
X141951607Y-113983483D01*
X141940575Y-114010561D01*
X141937252Y-114018933D01*
X141937174Y-114019135D01*
X141934553Y-114026059D01*
X141924587Y-114052968D01*
X141918274Y-114071062D01*
X141918045Y-114071759D01*
X141912332Y-114090387D01*
X141904330Y-114118395D01*
X141902029Y-114126723D01*
X141901906Y-114127183D01*
X141899889Y-114134983D01*
X141892893Y-114162966D01*
X141889027Y-114179625D01*
X141888884Y-114180291D01*
X141885525Y-114197392D01*
X141880608Y-114224932D01*
X141880528Y-114225380D01*
X141879853Y-114229381D01*
X141878859Y-114235285D01*
X141878804Y-114235634D01*
X141877322Y-114245646D01*
X141873336Y-114274552D01*
X141871381Y-114290608D01*
X141871320Y-114291193D01*
X141869809Y-114308283D01*
X141867809Y-114336288D01*
X141867202Y-114346126D01*
X141867181Y-114346528D01*
X141866803Y-114355301D01*
X141865807Y-114384188D01*
X141865506Y-114401678D01*
X85017387Y-114401678D01*
X84993087Y-114343011D01*
X84993080Y-114342998D01*
X84910951Y-114220084D01*
X84910948Y-114220080D01*
X84806419Y-114115551D01*
X84806415Y-114115548D01*
X84683501Y-114033419D01*
X84683488Y-114033412D01*
X84546917Y-113976843D01*
X84546907Y-113976840D01*
X84401920Y-113948000D01*
X84401918Y-113948000D01*
X84254082Y-113948000D01*
X84254080Y-113948000D01*
X84109092Y-113976840D01*
X84109082Y-113976843D01*
X83972511Y-114033412D01*
X83972498Y-114033419D01*
X83849584Y-114115548D01*
X83849580Y-114115551D01*
X83745051Y-114220080D01*
X83745048Y-114220084D01*
X83662919Y-114342998D01*
X83662912Y-114343011D01*
X83606343Y-114479582D01*
X83606340Y-114479592D01*
X83577500Y-114624579D01*
X83577500Y-114624582D01*
X83577500Y-114772418D01*
X83577500Y-114772420D01*
X83577499Y-114772420D01*
X70801376Y-114772420D01*
X70734585Y-114680490D01*
X70732184Y-114678089D01*
X70727314Y-114671774D01*
X70717414Y-114646350D01*
X70704341Y-114622408D01*
X70704923Y-114614269D01*
X70701962Y-114606665D01*
X70707379Y-114579925D01*
X70709325Y-114552716D01*
X70714214Y-114546184D01*
X70715835Y-114538187D01*
X70734848Y-114518621D01*
X70751197Y-114496783D01*
X70760402Y-114490516D01*
X70808724Y-114460712D01*
X70932780Y-114336656D01*
X71024882Y-114187334D01*
X71080067Y-114020797D01*
X71090568Y-113918009D01*
X71090568Y-113611920D01*
X128789499Y-113611920D01*
X128818340Y-113756907D01*
X128818343Y-113756917D01*
X128874912Y-113893488D01*
X128874919Y-113893501D01*
X128957048Y-114016415D01*
X128957051Y-114016419D01*
X129061580Y-114120948D01*
X129061584Y-114120951D01*
X129184498Y-114203080D01*
X129184511Y-114203087D01*
X129263160Y-114235664D01*
X129321087Y-114259658D01*
X129321091Y-114259658D01*
X129321092Y-114259659D01*
X129466079Y-114288500D01*
X129466082Y-114288500D01*
X129613920Y-114288500D01*
X129661830Y-114278970D01*
X129732619Y-114264888D01*
X129758913Y-114259658D01*
X129895495Y-114203084D01*
X130018416Y-114120951D01*
X130122951Y-114016416D01*
X130205084Y-113893495D01*
X130212687Y-113875141D01*
X130228577Y-113836777D01*
X130261658Y-113756913D01*
X130277236Y-113678598D01*
X130290500Y-113611920D01*
X130290500Y-113464079D01*
X130261659Y-113319092D01*
X130261658Y-113319091D01*
X130261658Y-113319087D01*
X130261656Y-113319082D01*
X130205087Y-113182511D01*
X130205080Y-113182498D01*
X130122951Y-113059584D01*
X130122948Y-113059580D01*
X130018419Y-112955051D01*
X130018415Y-112955048D01*
X129895501Y-112872919D01*
X129895488Y-112872912D01*
X129758917Y-112816343D01*
X129758907Y-112816340D01*
X129613920Y-112787500D01*
X129613918Y-112787500D01*
X129466082Y-112787500D01*
X129466080Y-112787500D01*
X129321092Y-112816340D01*
X129321082Y-112816343D01*
X129184511Y-112872912D01*
X129184498Y-112872919D01*
X129061584Y-112955048D01*
X129061580Y-112955051D01*
X128957051Y-113059580D01*
X128957048Y-113059584D01*
X128874919Y-113182498D01*
X128874912Y-113182511D01*
X128818343Y-113319082D01*
X128818340Y-113319092D01*
X128789500Y-113464079D01*
X128789500Y-113464082D01*
X128789500Y-113611918D01*
X128789500Y-113611920D01*
X128789499Y-113611920D01*
X71090568Y-113611920D01*
X71090567Y-113059584D01*
X71090567Y-112317998D01*
X71090566Y-112317981D01*
X71080067Y-112215203D01*
X71080066Y-112215200D01*
X71024882Y-112048666D01*
X70932780Y-111899344D01*
X70808724Y-111775288D01*
X70659402Y-111683186D01*
X70492865Y-111628001D01*
X70492863Y-111628000D01*
X70390078Y-111617500D01*
X68790066Y-111617500D01*
X68790049Y-111617501D01*
X68687271Y-111628000D01*
X68687268Y-111628001D01*
X68520736Y-111683185D01*
X68520731Y-111683187D01*
X68371410Y-111775289D01*
X68247357Y-111899342D01*
X68155255Y-112048663D01*
X68155254Y-112048666D01*
X68100069Y-112215203D01*
X68100069Y-112215204D01*
X68100068Y-112215204D01*
X68089568Y-112317983D01*
X65016500Y-112317983D01*
X65016500Y-108873920D01*
X99849499Y-108873920D01*
X99878340Y-109018907D01*
X99878343Y-109018917D01*
X99933694Y-109152548D01*
X99941163Y-109222018D01*
X99933694Y-109247452D01*
X99878343Y-109381082D01*
X99878340Y-109381092D01*
X99849500Y-109526079D01*
X99849500Y-109526082D01*
X99849500Y-109673918D01*
X99849500Y-109673920D01*
X99849499Y-109673920D01*
X99878340Y-109818906D01*
X99878342Y-109818914D01*
X99912984Y-109902548D01*
X99920453Y-109972018D01*
X99912984Y-109997452D01*
X99878342Y-110081085D01*
X99878340Y-110081093D01*
X99849500Y-110226079D01*
X99849500Y-110226082D01*
X99849500Y-110373918D01*
X99849500Y-110373920D01*
X99849499Y-110373920D01*
X99878340Y-110518907D01*
X99878343Y-110518917D01*
X99934912Y-110655488D01*
X99934919Y-110655501D01*
X100017048Y-110778415D01*
X100017051Y-110778419D01*
X100121580Y-110882948D01*
X100121584Y-110882951D01*
X100244498Y-110965080D01*
X100244511Y-110965087D01*
X100381082Y-111021656D01*
X100381087Y-111021658D01*
X100381091Y-111021658D01*
X100381092Y-111021659D01*
X100526079Y-111050500D01*
X100526082Y-111050500D01*
X100673920Y-111050500D01*
X100771462Y-111031096D01*
X100818913Y-111021658D01*
X100952547Y-110966304D01*
X101022017Y-110958836D01*
X101047452Y-110966304D01*
X101181087Y-111021658D01*
X101181091Y-111021658D01*
X101181092Y-111021659D01*
X101326079Y-111050500D01*
X101326082Y-111050500D01*
X101473920Y-111050500D01*
X101571462Y-111031096D01*
X101618913Y-111021658D01*
X101755495Y-110965084D01*
X101878416Y-110882951D01*
X101982951Y-110778416D01*
X102065084Y-110655495D01*
X102121658Y-110518913D01*
X102150500Y-110373918D01*
X102150500Y-110226082D01*
X102150500Y-110226079D01*
X102121659Y-110081092D01*
X102121658Y-110081091D01*
X102121658Y-110081087D01*
X102087014Y-109997450D01*
X102079546Y-109927984D01*
X102087015Y-109902548D01*
X102121658Y-109818913D01*
X102131096Y-109771462D01*
X102150500Y-109673920D01*
X102150500Y-109526079D01*
X102121659Y-109381092D01*
X102121658Y-109381091D01*
X102121658Y-109381087D01*
X102066304Y-109247452D01*
X102058836Y-109177983D01*
X102066305Y-109152547D01*
X102121658Y-109018913D01*
X102150500Y-108873920D01*
X105449499Y-108873920D01*
X105478340Y-109018907D01*
X105478343Y-109018917D01*
X105533694Y-109152548D01*
X105541163Y-109222018D01*
X105533694Y-109247452D01*
X105478343Y-109381082D01*
X105478340Y-109381092D01*
X105449500Y-109526079D01*
X105449500Y-109526082D01*
X105449500Y-109673918D01*
X105449500Y-109673920D01*
X105449499Y-109673920D01*
X105478340Y-109818907D01*
X105478343Y-109818917D01*
X105533694Y-109952548D01*
X105541163Y-110022018D01*
X105533694Y-110047452D01*
X105478343Y-110181082D01*
X105478340Y-110181092D01*
X105449500Y-110326079D01*
X105449500Y-110326082D01*
X105449500Y-110473918D01*
X105449500Y-110473920D01*
X105449499Y-110473920D01*
X105478340Y-110618907D01*
X105478343Y-110618917D01*
X105534912Y-110755488D01*
X105534919Y-110755501D01*
X105617048Y-110878415D01*
X105617051Y-110878419D01*
X105721580Y-110982948D01*
X105721584Y-110982951D01*
X105844498Y-111065080D01*
X105844511Y-111065087D01*
X105981082Y-111121656D01*
X105981087Y-111121658D01*
X105981091Y-111121658D01*
X105981092Y-111121659D01*
X106126079Y-111150500D01*
X106126082Y-111150500D01*
X106273920Y-111150500D01*
X106371462Y-111131096D01*
X106418913Y-111121658D01*
X106552547Y-111066304D01*
X106622017Y-111058836D01*
X106647452Y-111066304D01*
X106781087Y-111121658D01*
X106781091Y-111121658D01*
X106781092Y-111121659D01*
X106926079Y-111150500D01*
X106926082Y-111150500D01*
X107073920Y-111150500D01*
X107171462Y-111131096D01*
X107218913Y-111121658D01*
X107355495Y-111065084D01*
X107478416Y-110982951D01*
X107582951Y-110878416D01*
X107665084Y-110755495D01*
X107721658Y-110618913D01*
X107750500Y-110473918D01*
X107750500Y-110326082D01*
X107750500Y-110326079D01*
X107721659Y-110181092D01*
X107721658Y-110181091D01*
X107721658Y-110181087D01*
X107666304Y-110047452D01*
X107658836Y-109977983D01*
X107666305Y-109952547D01*
X107687015Y-109902548D01*
X107721658Y-109818913D01*
X107731096Y-109771462D01*
X107750500Y-109673920D01*
X107750500Y-109526079D01*
X107721659Y-109381092D01*
X107721658Y-109381091D01*
X107721658Y-109381087D01*
X107666304Y-109247452D01*
X107658836Y-109177983D01*
X107666305Y-109152547D01*
X107721658Y-109018913D01*
X107725436Y-108999920D01*
X118629499Y-108999920D01*
X118658340Y-109144907D01*
X118658343Y-109144917D01*
X118714912Y-109281488D01*
X118714919Y-109281501D01*
X118797048Y-109404415D01*
X118797051Y-109404419D01*
X118901580Y-109508948D01*
X118901584Y-109508951D01*
X119024498Y-109591080D01*
X119024511Y-109591087D01*
X119161082Y-109647656D01*
X119161087Y-109647658D01*
X119161091Y-109647658D01*
X119161092Y-109647659D01*
X119306079Y-109676500D01*
X119306082Y-109676500D01*
X119453920Y-109676500D01*
X119551462Y-109657096D01*
X119598913Y-109647658D01*
X119735495Y-109591084D01*
X119858416Y-109508951D01*
X119962951Y-109404416D01*
X120045084Y-109281495D01*
X120101658Y-109144913D01*
X120130500Y-108999918D01*
X120130500Y-108852082D01*
X120130500Y-108852079D01*
X120101659Y-108707092D01*
X120101658Y-108707091D01*
X120101658Y-108707087D01*
X120086982Y-108671656D01*
X120045087Y-108570511D01*
X120045080Y-108570498D01*
X119962951Y-108447584D01*
X119962948Y-108447580D01*
X119858419Y-108343051D01*
X119858415Y-108343048D01*
X119735501Y-108260919D01*
X119735488Y-108260912D01*
X119598917Y-108204343D01*
X119598907Y-108204340D01*
X119453920Y-108175500D01*
X119453918Y-108175500D01*
X119306082Y-108175500D01*
X119306080Y-108175500D01*
X119161092Y-108204340D01*
X119161082Y-108204343D01*
X119024511Y-108260912D01*
X119024498Y-108260919D01*
X118901584Y-108343048D01*
X118901580Y-108343051D01*
X118797051Y-108447580D01*
X118797048Y-108447584D01*
X118714919Y-108570498D01*
X118714912Y-108570511D01*
X118658343Y-108707082D01*
X118658340Y-108707092D01*
X118629500Y-108852079D01*
X118629500Y-108852082D01*
X118629500Y-108999918D01*
X118629500Y-108999920D01*
X118629499Y-108999920D01*
X107725436Y-108999920D01*
X107750500Y-108873918D01*
X107750500Y-108726082D01*
X107750500Y-108726079D01*
X107721659Y-108581092D01*
X107721658Y-108581091D01*
X107721658Y-108581087D01*
X107717272Y-108570498D01*
X107665087Y-108444511D01*
X107665080Y-108444498D01*
X107582951Y-108321584D01*
X107582948Y-108321580D01*
X107478419Y-108217051D01*
X107478415Y-108217048D01*
X107355501Y-108134919D01*
X107355488Y-108134912D01*
X107218917Y-108078343D01*
X107218907Y-108078340D01*
X107073920Y-108049500D01*
X107073918Y-108049500D01*
X106926082Y-108049500D01*
X106926080Y-108049500D01*
X106781092Y-108078340D01*
X106781082Y-108078343D01*
X106647452Y-108133694D01*
X106577982Y-108141163D01*
X106552548Y-108133694D01*
X106418917Y-108078343D01*
X106418907Y-108078340D01*
X106273920Y-108049500D01*
X106273918Y-108049500D01*
X106126082Y-108049500D01*
X106126080Y-108049500D01*
X105981092Y-108078340D01*
X105981082Y-108078343D01*
X105844511Y-108134912D01*
X105844498Y-108134919D01*
X105721584Y-108217048D01*
X105721580Y-108217051D01*
X105617051Y-108321580D01*
X105617048Y-108321584D01*
X105534919Y-108444498D01*
X105534912Y-108444511D01*
X105478343Y-108581082D01*
X105478340Y-108581092D01*
X105449500Y-108726079D01*
X105449500Y-108726082D01*
X105449500Y-108873918D01*
X105449500Y-108873920D01*
X105449499Y-108873920D01*
X102150500Y-108873920D01*
X102150500Y-108873918D01*
X102150500Y-108726082D01*
X102150500Y-108726079D01*
X102121659Y-108581092D01*
X102121658Y-108581091D01*
X102121658Y-108581087D01*
X102117272Y-108570498D01*
X102065087Y-108444511D01*
X102065080Y-108444498D01*
X101982951Y-108321584D01*
X101982948Y-108321580D01*
X101878419Y-108217051D01*
X101878415Y-108217048D01*
X101755501Y-108134919D01*
X101755488Y-108134912D01*
X101618917Y-108078343D01*
X101618907Y-108078340D01*
X101473920Y-108049500D01*
X101473918Y-108049500D01*
X101326082Y-108049500D01*
X101326080Y-108049500D01*
X101181092Y-108078340D01*
X101181082Y-108078343D01*
X101047452Y-108133694D01*
X100977982Y-108141163D01*
X100952548Y-108133694D01*
X100818917Y-108078343D01*
X100818907Y-108078340D01*
X100673920Y-108049500D01*
X100673918Y-108049500D01*
X100526082Y-108049500D01*
X100526080Y-108049500D01*
X100381092Y-108078340D01*
X100381082Y-108078343D01*
X100244511Y-108134912D01*
X100244498Y-108134919D01*
X100121584Y-108217048D01*
X100121580Y-108217051D01*
X100017051Y-108321580D01*
X100017048Y-108321584D01*
X99934919Y-108444498D01*
X99934912Y-108444511D01*
X99878343Y-108581082D01*
X99878340Y-108581092D01*
X99849500Y-108726079D01*
X99849500Y-108726082D01*
X99849500Y-108873918D01*
X99849500Y-108873920D01*
X99849499Y-108873920D01*
X65016500Y-108873920D01*
X65016500Y-107769920D01*
X115851499Y-107769920D01*
X115880340Y-107914907D01*
X115880343Y-107914917D01*
X115936912Y-108051488D01*
X115936919Y-108051500D01*
X116019048Y-108174415D01*
X116019051Y-108174419D01*
X116123580Y-108278948D01*
X116123584Y-108278951D01*
X116246498Y-108361080D01*
X116246511Y-108361087D01*
X116383082Y-108417656D01*
X116383087Y-108417658D01*
X116383091Y-108417658D01*
X116383092Y-108417659D01*
X116528079Y-108446500D01*
X116528082Y-108446500D01*
X116675920Y-108446500D01*
X116773462Y-108427096D01*
X116820913Y-108417658D01*
X116957495Y-108361084D01*
X117080416Y-108278951D01*
X117184951Y-108174416D01*
X117249145Y-108078343D01*
X117267081Y-108051500D01*
X117267082Y-108051497D01*
X117267084Y-108051495D01*
X117278506Y-108023920D01*
X140571999Y-108023920D01*
X140600840Y-108168907D01*
X140600843Y-108168917D01*
X140657412Y-108305488D01*
X140657419Y-108305501D01*
X140739548Y-108428415D01*
X140739551Y-108428419D01*
X140844080Y-108532948D01*
X140844084Y-108532951D01*
X140966998Y-108615080D01*
X140967011Y-108615087D01*
X141103582Y-108671656D01*
X141103587Y-108671658D01*
X141103591Y-108671658D01*
X141103592Y-108671659D01*
X141248579Y-108700500D01*
X141248582Y-108700500D01*
X141396420Y-108700500D01*
X141493962Y-108681096D01*
X141541413Y-108671658D01*
X141677995Y-108615084D01*
X141800916Y-108532951D01*
X141905451Y-108428416D01*
X141987584Y-108305495D01*
X142044158Y-108168913D01*
X142062175Y-108078340D01*
X142073000Y-108023920D01*
X142073000Y-107876079D01*
X142044159Y-107731092D01*
X142044158Y-107731091D01*
X142044158Y-107731087D01*
X141999006Y-107622079D01*
X141987587Y-107594511D01*
X141987580Y-107594498D01*
X141905451Y-107471584D01*
X141905448Y-107471580D01*
X141800919Y-107367051D01*
X141800915Y-107367048D01*
X141678001Y-107284919D01*
X141677988Y-107284912D01*
X141541417Y-107228343D01*
X141541407Y-107228340D01*
X141396420Y-107199500D01*
X141396418Y-107199500D01*
X141248582Y-107199500D01*
X141248580Y-107199500D01*
X141103592Y-107228340D01*
X141103582Y-107228343D01*
X140967011Y-107284912D01*
X140966998Y-107284919D01*
X140844084Y-107367048D01*
X140844080Y-107367051D01*
X140739551Y-107471580D01*
X140739548Y-107471584D01*
X140657419Y-107594498D01*
X140657412Y-107594511D01*
X140600843Y-107731082D01*
X140600840Y-107731092D01*
X140572000Y-107876079D01*
X140572000Y-107876082D01*
X140572000Y-108023918D01*
X140572000Y-108023920D01*
X140571999Y-108023920D01*
X117278506Y-108023920D01*
X117323658Y-107914913D01*
X117332031Y-107872818D01*
X117337407Y-107845797D01*
X117337407Y-107845795D01*
X117352499Y-107769922D01*
X117352500Y-107769920D01*
X117352500Y-107622079D01*
X117323659Y-107477092D01*
X117323658Y-107477091D01*
X117323658Y-107477087D01*
X117292415Y-107401659D01*
X117267087Y-107340511D01*
X117267080Y-107340498D01*
X117184951Y-107217584D01*
X117184948Y-107217580D01*
X117080419Y-107113051D01*
X117080415Y-107113048D01*
X116957501Y-107030919D01*
X116957488Y-107030912D01*
X116820917Y-106974343D01*
X116820907Y-106974340D01*
X116675920Y-106945500D01*
X116675918Y-106945500D01*
X116528082Y-106945500D01*
X116528080Y-106945500D01*
X116383092Y-106974340D01*
X116383082Y-106974343D01*
X116246511Y-107030912D01*
X116246498Y-107030919D01*
X116123584Y-107113048D01*
X116123580Y-107113051D01*
X116019051Y-107217580D01*
X116019048Y-107217584D01*
X115936919Y-107340498D01*
X115936912Y-107340511D01*
X115880343Y-107477082D01*
X115880340Y-107477092D01*
X115851500Y-107622079D01*
X115851500Y-107622082D01*
X115851500Y-107769918D01*
X115851500Y-107769920D01*
X115851499Y-107769920D01*
X65016500Y-107769920D01*
X65016500Y-106499920D01*
X118629499Y-106499920D01*
X118658340Y-106644907D01*
X118658343Y-106644917D01*
X118714912Y-106781488D01*
X118714919Y-106781501D01*
X118797048Y-106904415D01*
X118797051Y-106904419D01*
X118901580Y-107008948D01*
X118901584Y-107008951D01*
X119024498Y-107091080D01*
X119024511Y-107091087D01*
X119161082Y-107147656D01*
X119161087Y-107147658D01*
X119161091Y-107147658D01*
X119161092Y-107147659D01*
X119306079Y-107176500D01*
X119306082Y-107176500D01*
X119453920Y-107176500D01*
X119551462Y-107157096D01*
X119598913Y-107147658D01*
X119735495Y-107091084D01*
X119858416Y-107008951D01*
X119962951Y-106904416D01*
X120045084Y-106781495D01*
X120056506Y-106753920D01*
X147204499Y-106753920D01*
X147233340Y-106898907D01*
X147233343Y-106898917D01*
X147289912Y-107035488D01*
X147289919Y-107035501D01*
X147372048Y-107158415D01*
X147372051Y-107158419D01*
X147476580Y-107262948D01*
X147476584Y-107262951D01*
X147599498Y-107345080D01*
X147599511Y-107345087D01*
X147736082Y-107401656D01*
X147736087Y-107401658D01*
X147736091Y-107401658D01*
X147736092Y-107401659D01*
X147881079Y-107430500D01*
X147881082Y-107430500D01*
X148028920Y-107430500D01*
X148126462Y-107411096D01*
X148173913Y-107401658D01*
X148310495Y-107345084D01*
X148433416Y-107262951D01*
X148537951Y-107158416D01*
X148620084Y-107035495D01*
X148621980Y-107030919D01*
X148674377Y-106904419D01*
X148676658Y-106898913D01*
X148686096Y-106851462D01*
X148705500Y-106753920D01*
X148705500Y-106606079D01*
X148676659Y-106461092D01*
X148676658Y-106461091D01*
X148676658Y-106461087D01*
X148631506Y-106352079D01*
X148620087Y-106324511D01*
X148620080Y-106324498D01*
X148537951Y-106201584D01*
X148537948Y-106201580D01*
X148433419Y-106097051D01*
X148433415Y-106097048D01*
X148310501Y-106014919D01*
X148310488Y-106014912D01*
X148173917Y-105958343D01*
X148173907Y-105958340D01*
X148028920Y-105929500D01*
X148028918Y-105929500D01*
X147881082Y-105929500D01*
X147881080Y-105929500D01*
X147736092Y-105958340D01*
X147736082Y-105958343D01*
X147599511Y-106014912D01*
X147599498Y-106014919D01*
X147476584Y-106097048D01*
X147476580Y-106097051D01*
X147372051Y-106201580D01*
X147372048Y-106201584D01*
X147289919Y-106324498D01*
X147289912Y-106324511D01*
X147233343Y-106461082D01*
X147233340Y-106461092D01*
X147204500Y-106606079D01*
X147204500Y-106606082D01*
X147204500Y-106753918D01*
X147204500Y-106753920D01*
X147204499Y-106753920D01*
X120056506Y-106753920D01*
X120101658Y-106644913D01*
X120110031Y-106602818D01*
X120115407Y-106575797D01*
X120115407Y-106575795D01*
X120130499Y-106499922D01*
X120130500Y-106499920D01*
X120130500Y-106352079D01*
X120101659Y-106207092D01*
X120101658Y-106207091D01*
X120101658Y-106207087D01*
X120056079Y-106097049D01*
X120045087Y-106070511D01*
X120045080Y-106070498D01*
X119962951Y-105947584D01*
X119962948Y-105947580D01*
X119858419Y-105843051D01*
X119858415Y-105843048D01*
X119735501Y-105760919D01*
X119735488Y-105760912D01*
X119598917Y-105704343D01*
X119598907Y-105704340D01*
X119453920Y-105675500D01*
X119453918Y-105675500D01*
X119306082Y-105675500D01*
X119306080Y-105675500D01*
X119161092Y-105704340D01*
X119161082Y-105704343D01*
X119024511Y-105760912D01*
X119024498Y-105760919D01*
X118901584Y-105843048D01*
X118901580Y-105843051D01*
X118797051Y-105947580D01*
X118797048Y-105947584D01*
X118714919Y-106070498D01*
X118714912Y-106070511D01*
X118658343Y-106207082D01*
X118658340Y-106207092D01*
X118629500Y-106352079D01*
X118629500Y-106352082D01*
X118629500Y-106499918D01*
X118629500Y-106499920D01*
X118629499Y-106499920D01*
X65016500Y-106499920D01*
X65016500Y-104422604D01*
X141673385Y-104422604D01*
X141702226Y-104567591D01*
X141702229Y-104567601D01*
X141758798Y-104704172D01*
X141758805Y-104704185D01*
X141840934Y-104827099D01*
X141840937Y-104827103D01*
X141945466Y-104931632D01*
X141945470Y-104931635D01*
X142068384Y-105013764D01*
X142068397Y-105013771D01*
X142204968Y-105070340D01*
X142204973Y-105070342D01*
X142204977Y-105070342D01*
X142204978Y-105070343D01*
X142349965Y-105099184D01*
X142349968Y-105099184D01*
X142497806Y-105099184D01*
X142595348Y-105079780D01*
X142642799Y-105070342D01*
X142779381Y-105013768D01*
X142902302Y-104931635D01*
X143006837Y-104827100D01*
X143088970Y-104704179D01*
X143145544Y-104567597D01*
X143174386Y-104422602D01*
X143174386Y-104274766D01*
X143174386Y-104274763D01*
X143145545Y-104129776D01*
X143145544Y-104129775D01*
X143145544Y-104129771D01*
X143145542Y-104129766D01*
X143088973Y-103993195D01*
X143088966Y-103993182D01*
X143006837Y-103870268D01*
X143006834Y-103870264D01*
X142902305Y-103765735D01*
X142902301Y-103765732D01*
X142779387Y-103683603D01*
X142779374Y-103683596D01*
X142642803Y-103627027D01*
X142642793Y-103627024D01*
X142497806Y-103598184D01*
X142497804Y-103598184D01*
X142349968Y-103598184D01*
X142349966Y-103598184D01*
X142204978Y-103627024D01*
X142204968Y-103627027D01*
X142068397Y-103683596D01*
X142068384Y-103683603D01*
X141945470Y-103765732D01*
X141945466Y-103765735D01*
X141840937Y-103870264D01*
X141840934Y-103870268D01*
X141758805Y-103993182D01*
X141758798Y-103993195D01*
X141702229Y-104129766D01*
X141702226Y-104129776D01*
X141673386Y-104274763D01*
X141673386Y-104274766D01*
X141673386Y-104422602D01*
X141673386Y-104422604D01*
X141673385Y-104422604D01*
X65016500Y-104422604D01*
X65016500Y-102435920D01*
X72671499Y-102435920D01*
X72700340Y-102580907D01*
X72700343Y-102580917D01*
X72756912Y-102717488D01*
X72756919Y-102717501D01*
X72839048Y-102840415D01*
X72839051Y-102840419D01*
X72943580Y-102944948D01*
X72943584Y-102944951D01*
X73066498Y-103027080D01*
X73066511Y-103027087D01*
X73203082Y-103083656D01*
X73203087Y-103083658D01*
X73203091Y-103083658D01*
X73203092Y-103083659D01*
X73348079Y-103112500D01*
X73348082Y-103112500D01*
X73495920Y-103112500D01*
X73593462Y-103093096D01*
X73640913Y-103083658D01*
X73777495Y-103027084D01*
X73900416Y-102944951D01*
X74004951Y-102840416D01*
X74087084Y-102717495D01*
X74143658Y-102580913D01*
X74153096Y-102533462D01*
X74172500Y-102435920D01*
X82545499Y-102435920D01*
X82574340Y-102580907D01*
X82574343Y-102580917D01*
X82630912Y-102717488D01*
X82630919Y-102717501D01*
X82713048Y-102840415D01*
X82713051Y-102840419D01*
X82817580Y-102944948D01*
X82817584Y-102944951D01*
X82940498Y-103027080D01*
X82940511Y-103027087D01*
X83077082Y-103083656D01*
X83077087Y-103083658D01*
X83077091Y-103083658D01*
X83077092Y-103083659D01*
X83222079Y-103112500D01*
X83222082Y-103112500D01*
X83369920Y-103112500D01*
X83450753Y-103096420D01*
X137771999Y-103096420D01*
X137800840Y-103241407D01*
X137800843Y-103241417D01*
X137857412Y-103377988D01*
X137857419Y-103378001D01*
X137939548Y-103500915D01*
X137939551Y-103500919D01*
X138044080Y-103605448D01*
X138044084Y-103605451D01*
X138166998Y-103687580D01*
X138167011Y-103687587D01*
X138303582Y-103744156D01*
X138303587Y-103744158D01*
X138303591Y-103744158D01*
X138303592Y-103744159D01*
X138448579Y-103773000D01*
X138448582Y-103773000D01*
X138596420Y-103773000D01*
X138693962Y-103753596D01*
X138741413Y-103744158D01*
X138877995Y-103687584D01*
X139000916Y-103605451D01*
X139105451Y-103500916D01*
X139187584Y-103377995D01*
X139244158Y-103241413D01*
X139273000Y-103096418D01*
X139273000Y-102948582D01*
X139273000Y-102948579D01*
X139244159Y-102803592D01*
X139244158Y-102803591D01*
X139244158Y-102803587D01*
X139208495Y-102717488D01*
X139187587Y-102667011D01*
X139187580Y-102666998D01*
X139105451Y-102544084D01*
X139105448Y-102544080D01*
X139000919Y-102439551D01*
X139000915Y-102439548D01*
X138878001Y-102357419D01*
X138877988Y-102357412D01*
X138741417Y-102300843D01*
X138741407Y-102300840D01*
X138596420Y-102272000D01*
X138596418Y-102272000D01*
X138448582Y-102272000D01*
X138448580Y-102272000D01*
X138303592Y-102300840D01*
X138303582Y-102300843D01*
X138167011Y-102357412D01*
X138166998Y-102357419D01*
X138044084Y-102439548D01*
X138044080Y-102439551D01*
X137939551Y-102544080D01*
X137939548Y-102544084D01*
X137857419Y-102666998D01*
X137857412Y-102667011D01*
X137800843Y-102803582D01*
X137800840Y-102803592D01*
X137772000Y-102948579D01*
X137772000Y-102948582D01*
X137772000Y-103096418D01*
X137772000Y-103096420D01*
X137771999Y-103096420D01*
X83450753Y-103096420D01*
X83467462Y-103093096D01*
X83514913Y-103083658D01*
X83651495Y-103027084D01*
X83774416Y-102944951D01*
X83774419Y-102944948D01*
X83864559Y-102854809D01*
X83878948Y-102840419D01*
X83878951Y-102840416D01*
X83961084Y-102717495D01*
X84017658Y-102580913D01*
X84027096Y-102533462D01*
X84046500Y-102435920D01*
X84046500Y-102288079D01*
X84017659Y-102143092D01*
X84017658Y-102143091D01*
X84017658Y-102143087D01*
X84002069Y-102105451D01*
X83961087Y-102006511D01*
X83961080Y-102006498D01*
X83878951Y-101883584D01*
X83878948Y-101883580D01*
X83774419Y-101779051D01*
X83774415Y-101779048D01*
X83651501Y-101696919D01*
X83651488Y-101696912D01*
X83514917Y-101640343D01*
X83514907Y-101640340D01*
X83369920Y-101611500D01*
X83369918Y-101611500D01*
X83222082Y-101611500D01*
X83222080Y-101611500D01*
X83077092Y-101640340D01*
X83077082Y-101640343D01*
X82940511Y-101696912D01*
X82940498Y-101696919D01*
X82817584Y-101779048D01*
X82817580Y-101779051D01*
X82713051Y-101883580D01*
X82713048Y-101883584D01*
X82630919Y-102006498D01*
X82630912Y-102006511D01*
X82574343Y-102143082D01*
X82574340Y-102143092D01*
X82545500Y-102288079D01*
X82545500Y-102288082D01*
X82545500Y-102435918D01*
X82545500Y-102435920D01*
X82545499Y-102435920D01*
X74172500Y-102435920D01*
X74172500Y-102288079D01*
X74143659Y-102143092D01*
X74143658Y-102143091D01*
X74143658Y-102143087D01*
X74128069Y-102105451D01*
X74087087Y-102006511D01*
X74087080Y-102006498D01*
X74004951Y-101883584D01*
X74004948Y-101883580D01*
X73900419Y-101779051D01*
X73900415Y-101779048D01*
X73777501Y-101696919D01*
X73777488Y-101696912D01*
X73640917Y-101640343D01*
X73640907Y-101640340D01*
X73495920Y-101611500D01*
X73495918Y-101611500D01*
X73348082Y-101611500D01*
X73348080Y-101611500D01*
X73203092Y-101640340D01*
X73203082Y-101640343D01*
X73066511Y-101696912D01*
X73066498Y-101696919D01*
X72943584Y-101779048D01*
X72943580Y-101779051D01*
X72839051Y-101883580D01*
X72839048Y-101883584D01*
X72756919Y-102006498D01*
X72756912Y-102006511D01*
X72700343Y-102143082D01*
X72700340Y-102143092D01*
X72671500Y-102288079D01*
X72671500Y-102288082D01*
X72671500Y-102435918D01*
X72671500Y-102435920D01*
X72671499Y-102435920D01*
X65016500Y-102435920D01*
X65016500Y-101596420D01*
X120230999Y-101596420D01*
X120259840Y-101741407D01*
X120259843Y-101741417D01*
X120316412Y-101877988D01*
X120316419Y-101878001D01*
X120398548Y-102000915D01*
X120398551Y-102000919D01*
X120503080Y-102105448D01*
X120503084Y-102105451D01*
X120625998Y-102187580D01*
X120626011Y-102187587D01*
X120762582Y-102244156D01*
X120762587Y-102244158D01*
X120762591Y-102244158D01*
X120762592Y-102244159D01*
X120907579Y-102273000D01*
X120907582Y-102273000D01*
X121055420Y-102273000D01*
X121152962Y-102253596D01*
X121200413Y-102244158D01*
X121336995Y-102187584D01*
X121459916Y-102105451D01*
X121564451Y-102000916D01*
X121646584Y-101877995D01*
X121703158Y-101741413D01*
X121732000Y-101596418D01*
X121732000Y-101448582D01*
X121732000Y-101448579D01*
X121703159Y-101303592D01*
X121703158Y-101303591D01*
X121703158Y-101303587D01*
X121703156Y-101303582D01*
X121646587Y-101167011D01*
X121646580Y-101166998D01*
X121564451Y-101044084D01*
X121564448Y-101044080D01*
X121459919Y-100939551D01*
X121459915Y-100939548D01*
X121337001Y-100857419D01*
X121336988Y-100857412D01*
X121200417Y-100800843D01*
X121200407Y-100800840D01*
X121055420Y-100772000D01*
X121055418Y-100772000D01*
X120907582Y-100772000D01*
X120907580Y-100772000D01*
X120762592Y-100800840D01*
X120762582Y-100800843D01*
X120626011Y-100857412D01*
X120625998Y-100857419D01*
X120503084Y-100939548D01*
X120503080Y-100939551D01*
X120398551Y-101044080D01*
X120398548Y-101044084D01*
X120316419Y-101166998D01*
X120316412Y-101167011D01*
X120259843Y-101303582D01*
X120259840Y-101303592D01*
X120231000Y-101448579D01*
X120231000Y-101448582D01*
X120231000Y-101596418D01*
X120231000Y-101596420D01*
X120230999Y-101596420D01*
X65016500Y-101596420D01*
X65016500Y-100096420D01*
X122492999Y-100096420D01*
X122521840Y-100241407D01*
X122521843Y-100241417D01*
X122578412Y-100377988D01*
X122578419Y-100378001D01*
X122660548Y-100500915D01*
X122660551Y-100500919D01*
X122765080Y-100605448D01*
X122765084Y-100605451D01*
X122887998Y-100687580D01*
X122888011Y-100687587D01*
X123024582Y-100744156D01*
X123024587Y-100744158D01*
X123024591Y-100744158D01*
X123024592Y-100744159D01*
X123169579Y-100773000D01*
X123169582Y-100773000D01*
X123317420Y-100773000D01*
X123414962Y-100753596D01*
X123462413Y-100744158D01*
X123598995Y-100687584D01*
X123721916Y-100605451D01*
X123826451Y-100500916D01*
X123908584Y-100377995D01*
X123965158Y-100241413D01*
X123994000Y-100096418D01*
X123994000Y-99948582D01*
X123994000Y-99948579D01*
X123965159Y-99803592D01*
X123965158Y-99803591D01*
X123965158Y-99803587D01*
X123960531Y-99792416D01*
X123908587Y-99667011D01*
X123908580Y-99666998D01*
X123826451Y-99544084D01*
X123826448Y-99544080D01*
X123721919Y-99439551D01*
X123721915Y-99439548D01*
X123599001Y-99357419D01*
X123598992Y-99357414D01*
X123595385Y-99355920D01*
X144315499Y-99355920D01*
X144344340Y-99500907D01*
X144344343Y-99500917D01*
X144400912Y-99637488D01*
X144400919Y-99637501D01*
X144483048Y-99760415D01*
X144483051Y-99760419D01*
X144587580Y-99864948D01*
X144587584Y-99864951D01*
X144710498Y-99947080D01*
X144710511Y-99947087D01*
X144787767Y-99979087D01*
X144847087Y-100003658D01*
X144847091Y-100003658D01*
X144847092Y-100003659D01*
X144992079Y-100032500D01*
X144992082Y-100032500D01*
X145139920Y-100032500D01*
X145237462Y-100013096D01*
X145284913Y-100003658D01*
X145421495Y-99947084D01*
X145544416Y-99864951D01*
X145648951Y-99760416D01*
X145731084Y-99637495D01*
X145787658Y-99500913D01*
X145799865Y-99439548D01*
X145816500Y-99355920D01*
X145816500Y-99208079D01*
X145787659Y-99063092D01*
X145787658Y-99063091D01*
X145787658Y-99063087D01*
X145787656Y-99063082D01*
X145731087Y-98926511D01*
X145731080Y-98926498D01*
X145648951Y-98803584D01*
X145648948Y-98803580D01*
X145544419Y-98699051D01*
X145544415Y-98699048D01*
X145421501Y-98616919D01*
X145421488Y-98616912D01*
X145284917Y-98560343D01*
X145284907Y-98560340D01*
X145139920Y-98531500D01*
X145139918Y-98531500D01*
X144992082Y-98531500D01*
X144992080Y-98531500D01*
X144847092Y-98560340D01*
X144847082Y-98560343D01*
X144710511Y-98616912D01*
X144710498Y-98616919D01*
X144587584Y-98699048D01*
X144587580Y-98699051D01*
X144483051Y-98803580D01*
X144483048Y-98803584D01*
X144400919Y-98926498D01*
X144400912Y-98926511D01*
X144344343Y-99063082D01*
X144344340Y-99063092D01*
X144315500Y-99208079D01*
X144315500Y-99208082D01*
X144315500Y-99355918D01*
X144315500Y-99355920D01*
X144315499Y-99355920D01*
X123595385Y-99355920D01*
X123500338Y-99316551D01*
X123500336Y-99316550D01*
X123462417Y-99300843D01*
X123462407Y-99300840D01*
X123317420Y-99272000D01*
X123317418Y-99272000D01*
X123169582Y-99272000D01*
X123169580Y-99272000D01*
X123024592Y-99300840D01*
X123024582Y-99300843D01*
X122888011Y-99357412D01*
X122887998Y-99357419D01*
X122765084Y-99439548D01*
X122765080Y-99439551D01*
X122660551Y-99544080D01*
X122660548Y-99544084D01*
X122578419Y-99666998D01*
X122578412Y-99667011D01*
X122521843Y-99803582D01*
X122521840Y-99803592D01*
X122493000Y-99948579D01*
X122493000Y-99948582D01*
X122493000Y-100096418D01*
X122493000Y-100096420D01*
X122492999Y-100096420D01*
X65016500Y-100096420D01*
X65016500Y-99387920D01*
X103135499Y-99387920D01*
X103164340Y-99532907D01*
X103164343Y-99532917D01*
X103220912Y-99669488D01*
X103220919Y-99669501D01*
X103303048Y-99792415D01*
X103303051Y-99792419D01*
X103407580Y-99896948D01*
X103407584Y-99896951D01*
X103530498Y-99979080D01*
X103530511Y-99979087D01*
X103589834Y-100003659D01*
X103667087Y-100035658D01*
X103667091Y-100035658D01*
X103667092Y-100035659D01*
X103812079Y-100064500D01*
X103812082Y-100064500D01*
X103959920Y-100064500D01*
X104057462Y-100045096D01*
X104104913Y-100035658D01*
X104241495Y-99979084D01*
X104364416Y-99896951D01*
X104364419Y-99896948D01*
X104406559Y-99854809D01*
X104468948Y-99792419D01*
X104468951Y-99792416D01*
X104551084Y-99669495D01*
X104607658Y-99532913D01*
X104636500Y-99387918D01*
X104636500Y-99240082D01*
X104636500Y-99240079D01*
X104607659Y-99095092D01*
X104607658Y-99095091D01*
X104607658Y-99095087D01*
X104594401Y-99063082D01*
X104551087Y-98958511D01*
X104551080Y-98958498D01*
X104468951Y-98835584D01*
X104468948Y-98835580D01*
X104364419Y-98731051D01*
X104364415Y-98731048D01*
X104241501Y-98648919D01*
X104241488Y-98648912D01*
X104104917Y-98592343D01*
X104104907Y-98592340D01*
X103959920Y-98563500D01*
X103959918Y-98563500D01*
X103812082Y-98563500D01*
X103812080Y-98563500D01*
X103667092Y-98592340D01*
X103667082Y-98592343D01*
X103530511Y-98648912D01*
X103530498Y-98648919D01*
X103407584Y-98731048D01*
X103407580Y-98731051D01*
X103303051Y-98835580D01*
X103303048Y-98835584D01*
X103220919Y-98958498D01*
X103220912Y-98958511D01*
X103164343Y-99095082D01*
X103164340Y-99095092D01*
X103135500Y-99240079D01*
X103135500Y-99240082D01*
X103135500Y-99387918D01*
X103135500Y-99387920D01*
X103135499Y-99387920D01*
X65016500Y-99387920D01*
X65016500Y-97371920D01*
X94499499Y-97371920D01*
X94528340Y-97516907D01*
X94528343Y-97516917D01*
X94584912Y-97653488D01*
X94584919Y-97653501D01*
X94667048Y-97776415D01*
X94667051Y-97776419D01*
X94771580Y-97880948D01*
X94771584Y-97880951D01*
X94894498Y-97963080D01*
X94894511Y-97963087D01*
X95031082Y-98019656D01*
X95031087Y-98019658D01*
X95031091Y-98019658D01*
X95031092Y-98019659D01*
X95176079Y-98048500D01*
X95176082Y-98048500D01*
X95323920Y-98048500D01*
X95421462Y-98029096D01*
X95468913Y-98019658D01*
X95605495Y-97963084D01*
X95728416Y-97880951D01*
X95832951Y-97776416D01*
X95915084Y-97653495D01*
X95971658Y-97516913D01*
X96000500Y-97371920D01*
X100341499Y-97371920D01*
X100370340Y-97516907D01*
X100370343Y-97516917D01*
X100426912Y-97653488D01*
X100426919Y-97653501D01*
X100509048Y-97776415D01*
X100509051Y-97776419D01*
X100613580Y-97880948D01*
X100613584Y-97880951D01*
X100736498Y-97963080D01*
X100736511Y-97963087D01*
X100873082Y-98019656D01*
X100873087Y-98019658D01*
X100873091Y-98019658D01*
X100873092Y-98019659D01*
X101018079Y-98048500D01*
X101018082Y-98048500D01*
X101165920Y-98048500D01*
X101263462Y-98029096D01*
X101310913Y-98019658D01*
X101447495Y-97963084D01*
X101570416Y-97880951D01*
X101674951Y-97776416D01*
X101757084Y-97653495D01*
X101813658Y-97516913D01*
X101842500Y-97371918D01*
X101842500Y-97224082D01*
X101842500Y-97224079D01*
X101813659Y-97079092D01*
X101813658Y-97079091D01*
X101813658Y-97079087D01*
X101813656Y-97079082D01*
X101757087Y-96942511D01*
X101757080Y-96942498D01*
X101674951Y-96819584D01*
X101674948Y-96819580D01*
X101570419Y-96715051D01*
X101570415Y-96715048D01*
X101447501Y-96632919D01*
X101447488Y-96632912D01*
X101310917Y-96576343D01*
X101310907Y-96576340D01*
X101165920Y-96547500D01*
X101165918Y-96547500D01*
X101018082Y-96547500D01*
X101018080Y-96547500D01*
X100873092Y-96576340D01*
X100873082Y-96576343D01*
X100736511Y-96632912D01*
X100736498Y-96632919D01*
X100613584Y-96715048D01*
X100613580Y-96715051D01*
X100509051Y-96819580D01*
X100509048Y-96819584D01*
X100426919Y-96942498D01*
X100426912Y-96942511D01*
X100370343Y-97079082D01*
X100370340Y-97079092D01*
X100341500Y-97224079D01*
X100341500Y-97224082D01*
X100341500Y-97371918D01*
X100341500Y-97371920D01*
X100341499Y-97371920D01*
X96000500Y-97371920D01*
X96000500Y-97371918D01*
X96000500Y-97224082D01*
X96000500Y-97224079D01*
X95971659Y-97079092D01*
X95971658Y-97079091D01*
X95971658Y-97079087D01*
X95971656Y-97079082D01*
X95915087Y-96942511D01*
X95915080Y-96942498D01*
X95832951Y-96819584D01*
X95832948Y-96819580D01*
X95728419Y-96715051D01*
X95728415Y-96715048D01*
X95605501Y-96632919D01*
X95605488Y-96632912D01*
X95468917Y-96576343D01*
X95468907Y-96576340D01*
X95323920Y-96547500D01*
X95323918Y-96547500D01*
X95176082Y-96547500D01*
X95176080Y-96547500D01*
X95031092Y-96576340D01*
X95031082Y-96576343D01*
X94894511Y-96632912D01*
X94894498Y-96632919D01*
X94771584Y-96715048D01*
X94771580Y-96715051D01*
X94667051Y-96819580D01*
X94667048Y-96819584D01*
X94584919Y-96942498D01*
X94584912Y-96942511D01*
X94528343Y-97079082D01*
X94528340Y-97079092D01*
X94499500Y-97224079D01*
X94499500Y-97224082D01*
X94499500Y-97371918D01*
X94499500Y-97371920D01*
X94499499Y-97371920D01*
X65016500Y-97371920D01*
X65016500Y-95458920D01*
X67067499Y-95458920D01*
X67096340Y-95603907D01*
X67096343Y-95603917D01*
X67152912Y-95740488D01*
X67152919Y-95740501D01*
X67235048Y-95863415D01*
X67235051Y-95863419D01*
X67339580Y-95967948D01*
X67339584Y-95967951D01*
X67462498Y-96050080D01*
X67462511Y-96050087D01*
X67599082Y-96106656D01*
X67599087Y-96106658D01*
X67599091Y-96106658D01*
X67599092Y-96106659D01*
X67744079Y-96135500D01*
X67744082Y-96135500D01*
X67891920Y-96135500D01*
X67989462Y-96116096D01*
X68036913Y-96106658D01*
X68086979Y-96085920D01*
X91937999Y-96085920D01*
X91966840Y-96230907D01*
X91966843Y-96230917D01*
X92023412Y-96367488D01*
X92023419Y-96367501D01*
X92105548Y-96490415D01*
X92105551Y-96490419D01*
X92210080Y-96594948D01*
X92210084Y-96594951D01*
X92332998Y-96677080D01*
X92333011Y-96677087D01*
X92469582Y-96733656D01*
X92469587Y-96733658D01*
X92469591Y-96733658D01*
X92469592Y-96733659D01*
X92614579Y-96762500D01*
X92614582Y-96762500D01*
X92762420Y-96762500D01*
X92859962Y-96743096D01*
X92907413Y-96733658D01*
X93043995Y-96677084D01*
X93166916Y-96594951D01*
X93271451Y-96490416D01*
X93353584Y-96367495D01*
X93410158Y-96230913D01*
X93429137Y-96135500D01*
X93439000Y-96085920D01*
X97801499Y-96085920D01*
X97830340Y-96230907D01*
X97830343Y-96230917D01*
X97886912Y-96367488D01*
X97886919Y-96367501D01*
X97969048Y-96490415D01*
X97969051Y-96490419D01*
X98073580Y-96594948D01*
X98073584Y-96594951D01*
X98196498Y-96677080D01*
X98196511Y-96677087D01*
X98333082Y-96733656D01*
X98333087Y-96733658D01*
X98333091Y-96733658D01*
X98333092Y-96733659D01*
X98478079Y-96762500D01*
X98478082Y-96762500D01*
X98625920Y-96762500D01*
X98723462Y-96743096D01*
X98770913Y-96733658D01*
X98907495Y-96677084D01*
X99030416Y-96594951D01*
X99134951Y-96490416D01*
X99217084Y-96367495D01*
X99273658Y-96230913D01*
X99292637Y-96135500D01*
X99302500Y-96085920D01*
X99302500Y-95938079D01*
X99273659Y-95793092D01*
X99273658Y-95793091D01*
X99273658Y-95793087D01*
X99246872Y-95728419D01*
X99217087Y-95656511D01*
X99217080Y-95656498D01*
X99134951Y-95533584D01*
X99134948Y-95533580D01*
X99030419Y-95429051D01*
X99030415Y-95429048D01*
X98907501Y-95346919D01*
X98907488Y-95346912D01*
X98851980Y-95323920D01*
X106691499Y-95323920D01*
X106720340Y-95468907D01*
X106720343Y-95468917D01*
X106776912Y-95605488D01*
X106776919Y-95605501D01*
X106859048Y-95728415D01*
X106859051Y-95728419D01*
X106963580Y-95832948D01*
X106963584Y-95832951D01*
X107086498Y-95915080D01*
X107086511Y-95915087D01*
X107214130Y-95967948D01*
X107223087Y-95971658D01*
X107223091Y-95971658D01*
X107223092Y-95971659D01*
X107368079Y-96000500D01*
X107368082Y-96000500D01*
X107515920Y-96000500D01*
X107613462Y-95981096D01*
X107660913Y-95971658D01*
X107797495Y-95915084D01*
X107920416Y-95832951D01*
X108024951Y-95728416D01*
X108107084Y-95605495D01*
X108163658Y-95468913D01*
X108187925Y-95346919D01*
X108192500Y-95323920D01*
X108192500Y-95176079D01*
X108163659Y-95031092D01*
X108163658Y-95031091D01*
X108163658Y-95031087D01*
X108163000Y-95029498D01*
X108107087Y-94894511D01*
X108107080Y-94894498D01*
X108024951Y-94771584D01*
X108024948Y-94771580D01*
X107920419Y-94667051D01*
X107920415Y-94667048D01*
X107797501Y-94584919D01*
X107797488Y-94584912D01*
X107660917Y-94528343D01*
X107660907Y-94528340D01*
X107515920Y-94499500D01*
X107515918Y-94499500D01*
X107368082Y-94499500D01*
X107368080Y-94499500D01*
X107223092Y-94528340D01*
X107223082Y-94528343D01*
X107086511Y-94584912D01*
X107086498Y-94584919D01*
X106963584Y-94667048D01*
X106963580Y-94667051D01*
X106859051Y-94771580D01*
X106859048Y-94771584D01*
X106776919Y-94894498D01*
X106776912Y-94894511D01*
X106720343Y-95031082D01*
X106720340Y-95031092D01*
X106691500Y-95176079D01*
X106691500Y-95176082D01*
X106691500Y-95323918D01*
X106691500Y-95323920D01*
X106691499Y-95323920D01*
X98851980Y-95323920D01*
X98770917Y-95290343D01*
X98770907Y-95290340D01*
X98625920Y-95261500D01*
X98625918Y-95261500D01*
X98478082Y-95261500D01*
X98478080Y-95261500D01*
X98333092Y-95290340D01*
X98333082Y-95290343D01*
X98196511Y-95346912D01*
X98196498Y-95346919D01*
X98073584Y-95429048D01*
X98073580Y-95429051D01*
X97969051Y-95533580D01*
X97969048Y-95533584D01*
X97886919Y-95656498D01*
X97886912Y-95656511D01*
X97830343Y-95793082D01*
X97830340Y-95793092D01*
X97801500Y-95938079D01*
X97801500Y-95938082D01*
X97801500Y-96085918D01*
X97801500Y-96085920D01*
X97801499Y-96085920D01*
X93439000Y-96085920D01*
X93439000Y-95938079D01*
X93410159Y-95793092D01*
X93410158Y-95793091D01*
X93410158Y-95793087D01*
X93383372Y-95728419D01*
X93353587Y-95656511D01*
X93353580Y-95656498D01*
X93271451Y-95533584D01*
X93271448Y-95533580D01*
X93166919Y-95429051D01*
X93166915Y-95429048D01*
X93044001Y-95346919D01*
X93043988Y-95346912D01*
X92907417Y-95290343D01*
X92907407Y-95290340D01*
X92762420Y-95261500D01*
X92762418Y-95261500D01*
X92614582Y-95261500D01*
X92614580Y-95261500D01*
X92469592Y-95290340D01*
X92469582Y-95290343D01*
X92333011Y-95346912D01*
X92332998Y-95346919D01*
X92210084Y-95429048D01*
X92210080Y-95429051D01*
X92105551Y-95533580D01*
X92105548Y-95533584D01*
X92023419Y-95656498D01*
X92023412Y-95656511D01*
X91966843Y-95793082D01*
X91966840Y-95793092D01*
X91938000Y-95938079D01*
X91938000Y-95938082D01*
X91938000Y-96085918D01*
X91938000Y-96085920D01*
X91937999Y-96085920D01*
X68086979Y-96085920D01*
X68173495Y-96050084D01*
X68296416Y-95967951D01*
X68400951Y-95863416D01*
X68401034Y-95863291D01*
X68401162Y-95863101D01*
X68401162Y-95863100D01*
X68401163Y-95863099D01*
X68483080Y-95740501D01*
X68483080Y-95740500D01*
X68483084Y-95740495D01*
X68539658Y-95603913D01*
X68553648Y-95533584D01*
X68568500Y-95458920D01*
X68568500Y-95311079D01*
X68539659Y-95166092D01*
X68539658Y-95166091D01*
X68539658Y-95166087D01*
X68539656Y-95166082D01*
X68483087Y-95029511D01*
X68483080Y-95029498D01*
X68400951Y-94906584D01*
X68400948Y-94906580D01*
X68296419Y-94802051D01*
X68296415Y-94802048D01*
X68173501Y-94719919D01*
X68173488Y-94719912D01*
X68036917Y-94663343D01*
X68036907Y-94663340D01*
X67891920Y-94634500D01*
X67891918Y-94634500D01*
X67744082Y-94634500D01*
X67744080Y-94634500D01*
X67599092Y-94663340D01*
X67599082Y-94663343D01*
X67462511Y-94719912D01*
X67462498Y-94719919D01*
X67339584Y-94802048D01*
X67339580Y-94802051D01*
X67235051Y-94906580D01*
X67235048Y-94906584D01*
X67152919Y-95029498D01*
X67152912Y-95029511D01*
X67096343Y-95166082D01*
X67096340Y-95166092D01*
X67067500Y-95311079D01*
X67067500Y-95311082D01*
X67067500Y-95458918D01*
X67067500Y-95458920D01*
X67067499Y-95458920D01*
X65016500Y-95458920D01*
X65016500Y-94053920D01*
X137425499Y-94053920D01*
X137454340Y-94198907D01*
X137454343Y-94198917D01*
X137510912Y-94335488D01*
X137510919Y-94335501D01*
X137593048Y-94458415D01*
X137593051Y-94458419D01*
X137697580Y-94562948D01*
X137697584Y-94562951D01*
X137820498Y-94645080D01*
X137820511Y-94645087D01*
X137957082Y-94701656D01*
X137957087Y-94701658D01*
X137957091Y-94701658D01*
X137957092Y-94701659D01*
X138102079Y-94730500D01*
X138102082Y-94730500D01*
X138249920Y-94730500D01*
X138347462Y-94711096D01*
X138394913Y-94701658D01*
X138531495Y-94645084D01*
X138654416Y-94562951D01*
X138758951Y-94458416D01*
X138841084Y-94335495D01*
X138897658Y-94198913D01*
X138926500Y-94053918D01*
X138926500Y-93906082D01*
X138926500Y-93906079D01*
X138897659Y-93761092D01*
X138897658Y-93761091D01*
X138897658Y-93761087D01*
X138895584Y-93756080D01*
X138841087Y-93624511D01*
X138841080Y-93624498D01*
X138758951Y-93501584D01*
X138758948Y-93501580D01*
X138654419Y-93397051D01*
X138654415Y-93397048D01*
X138531501Y-93314919D01*
X138531488Y-93314912D01*
X138394917Y-93258343D01*
X138394907Y-93258340D01*
X138249920Y-93229500D01*
X138249918Y-93229500D01*
X138102082Y-93229500D01*
X138102080Y-93229500D01*
X137957092Y-93258340D01*
X137957082Y-93258343D01*
X137820511Y-93314912D01*
X137820498Y-93314919D01*
X137697584Y-93397048D01*
X137697580Y-93397051D01*
X137593051Y-93501580D01*
X137593048Y-93501584D01*
X137510919Y-93624498D01*
X137510912Y-93624511D01*
X137454343Y-93761082D01*
X137454340Y-93761092D01*
X137425500Y-93906079D01*
X137425500Y-93906082D01*
X137425500Y-94053918D01*
X137425500Y-94053920D01*
X137425499Y-94053920D01*
X65016500Y-94053920D01*
X65016500Y-93164920D01*
X112406499Y-93164920D01*
X112435340Y-93309907D01*
X112435343Y-93309917D01*
X112491912Y-93446488D01*
X112491919Y-93446501D01*
X112574048Y-93569415D01*
X112574051Y-93569419D01*
X112678580Y-93673948D01*
X112678584Y-93673951D01*
X112801498Y-93756080D01*
X112801511Y-93756087D01*
X112872350Y-93785429D01*
X112938087Y-93812658D01*
X112938091Y-93812658D01*
X112938092Y-93812659D01*
X113083079Y-93841500D01*
X113083082Y-93841500D01*
X113230920Y-93841500D01*
X113328462Y-93822096D01*
X113375913Y-93812658D01*
X113512495Y-93756084D01*
X113635416Y-93673951D01*
X113739951Y-93569416D01*
X113822084Y-93446495D01*
X113878658Y-93309913D01*
X113894654Y-93229500D01*
X113907500Y-93164920D01*
X113907500Y-93017079D01*
X113878659Y-92872092D01*
X113878658Y-92872091D01*
X113878658Y-92872087D01*
X113842138Y-92783920D01*
X113822087Y-92735511D01*
X113822080Y-92735498D01*
X113739951Y-92612584D01*
X113739948Y-92612580D01*
X113635419Y-92508051D01*
X113635415Y-92508048D01*
X113512501Y-92425919D01*
X113512488Y-92425912D01*
X113375917Y-92369343D01*
X113375907Y-92369340D01*
X113230920Y-92340500D01*
X113230918Y-92340500D01*
X113083082Y-92340500D01*
X113083080Y-92340500D01*
X112938092Y-92369340D01*
X112938082Y-92369343D01*
X112801511Y-92425912D01*
X112801498Y-92425919D01*
X112678584Y-92508048D01*
X112678580Y-92508051D01*
X112574051Y-92612580D01*
X112574048Y-92612584D01*
X112491919Y-92735498D01*
X112491912Y-92735511D01*
X112435343Y-92872082D01*
X112435340Y-92872092D01*
X112406500Y-93017079D01*
X112406500Y-93017082D01*
X112406500Y-93164918D01*
X112406500Y-93164920D01*
X112406499Y-93164920D01*
X65016500Y-93164920D01*
X65016500Y-91513920D01*
X87729499Y-91513920D01*
X87758340Y-91658907D01*
X87758343Y-91658917D01*
X87814912Y-91795488D01*
X87814919Y-91795501D01*
X87897048Y-91918415D01*
X87897051Y-91918419D01*
X88001580Y-92022948D01*
X88001584Y-92022951D01*
X88124498Y-92105080D01*
X88124511Y-92105087D01*
X88261082Y-92161656D01*
X88261087Y-92161658D01*
X88261091Y-92161658D01*
X88261092Y-92161659D01*
X88406079Y-92190500D01*
X88406082Y-92190500D01*
X88553920Y-92190500D01*
X88651462Y-92171096D01*
X88698913Y-92161658D01*
X88835495Y-92105084D01*
X88958416Y-92022951D01*
X89062951Y-91918416D01*
X89145084Y-91795495D01*
X89201658Y-91658913D01*
X89230500Y-91513918D01*
X89230500Y-91366082D01*
X89230500Y-91366079D01*
X89201659Y-91221092D01*
X89201658Y-91221091D01*
X89201658Y-91221087D01*
X89189933Y-91192781D01*
X89145087Y-91084511D01*
X89145080Y-91084498D01*
X89062951Y-90961584D01*
X89062948Y-90961580D01*
X88958419Y-90857051D01*
X88958415Y-90857048D01*
X88835501Y-90774919D01*
X88835488Y-90774912D01*
X88698917Y-90718343D01*
X88698907Y-90718340D01*
X88553920Y-90689500D01*
X88553918Y-90689500D01*
X88406082Y-90689500D01*
X88406080Y-90689500D01*
X88261092Y-90718340D01*
X88261082Y-90718343D01*
X88124511Y-90774912D01*
X88124498Y-90774919D01*
X88001584Y-90857048D01*
X88001580Y-90857051D01*
X87897051Y-90961580D01*
X87897048Y-90961584D01*
X87814919Y-91084498D01*
X87814912Y-91084511D01*
X87758343Y-91221082D01*
X87758340Y-91221092D01*
X87729500Y-91366079D01*
X87729500Y-91366082D01*
X87729500Y-91513918D01*
X87729500Y-91513920D01*
X87729499Y-91513920D01*
X65016500Y-91513920D01*
X65016500Y-87584920D01*
X74552499Y-87584920D01*
X74581340Y-87729907D01*
X74581343Y-87729917D01*
X74637912Y-87866488D01*
X74637919Y-87866501D01*
X74720048Y-87989415D01*
X74720051Y-87989419D01*
X74824580Y-88093948D01*
X74824584Y-88093951D01*
X74947498Y-88176080D01*
X74947511Y-88176087D01*
X75040626Y-88214656D01*
X75084087Y-88232658D01*
X75084091Y-88232658D01*
X75084092Y-88232659D01*
X75229079Y-88261500D01*
X75229082Y-88261500D01*
X75376920Y-88261500D01*
X75474462Y-88242096D01*
X75521913Y-88232658D01*
X75658495Y-88176084D01*
X75781416Y-88093951D01*
X75885951Y-87989416D01*
X75968084Y-87866495D01*
X76024658Y-87729913D01*
X76053500Y-87584918D01*
X76053500Y-87566920D01*
X77852499Y-87566920D01*
X77881340Y-87711907D01*
X77881343Y-87711917D01*
X77937912Y-87848488D01*
X77937919Y-87848501D01*
X78020048Y-87971415D01*
X78020051Y-87971419D01*
X78124580Y-88075948D01*
X78124584Y-88075951D01*
X78247498Y-88158080D01*
X78247511Y-88158087D01*
X78384082Y-88214656D01*
X78384087Y-88214658D01*
X78384091Y-88214658D01*
X78384092Y-88214659D01*
X78529079Y-88243500D01*
X78529082Y-88243500D01*
X78676920Y-88243500D01*
X78774462Y-88224096D01*
X78821913Y-88214658D01*
X78958495Y-88158084D01*
X79081416Y-88075951D01*
X79185951Y-87971416D01*
X79268084Y-87848495D01*
X79324658Y-87711913D01*
X79349919Y-87584920D01*
X79353500Y-87566920D01*
X79353500Y-87419079D01*
X79324659Y-87274092D01*
X79324658Y-87274091D01*
X79324658Y-87274087D01*
X79324656Y-87274082D01*
X79268087Y-87137511D01*
X79268080Y-87137498D01*
X79185951Y-87014584D01*
X79185948Y-87014580D01*
X79081419Y-86910051D01*
X79081415Y-86910048D01*
X78958501Y-86827919D01*
X78958488Y-86827912D01*
X78821917Y-86771343D01*
X78821907Y-86771340D01*
X78676920Y-86742500D01*
X78676918Y-86742500D01*
X78529082Y-86742500D01*
X78529080Y-86742500D01*
X78384092Y-86771340D01*
X78384082Y-86771343D01*
X78247511Y-86827912D01*
X78247498Y-86827919D01*
X78124584Y-86910048D01*
X78124580Y-86910051D01*
X78020051Y-87014580D01*
X78020048Y-87014584D01*
X77937919Y-87137498D01*
X77937912Y-87137511D01*
X77881343Y-87274082D01*
X77881340Y-87274092D01*
X77852500Y-87419079D01*
X77852500Y-87419082D01*
X77852500Y-87566918D01*
X77852500Y-87566920D01*
X77852499Y-87566920D01*
X76053500Y-87566920D01*
X76053500Y-87437082D01*
X76053499Y-87437079D01*
X76024659Y-87292092D01*
X76024658Y-87292091D01*
X76024658Y-87292087D01*
X76017200Y-87274082D01*
X75968087Y-87155511D01*
X75968080Y-87155498D01*
X75885951Y-87032584D01*
X75885948Y-87032580D01*
X75781419Y-86928051D01*
X75781415Y-86928048D01*
X75658501Y-86845919D01*
X75658488Y-86845912D01*
X75521917Y-86789343D01*
X75521907Y-86789340D01*
X75376920Y-86760500D01*
X75376918Y-86760500D01*
X75229082Y-86760500D01*
X75229080Y-86760500D01*
X75084092Y-86789340D01*
X75084082Y-86789343D01*
X74947511Y-86845912D01*
X74947498Y-86845919D01*
X74824584Y-86928048D01*
X74824580Y-86928051D01*
X74720051Y-87032580D01*
X74720048Y-87032584D01*
X74637919Y-87155498D01*
X74637912Y-87155511D01*
X74581343Y-87292082D01*
X74581340Y-87292092D01*
X74552500Y-87437079D01*
X74552500Y-87437081D01*
X74552500Y-87437082D01*
X74552500Y-87584918D01*
X74552500Y-87584920D01*
X74552499Y-87584920D01*
X65016500Y-87584920D01*
X65016500Y-86364066D01*
X65016765Y-86355957D01*
X65020819Y-86294108D01*
X65033417Y-86101883D01*
X65035531Y-86085829D01*
X65084409Y-85840107D01*
X65088606Y-85824445D01*
X65112197Y-85754945D01*
X65169138Y-85587205D01*
X65175336Y-85572239D01*
X65286149Y-85347533D01*
X65294252Y-85333498D01*
X65433448Y-85125176D01*
X65443305Y-85112331D01*
X65608502Y-84923960D01*
X65619960Y-84912502D01*
X65808331Y-84747305D01*
X65821176Y-84737448D01*
X66029498Y-84598252D01*
X66043533Y-84590149D01*
X66268239Y-84479336D01*
X66283205Y-84473138D01*
X66450945Y-84416197D01*
X66520445Y-84392606D01*
X66536107Y-84388409D01*
X66781829Y-84339531D01*
X66797883Y-84337417D01*
X67030848Y-84322148D01*
X67051958Y-84320765D01*
X67060067Y-84320500D01*
X67121892Y-84320500D01*
X116376000Y-84320500D01*
X116443039Y-84340185D01*
G37*
%TD.AperFunction*%
%TD*%
M02*
