%TF.GenerationSoftware,KiCad,Pcbnew,9.0.6*%
%TF.CreationDate,2025-11-03T22:24:35+01:00*%
%TF.ProjectId,capSensor,63617053-656e-4736-9f72-2e6b69636164,rev?*%
%TF.SameCoordinates,Original*%
%TF.FileFunction,Soldermask,Top*%
%TF.FilePolarity,Negative*%
%FSLAX46Y46*%
G04 Gerber Fmt 4.6, Leading zero omitted, Abs format (unit mm)*
G04 Created by KiCad (PCBNEW 9.0.6) date 2025-11-03 22:24:35*
%MOMM*%
%LPD*%
G01*
G04 APERTURE LIST*
G04 Aperture macros list*
%AMRoundRect*
0 Rectangle with rounded corners*
0 $1 Rounding radius*
0 $2 $3 $4 $5 $6 $7 $8 $9 X,Y pos of 4 corners*
0 Add a 4 corners polygon primitive as box body*
4,1,4,$2,$3,$4,$5,$6,$7,$8,$9,$2,$3,0*
0 Add four circle primitives for the rounded corners*
1,1,$1+$1,$2,$3*
1,1,$1+$1,$4,$5*
1,1,$1+$1,$6,$7*
1,1,$1+$1,$8,$9*
0 Add four rect primitives between the rounded corners*
20,1,$1+$1,$2,$3,$4,$5,0*
20,1,$1+$1,$4,$5,$6,$7,0*
20,1,$1+$1,$6,$7,$8,$9,0*
20,1,$1+$1,$8,$9,$2,$3,0*%
G04 Aperture macros list end*
%ADD10C,0.010000*%
%ADD11RoundRect,0.250000X0.450000X-0.350000X0.450000X0.350000X-0.450000X0.350000X-0.450000X-0.350000X0*%
%ADD12RoundRect,0.062500X-0.350000X-0.062500X0.350000X-0.062500X0.350000X0.062500X-0.350000X0.062500X0*%
%ADD13RoundRect,0.062500X-0.062500X-0.350000X0.062500X-0.350000X0.062500X0.350000X-0.062500X0.350000X0*%
%ADD14R,2.500000X2.500000*%
%ADD15RoundRect,0.250000X0.262500X0.450000X-0.262500X0.450000X-0.262500X-0.450000X0.262500X-0.450000X0*%
%ADD16RoundRect,0.250000X0.337500X0.475000X-0.337500X0.475000X-0.337500X-0.475000X0.337500X-0.475000X0*%
%ADD17RoundRect,0.250000X0.475000X-0.337500X0.475000X0.337500X-0.475000X0.337500X-0.475000X-0.337500X0*%
%ADD18RoundRect,0.102000X-0.910000X0.580000X-0.910000X-0.580000X0.910000X-0.580000X0.910000X0.580000X0*%
%ADD19RoundRect,0.250000X-0.350000X-0.450000X0.350000X-0.450000X0.350000X0.450000X-0.350000X0.450000X0*%
%ADD20RoundRect,0.250000X-0.262500X-0.450000X0.262500X-0.450000X0.262500X0.450000X-0.262500X0.450000X0*%
%ADD21C,0.954000*%
%ADD22O,2.504000X1.404000*%
%ADD23RoundRect,0.102000X1.300000X-0.855000X1.300000X0.855000X-1.300000X0.855000X-1.300000X-0.855000X0*%
%ADD24RoundRect,0.250000X-0.450000X0.325000X-0.450000X-0.325000X0.450000X-0.325000X0.450000X0.325000X0*%
%ADD25RoundRect,0.250000X-0.475000X0.337500X-0.475000X-0.337500X0.475000X-0.337500X0.475000X0.337500X0*%
%ADD26RoundRect,0.250000X-0.750000X0.750000X-0.750000X-0.750000X0.750000X-0.750000X0.750000X0.750000X0*%
%ADD27C,2.000000*%
%ADD28RoundRect,0.250000X0.450000X-0.325000X0.450000X0.325000X-0.450000X0.325000X-0.450000X-0.325000X0*%
%ADD29C,1.000000*%
%ADD30RoundRect,0.250000X-0.325000X-0.450000X0.325000X-0.450000X0.325000X0.450000X-0.325000X0.450000X0*%
%ADD31RoundRect,0.250000X-0.450000X0.350000X-0.450000X-0.350000X0.450000X-0.350000X0.450000X0.350000X0*%
%ADD32RoundRect,0.102000X0.580000X0.910000X-0.580000X0.910000X-0.580000X-0.910000X0.580000X-0.910000X0*%
%ADD33RoundRect,0.102000X-0.700000X-0.800000X0.700000X-0.800000X0.700000X0.800000X-0.700000X0.800000X0*%
%ADD34RoundRect,0.250000X0.450000X-0.262500X0.450000X0.262500X-0.450000X0.262500X-0.450000X-0.262500X0*%
%ADD35RoundRect,0.250000X0.350000X0.450000X-0.350000X0.450000X-0.350000X-0.450000X0.350000X-0.450000X0*%
%ADD36R,0.500000X0.350000*%
%ADD37R,0.800000X1.500000*%
%ADD38R,1.450000X2.000000*%
%ADD39RoundRect,0.162500X-0.650000X-0.162500X0.650000X-0.162500X0.650000X0.162500X-0.650000X0.162500X0*%
%ADD40RoundRect,0.150000X-0.150000X0.587500X-0.150000X-0.587500X0.150000X-0.587500X0.150000X0.587500X0*%
%ADD41R,0.650001X0.249999*%
%ADD42R,1.200000X2.000001*%
%ADD43C,0.499999*%
%ADD44R,1.000000X2.050001*%
%ADD45R,3.250001X2.050001*%
%ADD46R,1.750000X0.600000*%
%ADD47RoundRect,0.102000X0.910000X-0.580000X0.910000X0.580000X-0.910000X0.580000X-0.910000X-0.580000X0*%
%ADD48R,0.203200X0.609600*%
%ADD49R,2.794000X0.406400*%
%ADD50R,1.500000X0.900000*%
%ADD51C,0.600000*%
%ADD52R,2.900000X2.900000*%
%ADD53RoundRect,0.102000X-0.580000X-0.910000X0.580000X-0.910000X0.580000X0.910000X-0.580000X0.910000X0*%
%ADD54RoundRect,0.175000X0.325000X-0.175000X0.325000X0.175000X-0.325000X0.175000X-0.325000X-0.175000X0*%
%ADD55RoundRect,0.150000X0.150000X-0.200000X0.150000X0.200000X-0.150000X0.200000X-0.150000X-0.200000X0*%
%ADD56RoundRect,0.250001X-1.074999X0.462499X-1.074999X-0.462499X1.074999X-0.462499X1.074999X0.462499X0*%
%ADD57RoundRect,0.250000X-0.337500X-0.475000X0.337500X-0.475000X0.337500X0.475000X-0.337500X0.475000X0*%
%ADD58R,0.300000X0.300000*%
%ADD59R,0.900000X0.300000*%
%ADD60R,0.300000X0.900000*%
%ADD61R,1.800000X1.800000*%
%ADD62RoundRect,0.102000X0.500000X1.750000X-0.500000X1.750000X-0.500000X-1.750000X0.500000X-1.750000X0*%
%ADD63RoundRect,0.102000X0.750000X1.700000X-0.750000X1.700000X-0.750000X-1.700000X0.750000X-1.700000X0*%
G04 APERTURE END LIST*
D10*
%TO.C,J4*%
X143731000Y-115772000D02*
X142781000Y-115772000D01*
X142781000Y-115102000D01*
X143731000Y-115102000D01*
X143731000Y-115772000D01*
G36*
X143731000Y-115772000D02*
G01*
X142781000Y-115772000D01*
X142781000Y-115102000D01*
X143731000Y-115102000D01*
X143731000Y-115772000D01*
G37*
X143731000Y-116222000D02*
X142781000Y-116222000D01*
X142781000Y-115872000D01*
X143731000Y-115872000D01*
X143731000Y-116222000D01*
G36*
X143731000Y-116222000D02*
G01*
X142781000Y-116222000D01*
X142781000Y-115872000D01*
X143731000Y-115872000D01*
X143731000Y-116222000D01*
G37*
X143731000Y-116972000D02*
X142781000Y-116972000D01*
X142781000Y-116622000D01*
X143731000Y-116622000D01*
X143731000Y-116972000D01*
G36*
X143731000Y-116972000D02*
G01*
X142781000Y-116972000D01*
X142781000Y-116622000D01*
X143731000Y-116622000D01*
X143731000Y-116972000D01*
G37*
X143731000Y-117422000D02*
X142781000Y-117422000D01*
X142781000Y-117072000D01*
X143731000Y-117072000D01*
X143731000Y-117422000D01*
G36*
X143731000Y-117422000D02*
G01*
X142781000Y-117422000D01*
X142781000Y-117072000D01*
X143731000Y-117072000D01*
X143731000Y-117422000D01*
G37*
X143731000Y-117822000D02*
X142781000Y-117822000D01*
X142781000Y-117522000D01*
X143731000Y-117522000D01*
X143731000Y-117822000D01*
G36*
X143731000Y-117822000D02*
G01*
X142781000Y-117822000D01*
X142781000Y-117522000D01*
X143731000Y-117522000D01*
X143731000Y-117822000D01*
G37*
X143731000Y-118222000D02*
X142781000Y-118222000D01*
X142781000Y-117922000D01*
X143731000Y-117922000D01*
X143731000Y-118222000D01*
G36*
X143731000Y-118222000D02*
G01*
X142781000Y-118222000D01*
X142781000Y-117922000D01*
X143731000Y-117922000D01*
X143731000Y-118222000D01*
G37*
X143731000Y-118622000D02*
X142781000Y-118622000D01*
X142781000Y-118322000D01*
X143731000Y-118322000D01*
X143731000Y-118622000D01*
G36*
X143731000Y-118622000D02*
G01*
X142781000Y-118622000D01*
X142781000Y-118322000D01*
X143731000Y-118322000D01*
X143731000Y-118622000D01*
G37*
X143731000Y-119022000D02*
X142781000Y-119022000D01*
X142781000Y-118722000D01*
X143731000Y-118722000D01*
X143731000Y-119022000D01*
G36*
X143731000Y-119022000D02*
G01*
X142781000Y-119022000D01*
X142781000Y-118722000D01*
X143731000Y-118722000D01*
X143731000Y-119022000D01*
G37*
X143731000Y-119422000D02*
X142781000Y-119422000D01*
X142781000Y-119122000D01*
X143731000Y-119122000D01*
X143731000Y-119422000D01*
G36*
X143731000Y-119422000D02*
G01*
X142781000Y-119422000D01*
X142781000Y-119122000D01*
X143731000Y-119122000D01*
X143731000Y-119422000D01*
G37*
X143731000Y-119822000D02*
X142781000Y-119822000D01*
X142781000Y-119522000D01*
X143731000Y-119522000D01*
X143731000Y-119822000D01*
G36*
X143731000Y-119822000D02*
G01*
X142781000Y-119822000D01*
X142781000Y-119522000D01*
X143731000Y-119522000D01*
X143731000Y-119822000D01*
G37*
X143731000Y-120222000D02*
X142781000Y-120222000D01*
X142781000Y-119922000D01*
X143731000Y-119922000D01*
X143731000Y-120222000D01*
G36*
X143731000Y-120222000D02*
G01*
X142781000Y-120222000D01*
X142781000Y-119922000D01*
X143731000Y-119922000D01*
X143731000Y-120222000D01*
G37*
X143731000Y-120622000D02*
X142781000Y-120622000D01*
X142781000Y-120322000D01*
X143731000Y-120322000D01*
X143731000Y-120622000D01*
G36*
X143731000Y-120622000D02*
G01*
X142781000Y-120622000D01*
X142781000Y-120322000D01*
X143731000Y-120322000D01*
X143731000Y-120622000D01*
G37*
X143731000Y-121072000D02*
X142781000Y-121072000D01*
X142781000Y-120722000D01*
X143731000Y-120722000D01*
X143731000Y-121072000D01*
G36*
X143731000Y-121072000D02*
G01*
X142781000Y-121072000D01*
X142781000Y-120722000D01*
X143731000Y-120722000D01*
X143731000Y-121072000D01*
G37*
X143731000Y-121522000D02*
X142781000Y-121522000D01*
X142781000Y-121172000D01*
X143731000Y-121172000D01*
X143731000Y-121522000D01*
G36*
X143731000Y-121522000D02*
G01*
X142781000Y-121522000D01*
X142781000Y-121172000D01*
X143731000Y-121172000D01*
X143731000Y-121522000D01*
G37*
X143731000Y-122272000D02*
X142781000Y-122272000D01*
X142781000Y-121922000D01*
X143731000Y-121922000D01*
X143731000Y-122272000D01*
G36*
X143731000Y-122272000D02*
G01*
X142781000Y-122272000D01*
X142781000Y-121922000D01*
X143731000Y-121922000D01*
X143731000Y-122272000D01*
G37*
X143731000Y-123042000D02*
X142781000Y-123042000D01*
X142781000Y-122372000D01*
X143731000Y-122372000D01*
X143731000Y-123042000D01*
G36*
X143731000Y-123042000D02*
G01*
X142781000Y-123042000D01*
X142781000Y-122372000D01*
X143731000Y-122372000D01*
X143731000Y-123042000D01*
G37*
X144465000Y-113753000D02*
X144499000Y-113756000D01*
X144533000Y-113760000D01*
X144566000Y-113766000D01*
X144599000Y-113774000D01*
X144632000Y-113784000D01*
X144664000Y-113795000D01*
X144695000Y-113808000D01*
X144726000Y-113823000D01*
X144756000Y-113839000D01*
X144785000Y-113857000D01*
X144813000Y-113876000D01*
X144840000Y-113897000D01*
X144866000Y-113919000D01*
X144891000Y-113942000D01*
X144914000Y-113967000D01*
X144936000Y-113993000D01*
X144957000Y-114020000D01*
X144976000Y-114048000D01*
X144994000Y-114077000D01*
X145010000Y-114107000D01*
X145025000Y-114138000D01*
X145038000Y-114169000D01*
X145049000Y-114201000D01*
X145059000Y-114234000D01*
X145067000Y-114267000D01*
X145073000Y-114300000D01*
X145077000Y-114334000D01*
X145080000Y-114368000D01*
X145081000Y-114402000D01*
X145080000Y-114436000D01*
X145077000Y-114470000D01*
X145073000Y-114504000D01*
X145067000Y-114537000D01*
X145059000Y-114570000D01*
X145049000Y-114603000D01*
X145038000Y-114635000D01*
X145025000Y-114666000D01*
X145010000Y-114697000D01*
X144994000Y-114727000D01*
X144976000Y-114756000D01*
X144957000Y-114784000D01*
X144936000Y-114811000D01*
X144914000Y-114837000D01*
X144891000Y-114862000D01*
X144866000Y-114885000D01*
X144840000Y-114907000D01*
X144813000Y-114928000D01*
X144785000Y-114947000D01*
X144756000Y-114965000D01*
X144726000Y-114981000D01*
X144695000Y-114996000D01*
X144664000Y-115009000D01*
X144632000Y-115020000D01*
X144599000Y-115030000D01*
X144566000Y-115038000D01*
X144533000Y-115044000D01*
X144499000Y-115048000D01*
X144465000Y-115051000D01*
X144431000Y-115052000D01*
X142931000Y-115052000D01*
X142897000Y-115051000D01*
X142863000Y-115048000D01*
X142829000Y-115044000D01*
X142796000Y-115038000D01*
X142763000Y-115030000D01*
X142730000Y-115020000D01*
X142698000Y-115009000D01*
X142667000Y-114996000D01*
X142636000Y-114981000D01*
X142606000Y-114965000D01*
X142577000Y-114947000D01*
X142549000Y-114928000D01*
X142522000Y-114907000D01*
X142496000Y-114885000D01*
X142471000Y-114862000D01*
X142448000Y-114837000D01*
X142426000Y-114811000D01*
X142405000Y-114784000D01*
X142386000Y-114756000D01*
X142368000Y-114727000D01*
X142352000Y-114697000D01*
X142337000Y-114666000D01*
X142324000Y-114635000D01*
X142313000Y-114603000D01*
X142303000Y-114570000D01*
X142295000Y-114537000D01*
X142289000Y-114504000D01*
X142285000Y-114470000D01*
X142282000Y-114436000D01*
X142281000Y-114402000D01*
X142282000Y-114368000D01*
X142285000Y-114334000D01*
X142289000Y-114300000D01*
X142295000Y-114267000D01*
X142303000Y-114234000D01*
X142313000Y-114201000D01*
X142324000Y-114169000D01*
X142337000Y-114138000D01*
X142352000Y-114107000D01*
X142368000Y-114077000D01*
X142386000Y-114048000D01*
X142405000Y-114020000D01*
X142426000Y-113993000D01*
X142448000Y-113967000D01*
X142471000Y-113942000D01*
X142496000Y-113919000D01*
X142522000Y-113897000D01*
X142549000Y-113876000D01*
X142577000Y-113857000D01*
X142606000Y-113839000D01*
X142636000Y-113823000D01*
X142667000Y-113808000D01*
X142698000Y-113795000D01*
X142730000Y-113784000D01*
X142763000Y-113774000D01*
X142796000Y-113766000D01*
X142829000Y-113760000D01*
X142863000Y-113756000D01*
X142897000Y-113753000D01*
X142931000Y-113752000D01*
X144431000Y-113752000D01*
X144465000Y-113753000D01*
G36*
X144465000Y-113753000D02*
G01*
X144499000Y-113756000D01*
X144533000Y-113760000D01*
X144566000Y-113766000D01*
X144599000Y-113774000D01*
X144632000Y-113784000D01*
X144664000Y-113795000D01*
X144695000Y-113808000D01*
X144726000Y-113823000D01*
X144756000Y-113839000D01*
X144785000Y-113857000D01*
X144813000Y-113876000D01*
X144840000Y-113897000D01*
X144866000Y-113919000D01*
X144891000Y-113942000D01*
X144914000Y-113967000D01*
X144936000Y-113993000D01*
X144957000Y-114020000D01*
X144976000Y-114048000D01*
X144994000Y-114077000D01*
X145010000Y-114107000D01*
X145025000Y-114138000D01*
X145038000Y-114169000D01*
X145049000Y-114201000D01*
X145059000Y-114234000D01*
X145067000Y-114267000D01*
X145073000Y-114300000D01*
X145077000Y-114334000D01*
X145080000Y-114368000D01*
X145081000Y-114402000D01*
X145080000Y-114436000D01*
X145077000Y-114470000D01*
X145073000Y-114504000D01*
X145067000Y-114537000D01*
X145059000Y-114570000D01*
X145049000Y-114603000D01*
X145038000Y-114635000D01*
X145025000Y-114666000D01*
X145010000Y-114697000D01*
X144994000Y-114727000D01*
X144976000Y-114756000D01*
X144957000Y-114784000D01*
X144936000Y-114811000D01*
X144914000Y-114837000D01*
X144891000Y-114862000D01*
X144866000Y-114885000D01*
X144840000Y-114907000D01*
X144813000Y-114928000D01*
X144785000Y-114947000D01*
X144756000Y-114965000D01*
X144726000Y-114981000D01*
X144695000Y-114996000D01*
X144664000Y-115009000D01*
X144632000Y-115020000D01*
X144599000Y-115030000D01*
X144566000Y-115038000D01*
X144533000Y-115044000D01*
X144499000Y-115048000D01*
X144465000Y-115051000D01*
X144431000Y-115052000D01*
X142931000Y-115052000D01*
X142897000Y-115051000D01*
X142863000Y-115048000D01*
X142829000Y-115044000D01*
X142796000Y-115038000D01*
X142763000Y-115030000D01*
X142730000Y-115020000D01*
X142698000Y-115009000D01*
X142667000Y-114996000D01*
X142636000Y-114981000D01*
X142606000Y-114965000D01*
X142577000Y-114947000D01*
X142549000Y-114928000D01*
X142522000Y-114907000D01*
X142496000Y-114885000D01*
X142471000Y-114862000D01*
X142448000Y-114837000D01*
X142426000Y-114811000D01*
X142405000Y-114784000D01*
X142386000Y-114756000D01*
X142368000Y-114727000D01*
X142352000Y-114697000D01*
X142337000Y-114666000D01*
X142324000Y-114635000D01*
X142313000Y-114603000D01*
X142303000Y-114570000D01*
X142295000Y-114537000D01*
X142289000Y-114504000D01*
X142285000Y-114470000D01*
X142282000Y-114436000D01*
X142281000Y-114402000D01*
X142282000Y-114368000D01*
X142285000Y-114334000D01*
X142289000Y-114300000D01*
X142295000Y-114267000D01*
X142303000Y-114234000D01*
X142313000Y-114201000D01*
X142324000Y-114169000D01*
X142337000Y-114138000D01*
X142352000Y-114107000D01*
X142368000Y-114077000D01*
X142386000Y-114048000D01*
X142405000Y-114020000D01*
X142426000Y-113993000D01*
X142448000Y-113967000D01*
X142471000Y-113942000D01*
X142496000Y-113919000D01*
X142522000Y-113897000D01*
X142549000Y-113876000D01*
X142577000Y-113857000D01*
X142606000Y-113839000D01*
X142636000Y-113823000D01*
X142667000Y-113808000D01*
X142698000Y-113795000D01*
X142730000Y-113784000D01*
X142763000Y-113774000D01*
X142796000Y-113766000D01*
X142829000Y-113760000D01*
X142863000Y-113756000D01*
X142897000Y-113753000D01*
X142931000Y-113752000D01*
X144431000Y-113752000D01*
X144465000Y-113753000D01*
G37*
X144465000Y-123093000D02*
X144499000Y-123096000D01*
X144533000Y-123100000D01*
X144566000Y-123106000D01*
X144599000Y-123114000D01*
X144632000Y-123124000D01*
X144664000Y-123135000D01*
X144695000Y-123148000D01*
X144726000Y-123163000D01*
X144756000Y-123179000D01*
X144785000Y-123197000D01*
X144813000Y-123216000D01*
X144840000Y-123237000D01*
X144866000Y-123259000D01*
X144891000Y-123282000D01*
X144914000Y-123307000D01*
X144936000Y-123333000D01*
X144957000Y-123360000D01*
X144976000Y-123388000D01*
X144994000Y-123417000D01*
X145010000Y-123447000D01*
X145025000Y-123478000D01*
X145038000Y-123509000D01*
X145049000Y-123541000D01*
X145059000Y-123574000D01*
X145067000Y-123607000D01*
X145073000Y-123640000D01*
X145077000Y-123674000D01*
X145080000Y-123708000D01*
X145081000Y-123742000D01*
X145080000Y-123776000D01*
X145077000Y-123810000D01*
X145073000Y-123844000D01*
X145067000Y-123877000D01*
X145059000Y-123910000D01*
X145049000Y-123943000D01*
X145038000Y-123975000D01*
X145025000Y-124006000D01*
X145010000Y-124037000D01*
X144994000Y-124067000D01*
X144976000Y-124096000D01*
X144957000Y-124124000D01*
X144936000Y-124151000D01*
X144914000Y-124177000D01*
X144891000Y-124202000D01*
X144866000Y-124225000D01*
X144840000Y-124247000D01*
X144813000Y-124268000D01*
X144785000Y-124287000D01*
X144756000Y-124305000D01*
X144726000Y-124321000D01*
X144695000Y-124336000D01*
X144664000Y-124349000D01*
X144632000Y-124360000D01*
X144599000Y-124370000D01*
X144566000Y-124378000D01*
X144533000Y-124384000D01*
X144499000Y-124388000D01*
X144465000Y-124391000D01*
X144431000Y-124392000D01*
X142931000Y-124392000D01*
X142897000Y-124391000D01*
X142863000Y-124388000D01*
X142829000Y-124384000D01*
X142796000Y-124378000D01*
X142763000Y-124370000D01*
X142730000Y-124360000D01*
X142698000Y-124349000D01*
X142667000Y-124336000D01*
X142636000Y-124321000D01*
X142606000Y-124305000D01*
X142577000Y-124287000D01*
X142549000Y-124268000D01*
X142522000Y-124247000D01*
X142496000Y-124225000D01*
X142471000Y-124202000D01*
X142448000Y-124177000D01*
X142426000Y-124151000D01*
X142405000Y-124124000D01*
X142386000Y-124096000D01*
X142368000Y-124067000D01*
X142352000Y-124037000D01*
X142337000Y-124006000D01*
X142324000Y-123975000D01*
X142313000Y-123943000D01*
X142303000Y-123910000D01*
X142295000Y-123877000D01*
X142289000Y-123844000D01*
X142285000Y-123810000D01*
X142282000Y-123776000D01*
X142281000Y-123742000D01*
X142282000Y-123708000D01*
X142285000Y-123674000D01*
X142289000Y-123640000D01*
X142295000Y-123607000D01*
X142303000Y-123574000D01*
X142313000Y-123541000D01*
X142324000Y-123509000D01*
X142337000Y-123478000D01*
X142352000Y-123447000D01*
X142368000Y-123417000D01*
X142386000Y-123388000D01*
X142405000Y-123360000D01*
X142426000Y-123333000D01*
X142448000Y-123307000D01*
X142471000Y-123282000D01*
X142496000Y-123259000D01*
X142522000Y-123237000D01*
X142549000Y-123216000D01*
X142577000Y-123197000D01*
X142606000Y-123179000D01*
X142636000Y-123163000D01*
X142667000Y-123148000D01*
X142698000Y-123135000D01*
X142730000Y-123124000D01*
X142763000Y-123114000D01*
X142796000Y-123106000D01*
X142829000Y-123100000D01*
X142863000Y-123096000D01*
X142897000Y-123093000D01*
X142931000Y-123092000D01*
X144431000Y-123092000D01*
X144465000Y-123093000D01*
G36*
X144465000Y-123093000D02*
G01*
X144499000Y-123096000D01*
X144533000Y-123100000D01*
X144566000Y-123106000D01*
X144599000Y-123114000D01*
X144632000Y-123124000D01*
X144664000Y-123135000D01*
X144695000Y-123148000D01*
X144726000Y-123163000D01*
X144756000Y-123179000D01*
X144785000Y-123197000D01*
X144813000Y-123216000D01*
X144840000Y-123237000D01*
X144866000Y-123259000D01*
X144891000Y-123282000D01*
X144914000Y-123307000D01*
X144936000Y-123333000D01*
X144957000Y-123360000D01*
X144976000Y-123388000D01*
X144994000Y-123417000D01*
X145010000Y-123447000D01*
X145025000Y-123478000D01*
X145038000Y-123509000D01*
X145049000Y-123541000D01*
X145059000Y-123574000D01*
X145067000Y-123607000D01*
X145073000Y-123640000D01*
X145077000Y-123674000D01*
X145080000Y-123708000D01*
X145081000Y-123742000D01*
X145080000Y-123776000D01*
X145077000Y-123810000D01*
X145073000Y-123844000D01*
X145067000Y-123877000D01*
X145059000Y-123910000D01*
X145049000Y-123943000D01*
X145038000Y-123975000D01*
X145025000Y-124006000D01*
X145010000Y-124037000D01*
X144994000Y-124067000D01*
X144976000Y-124096000D01*
X144957000Y-124124000D01*
X144936000Y-124151000D01*
X144914000Y-124177000D01*
X144891000Y-124202000D01*
X144866000Y-124225000D01*
X144840000Y-124247000D01*
X144813000Y-124268000D01*
X144785000Y-124287000D01*
X144756000Y-124305000D01*
X144726000Y-124321000D01*
X144695000Y-124336000D01*
X144664000Y-124349000D01*
X144632000Y-124360000D01*
X144599000Y-124370000D01*
X144566000Y-124378000D01*
X144533000Y-124384000D01*
X144499000Y-124388000D01*
X144465000Y-124391000D01*
X144431000Y-124392000D01*
X142931000Y-124392000D01*
X142897000Y-124391000D01*
X142863000Y-124388000D01*
X142829000Y-124384000D01*
X142796000Y-124378000D01*
X142763000Y-124370000D01*
X142730000Y-124360000D01*
X142698000Y-124349000D01*
X142667000Y-124336000D01*
X142636000Y-124321000D01*
X142606000Y-124305000D01*
X142577000Y-124287000D01*
X142549000Y-124268000D01*
X142522000Y-124247000D01*
X142496000Y-124225000D01*
X142471000Y-124202000D01*
X142448000Y-124177000D01*
X142426000Y-124151000D01*
X142405000Y-124124000D01*
X142386000Y-124096000D01*
X142368000Y-124067000D01*
X142352000Y-124037000D01*
X142337000Y-124006000D01*
X142324000Y-123975000D01*
X142313000Y-123943000D01*
X142303000Y-123910000D01*
X142295000Y-123877000D01*
X142289000Y-123844000D01*
X142285000Y-123810000D01*
X142282000Y-123776000D01*
X142281000Y-123742000D01*
X142282000Y-123708000D01*
X142285000Y-123674000D01*
X142289000Y-123640000D01*
X142295000Y-123607000D01*
X142303000Y-123574000D01*
X142313000Y-123541000D01*
X142324000Y-123509000D01*
X142337000Y-123478000D01*
X142352000Y-123447000D01*
X142368000Y-123417000D01*
X142386000Y-123388000D01*
X142405000Y-123360000D01*
X142426000Y-123333000D01*
X142448000Y-123307000D01*
X142471000Y-123282000D01*
X142496000Y-123259000D01*
X142522000Y-123237000D01*
X142549000Y-123216000D01*
X142577000Y-123197000D01*
X142606000Y-123179000D01*
X142636000Y-123163000D01*
X142667000Y-123148000D01*
X142698000Y-123135000D01*
X142730000Y-123124000D01*
X142763000Y-123114000D01*
X142796000Y-123106000D01*
X142829000Y-123100000D01*
X142863000Y-123096000D01*
X142897000Y-123093000D01*
X142931000Y-123092000D01*
X144431000Y-123092000D01*
X144465000Y-123093000D01*
G37*
%TD*%
D11*
%TO.C,R23*%
X100076000Y-99298000D03*
X100076000Y-97298000D03*
%TD*%
D12*
%TO.C,U6*%
X115734500Y-117960000D03*
X115734500Y-118460000D03*
X115734500Y-118960000D03*
X115734500Y-119460000D03*
X115734500Y-119960000D03*
D13*
X116672000Y-120897500D03*
X117172000Y-120897500D03*
X117672000Y-120897500D03*
X118172000Y-120897500D03*
X118672000Y-120897500D03*
D12*
X119609500Y-119960000D03*
X119609500Y-119460000D03*
X119609500Y-118960000D03*
X119609500Y-118460000D03*
X119609500Y-117960000D03*
D13*
X118672000Y-117022500D03*
X118172000Y-117022500D03*
X117672000Y-117022500D03*
X117172000Y-117022500D03*
X116672000Y-117022500D03*
D14*
X117672000Y-118960000D03*
%TD*%
D15*
%TO.C,R6*%
X132500500Y-111538000D03*
X130675500Y-111538000D03*
%TD*%
D16*
%TO.C,C7*%
X132625500Y-109538000D03*
X130550500Y-109538000D03*
%TD*%
D17*
%TO.C,C17*%
X69003000Y-95375500D03*
X69003000Y-93300500D03*
%TD*%
D18*
%TO.C,C16*%
X89073998Y-122651000D03*
X89073998Y-125601000D03*
%TD*%
D19*
%TO.C,R20*%
X116602000Y-106426000D03*
X118602000Y-106426000D03*
%TD*%
D20*
%TO.C,R24*%
X116665250Y-96699500D03*
X118490250Y-96699500D03*
%TD*%
D21*
%TO.C,J4*%
X144256000Y-122392000D03*
X144256000Y-115752000D03*
D22*
X147231000Y-123392000D03*
X147231000Y-114752000D03*
D23*
X147081000Y-120637000D03*
X147081000Y-117507000D03*
%TD*%
D24*
%TO.C,D6*%
X117856000Y-128435000D03*
X117856000Y-130485000D03*
%TD*%
D25*
%TO.C,C5*%
X98736000Y-108966499D03*
X98736000Y-111041499D03*
%TD*%
D17*
%TO.C,C13*%
X78375000Y-119868500D03*
X78375000Y-117793500D03*
%TD*%
D26*
%TO.C,J5*%
X69590068Y-113118000D03*
D27*
X69590068Y-115658000D03*
%TD*%
D28*
%TO.C,D1*%
X93736000Y-110998999D03*
X93736000Y-108948999D03*
%TD*%
D29*
%TO.C,TP1*%
X77216000Y-104902000D03*
%TD*%
D30*
%TO.C,D8*%
X146402500Y-107950000D03*
X148452500Y-107950000D03*
%TD*%
D31*
%TO.C,R17*%
X120040000Y-124460000D03*
X120040000Y-126460000D03*
%TD*%
D24*
%TO.C,D3*%
X129604000Y-125447000D03*
X129604000Y-127497000D03*
%TD*%
D20*
%TO.C,R25*%
X116665250Y-98731500D03*
X118490250Y-98731500D03*
%TD*%
D32*
%TO.C,C22*%
X118315000Y-91948000D03*
X115365000Y-91948000D03*
%TD*%
D18*
%TO.C,C4*%
X96236000Y-108956999D03*
X96236000Y-111906999D03*
%TD*%
D19*
%TO.C,R14*%
X111172000Y-119960000D03*
X113172000Y-119960000D03*
%TD*%
D33*
%TO.C,EN*%
X92480000Y-85300000D03*
X92480000Y-92500000D03*
X95480000Y-85300000D03*
X95480000Y-92500000D03*
%TD*%
D11*
%TO.C,R22*%
X94234000Y-99298000D03*
X94234000Y-97298000D03*
%TD*%
D34*
%TO.C,R4*%
X93656000Y-114498500D03*
X93656000Y-112673500D03*
%TD*%
D11*
%TO.C,R5*%
X132588000Y-115538000D03*
X132588000Y-113538000D03*
%TD*%
D35*
%TO.C,R1*%
X140573000Y-123134000D03*
X138573000Y-123134000D03*
%TD*%
%TO.C,R12*%
X124172000Y-117960000D03*
X122172000Y-117960000D03*
%TD*%
D26*
%TO.C,J6*%
X69575818Y-126492000D03*
D27*
X69575818Y-129032000D03*
%TD*%
D11*
%TO.C,R2*%
X140716000Y-116808000D03*
X140716000Y-114808000D03*
%TD*%
D25*
%TO.C,C9*%
X83058000Y-114786500D03*
X83058000Y-116861500D03*
%TD*%
D24*
%TO.C,D4*%
X115672000Y-128435000D03*
X115672000Y-130485000D03*
%TD*%
D35*
%TO.C,R13*%
X124172000Y-119960000D03*
X122172000Y-119960000D03*
%TD*%
D36*
%TO.C,U4*%
X87190000Y-114698500D03*
X87190000Y-115348500D03*
X87190000Y-115998500D03*
X87190000Y-116648500D03*
X85140000Y-116648500D03*
X85140000Y-115998500D03*
X85140000Y-115348500D03*
X85140000Y-114698500D03*
%TD*%
D37*
%TO.C,J3*%
X75303000Y-88788000D03*
X76403000Y-88788000D03*
X77503000Y-88788000D03*
X78603000Y-88788000D03*
X79703000Y-88788000D03*
X80803000Y-88788000D03*
X81903000Y-88788000D03*
X83003000Y-88788000D03*
D38*
X71628000Y-86188000D03*
X71628000Y-94488000D03*
X85378000Y-86188000D03*
X85378000Y-94488000D03*
%TD*%
D29*
%TO.C,TP4*%
X74930000Y-101346000D03*
%TD*%
D31*
%TO.C,R16*%
X115672000Y-124460000D03*
X115672000Y-126460000D03*
%TD*%
D29*
%TO.C,TP5*%
X105664000Y-92964000D03*
%TD*%
D34*
%TO.C,R27*%
X103886000Y-98194500D03*
X103886000Y-96369500D03*
%TD*%
D35*
%TO.C,R26*%
X90480000Y-92400000D03*
X88480000Y-92400000D03*
%TD*%
D19*
%TO.C,R3*%
X146500000Y-126000000D03*
X148500000Y-126000000D03*
%TD*%
D39*
%TO.C,U8*%
X106116250Y-95048500D03*
X106116250Y-96318500D03*
X106116250Y-97588500D03*
X106116250Y-98858500D03*
X113291250Y-98858500D03*
X113291250Y-97588500D03*
X113291250Y-96318500D03*
X113291250Y-95048500D03*
%TD*%
D17*
%TO.C,C1*%
X108816000Y-116681501D03*
X108816000Y-114606501D03*
%TD*%
D40*
%TO.C,Q1*%
X94430000Y-101462500D03*
X92530000Y-101462500D03*
X93480000Y-103337500D03*
%TD*%
D19*
%TO.C,R10*%
X81296000Y-103378000D03*
X83296000Y-103378000D03*
%TD*%
D41*
%TO.C,U7*%
X80571000Y-122189999D03*
X80571000Y-122689998D03*
X80571000Y-123190000D03*
X80571000Y-123689999D03*
X80571000Y-124189998D03*
X83321002Y-124189998D03*
X83321002Y-123689999D03*
X83321002Y-123190000D03*
X83321002Y-122689998D03*
X83321002Y-122189999D03*
D42*
X81946004Y-123190000D03*
D43*
X81596002Y-123190000D03*
X81946001Y-122439999D03*
X81946001Y-123940001D03*
X82296000Y-123190000D03*
%TD*%
D44*
%TO.C,U1*%
X101516000Y-115999000D03*
X103816000Y-115999000D03*
X106116000Y-115999000D03*
D45*
X103816000Y-109649000D03*
%TD*%
D46*
%TO.C,J1*%
X146417000Y-99282000D03*
X144667000Y-98282000D03*
X146417000Y-97282000D03*
X144667000Y-96282000D03*
X146417000Y-95282000D03*
%TD*%
D35*
%TO.C,R15*%
X124172000Y-121960000D03*
X122172000Y-121960000D03*
%TD*%
D19*
%TO.C,R19*%
X116602000Y-108926000D03*
X118602000Y-108926000D03*
%TD*%
D29*
%TO.C,TP2*%
X103886000Y-100330000D03*
%TD*%
D17*
%TO.C,C11*%
X120040000Y-113997500D03*
X120040000Y-111922500D03*
%TD*%
D47*
%TO.C,C15*%
X66503000Y-95385000D03*
X66503000Y-92435000D03*
%TD*%
D48*
%TO.C,U5*%
X77003001Y-101785800D03*
X77403000Y-101785800D03*
X77803002Y-101785800D03*
X78203001Y-101785800D03*
X78603001Y-101785800D03*
X79003000Y-101785800D03*
X79403002Y-101785800D03*
X79803001Y-101785800D03*
X79803001Y-100338000D03*
X79403002Y-100338000D03*
X79003000Y-100338000D03*
X78603001Y-100338000D03*
X78203001Y-100338000D03*
X77803002Y-100338000D03*
X77403000Y-100338000D03*
X77003001Y-100338000D03*
D49*
X78403001Y-101061900D03*
%TD*%
D28*
%TO.C,F2*%
X115672000Y-113985000D03*
X115672000Y-111935000D03*
%TD*%
D50*
%TO.C,U9*%
X122134250Y-91022500D03*
X122134250Y-92522500D03*
X122134250Y-94022500D03*
X122134250Y-95522500D03*
X122134250Y-97022500D03*
X122134250Y-98522500D03*
X122134250Y-100022500D03*
X122134250Y-101522500D03*
X122134250Y-103022500D03*
X139634250Y-103022500D03*
X139634250Y-101522500D03*
X139634250Y-100022500D03*
X139634250Y-98522500D03*
X139634250Y-97022500D03*
X139634250Y-95522500D03*
X139634250Y-94022500D03*
X139634250Y-92522500D03*
X139634250Y-91022500D03*
D51*
X130744250Y-96672500D03*
X130744250Y-97772500D03*
X131294250Y-96122500D03*
X131294250Y-97222500D03*
X131294250Y-98322500D03*
X131844250Y-96672500D03*
D52*
X131844250Y-97222500D03*
D51*
X131844250Y-97772500D03*
X132394250Y-96122500D03*
X132394250Y-97222500D03*
X132394250Y-98322500D03*
X132944250Y-96672500D03*
X132944250Y-97772500D03*
%TD*%
D33*
%TO.C,BOOT*%
X98480000Y-85300000D03*
X98480000Y-92500000D03*
X101480000Y-85300000D03*
X101480000Y-92500000D03*
%TD*%
D47*
%TO.C,C2*%
X111316000Y-116691001D03*
X111316000Y-113741001D03*
%TD*%
D31*
%TO.C,R18*%
X117856000Y-124460000D03*
X117856000Y-126460000D03*
%TD*%
D16*
%TO.C,C19*%
X111741250Y-92953500D03*
X109666250Y-92953500D03*
%TD*%
D24*
%TO.C,D2*%
X133604000Y-125467000D03*
X133604000Y-127517000D03*
%TD*%
D53*
%TO.C,C10*%
X135177000Y-113284000D03*
X138127000Y-113284000D03*
%TD*%
D54*
%TO.C,U2*%
X138823000Y-120634000D03*
D55*
X140523000Y-120634000D03*
X140523000Y-118634000D03*
X138623000Y-118634000D03*
%TD*%
D29*
%TO.C,TP3*%
X79502000Y-104902000D03*
%TD*%
D56*
%TO.C,F1*%
X140000000Y-126262500D03*
X140000000Y-129237500D03*
%TD*%
D57*
%TO.C,C18*%
X98784500Y-94996000D03*
X100859500Y-94996000D03*
%TD*%
D19*
%TO.C,R21*%
X142427500Y-105450000D03*
X144427500Y-105450000D03*
%TD*%
D35*
%TO.C,R30*%
X76311000Y-126492000D03*
X74311000Y-126492000D03*
%TD*%
%TO.C,R29*%
X76327000Y-119761000D03*
X74327000Y-119761000D03*
%TD*%
D24*
%TO.C,D5*%
X120040000Y-128435000D03*
X120040000Y-130485000D03*
%TD*%
D25*
%TO.C,C14*%
X86614000Y-122660500D03*
X86614000Y-124735500D03*
%TD*%
D26*
%TO.C,J7*%
X69604318Y-119805000D03*
D27*
X69604318Y-122345000D03*
%TD*%
D31*
%TO.C,R8*%
X135604000Y-125447000D03*
X135604000Y-127447000D03*
%TD*%
D58*
%TO.C,U3*%
X135500000Y-121250000D03*
D59*
X135800000Y-120750000D03*
X135800000Y-120250000D03*
X135800000Y-119750000D03*
X135800000Y-119250000D03*
D58*
X135500000Y-118750000D03*
D60*
X135000000Y-118450000D03*
X134500000Y-118450000D03*
X134000000Y-118450000D03*
X133500000Y-118450000D03*
D58*
X133000000Y-118750000D03*
D59*
X132700000Y-119250000D03*
X132700000Y-119750000D03*
X132700000Y-120250000D03*
X132700000Y-120750000D03*
D58*
X133000000Y-121250000D03*
D60*
X133500000Y-121550000D03*
X134000000Y-121550000D03*
X134500000Y-121550000D03*
X135000000Y-121550000D03*
D61*
X134250000Y-120000000D03*
%TD*%
D57*
%TO.C,C3*%
X146425000Y-112250000D03*
X148500000Y-112250000D03*
%TD*%
D17*
%TO.C,C6*%
X142984000Y-128470500D03*
X142984000Y-126395500D03*
%TD*%
D35*
%TO.C,R11*%
X75422000Y-103378000D03*
X73422000Y-103378000D03*
%TD*%
D57*
%TO.C,C8*%
X135224500Y-115500000D03*
X137299500Y-115500000D03*
%TD*%
D31*
%TO.C,R7*%
X130588000Y-113538000D03*
X130588000Y-115538000D03*
%TD*%
D25*
%TO.C,C12*%
X78311000Y-126384500D03*
X78311000Y-128459500D03*
%TD*%
D19*
%TO.C,R28*%
X142427500Y-107950000D03*
X144427500Y-107950000D03*
%TD*%
D30*
%TO.C,D7*%
X146402500Y-105450000D03*
X148452500Y-105450000D03*
%TD*%
D40*
%TO.C,Q2*%
X100130000Y-101462500D03*
X98230000Y-101462500D03*
X99180000Y-103337500D03*
%TD*%
D16*
%TO.C,C21*%
X118377500Y-94448000D03*
X116302500Y-94448000D03*
%TD*%
D62*
%TO.C,J2*%
X106004000Y-123197000D03*
X108004000Y-123197000D03*
D63*
X103654000Y-128947000D03*
X110354000Y-128947000D03*
%TD*%
D57*
%TO.C,C20*%
X92688500Y-94996000D03*
X94763500Y-94996000D03*
%TD*%
D31*
%TO.C,R9*%
X131604000Y-125472000D03*
X131604000Y-127472000D03*
%TD*%
M02*
