%TF.GenerationSoftware,KiCad,Pcbnew,9.0.6*%
%TF.CreationDate,2025-11-03T22:24:35+01:00*%
%TF.ProjectId,capSensor,63617053-656e-4736-9f72-2e6b69636164,rev?*%
%TF.SameCoordinates,Original*%
%TF.FileFunction,Legend,Top*%
%TF.FilePolarity,Positive*%
%FSLAX46Y46*%
G04 Gerber Fmt 4.6, Leading zero omitted, Abs format (unit mm)*
G04 Created by KiCad (PCBNEW 9.0.6) date 2025-11-03 22:24:35*
%MOMM*%
%LPD*%
G01*
G04 APERTURE LIST*
%ADD10C,0.100000*%
%ADD11C,0.150000*%
%ADD12C,0.200000*%
%ADD13C,0.120000*%
%ADD14C,0.127000*%
%ADD15C,0.250000*%
%ADD16C,0.152400*%
G04 APERTURE END LIST*
D10*
X134116000Y-112130000D02*
X134116000Y-114430000D01*
X134366000Y-114430000D02*
X134366000Y-112130000D01*
X119416000Y-93080000D02*
X119416000Y-90780000D01*
X119166000Y-93080000D02*
X119166000Y-90780000D01*
X110166000Y-117780000D02*
X112466000Y-117780000D01*
X110166000Y-117530000D02*
X112466000Y-117530000D01*
X65391000Y-96480000D02*
X67641000Y-96480000D01*
X95066000Y-107880000D02*
X97366000Y-107880000D01*
X95066000Y-108130000D02*
X97366000Y-108130000D01*
X65366000Y-96230000D02*
X67616000Y-96230000D01*
D11*
X98880819Y-98940857D02*
X98404628Y-99274190D01*
X98880819Y-99512285D02*
X97880819Y-99512285D01*
X97880819Y-99512285D02*
X97880819Y-99131333D01*
X97880819Y-99131333D02*
X97928438Y-99036095D01*
X97928438Y-99036095D02*
X97976057Y-98988476D01*
X97976057Y-98988476D02*
X98071295Y-98940857D01*
X98071295Y-98940857D02*
X98214152Y-98940857D01*
X98214152Y-98940857D02*
X98309390Y-98988476D01*
X98309390Y-98988476D02*
X98357009Y-99036095D01*
X98357009Y-99036095D02*
X98404628Y-99131333D01*
X98404628Y-99131333D02*
X98404628Y-99512285D01*
X97976057Y-98559904D02*
X97928438Y-98512285D01*
X97928438Y-98512285D02*
X97880819Y-98417047D01*
X97880819Y-98417047D02*
X97880819Y-98178952D01*
X97880819Y-98178952D02*
X97928438Y-98083714D01*
X97928438Y-98083714D02*
X97976057Y-98036095D01*
X97976057Y-98036095D02*
X98071295Y-97988476D01*
X98071295Y-97988476D02*
X98166533Y-97988476D01*
X98166533Y-97988476D02*
X98309390Y-98036095D01*
X98309390Y-98036095D02*
X98880819Y-98607523D01*
X98880819Y-98607523D02*
X98880819Y-97988476D01*
X97880819Y-97655142D02*
X97880819Y-97036095D01*
X97880819Y-97036095D02*
X98261771Y-97369428D01*
X98261771Y-97369428D02*
X98261771Y-97226571D01*
X98261771Y-97226571D02*
X98309390Y-97131333D01*
X98309390Y-97131333D02*
X98357009Y-97083714D01*
X98357009Y-97083714D02*
X98452247Y-97036095D01*
X98452247Y-97036095D02*
X98690342Y-97036095D01*
X98690342Y-97036095D02*
X98785580Y-97083714D01*
X98785580Y-97083714D02*
X98833200Y-97131333D01*
X98833200Y-97131333D02*
X98880819Y-97226571D01*
X98880819Y-97226571D02*
X98880819Y-97512285D01*
X98880819Y-97512285D02*
X98833200Y-97607523D01*
X98833200Y-97607523D02*
X98785580Y-97655142D01*
X120650095Y-115278819D02*
X120650095Y-116088342D01*
X120650095Y-116088342D02*
X120697714Y-116183580D01*
X120697714Y-116183580D02*
X120745333Y-116231200D01*
X120745333Y-116231200D02*
X120840571Y-116278819D01*
X120840571Y-116278819D02*
X121031047Y-116278819D01*
X121031047Y-116278819D02*
X121126285Y-116231200D01*
X121126285Y-116231200D02*
X121173904Y-116183580D01*
X121173904Y-116183580D02*
X121221523Y-116088342D01*
X121221523Y-116088342D02*
X121221523Y-115278819D01*
X122126285Y-115278819D02*
X121935809Y-115278819D01*
X121935809Y-115278819D02*
X121840571Y-115326438D01*
X121840571Y-115326438D02*
X121792952Y-115374057D01*
X121792952Y-115374057D02*
X121697714Y-115516914D01*
X121697714Y-115516914D02*
X121650095Y-115707390D01*
X121650095Y-115707390D02*
X121650095Y-116088342D01*
X121650095Y-116088342D02*
X121697714Y-116183580D01*
X121697714Y-116183580D02*
X121745333Y-116231200D01*
X121745333Y-116231200D02*
X121840571Y-116278819D01*
X121840571Y-116278819D02*
X122031047Y-116278819D01*
X122031047Y-116278819D02*
X122126285Y-116231200D01*
X122126285Y-116231200D02*
X122173904Y-116183580D01*
X122173904Y-116183580D02*
X122221523Y-116088342D01*
X122221523Y-116088342D02*
X122221523Y-115850247D01*
X122221523Y-115850247D02*
X122173904Y-115755009D01*
X122173904Y-115755009D02*
X122126285Y-115707390D01*
X122126285Y-115707390D02*
X122031047Y-115659771D01*
X122031047Y-115659771D02*
X121840571Y-115659771D01*
X121840571Y-115659771D02*
X121745333Y-115707390D01*
X121745333Y-115707390D02*
X121697714Y-115755009D01*
X121697714Y-115755009D02*
X121650095Y-115850247D01*
X129740819Y-111672666D02*
X129264628Y-112005999D01*
X129740819Y-112244094D02*
X128740819Y-112244094D01*
X128740819Y-112244094D02*
X128740819Y-111863142D01*
X128740819Y-111863142D02*
X128788438Y-111767904D01*
X128788438Y-111767904D02*
X128836057Y-111720285D01*
X128836057Y-111720285D02*
X128931295Y-111672666D01*
X128931295Y-111672666D02*
X129074152Y-111672666D01*
X129074152Y-111672666D02*
X129169390Y-111720285D01*
X129169390Y-111720285D02*
X129217009Y-111767904D01*
X129217009Y-111767904D02*
X129264628Y-111863142D01*
X129264628Y-111863142D02*
X129264628Y-112244094D01*
X128740819Y-110815523D02*
X128740819Y-111005999D01*
X128740819Y-111005999D02*
X128788438Y-111101237D01*
X128788438Y-111101237D02*
X128836057Y-111148856D01*
X128836057Y-111148856D02*
X128978914Y-111244094D01*
X128978914Y-111244094D02*
X129169390Y-111291713D01*
X129169390Y-111291713D02*
X129550342Y-111291713D01*
X129550342Y-111291713D02*
X129645580Y-111244094D01*
X129645580Y-111244094D02*
X129693200Y-111196475D01*
X129693200Y-111196475D02*
X129740819Y-111101237D01*
X129740819Y-111101237D02*
X129740819Y-110910761D01*
X129740819Y-110910761D02*
X129693200Y-110815523D01*
X129693200Y-110815523D02*
X129645580Y-110767904D01*
X129645580Y-110767904D02*
X129550342Y-110720285D01*
X129550342Y-110720285D02*
X129312247Y-110720285D01*
X129312247Y-110720285D02*
X129217009Y-110767904D01*
X129217009Y-110767904D02*
X129169390Y-110815523D01*
X129169390Y-110815523D02*
X129121771Y-110910761D01*
X129121771Y-110910761D02*
X129121771Y-111101237D01*
X129121771Y-111101237D02*
X129169390Y-111196475D01*
X129169390Y-111196475D02*
X129217009Y-111244094D01*
X129217009Y-111244094D02*
X129312247Y-111291713D01*
X134453333Y-109960580D02*
X134405714Y-110008200D01*
X134405714Y-110008200D02*
X134262857Y-110055819D01*
X134262857Y-110055819D02*
X134167619Y-110055819D01*
X134167619Y-110055819D02*
X134024762Y-110008200D01*
X134024762Y-110008200D02*
X133929524Y-109912961D01*
X133929524Y-109912961D02*
X133881905Y-109817723D01*
X133881905Y-109817723D02*
X133834286Y-109627247D01*
X133834286Y-109627247D02*
X133834286Y-109484390D01*
X133834286Y-109484390D02*
X133881905Y-109293914D01*
X133881905Y-109293914D02*
X133929524Y-109198676D01*
X133929524Y-109198676D02*
X134024762Y-109103438D01*
X134024762Y-109103438D02*
X134167619Y-109055819D01*
X134167619Y-109055819D02*
X134262857Y-109055819D01*
X134262857Y-109055819D02*
X134405714Y-109103438D01*
X134405714Y-109103438D02*
X134453333Y-109151057D01*
X134786667Y-109055819D02*
X135453333Y-109055819D01*
X135453333Y-109055819D02*
X135024762Y-110055819D01*
X69447580Y-98432857D02*
X69495200Y-98480476D01*
X69495200Y-98480476D02*
X69542819Y-98623333D01*
X69542819Y-98623333D02*
X69542819Y-98718571D01*
X69542819Y-98718571D02*
X69495200Y-98861428D01*
X69495200Y-98861428D02*
X69399961Y-98956666D01*
X69399961Y-98956666D02*
X69304723Y-99004285D01*
X69304723Y-99004285D02*
X69114247Y-99051904D01*
X69114247Y-99051904D02*
X68971390Y-99051904D01*
X68971390Y-99051904D02*
X68780914Y-99004285D01*
X68780914Y-99004285D02*
X68685676Y-98956666D01*
X68685676Y-98956666D02*
X68590438Y-98861428D01*
X68590438Y-98861428D02*
X68542819Y-98718571D01*
X68542819Y-98718571D02*
X68542819Y-98623333D01*
X68542819Y-98623333D02*
X68590438Y-98480476D01*
X68590438Y-98480476D02*
X68638057Y-98432857D01*
X69542819Y-97480476D02*
X69542819Y-98051904D01*
X69542819Y-97766190D02*
X68542819Y-97766190D01*
X68542819Y-97766190D02*
X68685676Y-97861428D01*
X68685676Y-97861428D02*
X68780914Y-97956666D01*
X68780914Y-97956666D02*
X68828533Y-98051904D01*
X68542819Y-97147142D02*
X68542819Y-96480476D01*
X68542819Y-96480476D02*
X69542819Y-96909047D01*
X89386580Y-128658857D02*
X89434200Y-128706476D01*
X89434200Y-128706476D02*
X89481819Y-128849333D01*
X89481819Y-128849333D02*
X89481819Y-128944571D01*
X89481819Y-128944571D02*
X89434200Y-129087428D01*
X89434200Y-129087428D02*
X89338961Y-129182666D01*
X89338961Y-129182666D02*
X89243723Y-129230285D01*
X89243723Y-129230285D02*
X89053247Y-129277904D01*
X89053247Y-129277904D02*
X88910390Y-129277904D01*
X88910390Y-129277904D02*
X88719914Y-129230285D01*
X88719914Y-129230285D02*
X88624676Y-129182666D01*
X88624676Y-129182666D02*
X88529438Y-129087428D01*
X88529438Y-129087428D02*
X88481819Y-128944571D01*
X88481819Y-128944571D02*
X88481819Y-128849333D01*
X88481819Y-128849333D02*
X88529438Y-128706476D01*
X88529438Y-128706476D02*
X88577057Y-128658857D01*
X89481819Y-127706476D02*
X89481819Y-128277904D01*
X89481819Y-127992190D02*
X88481819Y-127992190D01*
X88481819Y-127992190D02*
X88624676Y-128087428D01*
X88624676Y-128087428D02*
X88719914Y-128182666D01*
X88719914Y-128182666D02*
X88767533Y-128277904D01*
X88481819Y-126849333D02*
X88481819Y-127039809D01*
X88481819Y-127039809D02*
X88529438Y-127135047D01*
X88529438Y-127135047D02*
X88577057Y-127182666D01*
X88577057Y-127182666D02*
X88719914Y-127277904D01*
X88719914Y-127277904D02*
X88910390Y-127325523D01*
X88910390Y-127325523D02*
X89291342Y-127325523D01*
X89291342Y-127325523D02*
X89386580Y-127277904D01*
X89386580Y-127277904D02*
X89434200Y-127230285D01*
X89434200Y-127230285D02*
X89481819Y-127135047D01*
X89481819Y-127135047D02*
X89481819Y-126944571D01*
X89481819Y-126944571D02*
X89434200Y-126849333D01*
X89434200Y-126849333D02*
X89386580Y-126801714D01*
X89386580Y-126801714D02*
X89291342Y-126754095D01*
X89291342Y-126754095D02*
X89053247Y-126754095D01*
X89053247Y-126754095D02*
X88958009Y-126801714D01*
X88958009Y-126801714D02*
X88910390Y-126849333D01*
X88910390Y-126849333D02*
X88862771Y-126944571D01*
X88862771Y-126944571D02*
X88862771Y-127135047D01*
X88862771Y-127135047D02*
X88910390Y-127230285D01*
X88910390Y-127230285D02*
X88958009Y-127277904D01*
X88958009Y-127277904D02*
X89053247Y-127325523D01*
X113403142Y-106880819D02*
X113069809Y-106404628D01*
X112831714Y-106880819D02*
X112831714Y-105880819D01*
X112831714Y-105880819D02*
X113212666Y-105880819D01*
X113212666Y-105880819D02*
X113307904Y-105928438D01*
X113307904Y-105928438D02*
X113355523Y-105976057D01*
X113355523Y-105976057D02*
X113403142Y-106071295D01*
X113403142Y-106071295D02*
X113403142Y-106214152D01*
X113403142Y-106214152D02*
X113355523Y-106309390D01*
X113355523Y-106309390D02*
X113307904Y-106357009D01*
X113307904Y-106357009D02*
X113212666Y-106404628D01*
X113212666Y-106404628D02*
X112831714Y-106404628D01*
X113784095Y-105976057D02*
X113831714Y-105928438D01*
X113831714Y-105928438D02*
X113926952Y-105880819D01*
X113926952Y-105880819D02*
X114165047Y-105880819D01*
X114165047Y-105880819D02*
X114260285Y-105928438D01*
X114260285Y-105928438D02*
X114307904Y-105976057D01*
X114307904Y-105976057D02*
X114355523Y-106071295D01*
X114355523Y-106071295D02*
X114355523Y-106166533D01*
X114355523Y-106166533D02*
X114307904Y-106309390D01*
X114307904Y-106309390D02*
X113736476Y-106880819D01*
X113736476Y-106880819D02*
X114355523Y-106880819D01*
X114974571Y-105880819D02*
X115069809Y-105880819D01*
X115069809Y-105880819D02*
X115165047Y-105928438D01*
X115165047Y-105928438D02*
X115212666Y-105976057D01*
X115212666Y-105976057D02*
X115260285Y-106071295D01*
X115260285Y-106071295D02*
X115307904Y-106261771D01*
X115307904Y-106261771D02*
X115307904Y-106499866D01*
X115307904Y-106499866D02*
X115260285Y-106690342D01*
X115260285Y-106690342D02*
X115212666Y-106785580D01*
X115212666Y-106785580D02*
X115165047Y-106833200D01*
X115165047Y-106833200D02*
X115069809Y-106880819D01*
X115069809Y-106880819D02*
X114974571Y-106880819D01*
X114974571Y-106880819D02*
X114879333Y-106833200D01*
X114879333Y-106833200D02*
X114831714Y-106785580D01*
X114831714Y-106785580D02*
X114784095Y-106690342D01*
X114784095Y-106690342D02*
X114736476Y-106499866D01*
X114736476Y-106499866D02*
X114736476Y-106261771D01*
X114736476Y-106261771D02*
X114784095Y-106071295D01*
X114784095Y-106071295D02*
X114831714Y-105976057D01*
X114831714Y-105976057D02*
X114879333Y-105928438D01*
X114879333Y-105928438D02*
X114974571Y-105880819D01*
X116959142Y-101038819D02*
X116625809Y-100562628D01*
X116387714Y-101038819D02*
X116387714Y-100038819D01*
X116387714Y-100038819D02*
X116768666Y-100038819D01*
X116768666Y-100038819D02*
X116863904Y-100086438D01*
X116863904Y-100086438D02*
X116911523Y-100134057D01*
X116911523Y-100134057D02*
X116959142Y-100229295D01*
X116959142Y-100229295D02*
X116959142Y-100372152D01*
X116959142Y-100372152D02*
X116911523Y-100467390D01*
X116911523Y-100467390D02*
X116863904Y-100515009D01*
X116863904Y-100515009D02*
X116768666Y-100562628D01*
X116768666Y-100562628D02*
X116387714Y-100562628D01*
X117340095Y-100134057D02*
X117387714Y-100086438D01*
X117387714Y-100086438D02*
X117482952Y-100038819D01*
X117482952Y-100038819D02*
X117721047Y-100038819D01*
X117721047Y-100038819D02*
X117816285Y-100086438D01*
X117816285Y-100086438D02*
X117863904Y-100134057D01*
X117863904Y-100134057D02*
X117911523Y-100229295D01*
X117911523Y-100229295D02*
X117911523Y-100324533D01*
X117911523Y-100324533D02*
X117863904Y-100467390D01*
X117863904Y-100467390D02*
X117292476Y-101038819D01*
X117292476Y-101038819D02*
X117911523Y-101038819D01*
X118768666Y-100372152D02*
X118768666Y-101038819D01*
X118530571Y-99991200D02*
X118292476Y-100705485D01*
X118292476Y-100705485D02*
X118911523Y-100705485D01*
X123898819Y-130278094D02*
X122898819Y-130278094D01*
X122898819Y-130278094D02*
X122898819Y-130039999D01*
X122898819Y-130039999D02*
X122946438Y-129897142D01*
X122946438Y-129897142D02*
X123041676Y-129801904D01*
X123041676Y-129801904D02*
X123136914Y-129754285D01*
X123136914Y-129754285D02*
X123327390Y-129706666D01*
X123327390Y-129706666D02*
X123470247Y-129706666D01*
X123470247Y-129706666D02*
X123660723Y-129754285D01*
X123660723Y-129754285D02*
X123755961Y-129801904D01*
X123755961Y-129801904D02*
X123851200Y-129897142D01*
X123851200Y-129897142D02*
X123898819Y-130039999D01*
X123898819Y-130039999D02*
X123898819Y-130278094D01*
X122898819Y-128849523D02*
X122898819Y-129039999D01*
X122898819Y-129039999D02*
X122946438Y-129135237D01*
X122946438Y-129135237D02*
X122994057Y-129182856D01*
X122994057Y-129182856D02*
X123136914Y-129278094D01*
X123136914Y-129278094D02*
X123327390Y-129325713D01*
X123327390Y-129325713D02*
X123708342Y-129325713D01*
X123708342Y-129325713D02*
X123803580Y-129278094D01*
X123803580Y-129278094D02*
X123851200Y-129230475D01*
X123851200Y-129230475D02*
X123898819Y-129135237D01*
X123898819Y-129135237D02*
X123898819Y-128944761D01*
X123898819Y-128944761D02*
X123851200Y-128849523D01*
X123851200Y-128849523D02*
X123803580Y-128801904D01*
X123803580Y-128801904D02*
X123708342Y-128754285D01*
X123708342Y-128754285D02*
X123470247Y-128754285D01*
X123470247Y-128754285D02*
X123375009Y-128801904D01*
X123375009Y-128801904D02*
X123327390Y-128849523D01*
X123327390Y-128849523D02*
X123279771Y-128944761D01*
X123279771Y-128944761D02*
X123279771Y-129135237D01*
X123279771Y-129135237D02*
X123327390Y-129230475D01*
X123327390Y-129230475D02*
X123375009Y-129278094D01*
X123375009Y-129278094D02*
X123470247Y-129325713D01*
X100775580Y-110170665D02*
X100823200Y-110218284D01*
X100823200Y-110218284D02*
X100870819Y-110361141D01*
X100870819Y-110361141D02*
X100870819Y-110456379D01*
X100870819Y-110456379D02*
X100823200Y-110599236D01*
X100823200Y-110599236D02*
X100727961Y-110694474D01*
X100727961Y-110694474D02*
X100632723Y-110742093D01*
X100632723Y-110742093D02*
X100442247Y-110789712D01*
X100442247Y-110789712D02*
X100299390Y-110789712D01*
X100299390Y-110789712D02*
X100108914Y-110742093D01*
X100108914Y-110742093D02*
X100013676Y-110694474D01*
X100013676Y-110694474D02*
X99918438Y-110599236D01*
X99918438Y-110599236D02*
X99870819Y-110456379D01*
X99870819Y-110456379D02*
X99870819Y-110361141D01*
X99870819Y-110361141D02*
X99918438Y-110218284D01*
X99918438Y-110218284D02*
X99966057Y-110170665D01*
X99870819Y-109265903D02*
X99870819Y-109742093D01*
X99870819Y-109742093D02*
X100347009Y-109789712D01*
X100347009Y-109789712D02*
X100299390Y-109742093D01*
X100299390Y-109742093D02*
X100251771Y-109646855D01*
X100251771Y-109646855D02*
X100251771Y-109408760D01*
X100251771Y-109408760D02*
X100299390Y-109313522D01*
X100299390Y-109313522D02*
X100347009Y-109265903D01*
X100347009Y-109265903D02*
X100442247Y-109218284D01*
X100442247Y-109218284D02*
X100680342Y-109218284D01*
X100680342Y-109218284D02*
X100775580Y-109265903D01*
X100775580Y-109265903D02*
X100823200Y-109313522D01*
X100823200Y-109313522D02*
X100870819Y-109408760D01*
X100870819Y-109408760D02*
X100870819Y-109646855D01*
X100870819Y-109646855D02*
X100823200Y-109742093D01*
X100823200Y-109742093D02*
X100775580Y-109789712D01*
X80766580Y-119495357D02*
X80814200Y-119542976D01*
X80814200Y-119542976D02*
X80861819Y-119685833D01*
X80861819Y-119685833D02*
X80861819Y-119781071D01*
X80861819Y-119781071D02*
X80814200Y-119923928D01*
X80814200Y-119923928D02*
X80718961Y-120019166D01*
X80718961Y-120019166D02*
X80623723Y-120066785D01*
X80623723Y-120066785D02*
X80433247Y-120114404D01*
X80433247Y-120114404D02*
X80290390Y-120114404D01*
X80290390Y-120114404D02*
X80099914Y-120066785D01*
X80099914Y-120066785D02*
X80004676Y-120019166D01*
X80004676Y-120019166D02*
X79909438Y-119923928D01*
X79909438Y-119923928D02*
X79861819Y-119781071D01*
X79861819Y-119781071D02*
X79861819Y-119685833D01*
X79861819Y-119685833D02*
X79909438Y-119542976D01*
X79909438Y-119542976D02*
X79957057Y-119495357D01*
X80861819Y-118542976D02*
X80861819Y-119114404D01*
X80861819Y-118828690D02*
X79861819Y-118828690D01*
X79861819Y-118828690D02*
X80004676Y-118923928D01*
X80004676Y-118923928D02*
X80099914Y-119019166D01*
X80099914Y-119019166D02*
X80147533Y-119114404D01*
X79861819Y-118209642D02*
X79861819Y-117590595D01*
X79861819Y-117590595D02*
X80242771Y-117923928D01*
X80242771Y-117923928D02*
X80242771Y-117781071D01*
X80242771Y-117781071D02*
X80290390Y-117685833D01*
X80290390Y-117685833D02*
X80338009Y-117638214D01*
X80338009Y-117638214D02*
X80433247Y-117590595D01*
X80433247Y-117590595D02*
X80671342Y-117590595D01*
X80671342Y-117590595D02*
X80766580Y-117638214D01*
X80766580Y-117638214D02*
X80814200Y-117685833D01*
X80814200Y-117685833D02*
X80861819Y-117781071D01*
X80861819Y-117781071D02*
X80861819Y-118066785D01*
X80861819Y-118066785D02*
X80814200Y-118162023D01*
X80814200Y-118162023D02*
X80766580Y-118209642D01*
X73368819Y-114633333D02*
X74083104Y-114633333D01*
X74083104Y-114633333D02*
X74225961Y-114680952D01*
X74225961Y-114680952D02*
X74321200Y-114776190D01*
X74321200Y-114776190D02*
X74368819Y-114919047D01*
X74368819Y-114919047D02*
X74368819Y-115014285D01*
X73368819Y-113680952D02*
X73368819Y-114157142D01*
X73368819Y-114157142D02*
X73845009Y-114204761D01*
X73845009Y-114204761D02*
X73797390Y-114157142D01*
X73797390Y-114157142D02*
X73749771Y-114061904D01*
X73749771Y-114061904D02*
X73749771Y-113823809D01*
X73749771Y-113823809D02*
X73797390Y-113728571D01*
X73797390Y-113728571D02*
X73845009Y-113680952D01*
X73845009Y-113680952D02*
X73940247Y-113633333D01*
X73940247Y-113633333D02*
X74178342Y-113633333D01*
X74178342Y-113633333D02*
X74273580Y-113680952D01*
X74273580Y-113680952D02*
X74321200Y-113728571D01*
X74321200Y-113728571D02*
X74368819Y-113823809D01*
X74368819Y-113823809D02*
X74368819Y-114061904D01*
X74368819Y-114061904D02*
X74321200Y-114157142D01*
X74321200Y-114157142D02*
X74273580Y-114204761D01*
X92540819Y-110712093D02*
X91540819Y-110712093D01*
X91540819Y-110712093D02*
X91540819Y-110473998D01*
X91540819Y-110473998D02*
X91588438Y-110331141D01*
X91588438Y-110331141D02*
X91683676Y-110235903D01*
X91683676Y-110235903D02*
X91778914Y-110188284D01*
X91778914Y-110188284D02*
X91969390Y-110140665D01*
X91969390Y-110140665D02*
X92112247Y-110140665D01*
X92112247Y-110140665D02*
X92302723Y-110188284D01*
X92302723Y-110188284D02*
X92397961Y-110235903D01*
X92397961Y-110235903D02*
X92493200Y-110331141D01*
X92493200Y-110331141D02*
X92540819Y-110473998D01*
X92540819Y-110473998D02*
X92540819Y-110712093D01*
X92540819Y-109188284D02*
X92540819Y-109759712D01*
X92540819Y-109473998D02*
X91540819Y-109473998D01*
X91540819Y-109473998D02*
X91683676Y-109569236D01*
X91683676Y-109569236D02*
X91778914Y-109664474D01*
X91778914Y-109664474D02*
X91826533Y-109759712D01*
X73414095Y-104610819D02*
X73985523Y-104610819D01*
X73699809Y-105610819D02*
X73699809Y-104610819D01*
X74318857Y-105610819D02*
X74318857Y-104610819D01*
X74318857Y-104610819D02*
X74699809Y-104610819D01*
X74699809Y-104610819D02*
X74795047Y-104658438D01*
X74795047Y-104658438D02*
X74842666Y-104706057D01*
X74842666Y-104706057D02*
X74890285Y-104801295D01*
X74890285Y-104801295D02*
X74890285Y-104944152D01*
X74890285Y-104944152D02*
X74842666Y-105039390D01*
X74842666Y-105039390D02*
X74795047Y-105087009D01*
X74795047Y-105087009D02*
X74699809Y-105134628D01*
X74699809Y-105134628D02*
X74318857Y-105134628D01*
X75842666Y-105610819D02*
X75271238Y-105610819D01*
X75556952Y-105610819D02*
X75556952Y-104610819D01*
X75556952Y-104610819D02*
X75461714Y-104753676D01*
X75461714Y-104753676D02*
X75366476Y-104848914D01*
X75366476Y-104848914D02*
X75271238Y-104896533D01*
X146680405Y-110182819D02*
X146680405Y-109182819D01*
X146680405Y-109182819D02*
X146918500Y-109182819D01*
X146918500Y-109182819D02*
X147061357Y-109230438D01*
X147061357Y-109230438D02*
X147156595Y-109325676D01*
X147156595Y-109325676D02*
X147204214Y-109420914D01*
X147204214Y-109420914D02*
X147251833Y-109611390D01*
X147251833Y-109611390D02*
X147251833Y-109754247D01*
X147251833Y-109754247D02*
X147204214Y-109944723D01*
X147204214Y-109944723D02*
X147156595Y-110039961D01*
X147156595Y-110039961D02*
X147061357Y-110135200D01*
X147061357Y-110135200D02*
X146918500Y-110182819D01*
X146918500Y-110182819D02*
X146680405Y-110182819D01*
X147823262Y-109611390D02*
X147728024Y-109563771D01*
X147728024Y-109563771D02*
X147680405Y-109516152D01*
X147680405Y-109516152D02*
X147632786Y-109420914D01*
X147632786Y-109420914D02*
X147632786Y-109373295D01*
X147632786Y-109373295D02*
X147680405Y-109278057D01*
X147680405Y-109278057D02*
X147728024Y-109230438D01*
X147728024Y-109230438D02*
X147823262Y-109182819D01*
X147823262Y-109182819D02*
X148013738Y-109182819D01*
X148013738Y-109182819D02*
X148108976Y-109230438D01*
X148108976Y-109230438D02*
X148156595Y-109278057D01*
X148156595Y-109278057D02*
X148204214Y-109373295D01*
X148204214Y-109373295D02*
X148204214Y-109420914D01*
X148204214Y-109420914D02*
X148156595Y-109516152D01*
X148156595Y-109516152D02*
X148108976Y-109563771D01*
X148108976Y-109563771D02*
X148013738Y-109611390D01*
X148013738Y-109611390D02*
X147823262Y-109611390D01*
X147823262Y-109611390D02*
X147728024Y-109659009D01*
X147728024Y-109659009D02*
X147680405Y-109706628D01*
X147680405Y-109706628D02*
X147632786Y-109801866D01*
X147632786Y-109801866D02*
X147632786Y-109992342D01*
X147632786Y-109992342D02*
X147680405Y-110087580D01*
X147680405Y-110087580D02*
X147728024Y-110135200D01*
X147728024Y-110135200D02*
X147823262Y-110182819D01*
X147823262Y-110182819D02*
X148013738Y-110182819D01*
X148013738Y-110182819D02*
X148108976Y-110135200D01*
X148108976Y-110135200D02*
X148156595Y-110087580D01*
X148156595Y-110087580D02*
X148204214Y-109992342D01*
X148204214Y-109992342D02*
X148204214Y-109801866D01*
X148204214Y-109801866D02*
X148156595Y-109706628D01*
X148156595Y-109706628D02*
X148108976Y-109659009D01*
X148108976Y-109659009D02*
X148013738Y-109611390D01*
X125422819Y-126118857D02*
X124946628Y-126452190D01*
X125422819Y-126690285D02*
X124422819Y-126690285D01*
X124422819Y-126690285D02*
X124422819Y-126309333D01*
X124422819Y-126309333D02*
X124470438Y-126214095D01*
X124470438Y-126214095D02*
X124518057Y-126166476D01*
X124518057Y-126166476D02*
X124613295Y-126118857D01*
X124613295Y-126118857D02*
X124756152Y-126118857D01*
X124756152Y-126118857D02*
X124851390Y-126166476D01*
X124851390Y-126166476D02*
X124899009Y-126214095D01*
X124899009Y-126214095D02*
X124946628Y-126309333D01*
X124946628Y-126309333D02*
X124946628Y-126690285D01*
X125422819Y-125166476D02*
X125422819Y-125737904D01*
X125422819Y-125452190D02*
X124422819Y-125452190D01*
X124422819Y-125452190D02*
X124565676Y-125547428D01*
X124565676Y-125547428D02*
X124660914Y-125642666D01*
X124660914Y-125642666D02*
X124708533Y-125737904D01*
X124422819Y-124833142D02*
X124422819Y-124166476D01*
X124422819Y-124166476D02*
X125422819Y-124595047D01*
X130086746Y-130480526D02*
X129086746Y-130480526D01*
X129086746Y-130480526D02*
X129086746Y-130242431D01*
X129086746Y-130242431D02*
X129134365Y-130099574D01*
X129134365Y-130099574D02*
X129229603Y-130004336D01*
X129229603Y-130004336D02*
X129324841Y-129956717D01*
X129324841Y-129956717D02*
X129515317Y-129909098D01*
X129515317Y-129909098D02*
X129658174Y-129909098D01*
X129658174Y-129909098D02*
X129848650Y-129956717D01*
X129848650Y-129956717D02*
X129943888Y-130004336D01*
X129943888Y-130004336D02*
X130039127Y-130099574D01*
X130039127Y-130099574D02*
X130086746Y-130242431D01*
X130086746Y-130242431D02*
X130086746Y-130480526D01*
X129086746Y-129575764D02*
X129086746Y-128956717D01*
X129086746Y-128956717D02*
X129467698Y-129290050D01*
X129467698Y-129290050D02*
X129467698Y-129147193D01*
X129467698Y-129147193D02*
X129515317Y-129051955D01*
X129515317Y-129051955D02*
X129562936Y-129004336D01*
X129562936Y-129004336D02*
X129658174Y-128956717D01*
X129658174Y-128956717D02*
X129896269Y-128956717D01*
X129896269Y-128956717D02*
X129991507Y-129004336D01*
X129991507Y-129004336D02*
X130039127Y-129051955D01*
X130039127Y-129051955D02*
X130086746Y-129147193D01*
X130086746Y-129147193D02*
X130086746Y-129432907D01*
X130086746Y-129432907D02*
X130039127Y-129528145D01*
X130039127Y-129528145D02*
X129991507Y-129575764D01*
X116959142Y-102308819D02*
X116625809Y-101832628D01*
X116387714Y-102308819D02*
X116387714Y-101308819D01*
X116387714Y-101308819D02*
X116768666Y-101308819D01*
X116768666Y-101308819D02*
X116863904Y-101356438D01*
X116863904Y-101356438D02*
X116911523Y-101404057D01*
X116911523Y-101404057D02*
X116959142Y-101499295D01*
X116959142Y-101499295D02*
X116959142Y-101642152D01*
X116959142Y-101642152D02*
X116911523Y-101737390D01*
X116911523Y-101737390D02*
X116863904Y-101785009D01*
X116863904Y-101785009D02*
X116768666Y-101832628D01*
X116768666Y-101832628D02*
X116387714Y-101832628D01*
X117340095Y-101404057D02*
X117387714Y-101356438D01*
X117387714Y-101356438D02*
X117482952Y-101308819D01*
X117482952Y-101308819D02*
X117721047Y-101308819D01*
X117721047Y-101308819D02*
X117816285Y-101356438D01*
X117816285Y-101356438D02*
X117863904Y-101404057D01*
X117863904Y-101404057D02*
X117911523Y-101499295D01*
X117911523Y-101499295D02*
X117911523Y-101594533D01*
X117911523Y-101594533D02*
X117863904Y-101737390D01*
X117863904Y-101737390D02*
X117292476Y-102308819D01*
X117292476Y-102308819D02*
X117911523Y-102308819D01*
X118816285Y-101308819D02*
X118340095Y-101308819D01*
X118340095Y-101308819D02*
X118292476Y-101785009D01*
X118292476Y-101785009D02*
X118340095Y-101737390D01*
X118340095Y-101737390D02*
X118435333Y-101689771D01*
X118435333Y-101689771D02*
X118673428Y-101689771D01*
X118673428Y-101689771D02*
X118768666Y-101737390D01*
X118768666Y-101737390D02*
X118816285Y-101785009D01*
X118816285Y-101785009D02*
X118863904Y-101880247D01*
X118863904Y-101880247D02*
X118863904Y-102118342D01*
X118863904Y-102118342D02*
X118816285Y-102213580D01*
X118816285Y-102213580D02*
X118768666Y-102261200D01*
X118768666Y-102261200D02*
X118673428Y-102308819D01*
X118673428Y-102308819D02*
X118435333Y-102308819D01*
X118435333Y-102308819D02*
X118340095Y-102261200D01*
X118340095Y-102261200D02*
X118292476Y-102213580D01*
X114165142Y-90402580D02*
X114117523Y-90450200D01*
X114117523Y-90450200D02*
X113974666Y-90497819D01*
X113974666Y-90497819D02*
X113879428Y-90497819D01*
X113879428Y-90497819D02*
X113736571Y-90450200D01*
X113736571Y-90450200D02*
X113641333Y-90354961D01*
X113641333Y-90354961D02*
X113593714Y-90259723D01*
X113593714Y-90259723D02*
X113546095Y-90069247D01*
X113546095Y-90069247D02*
X113546095Y-89926390D01*
X113546095Y-89926390D02*
X113593714Y-89735914D01*
X113593714Y-89735914D02*
X113641333Y-89640676D01*
X113641333Y-89640676D02*
X113736571Y-89545438D01*
X113736571Y-89545438D02*
X113879428Y-89497819D01*
X113879428Y-89497819D02*
X113974666Y-89497819D01*
X113974666Y-89497819D02*
X114117523Y-89545438D01*
X114117523Y-89545438D02*
X114165142Y-89593057D01*
X114546095Y-89593057D02*
X114593714Y-89545438D01*
X114593714Y-89545438D02*
X114688952Y-89497819D01*
X114688952Y-89497819D02*
X114927047Y-89497819D01*
X114927047Y-89497819D02*
X115022285Y-89545438D01*
X115022285Y-89545438D02*
X115069904Y-89593057D01*
X115069904Y-89593057D02*
X115117523Y-89688295D01*
X115117523Y-89688295D02*
X115117523Y-89783533D01*
X115117523Y-89783533D02*
X115069904Y-89926390D01*
X115069904Y-89926390D02*
X114498476Y-90497819D01*
X114498476Y-90497819D02*
X115117523Y-90497819D01*
X115498476Y-89593057D02*
X115546095Y-89545438D01*
X115546095Y-89545438D02*
X115641333Y-89497819D01*
X115641333Y-89497819D02*
X115879428Y-89497819D01*
X115879428Y-89497819D02*
X115974666Y-89545438D01*
X115974666Y-89545438D02*
X116022285Y-89593057D01*
X116022285Y-89593057D02*
X116069904Y-89688295D01*
X116069904Y-89688295D02*
X116069904Y-89783533D01*
X116069904Y-89783533D02*
X116022285Y-89926390D01*
X116022285Y-89926390D02*
X115450857Y-90497819D01*
X115450857Y-90497819D02*
X116069904Y-90497819D01*
X96625580Y-114212666D02*
X96673200Y-114260285D01*
X96673200Y-114260285D02*
X96720819Y-114403142D01*
X96720819Y-114403142D02*
X96720819Y-114498380D01*
X96720819Y-114498380D02*
X96673200Y-114641237D01*
X96673200Y-114641237D02*
X96577961Y-114736475D01*
X96577961Y-114736475D02*
X96482723Y-114784094D01*
X96482723Y-114784094D02*
X96292247Y-114831713D01*
X96292247Y-114831713D02*
X96149390Y-114831713D01*
X96149390Y-114831713D02*
X95958914Y-114784094D01*
X95958914Y-114784094D02*
X95863676Y-114736475D01*
X95863676Y-114736475D02*
X95768438Y-114641237D01*
X95768438Y-114641237D02*
X95720819Y-114498380D01*
X95720819Y-114498380D02*
X95720819Y-114403142D01*
X95720819Y-114403142D02*
X95768438Y-114260285D01*
X95768438Y-114260285D02*
X95816057Y-114212666D01*
X96054152Y-113355523D02*
X96720819Y-113355523D01*
X95673200Y-113593618D02*
X96387485Y-113831713D01*
X96387485Y-113831713D02*
X96387485Y-113212666D01*
X112773142Y-122384819D02*
X112439809Y-121908628D01*
X112201714Y-122384819D02*
X112201714Y-121384819D01*
X112201714Y-121384819D02*
X112582666Y-121384819D01*
X112582666Y-121384819D02*
X112677904Y-121432438D01*
X112677904Y-121432438D02*
X112725523Y-121480057D01*
X112725523Y-121480057D02*
X112773142Y-121575295D01*
X112773142Y-121575295D02*
X112773142Y-121718152D01*
X112773142Y-121718152D02*
X112725523Y-121813390D01*
X112725523Y-121813390D02*
X112677904Y-121861009D01*
X112677904Y-121861009D02*
X112582666Y-121908628D01*
X112582666Y-121908628D02*
X112201714Y-121908628D01*
X113725523Y-122384819D02*
X113154095Y-122384819D01*
X113439809Y-122384819D02*
X113439809Y-121384819D01*
X113439809Y-121384819D02*
X113344571Y-121527676D01*
X113344571Y-121527676D02*
X113249333Y-121622914D01*
X113249333Y-121622914D02*
X113154095Y-121670533D01*
X114582666Y-121718152D02*
X114582666Y-122384819D01*
X114344571Y-121337200D02*
X114106476Y-122051485D01*
X114106476Y-122051485D02*
X114725523Y-122051485D01*
D12*
G36*
X91237695Y-89436475D02*
G01*
X90037695Y-89436475D01*
X90037695Y-88855523D01*
X90137695Y-88855523D01*
X90137695Y-89236475D01*
X90139616Y-89255984D01*
X90154548Y-89292032D01*
X90182138Y-89319622D01*
X90218186Y-89334554D01*
X90237695Y-89336475D01*
X91037695Y-89336475D01*
X91057204Y-89334554D01*
X91093252Y-89319622D01*
X91120842Y-89292032D01*
X91135774Y-89255984D01*
X91137695Y-89236475D01*
X91137695Y-88855523D01*
X91135774Y-88836014D01*
X91120842Y-88799966D01*
X91093252Y-88772376D01*
X91057204Y-88757444D01*
X91018186Y-88757444D01*
X90982138Y-88772376D01*
X90954548Y-88799966D01*
X90939616Y-88836014D01*
X90937695Y-88855523D01*
X90937695Y-89136475D01*
X90718647Y-89136475D01*
X90718647Y-88969809D01*
X90716726Y-88950300D01*
X90701794Y-88914252D01*
X90674204Y-88886662D01*
X90638156Y-88871730D01*
X90599138Y-88871730D01*
X90563090Y-88886662D01*
X90535500Y-88914252D01*
X90520568Y-88950300D01*
X90518647Y-88969809D01*
X90518647Y-89136475D01*
X90337695Y-89136475D01*
X90337695Y-88855523D01*
X90335774Y-88836014D01*
X90320842Y-88799966D01*
X90293252Y-88772376D01*
X90257204Y-88757444D01*
X90218186Y-88757444D01*
X90182138Y-88772376D01*
X90154548Y-88799966D01*
X90139616Y-88836014D01*
X90137695Y-88855523D01*
X90037695Y-88855523D01*
X90037695Y-88505680D01*
X90137939Y-88505680D01*
X90139616Y-88518873D01*
X90139616Y-88532174D01*
X90142055Y-88538062D01*
X90142859Y-88544387D01*
X90149459Y-88555936D01*
X90154548Y-88568222D01*
X90159055Y-88572729D01*
X90162218Y-88578264D01*
X90172732Y-88586406D01*
X90182138Y-88595812D01*
X90188028Y-88598251D01*
X90193067Y-88602154D01*
X90205895Y-88605652D01*
X90218186Y-88610744D01*
X90228163Y-88611726D01*
X90230710Y-88612421D01*
X90232677Y-88612170D01*
X90237695Y-88612665D01*
X91037695Y-88612665D01*
X91057204Y-88610744D01*
X91093252Y-88595812D01*
X91120842Y-88568222D01*
X91135774Y-88532174D01*
X91135774Y-88493156D01*
X91120842Y-88457108D01*
X91093252Y-88429518D01*
X91057204Y-88414586D01*
X91037695Y-88412665D01*
X90614251Y-88412665D01*
X91087309Y-88142346D01*
X91091419Y-88139427D01*
X91093252Y-88138669D01*
X91095118Y-88136802D01*
X91103294Y-88130999D01*
X91111436Y-88120484D01*
X91120842Y-88111079D01*
X91123281Y-88105188D01*
X91127184Y-88100150D01*
X91130682Y-88087322D01*
X91135774Y-88075031D01*
X91135774Y-88068654D01*
X91137451Y-88062506D01*
X91135774Y-88049312D01*
X91135774Y-88036013D01*
X91133334Y-88030124D01*
X91132531Y-88023800D01*
X91125930Y-88012250D01*
X91120842Y-87999965D01*
X91116334Y-87995457D01*
X91113172Y-87989923D01*
X91102657Y-87981780D01*
X91093252Y-87972375D01*
X91087361Y-87969935D01*
X91082323Y-87966033D01*
X91069494Y-87962534D01*
X91057204Y-87957443D01*
X91047226Y-87956460D01*
X91044680Y-87955766D01*
X91042712Y-87956016D01*
X91037695Y-87955522D01*
X90237695Y-87955522D01*
X90218186Y-87957443D01*
X90182138Y-87972375D01*
X90154548Y-87999965D01*
X90139616Y-88036013D01*
X90139616Y-88075031D01*
X90154548Y-88111079D01*
X90182138Y-88138669D01*
X90218186Y-88153601D01*
X90237695Y-88155522D01*
X90661139Y-88155522D01*
X90188081Y-88425841D01*
X90183970Y-88428759D01*
X90182138Y-88429518D01*
X90180271Y-88431384D01*
X90172096Y-88437188D01*
X90163953Y-88447702D01*
X90154548Y-88457108D01*
X90152108Y-88462998D01*
X90148206Y-88468037D01*
X90144707Y-88480865D01*
X90139616Y-88493156D01*
X90139616Y-88499531D01*
X90137939Y-88505680D01*
X90037695Y-88505680D01*
X90037695Y-87855522D01*
X91237695Y-87855522D01*
X91237695Y-89436475D01*
G37*
D11*
X96720819Y-98940857D02*
X96244628Y-99274190D01*
X96720819Y-99512285D02*
X95720819Y-99512285D01*
X95720819Y-99512285D02*
X95720819Y-99131333D01*
X95720819Y-99131333D02*
X95768438Y-99036095D01*
X95768438Y-99036095D02*
X95816057Y-98988476D01*
X95816057Y-98988476D02*
X95911295Y-98940857D01*
X95911295Y-98940857D02*
X96054152Y-98940857D01*
X96054152Y-98940857D02*
X96149390Y-98988476D01*
X96149390Y-98988476D02*
X96197009Y-99036095D01*
X96197009Y-99036095D02*
X96244628Y-99131333D01*
X96244628Y-99131333D02*
X96244628Y-99512285D01*
X95816057Y-98559904D02*
X95768438Y-98512285D01*
X95768438Y-98512285D02*
X95720819Y-98417047D01*
X95720819Y-98417047D02*
X95720819Y-98178952D01*
X95720819Y-98178952D02*
X95768438Y-98083714D01*
X95768438Y-98083714D02*
X95816057Y-98036095D01*
X95816057Y-98036095D02*
X95911295Y-97988476D01*
X95911295Y-97988476D02*
X96006533Y-97988476D01*
X96006533Y-97988476D02*
X96149390Y-98036095D01*
X96149390Y-98036095D02*
X96720819Y-98607523D01*
X96720819Y-98607523D02*
X96720819Y-97988476D01*
X95816057Y-97607523D02*
X95768438Y-97559904D01*
X95768438Y-97559904D02*
X95720819Y-97464666D01*
X95720819Y-97464666D02*
X95720819Y-97226571D01*
X95720819Y-97226571D02*
X95768438Y-97131333D01*
X95768438Y-97131333D02*
X95816057Y-97083714D01*
X95816057Y-97083714D02*
X95911295Y-97036095D01*
X95911295Y-97036095D02*
X96006533Y-97036095D01*
X96006533Y-97036095D02*
X96149390Y-97083714D01*
X96149390Y-97083714D02*
X96720819Y-97655142D01*
X96720819Y-97655142D02*
X96720819Y-97036095D01*
X92460819Y-113752666D02*
X91984628Y-114085999D01*
X92460819Y-114324094D02*
X91460819Y-114324094D01*
X91460819Y-114324094D02*
X91460819Y-113943142D01*
X91460819Y-113943142D02*
X91508438Y-113847904D01*
X91508438Y-113847904D02*
X91556057Y-113800285D01*
X91556057Y-113800285D02*
X91651295Y-113752666D01*
X91651295Y-113752666D02*
X91794152Y-113752666D01*
X91794152Y-113752666D02*
X91889390Y-113800285D01*
X91889390Y-113800285D02*
X91937009Y-113847904D01*
X91937009Y-113847904D02*
X91984628Y-113943142D01*
X91984628Y-113943142D02*
X91984628Y-114324094D01*
X91794152Y-112895523D02*
X92460819Y-112895523D01*
X91413200Y-113133618D02*
X92127485Y-113371713D01*
X92127485Y-113371713D02*
X92127485Y-112752666D01*
X132421333Y-117548819D02*
X132088000Y-117072628D01*
X131849905Y-117548819D02*
X131849905Y-116548819D01*
X131849905Y-116548819D02*
X132230857Y-116548819D01*
X132230857Y-116548819D02*
X132326095Y-116596438D01*
X132326095Y-116596438D02*
X132373714Y-116644057D01*
X132373714Y-116644057D02*
X132421333Y-116739295D01*
X132421333Y-116739295D02*
X132421333Y-116882152D01*
X132421333Y-116882152D02*
X132373714Y-116977390D01*
X132373714Y-116977390D02*
X132326095Y-117025009D01*
X132326095Y-117025009D02*
X132230857Y-117072628D01*
X132230857Y-117072628D02*
X131849905Y-117072628D01*
X133326095Y-116548819D02*
X132849905Y-116548819D01*
X132849905Y-116548819D02*
X132802286Y-117025009D01*
X132802286Y-117025009D02*
X132849905Y-116977390D01*
X132849905Y-116977390D02*
X132945143Y-116929771D01*
X132945143Y-116929771D02*
X133183238Y-116929771D01*
X133183238Y-116929771D02*
X133278476Y-116977390D01*
X133278476Y-116977390D02*
X133326095Y-117025009D01*
X133326095Y-117025009D02*
X133373714Y-117120247D01*
X133373714Y-117120247D02*
X133373714Y-117358342D01*
X133373714Y-117358342D02*
X133326095Y-117453580D01*
X133326095Y-117453580D02*
X133278476Y-117501200D01*
X133278476Y-117501200D02*
X133183238Y-117548819D01*
X133183238Y-117548819D02*
X132945143Y-117548819D01*
X132945143Y-117548819D02*
X132849905Y-117501200D01*
X132849905Y-117501200D02*
X132802286Y-117453580D01*
X136485333Y-123644819D02*
X136152000Y-123168628D01*
X135913905Y-123644819D02*
X135913905Y-122644819D01*
X135913905Y-122644819D02*
X136294857Y-122644819D01*
X136294857Y-122644819D02*
X136390095Y-122692438D01*
X136390095Y-122692438D02*
X136437714Y-122740057D01*
X136437714Y-122740057D02*
X136485333Y-122835295D01*
X136485333Y-122835295D02*
X136485333Y-122978152D01*
X136485333Y-122978152D02*
X136437714Y-123073390D01*
X136437714Y-123073390D02*
X136390095Y-123121009D01*
X136390095Y-123121009D02*
X136294857Y-123168628D01*
X136294857Y-123168628D02*
X135913905Y-123168628D01*
X137437714Y-123644819D02*
X136866286Y-123644819D01*
X137152000Y-123644819D02*
X137152000Y-122644819D01*
X137152000Y-122644819D02*
X137056762Y-122787676D01*
X137056762Y-122787676D02*
X136961524Y-122882914D01*
X136961524Y-122882914D02*
X136866286Y-122930533D01*
X125849142Y-118310819D02*
X125515809Y-117834628D01*
X125277714Y-118310819D02*
X125277714Y-117310819D01*
X125277714Y-117310819D02*
X125658666Y-117310819D01*
X125658666Y-117310819D02*
X125753904Y-117358438D01*
X125753904Y-117358438D02*
X125801523Y-117406057D01*
X125801523Y-117406057D02*
X125849142Y-117501295D01*
X125849142Y-117501295D02*
X125849142Y-117644152D01*
X125849142Y-117644152D02*
X125801523Y-117739390D01*
X125801523Y-117739390D02*
X125753904Y-117787009D01*
X125753904Y-117787009D02*
X125658666Y-117834628D01*
X125658666Y-117834628D02*
X125277714Y-117834628D01*
X126801523Y-118310819D02*
X126230095Y-118310819D01*
X126515809Y-118310819D02*
X126515809Y-117310819D01*
X126515809Y-117310819D02*
X126420571Y-117453676D01*
X126420571Y-117453676D02*
X126325333Y-117548914D01*
X126325333Y-117548914D02*
X126230095Y-117596533D01*
X127182476Y-117406057D02*
X127230095Y-117358438D01*
X127230095Y-117358438D02*
X127325333Y-117310819D01*
X127325333Y-117310819D02*
X127563428Y-117310819D01*
X127563428Y-117310819D02*
X127658666Y-117358438D01*
X127658666Y-117358438D02*
X127706285Y-117406057D01*
X127706285Y-117406057D02*
X127753904Y-117501295D01*
X127753904Y-117501295D02*
X127753904Y-117596533D01*
X127753904Y-117596533D02*
X127706285Y-117739390D01*
X127706285Y-117739390D02*
X127134857Y-118310819D01*
X127134857Y-118310819D02*
X127753904Y-118310819D01*
X73622819Y-128984333D02*
X74337104Y-128984333D01*
X74337104Y-128984333D02*
X74479961Y-129031952D01*
X74479961Y-129031952D02*
X74575200Y-129127190D01*
X74575200Y-129127190D02*
X74622819Y-129270047D01*
X74622819Y-129270047D02*
X74622819Y-129365285D01*
X73622819Y-128079571D02*
X73622819Y-128270047D01*
X73622819Y-128270047D02*
X73670438Y-128365285D01*
X73670438Y-128365285D02*
X73718057Y-128412904D01*
X73718057Y-128412904D02*
X73860914Y-128508142D01*
X73860914Y-128508142D02*
X74051390Y-128555761D01*
X74051390Y-128555761D02*
X74432342Y-128555761D01*
X74432342Y-128555761D02*
X74527580Y-128508142D01*
X74527580Y-128508142D02*
X74575200Y-128460523D01*
X74575200Y-128460523D02*
X74622819Y-128365285D01*
X74622819Y-128365285D02*
X74622819Y-128174809D01*
X74622819Y-128174809D02*
X74575200Y-128079571D01*
X74575200Y-128079571D02*
X74527580Y-128031952D01*
X74527580Y-128031952D02*
X74432342Y-127984333D01*
X74432342Y-127984333D02*
X74194247Y-127984333D01*
X74194247Y-127984333D02*
X74099009Y-128031952D01*
X74099009Y-128031952D02*
X74051390Y-128079571D01*
X74051390Y-128079571D02*
X74003771Y-128174809D01*
X74003771Y-128174809D02*
X74003771Y-128365285D01*
X74003771Y-128365285D02*
X74051390Y-128460523D01*
X74051390Y-128460523D02*
X74099009Y-128508142D01*
X74099009Y-128508142D02*
X74194247Y-128555761D01*
X139646819Y-115974666D02*
X139170628Y-116307999D01*
X139646819Y-116546094D02*
X138646819Y-116546094D01*
X138646819Y-116546094D02*
X138646819Y-116165142D01*
X138646819Y-116165142D02*
X138694438Y-116069904D01*
X138694438Y-116069904D02*
X138742057Y-116022285D01*
X138742057Y-116022285D02*
X138837295Y-115974666D01*
X138837295Y-115974666D02*
X138980152Y-115974666D01*
X138980152Y-115974666D02*
X139075390Y-116022285D01*
X139075390Y-116022285D02*
X139123009Y-116069904D01*
X139123009Y-116069904D02*
X139170628Y-116165142D01*
X139170628Y-116165142D02*
X139170628Y-116546094D01*
X138742057Y-115593713D02*
X138694438Y-115546094D01*
X138694438Y-115546094D02*
X138646819Y-115450856D01*
X138646819Y-115450856D02*
X138646819Y-115212761D01*
X138646819Y-115212761D02*
X138694438Y-115117523D01*
X138694438Y-115117523D02*
X138742057Y-115069904D01*
X138742057Y-115069904D02*
X138837295Y-115022285D01*
X138837295Y-115022285D02*
X138932533Y-115022285D01*
X138932533Y-115022285D02*
X139075390Y-115069904D01*
X139075390Y-115069904D02*
X139646819Y-115641332D01*
X139646819Y-115641332D02*
X139646819Y-115022285D01*
X83417580Y-112942666D02*
X83465200Y-112990285D01*
X83465200Y-112990285D02*
X83512819Y-113133142D01*
X83512819Y-113133142D02*
X83512819Y-113228380D01*
X83512819Y-113228380D02*
X83465200Y-113371237D01*
X83465200Y-113371237D02*
X83369961Y-113466475D01*
X83369961Y-113466475D02*
X83274723Y-113514094D01*
X83274723Y-113514094D02*
X83084247Y-113561713D01*
X83084247Y-113561713D02*
X82941390Y-113561713D01*
X82941390Y-113561713D02*
X82750914Y-113514094D01*
X82750914Y-113514094D02*
X82655676Y-113466475D01*
X82655676Y-113466475D02*
X82560438Y-113371237D01*
X82560438Y-113371237D02*
X82512819Y-113228380D01*
X82512819Y-113228380D02*
X82512819Y-113133142D01*
X82512819Y-113133142D02*
X82560438Y-112990285D01*
X82560438Y-112990285D02*
X82608057Y-112942666D01*
X83512819Y-112466475D02*
X83512819Y-112275999D01*
X83512819Y-112275999D02*
X83465200Y-112180761D01*
X83465200Y-112180761D02*
X83417580Y-112133142D01*
X83417580Y-112133142D02*
X83274723Y-112037904D01*
X83274723Y-112037904D02*
X83084247Y-111990285D01*
X83084247Y-111990285D02*
X82703295Y-111990285D01*
X82703295Y-111990285D02*
X82608057Y-112037904D01*
X82608057Y-112037904D02*
X82560438Y-112085523D01*
X82560438Y-112085523D02*
X82512819Y-112180761D01*
X82512819Y-112180761D02*
X82512819Y-112371237D01*
X82512819Y-112371237D02*
X82560438Y-112466475D01*
X82560438Y-112466475D02*
X82608057Y-112514094D01*
X82608057Y-112514094D02*
X82703295Y-112561713D01*
X82703295Y-112561713D02*
X82941390Y-112561713D01*
X82941390Y-112561713D02*
X83036628Y-112514094D01*
X83036628Y-112514094D02*
X83084247Y-112466475D01*
X83084247Y-112466475D02*
X83131866Y-112371237D01*
X83131866Y-112371237D02*
X83131866Y-112180761D01*
X83131866Y-112180761D02*
X83084247Y-112085523D01*
X83084247Y-112085523D02*
X83036628Y-112037904D01*
X83036628Y-112037904D02*
X82941390Y-111990285D01*
X122374819Y-130278094D02*
X121374819Y-130278094D01*
X121374819Y-130278094D02*
X121374819Y-130039999D01*
X121374819Y-130039999D02*
X121422438Y-129897142D01*
X121422438Y-129897142D02*
X121517676Y-129801904D01*
X121517676Y-129801904D02*
X121612914Y-129754285D01*
X121612914Y-129754285D02*
X121803390Y-129706666D01*
X121803390Y-129706666D02*
X121946247Y-129706666D01*
X121946247Y-129706666D02*
X122136723Y-129754285D01*
X122136723Y-129754285D02*
X122231961Y-129801904D01*
X122231961Y-129801904D02*
X122327200Y-129897142D01*
X122327200Y-129897142D02*
X122374819Y-130039999D01*
X122374819Y-130039999D02*
X122374819Y-130278094D01*
X121708152Y-128849523D02*
X122374819Y-128849523D01*
X121327200Y-129087618D02*
X122041485Y-129325713D01*
X122041485Y-129325713D02*
X122041485Y-128706666D01*
X125849142Y-120596819D02*
X125515809Y-120120628D01*
X125277714Y-120596819D02*
X125277714Y-119596819D01*
X125277714Y-119596819D02*
X125658666Y-119596819D01*
X125658666Y-119596819D02*
X125753904Y-119644438D01*
X125753904Y-119644438D02*
X125801523Y-119692057D01*
X125801523Y-119692057D02*
X125849142Y-119787295D01*
X125849142Y-119787295D02*
X125849142Y-119930152D01*
X125849142Y-119930152D02*
X125801523Y-120025390D01*
X125801523Y-120025390D02*
X125753904Y-120073009D01*
X125753904Y-120073009D02*
X125658666Y-120120628D01*
X125658666Y-120120628D02*
X125277714Y-120120628D01*
X126801523Y-120596819D02*
X126230095Y-120596819D01*
X126515809Y-120596819D02*
X126515809Y-119596819D01*
X126515809Y-119596819D02*
X126420571Y-119739676D01*
X126420571Y-119739676D02*
X126325333Y-119834914D01*
X126325333Y-119834914D02*
X126230095Y-119882533D01*
X127134857Y-119596819D02*
X127753904Y-119596819D01*
X127753904Y-119596819D02*
X127420571Y-119977771D01*
X127420571Y-119977771D02*
X127563428Y-119977771D01*
X127563428Y-119977771D02*
X127658666Y-120025390D01*
X127658666Y-120025390D02*
X127706285Y-120073009D01*
X127706285Y-120073009D02*
X127753904Y-120168247D01*
X127753904Y-120168247D02*
X127753904Y-120406342D01*
X127753904Y-120406342D02*
X127706285Y-120501580D01*
X127706285Y-120501580D02*
X127658666Y-120549200D01*
X127658666Y-120549200D02*
X127563428Y-120596819D01*
X127563428Y-120596819D02*
X127277714Y-120596819D01*
X127277714Y-120596819D02*
X127182476Y-120549200D01*
X127182476Y-120549200D02*
X127134857Y-120501580D01*
X85471095Y-112992819D02*
X85471095Y-113802342D01*
X85471095Y-113802342D02*
X85518714Y-113897580D01*
X85518714Y-113897580D02*
X85566333Y-113945200D01*
X85566333Y-113945200D02*
X85661571Y-113992819D01*
X85661571Y-113992819D02*
X85852047Y-113992819D01*
X85852047Y-113992819D02*
X85947285Y-113945200D01*
X85947285Y-113945200D02*
X85994904Y-113897580D01*
X85994904Y-113897580D02*
X86042523Y-113802342D01*
X86042523Y-113802342D02*
X86042523Y-112992819D01*
X86947285Y-113326152D02*
X86947285Y-113992819D01*
X86709190Y-112945200D02*
X86471095Y-113659485D01*
X86471095Y-113659485D02*
X87090142Y-113659485D01*
X68754666Y-89624819D02*
X68754666Y-90339104D01*
X68754666Y-90339104D02*
X68707047Y-90481961D01*
X68707047Y-90481961D02*
X68611809Y-90577200D01*
X68611809Y-90577200D02*
X68468952Y-90624819D01*
X68468952Y-90624819D02*
X68373714Y-90624819D01*
X69135619Y-89624819D02*
X69754666Y-89624819D01*
X69754666Y-89624819D02*
X69421333Y-90005771D01*
X69421333Y-90005771D02*
X69564190Y-90005771D01*
X69564190Y-90005771D02*
X69659428Y-90053390D01*
X69659428Y-90053390D02*
X69707047Y-90101009D01*
X69707047Y-90101009D02*
X69754666Y-90196247D01*
X69754666Y-90196247D02*
X69754666Y-90434342D01*
X69754666Y-90434342D02*
X69707047Y-90529580D01*
X69707047Y-90529580D02*
X69659428Y-90577200D01*
X69659428Y-90577200D02*
X69564190Y-90624819D01*
X69564190Y-90624819D02*
X69278476Y-90624819D01*
X69278476Y-90624819D02*
X69183238Y-90577200D01*
X69183238Y-90577200D02*
X69135619Y-90529580D01*
X70874095Y-100800819D02*
X71445523Y-100800819D01*
X71159809Y-101800819D02*
X71159809Y-100800819D01*
X71778857Y-101800819D02*
X71778857Y-100800819D01*
X71778857Y-100800819D02*
X72159809Y-100800819D01*
X72159809Y-100800819D02*
X72255047Y-100848438D01*
X72255047Y-100848438D02*
X72302666Y-100896057D01*
X72302666Y-100896057D02*
X72350285Y-100991295D01*
X72350285Y-100991295D02*
X72350285Y-101134152D01*
X72350285Y-101134152D02*
X72302666Y-101229390D01*
X72302666Y-101229390D02*
X72255047Y-101277009D01*
X72255047Y-101277009D02*
X72159809Y-101324628D01*
X72159809Y-101324628D02*
X71778857Y-101324628D01*
X73207428Y-101134152D02*
X73207428Y-101800819D01*
X72969333Y-100753200D02*
X72731238Y-101467485D01*
X72731238Y-101467485D02*
X73350285Y-101467485D01*
X122374819Y-126118857D02*
X121898628Y-126452190D01*
X122374819Y-126690285D02*
X121374819Y-126690285D01*
X121374819Y-126690285D02*
X121374819Y-126309333D01*
X121374819Y-126309333D02*
X121422438Y-126214095D01*
X121422438Y-126214095D02*
X121470057Y-126166476D01*
X121470057Y-126166476D02*
X121565295Y-126118857D01*
X121565295Y-126118857D02*
X121708152Y-126118857D01*
X121708152Y-126118857D02*
X121803390Y-126166476D01*
X121803390Y-126166476D02*
X121851009Y-126214095D01*
X121851009Y-126214095D02*
X121898628Y-126309333D01*
X121898628Y-126309333D02*
X121898628Y-126690285D01*
X122374819Y-125166476D02*
X122374819Y-125737904D01*
X122374819Y-125452190D02*
X121374819Y-125452190D01*
X121374819Y-125452190D02*
X121517676Y-125547428D01*
X121517676Y-125547428D02*
X121612914Y-125642666D01*
X121612914Y-125642666D02*
X121660533Y-125737904D01*
X121374819Y-124309333D02*
X121374819Y-124499809D01*
X121374819Y-124499809D02*
X121422438Y-124595047D01*
X121422438Y-124595047D02*
X121470057Y-124642666D01*
X121470057Y-124642666D02*
X121612914Y-124737904D01*
X121612914Y-124737904D02*
X121803390Y-124785523D01*
X121803390Y-124785523D02*
X122184342Y-124785523D01*
X122184342Y-124785523D02*
X122279580Y-124737904D01*
X122279580Y-124737904D02*
X122327200Y-124690285D01*
X122327200Y-124690285D02*
X122374819Y-124595047D01*
X122374819Y-124595047D02*
X122374819Y-124404571D01*
X122374819Y-124404571D02*
X122327200Y-124309333D01*
X122327200Y-124309333D02*
X122279580Y-124261714D01*
X122279580Y-124261714D02*
X122184342Y-124214095D01*
X122184342Y-124214095D02*
X121946247Y-124214095D01*
X121946247Y-124214095D02*
X121851009Y-124261714D01*
X121851009Y-124261714D02*
X121803390Y-124309333D01*
X121803390Y-124309333D02*
X121755771Y-124404571D01*
X121755771Y-124404571D02*
X121755771Y-124595047D01*
X121755771Y-124595047D02*
X121803390Y-124690285D01*
X121803390Y-124690285D02*
X121851009Y-124737904D01*
X121851009Y-124737904D02*
X121946247Y-124785523D01*
X104402095Y-90970819D02*
X104973523Y-90970819D01*
X104687809Y-91970819D02*
X104687809Y-90970819D01*
X105306857Y-91970819D02*
X105306857Y-90970819D01*
X105306857Y-90970819D02*
X105687809Y-90970819D01*
X105687809Y-90970819D02*
X105783047Y-91018438D01*
X105783047Y-91018438D02*
X105830666Y-91066057D01*
X105830666Y-91066057D02*
X105878285Y-91161295D01*
X105878285Y-91161295D02*
X105878285Y-91304152D01*
X105878285Y-91304152D02*
X105830666Y-91399390D01*
X105830666Y-91399390D02*
X105783047Y-91447009D01*
X105783047Y-91447009D02*
X105687809Y-91494628D01*
X105687809Y-91494628D02*
X105306857Y-91494628D01*
X106783047Y-90970819D02*
X106306857Y-90970819D01*
X106306857Y-90970819D02*
X106259238Y-91447009D01*
X106259238Y-91447009D02*
X106306857Y-91399390D01*
X106306857Y-91399390D02*
X106402095Y-91351771D01*
X106402095Y-91351771D02*
X106640190Y-91351771D01*
X106640190Y-91351771D02*
X106735428Y-91399390D01*
X106735428Y-91399390D02*
X106783047Y-91447009D01*
X106783047Y-91447009D02*
X106830666Y-91542247D01*
X106830666Y-91542247D02*
X106830666Y-91780342D01*
X106830666Y-91780342D02*
X106783047Y-91875580D01*
X106783047Y-91875580D02*
X106735428Y-91923200D01*
X106735428Y-91923200D02*
X106640190Y-91970819D01*
X106640190Y-91970819D02*
X106402095Y-91970819D01*
X106402095Y-91970819D02*
X106306857Y-91923200D01*
X106306857Y-91923200D02*
X106259238Y-91875580D01*
X102816819Y-97924857D02*
X102340628Y-98258190D01*
X102816819Y-98496285D02*
X101816819Y-98496285D01*
X101816819Y-98496285D02*
X101816819Y-98115333D01*
X101816819Y-98115333D02*
X101864438Y-98020095D01*
X101864438Y-98020095D02*
X101912057Y-97972476D01*
X101912057Y-97972476D02*
X102007295Y-97924857D01*
X102007295Y-97924857D02*
X102150152Y-97924857D01*
X102150152Y-97924857D02*
X102245390Y-97972476D01*
X102245390Y-97972476D02*
X102293009Y-98020095D01*
X102293009Y-98020095D02*
X102340628Y-98115333D01*
X102340628Y-98115333D02*
X102340628Y-98496285D01*
X101912057Y-97543904D02*
X101864438Y-97496285D01*
X101864438Y-97496285D02*
X101816819Y-97401047D01*
X101816819Y-97401047D02*
X101816819Y-97162952D01*
X101816819Y-97162952D02*
X101864438Y-97067714D01*
X101864438Y-97067714D02*
X101912057Y-97020095D01*
X101912057Y-97020095D02*
X102007295Y-96972476D01*
X102007295Y-96972476D02*
X102102533Y-96972476D01*
X102102533Y-96972476D02*
X102245390Y-97020095D01*
X102245390Y-97020095D02*
X102816819Y-97591523D01*
X102816819Y-97591523D02*
X102816819Y-96972476D01*
X101816819Y-96639142D02*
X101816819Y-95972476D01*
X101816819Y-95972476D02*
X102816819Y-96401047D01*
X89019142Y-91132819D02*
X88685809Y-90656628D01*
X88447714Y-91132819D02*
X88447714Y-90132819D01*
X88447714Y-90132819D02*
X88828666Y-90132819D01*
X88828666Y-90132819D02*
X88923904Y-90180438D01*
X88923904Y-90180438D02*
X88971523Y-90228057D01*
X88971523Y-90228057D02*
X89019142Y-90323295D01*
X89019142Y-90323295D02*
X89019142Y-90466152D01*
X89019142Y-90466152D02*
X88971523Y-90561390D01*
X88971523Y-90561390D02*
X88923904Y-90609009D01*
X88923904Y-90609009D02*
X88828666Y-90656628D01*
X88828666Y-90656628D02*
X88447714Y-90656628D01*
X89400095Y-90228057D02*
X89447714Y-90180438D01*
X89447714Y-90180438D02*
X89542952Y-90132819D01*
X89542952Y-90132819D02*
X89781047Y-90132819D01*
X89781047Y-90132819D02*
X89876285Y-90180438D01*
X89876285Y-90180438D02*
X89923904Y-90228057D01*
X89923904Y-90228057D02*
X89971523Y-90323295D01*
X89971523Y-90323295D02*
X89971523Y-90418533D01*
X89971523Y-90418533D02*
X89923904Y-90561390D01*
X89923904Y-90561390D02*
X89352476Y-91132819D01*
X89352476Y-91132819D02*
X89971523Y-91132819D01*
X90828666Y-90132819D02*
X90638190Y-90132819D01*
X90638190Y-90132819D02*
X90542952Y-90180438D01*
X90542952Y-90180438D02*
X90495333Y-90228057D01*
X90495333Y-90228057D02*
X90400095Y-90370914D01*
X90400095Y-90370914D02*
X90352476Y-90561390D01*
X90352476Y-90561390D02*
X90352476Y-90942342D01*
X90352476Y-90942342D02*
X90400095Y-91037580D01*
X90400095Y-91037580D02*
X90447714Y-91085200D01*
X90447714Y-91085200D02*
X90542952Y-91132819D01*
X90542952Y-91132819D02*
X90733428Y-91132819D01*
X90733428Y-91132819D02*
X90828666Y-91085200D01*
X90828666Y-91085200D02*
X90876285Y-91037580D01*
X90876285Y-91037580D02*
X90923904Y-90942342D01*
X90923904Y-90942342D02*
X90923904Y-90704247D01*
X90923904Y-90704247D02*
X90876285Y-90609009D01*
X90876285Y-90609009D02*
X90828666Y-90561390D01*
X90828666Y-90561390D02*
X90733428Y-90513771D01*
X90733428Y-90513771D02*
X90542952Y-90513771D01*
X90542952Y-90513771D02*
X90447714Y-90561390D01*
X90447714Y-90561390D02*
X90400095Y-90609009D01*
X90400095Y-90609009D02*
X90352476Y-90704247D01*
X147153333Y-128470819D02*
X146820000Y-127994628D01*
X146581905Y-128470819D02*
X146581905Y-127470819D01*
X146581905Y-127470819D02*
X146962857Y-127470819D01*
X146962857Y-127470819D02*
X147058095Y-127518438D01*
X147058095Y-127518438D02*
X147105714Y-127566057D01*
X147105714Y-127566057D02*
X147153333Y-127661295D01*
X147153333Y-127661295D02*
X147153333Y-127804152D01*
X147153333Y-127804152D02*
X147105714Y-127899390D01*
X147105714Y-127899390D02*
X147058095Y-127947009D01*
X147058095Y-127947009D02*
X146962857Y-127994628D01*
X146962857Y-127994628D02*
X146581905Y-127994628D01*
X147486667Y-127470819D02*
X148105714Y-127470819D01*
X148105714Y-127470819D02*
X147772381Y-127851771D01*
X147772381Y-127851771D02*
X147915238Y-127851771D01*
X147915238Y-127851771D02*
X148010476Y-127899390D01*
X148010476Y-127899390D02*
X148058095Y-127947009D01*
X148058095Y-127947009D02*
X148105714Y-128042247D01*
X148105714Y-128042247D02*
X148105714Y-128280342D01*
X148105714Y-128280342D02*
X148058095Y-128375580D01*
X148058095Y-128375580D02*
X148010476Y-128423200D01*
X148010476Y-128423200D02*
X147915238Y-128470819D01*
X147915238Y-128470819D02*
X147629524Y-128470819D01*
X147629524Y-128470819D02*
X147534286Y-128423200D01*
X147534286Y-128423200D02*
X147486667Y-128375580D01*
D12*
G36*
X110383049Y-100848595D02*
G01*
X110407718Y-100873263D01*
X110437523Y-100932873D01*
X110437523Y-101076135D01*
X110407718Y-101135743D01*
X110383049Y-101160413D01*
X110323440Y-101190219D01*
X110180178Y-101190219D01*
X110120568Y-101160414D01*
X110095901Y-101135746D01*
X110066095Y-101076134D01*
X110066095Y-100932873D01*
X110095900Y-100873263D01*
X110120568Y-100848594D01*
X110180178Y-100818790D01*
X110323440Y-100818790D01*
X110383049Y-100848595D01*
G37*
G36*
X110383049Y-100420024D02*
G01*
X110407718Y-100444692D01*
X110437523Y-100504302D01*
X110437523Y-100504707D01*
X110407718Y-100564316D01*
X110383049Y-100588984D01*
X110323440Y-100618790D01*
X110180178Y-100618790D01*
X110120568Y-100588985D01*
X110095900Y-100564316D01*
X110066095Y-100504706D01*
X110066095Y-100504302D01*
X110095900Y-100444692D01*
X110120568Y-100420023D01*
X110180178Y-100390219D01*
X110323440Y-100390219D01*
X110383049Y-100420024D01*
G37*
G36*
X110748634Y-101501330D02*
G01*
X108754984Y-101501330D01*
X108754984Y-100290219D01*
X108866095Y-100290219D01*
X108866095Y-101099742D01*
X108868016Y-101119251D01*
X108869391Y-101122571D01*
X108869646Y-101126155D01*
X108876652Y-101144463D01*
X108924271Y-101239701D01*
X108929554Y-101248093D01*
X108930566Y-101250537D01*
X108932822Y-101253286D01*
X108934714Y-101256291D01*
X108936708Y-101258020D01*
X108943003Y-101265690D01*
X108990621Y-101313310D01*
X108998289Y-101319603D01*
X109000021Y-101321600D01*
X109003029Y-101323493D01*
X109005775Y-101325747D01*
X109008215Y-101326757D01*
X109016612Y-101332043D01*
X109111849Y-101379662D01*
X109130158Y-101386668D01*
X109133741Y-101386922D01*
X109137062Y-101388298D01*
X109156571Y-101390219D01*
X109347047Y-101390219D01*
X109366556Y-101388298D01*
X109369876Y-101386922D01*
X109373460Y-101386668D01*
X109391768Y-101379662D01*
X109487006Y-101332043D01*
X109495401Y-101326758D01*
X109497843Y-101325747D01*
X109500590Y-101323491D01*
X109503596Y-101321600D01*
X109505326Y-101319605D01*
X109512996Y-101313310D01*
X109560615Y-101265690D01*
X109566907Y-101258023D01*
X109568904Y-101256292D01*
X109570797Y-101253284D01*
X109573052Y-101250537D01*
X109574063Y-101248095D01*
X109579347Y-101239701D01*
X109626966Y-101144464D01*
X109633972Y-101126155D01*
X109634226Y-101122571D01*
X109635602Y-101119251D01*
X109637523Y-101099742D01*
X109637523Y-100480695D01*
X109866095Y-100480695D01*
X109866095Y-100528314D01*
X109868016Y-100547823D01*
X109869391Y-100551143D01*
X109869646Y-100554727D01*
X109876652Y-100573035D01*
X109924271Y-100668273D01*
X109929556Y-100676669D01*
X109930567Y-100679109D01*
X109932820Y-100681855D01*
X109934714Y-100684863D01*
X109936708Y-100686592D01*
X109943003Y-100694263D01*
X109967530Y-100718790D01*
X109943003Y-100743317D01*
X109936708Y-100750987D01*
X109934714Y-100752717D01*
X109932820Y-100755724D01*
X109930567Y-100758471D01*
X109929556Y-100760910D01*
X109924271Y-100769307D01*
X109876652Y-100864545D01*
X109869646Y-100882853D01*
X109869391Y-100886436D01*
X109868016Y-100889757D01*
X109866095Y-100909266D01*
X109866095Y-101099742D01*
X109868016Y-101119251D01*
X109869391Y-101122571D01*
X109869646Y-101126155D01*
X109876652Y-101144463D01*
X109924271Y-101239701D01*
X109929554Y-101248093D01*
X109930566Y-101250537D01*
X109932822Y-101253286D01*
X109934714Y-101256291D01*
X109936708Y-101258020D01*
X109943003Y-101265690D01*
X109990621Y-101313310D01*
X109998289Y-101319603D01*
X110000021Y-101321600D01*
X110003029Y-101323493D01*
X110005775Y-101325747D01*
X110008215Y-101326757D01*
X110016612Y-101332043D01*
X110111849Y-101379662D01*
X110130158Y-101386668D01*
X110133741Y-101386922D01*
X110137062Y-101388298D01*
X110156571Y-101390219D01*
X110347047Y-101390219D01*
X110366556Y-101388298D01*
X110369876Y-101386922D01*
X110373460Y-101386668D01*
X110391768Y-101379662D01*
X110487006Y-101332043D01*
X110495401Y-101326758D01*
X110497843Y-101325747D01*
X110500590Y-101323491D01*
X110503596Y-101321600D01*
X110505326Y-101319605D01*
X110512996Y-101313310D01*
X110560615Y-101265690D01*
X110566907Y-101258023D01*
X110568904Y-101256292D01*
X110570797Y-101253284D01*
X110573052Y-101250537D01*
X110574063Y-101248095D01*
X110579347Y-101239701D01*
X110626966Y-101144464D01*
X110633972Y-101126155D01*
X110634226Y-101122571D01*
X110635602Y-101119251D01*
X110637523Y-101099742D01*
X110637523Y-100909266D01*
X110635602Y-100889757D01*
X110634226Y-100886436D01*
X110633972Y-100882853D01*
X110626966Y-100864544D01*
X110579347Y-100769307D01*
X110574061Y-100760910D01*
X110573051Y-100758470D01*
X110570797Y-100755724D01*
X110568904Y-100752716D01*
X110566906Y-100750983D01*
X110560614Y-100743317D01*
X110536087Y-100718790D01*
X110560614Y-100694263D01*
X110566906Y-100686596D01*
X110568904Y-100684864D01*
X110570797Y-100681855D01*
X110573051Y-100679110D01*
X110574061Y-100676669D01*
X110579347Y-100668273D01*
X110626966Y-100573036D01*
X110633972Y-100554727D01*
X110634226Y-100551143D01*
X110635602Y-100547823D01*
X110637523Y-100528314D01*
X110637523Y-100480695D01*
X110635602Y-100461186D01*
X110634226Y-100457865D01*
X110633972Y-100454282D01*
X110626966Y-100435973D01*
X110579347Y-100340736D01*
X110574061Y-100332339D01*
X110573051Y-100329899D01*
X110570797Y-100327153D01*
X110568904Y-100324145D01*
X110566906Y-100322412D01*
X110560614Y-100314746D01*
X110512996Y-100267127D01*
X110505325Y-100260832D01*
X110503596Y-100258838D01*
X110500588Y-100256944D01*
X110497842Y-100254691D01*
X110495402Y-100253680D01*
X110487006Y-100248395D01*
X110391768Y-100200776D01*
X110373460Y-100193770D01*
X110369876Y-100193515D01*
X110366556Y-100192140D01*
X110347047Y-100190219D01*
X110156571Y-100190219D01*
X110137062Y-100192140D01*
X110133741Y-100193515D01*
X110130158Y-100193770D01*
X110111849Y-100200776D01*
X110016612Y-100248395D01*
X110008215Y-100253680D01*
X110005775Y-100254691D01*
X110003029Y-100256944D01*
X110000021Y-100258838D01*
X109998288Y-100260835D01*
X109990622Y-100267128D01*
X109943003Y-100314746D01*
X109936708Y-100322416D01*
X109934714Y-100324146D01*
X109932820Y-100327153D01*
X109930567Y-100329900D01*
X109929556Y-100332339D01*
X109924271Y-100340736D01*
X109876652Y-100435974D01*
X109869646Y-100454282D01*
X109869391Y-100457865D01*
X109868016Y-100461186D01*
X109866095Y-100480695D01*
X109637523Y-100480695D01*
X109637523Y-100290219D01*
X109635602Y-100270710D01*
X109620670Y-100234662D01*
X109593080Y-100207072D01*
X109557032Y-100192140D01*
X109518014Y-100192140D01*
X109481966Y-100207072D01*
X109454376Y-100234662D01*
X109439444Y-100270710D01*
X109437523Y-100290219D01*
X109437523Y-101076135D01*
X109407718Y-101135743D01*
X109383049Y-101160413D01*
X109323440Y-101190219D01*
X109180178Y-101190219D01*
X109120568Y-101160414D01*
X109095901Y-101135746D01*
X109066095Y-101076134D01*
X109066095Y-100290219D01*
X109064174Y-100270710D01*
X109049242Y-100234662D01*
X109021652Y-100207072D01*
X108985604Y-100192140D01*
X108946586Y-100192140D01*
X108910538Y-100207072D01*
X108882948Y-100234662D01*
X108868016Y-100270710D01*
X108866095Y-100290219D01*
X108754984Y-100290219D01*
X108754984Y-100079108D01*
X110748634Y-100079108D01*
X110748634Y-101501330D01*
G37*
D11*
X109071580Y-118784666D02*
X109119200Y-118832285D01*
X109119200Y-118832285D02*
X109166819Y-118975142D01*
X109166819Y-118975142D02*
X109166819Y-119070380D01*
X109166819Y-119070380D02*
X109119200Y-119213237D01*
X109119200Y-119213237D02*
X109023961Y-119308475D01*
X109023961Y-119308475D02*
X108928723Y-119356094D01*
X108928723Y-119356094D02*
X108738247Y-119403713D01*
X108738247Y-119403713D02*
X108595390Y-119403713D01*
X108595390Y-119403713D02*
X108404914Y-119356094D01*
X108404914Y-119356094D02*
X108309676Y-119308475D01*
X108309676Y-119308475D02*
X108214438Y-119213237D01*
X108214438Y-119213237D02*
X108166819Y-119070380D01*
X108166819Y-119070380D02*
X108166819Y-118975142D01*
X108166819Y-118975142D02*
X108214438Y-118832285D01*
X108214438Y-118832285D02*
X108262057Y-118784666D01*
X109166819Y-117832285D02*
X109166819Y-118403713D01*
X109166819Y-118117999D02*
X108166819Y-118117999D01*
X108166819Y-118117999D02*
X108309676Y-118213237D01*
X108309676Y-118213237D02*
X108404914Y-118308475D01*
X108404914Y-118308475D02*
X108452533Y-118403713D01*
X96170761Y-104436057D02*
X96075523Y-104388438D01*
X96075523Y-104388438D02*
X95980285Y-104293200D01*
X95980285Y-104293200D02*
X95837428Y-104150342D01*
X95837428Y-104150342D02*
X95742190Y-104102723D01*
X95742190Y-104102723D02*
X95646952Y-104102723D01*
X95694571Y-104340819D02*
X95599333Y-104293200D01*
X95599333Y-104293200D02*
X95504095Y-104197961D01*
X95504095Y-104197961D02*
X95456476Y-104007485D01*
X95456476Y-104007485D02*
X95456476Y-103674152D01*
X95456476Y-103674152D02*
X95504095Y-103483676D01*
X95504095Y-103483676D02*
X95599333Y-103388438D01*
X95599333Y-103388438D02*
X95694571Y-103340819D01*
X95694571Y-103340819D02*
X95885047Y-103340819D01*
X95885047Y-103340819D02*
X95980285Y-103388438D01*
X95980285Y-103388438D02*
X96075523Y-103483676D01*
X96075523Y-103483676D02*
X96123142Y-103674152D01*
X96123142Y-103674152D02*
X96123142Y-104007485D01*
X96123142Y-104007485D02*
X96075523Y-104197961D01*
X96075523Y-104197961D02*
X95980285Y-104293200D01*
X95980285Y-104293200D02*
X95885047Y-104340819D01*
X95885047Y-104340819D02*
X95694571Y-104340819D01*
X97075523Y-104340819D02*
X96504095Y-104340819D01*
X96789809Y-104340819D02*
X96789809Y-103340819D01*
X96789809Y-103340819D02*
X96694571Y-103483676D01*
X96694571Y-103483676D02*
X96599333Y-103578914D01*
X96599333Y-103578914D02*
X96504095Y-103626533D01*
X84955142Y-103832819D02*
X84621809Y-103356628D01*
X84383714Y-103832819D02*
X84383714Y-102832819D01*
X84383714Y-102832819D02*
X84764666Y-102832819D01*
X84764666Y-102832819D02*
X84859904Y-102880438D01*
X84859904Y-102880438D02*
X84907523Y-102928057D01*
X84907523Y-102928057D02*
X84955142Y-103023295D01*
X84955142Y-103023295D02*
X84955142Y-103166152D01*
X84955142Y-103166152D02*
X84907523Y-103261390D01*
X84907523Y-103261390D02*
X84859904Y-103309009D01*
X84859904Y-103309009D02*
X84764666Y-103356628D01*
X84764666Y-103356628D02*
X84383714Y-103356628D01*
X85907523Y-103832819D02*
X85336095Y-103832819D01*
X85621809Y-103832819D02*
X85621809Y-102832819D01*
X85621809Y-102832819D02*
X85526571Y-102975676D01*
X85526571Y-102975676D02*
X85431333Y-103070914D01*
X85431333Y-103070914D02*
X85336095Y-103118533D01*
X86526571Y-102832819D02*
X86621809Y-102832819D01*
X86621809Y-102832819D02*
X86717047Y-102880438D01*
X86717047Y-102880438D02*
X86764666Y-102928057D01*
X86764666Y-102928057D02*
X86812285Y-103023295D01*
X86812285Y-103023295D02*
X86859904Y-103213771D01*
X86859904Y-103213771D02*
X86859904Y-103451866D01*
X86859904Y-103451866D02*
X86812285Y-103642342D01*
X86812285Y-103642342D02*
X86764666Y-103737580D01*
X86764666Y-103737580D02*
X86717047Y-103785200D01*
X86717047Y-103785200D02*
X86621809Y-103832819D01*
X86621809Y-103832819D02*
X86526571Y-103832819D01*
X86526571Y-103832819D02*
X86431333Y-103785200D01*
X86431333Y-103785200D02*
X86383714Y-103737580D01*
X86383714Y-103737580D02*
X86336095Y-103642342D01*
X86336095Y-103642342D02*
X86288476Y-103451866D01*
X86288476Y-103451866D02*
X86288476Y-103213771D01*
X86288476Y-103213771D02*
X86336095Y-103023295D01*
X86336095Y-103023295D02*
X86383714Y-102928057D01*
X86383714Y-102928057D02*
X86431333Y-102880438D01*
X86431333Y-102880438D02*
X86526571Y-102832819D01*
X81280095Y-120358819D02*
X81280095Y-121168342D01*
X81280095Y-121168342D02*
X81327714Y-121263580D01*
X81327714Y-121263580D02*
X81375333Y-121311200D01*
X81375333Y-121311200D02*
X81470571Y-121358819D01*
X81470571Y-121358819D02*
X81661047Y-121358819D01*
X81661047Y-121358819D02*
X81756285Y-121311200D01*
X81756285Y-121311200D02*
X81803904Y-121263580D01*
X81803904Y-121263580D02*
X81851523Y-121168342D01*
X81851523Y-121168342D02*
X81851523Y-120358819D01*
X82232476Y-120358819D02*
X82899142Y-120358819D01*
X82899142Y-120358819D02*
X82470571Y-121358819D01*
X98514819Y-117347904D02*
X99324342Y-117347904D01*
X99324342Y-117347904D02*
X99419580Y-117300285D01*
X99419580Y-117300285D02*
X99467200Y-117252666D01*
X99467200Y-117252666D02*
X99514819Y-117157428D01*
X99514819Y-117157428D02*
X99514819Y-116966952D01*
X99514819Y-116966952D02*
X99467200Y-116871714D01*
X99467200Y-116871714D02*
X99419580Y-116824095D01*
X99419580Y-116824095D02*
X99324342Y-116776476D01*
X99324342Y-116776476D02*
X98514819Y-116776476D01*
X99514819Y-115776476D02*
X99514819Y-116347904D01*
X99514819Y-116062190D02*
X98514819Y-116062190D01*
X98514819Y-116062190D02*
X98657676Y-116157428D01*
X98657676Y-116157428D02*
X98752914Y-116252666D01*
X98752914Y-116252666D02*
X98800533Y-116347904D01*
D12*
G36*
X146671856Y-102009330D02*
G01*
X144872524Y-102009330D01*
X144872524Y-101778710D01*
X144983635Y-101778710D01*
X144983635Y-101817728D01*
X144998567Y-101853776D01*
X145026157Y-101881366D01*
X145062205Y-101896298D01*
X145081714Y-101898219D01*
X145176952Y-101898219D01*
X145186825Y-101897246D01*
X145189459Y-101897434D01*
X145192922Y-101896646D01*
X145196461Y-101896298D01*
X145198903Y-101895286D01*
X145208575Y-101893087D01*
X145351431Y-101845468D01*
X145369332Y-101837477D01*
X145372047Y-101835122D01*
X145375367Y-101833747D01*
X145390520Y-101821310D01*
X145485758Y-101726071D01*
X145498195Y-101710918D01*
X145499570Y-101707598D01*
X145501924Y-101704884D01*
X145509915Y-101686984D01*
X145557534Y-101544127D01*
X145559733Y-101534454D01*
X145560745Y-101532013D01*
X145561093Y-101528475D01*
X145561881Y-101525012D01*
X145561693Y-101522377D01*
X145562666Y-101512504D01*
X145562666Y-101071426D01*
X145792023Y-101071426D01*
X145794789Y-101110346D01*
X145812238Y-101145245D01*
X145841715Y-101170809D01*
X145878731Y-101183148D01*
X145917651Y-101180382D01*
X145935959Y-101173376D01*
X146031197Y-101125757D01*
X146039593Y-101120471D01*
X146042033Y-101119461D01*
X146044779Y-101117207D01*
X146047787Y-101115314D01*
X146049516Y-101113319D01*
X146057187Y-101107025D01*
X146076952Y-101087260D01*
X146076952Y-101698219D01*
X145891238Y-101698219D01*
X145871729Y-101700140D01*
X145835681Y-101715072D01*
X145808091Y-101742662D01*
X145793159Y-101778710D01*
X145793159Y-101817728D01*
X145808091Y-101853776D01*
X145835681Y-101881366D01*
X145871729Y-101896298D01*
X145891238Y-101898219D01*
X146462666Y-101898219D01*
X146482175Y-101896298D01*
X146518223Y-101881366D01*
X146545813Y-101853776D01*
X146560745Y-101817728D01*
X146560745Y-101778710D01*
X146545813Y-101742662D01*
X146518223Y-101715072D01*
X146482175Y-101700140D01*
X146462666Y-101698219D01*
X146276952Y-101698219D01*
X146276952Y-100798219D01*
X146276945Y-100798148D01*
X146276952Y-100798114D01*
X146276931Y-100798012D01*
X146275031Y-100778710D01*
X146271241Y-100769561D01*
X146269300Y-100759854D01*
X146263848Y-100751713D01*
X146260099Y-100742662D01*
X146253099Y-100735662D01*
X146247589Y-100727434D01*
X146239434Y-100721997D01*
X146232509Y-100715072D01*
X146223365Y-100711284D01*
X146215124Y-100705790D01*
X146205510Y-100703888D01*
X146196461Y-100700140D01*
X146186560Y-100700140D01*
X146176848Y-100698219D01*
X146167243Y-100700140D01*
X146157443Y-100700140D01*
X146148294Y-100703929D01*
X146138587Y-100705871D01*
X146130446Y-100711322D01*
X146121395Y-100715072D01*
X146114395Y-100722071D01*
X146106167Y-100727582D01*
X146093878Y-100742588D01*
X146093805Y-100742662D01*
X146093791Y-100742694D01*
X146093747Y-100742749D01*
X146004003Y-100877365D01*
X145927239Y-100954128D01*
X145846517Y-100994490D01*
X145829926Y-101004933D01*
X145804362Y-101034410D01*
X145792023Y-101071426D01*
X145562666Y-101071426D01*
X145562666Y-100798219D01*
X145560745Y-100778710D01*
X145545813Y-100742662D01*
X145518223Y-100715072D01*
X145482175Y-100700140D01*
X145443157Y-100700140D01*
X145407109Y-100715072D01*
X145379519Y-100742662D01*
X145364587Y-100778710D01*
X145362666Y-100798219D01*
X145362666Y-101496277D01*
X145327644Y-101601341D01*
X145265790Y-101663197D01*
X145160725Y-101698219D01*
X145081714Y-101698219D01*
X145062205Y-101700140D01*
X145026157Y-101715072D01*
X144998567Y-101742662D01*
X144983635Y-101778710D01*
X144872524Y-101778710D01*
X144872524Y-100587108D01*
X146671856Y-100587108D01*
X146671856Y-102009330D01*
G37*
D11*
X125849142Y-122374819D02*
X125515809Y-121898628D01*
X125277714Y-122374819D02*
X125277714Y-121374819D01*
X125277714Y-121374819D02*
X125658666Y-121374819D01*
X125658666Y-121374819D02*
X125753904Y-121422438D01*
X125753904Y-121422438D02*
X125801523Y-121470057D01*
X125801523Y-121470057D02*
X125849142Y-121565295D01*
X125849142Y-121565295D02*
X125849142Y-121708152D01*
X125849142Y-121708152D02*
X125801523Y-121803390D01*
X125801523Y-121803390D02*
X125753904Y-121851009D01*
X125753904Y-121851009D02*
X125658666Y-121898628D01*
X125658666Y-121898628D02*
X125277714Y-121898628D01*
X126801523Y-122374819D02*
X126230095Y-122374819D01*
X126515809Y-122374819D02*
X126515809Y-121374819D01*
X126515809Y-121374819D02*
X126420571Y-121517676D01*
X126420571Y-121517676D02*
X126325333Y-121612914D01*
X126325333Y-121612914D02*
X126230095Y-121660533D01*
X127706285Y-121374819D02*
X127230095Y-121374819D01*
X127230095Y-121374819D02*
X127182476Y-121851009D01*
X127182476Y-121851009D02*
X127230095Y-121803390D01*
X127230095Y-121803390D02*
X127325333Y-121755771D01*
X127325333Y-121755771D02*
X127563428Y-121755771D01*
X127563428Y-121755771D02*
X127658666Y-121803390D01*
X127658666Y-121803390D02*
X127706285Y-121851009D01*
X127706285Y-121851009D02*
X127753904Y-121946247D01*
X127753904Y-121946247D02*
X127753904Y-122184342D01*
X127753904Y-122184342D02*
X127706285Y-122279580D01*
X127706285Y-122279580D02*
X127658666Y-122327200D01*
X127658666Y-122327200D02*
X127563428Y-122374819D01*
X127563428Y-122374819D02*
X127325333Y-122374819D01*
X127325333Y-122374819D02*
X127230095Y-122327200D01*
X127230095Y-122327200D02*
X127182476Y-122279580D01*
X113403142Y-109420819D02*
X113069809Y-108944628D01*
X112831714Y-109420819D02*
X112831714Y-108420819D01*
X112831714Y-108420819D02*
X113212666Y-108420819D01*
X113212666Y-108420819D02*
X113307904Y-108468438D01*
X113307904Y-108468438D02*
X113355523Y-108516057D01*
X113355523Y-108516057D02*
X113403142Y-108611295D01*
X113403142Y-108611295D02*
X113403142Y-108754152D01*
X113403142Y-108754152D02*
X113355523Y-108849390D01*
X113355523Y-108849390D02*
X113307904Y-108897009D01*
X113307904Y-108897009D02*
X113212666Y-108944628D01*
X113212666Y-108944628D02*
X112831714Y-108944628D01*
X114355523Y-109420819D02*
X113784095Y-109420819D01*
X114069809Y-109420819D02*
X114069809Y-108420819D01*
X114069809Y-108420819D02*
X113974571Y-108563676D01*
X113974571Y-108563676D02*
X113879333Y-108658914D01*
X113879333Y-108658914D02*
X113784095Y-108706533D01*
X114831714Y-109420819D02*
X115022190Y-109420819D01*
X115022190Y-109420819D02*
X115117428Y-109373200D01*
X115117428Y-109373200D02*
X115165047Y-109325580D01*
X115165047Y-109325580D02*
X115260285Y-109182723D01*
X115260285Y-109182723D02*
X115307904Y-108992247D01*
X115307904Y-108992247D02*
X115307904Y-108611295D01*
X115307904Y-108611295D02*
X115260285Y-108516057D01*
X115260285Y-108516057D02*
X115212666Y-108468438D01*
X115212666Y-108468438D02*
X115117428Y-108420819D01*
X115117428Y-108420819D02*
X114926952Y-108420819D01*
X114926952Y-108420819D02*
X114831714Y-108468438D01*
X114831714Y-108468438D02*
X114784095Y-108516057D01*
X114784095Y-108516057D02*
X114736476Y-108611295D01*
X114736476Y-108611295D02*
X114736476Y-108849390D01*
X114736476Y-108849390D02*
X114784095Y-108944628D01*
X114784095Y-108944628D02*
X114831714Y-108992247D01*
X114831714Y-108992247D02*
X114926952Y-109039866D01*
X114926952Y-109039866D02*
X115117428Y-109039866D01*
X115117428Y-109039866D02*
X115212666Y-108992247D01*
X115212666Y-108992247D02*
X115260285Y-108944628D01*
X115260285Y-108944628D02*
X115307904Y-108849390D01*
X102624095Y-101308819D02*
X103195523Y-101308819D01*
X102909809Y-102308819D02*
X102909809Y-101308819D01*
X103528857Y-102308819D02*
X103528857Y-101308819D01*
X103528857Y-101308819D02*
X103909809Y-101308819D01*
X103909809Y-101308819D02*
X104005047Y-101356438D01*
X104005047Y-101356438D02*
X104052666Y-101404057D01*
X104052666Y-101404057D02*
X104100285Y-101499295D01*
X104100285Y-101499295D02*
X104100285Y-101642152D01*
X104100285Y-101642152D02*
X104052666Y-101737390D01*
X104052666Y-101737390D02*
X104005047Y-101785009D01*
X104005047Y-101785009D02*
X103909809Y-101832628D01*
X103909809Y-101832628D02*
X103528857Y-101832628D01*
X104481238Y-101404057D02*
X104528857Y-101356438D01*
X104528857Y-101356438D02*
X104624095Y-101308819D01*
X104624095Y-101308819D02*
X104862190Y-101308819D01*
X104862190Y-101308819D02*
X104957428Y-101356438D01*
X104957428Y-101356438D02*
X105005047Y-101404057D01*
X105005047Y-101404057D02*
X105052666Y-101499295D01*
X105052666Y-101499295D02*
X105052666Y-101594533D01*
X105052666Y-101594533D02*
X105005047Y-101737390D01*
X105005047Y-101737390D02*
X104433619Y-102308819D01*
X104433619Y-102308819D02*
X105052666Y-102308819D01*
X118719580Y-113602857D02*
X118767200Y-113650476D01*
X118767200Y-113650476D02*
X118814819Y-113793333D01*
X118814819Y-113793333D02*
X118814819Y-113888571D01*
X118814819Y-113888571D02*
X118767200Y-114031428D01*
X118767200Y-114031428D02*
X118671961Y-114126666D01*
X118671961Y-114126666D02*
X118576723Y-114174285D01*
X118576723Y-114174285D02*
X118386247Y-114221904D01*
X118386247Y-114221904D02*
X118243390Y-114221904D01*
X118243390Y-114221904D02*
X118052914Y-114174285D01*
X118052914Y-114174285D02*
X117957676Y-114126666D01*
X117957676Y-114126666D02*
X117862438Y-114031428D01*
X117862438Y-114031428D02*
X117814819Y-113888571D01*
X117814819Y-113888571D02*
X117814819Y-113793333D01*
X117814819Y-113793333D02*
X117862438Y-113650476D01*
X117862438Y-113650476D02*
X117910057Y-113602857D01*
X118814819Y-112650476D02*
X118814819Y-113221904D01*
X118814819Y-112936190D02*
X117814819Y-112936190D01*
X117814819Y-112936190D02*
X117957676Y-113031428D01*
X117957676Y-113031428D02*
X118052914Y-113126666D01*
X118052914Y-113126666D02*
X118100533Y-113221904D01*
X118814819Y-111698095D02*
X118814819Y-112269523D01*
X118814819Y-111983809D02*
X117814819Y-111983809D01*
X117814819Y-111983809D02*
X117957676Y-112079047D01*
X117957676Y-112079047D02*
X118052914Y-112174285D01*
X118052914Y-112174285D02*
X118100533Y-112269523D01*
X66925580Y-98972857D02*
X66973200Y-99020476D01*
X66973200Y-99020476D02*
X67020819Y-99163333D01*
X67020819Y-99163333D02*
X67020819Y-99258571D01*
X67020819Y-99258571D02*
X66973200Y-99401428D01*
X66973200Y-99401428D02*
X66877961Y-99496666D01*
X66877961Y-99496666D02*
X66782723Y-99544285D01*
X66782723Y-99544285D02*
X66592247Y-99591904D01*
X66592247Y-99591904D02*
X66449390Y-99591904D01*
X66449390Y-99591904D02*
X66258914Y-99544285D01*
X66258914Y-99544285D02*
X66163676Y-99496666D01*
X66163676Y-99496666D02*
X66068438Y-99401428D01*
X66068438Y-99401428D02*
X66020819Y-99258571D01*
X66020819Y-99258571D02*
X66020819Y-99163333D01*
X66020819Y-99163333D02*
X66068438Y-99020476D01*
X66068438Y-99020476D02*
X66116057Y-98972857D01*
X67020819Y-98020476D02*
X67020819Y-98591904D01*
X67020819Y-98306190D02*
X66020819Y-98306190D01*
X66020819Y-98306190D02*
X66163676Y-98401428D01*
X66163676Y-98401428D02*
X66258914Y-98496666D01*
X66258914Y-98496666D02*
X66306533Y-98591904D01*
X66020819Y-97115714D02*
X66020819Y-97591904D01*
X66020819Y-97591904D02*
X66497009Y-97639523D01*
X66497009Y-97639523D02*
X66449390Y-97591904D01*
X66449390Y-97591904D02*
X66401771Y-97496666D01*
X66401771Y-97496666D02*
X66401771Y-97258571D01*
X66401771Y-97258571D02*
X66449390Y-97163333D01*
X66449390Y-97163333D02*
X66497009Y-97115714D01*
X66497009Y-97115714D02*
X66592247Y-97068095D01*
X66592247Y-97068095D02*
X66830342Y-97068095D01*
X66830342Y-97068095D02*
X66925580Y-97115714D01*
X66925580Y-97115714D02*
X66973200Y-97163333D01*
X66973200Y-97163333D02*
X67020819Y-97258571D01*
X67020819Y-97258571D02*
X67020819Y-97496666D01*
X67020819Y-97496666D02*
X66973200Y-97591904D01*
X66973200Y-97591904D02*
X66925580Y-97639523D01*
X80772095Y-99530819D02*
X80772095Y-100340342D01*
X80772095Y-100340342D02*
X80819714Y-100435580D01*
X80819714Y-100435580D02*
X80867333Y-100483200D01*
X80867333Y-100483200D02*
X80962571Y-100530819D01*
X80962571Y-100530819D02*
X81153047Y-100530819D01*
X81153047Y-100530819D02*
X81248285Y-100483200D01*
X81248285Y-100483200D02*
X81295904Y-100435580D01*
X81295904Y-100435580D02*
X81343523Y-100340342D01*
X81343523Y-100340342D02*
X81343523Y-99530819D01*
X82295904Y-99530819D02*
X81819714Y-99530819D01*
X81819714Y-99530819D02*
X81772095Y-100007009D01*
X81772095Y-100007009D02*
X81819714Y-99959390D01*
X81819714Y-99959390D02*
X81914952Y-99911771D01*
X81914952Y-99911771D02*
X82153047Y-99911771D01*
X82153047Y-99911771D02*
X82248285Y-99959390D01*
X82248285Y-99959390D02*
X82295904Y-100007009D01*
X82295904Y-100007009D02*
X82343523Y-100102247D01*
X82343523Y-100102247D02*
X82343523Y-100340342D01*
X82343523Y-100340342D02*
X82295904Y-100435580D01*
X82295904Y-100435580D02*
X82248285Y-100483200D01*
X82248285Y-100483200D02*
X82153047Y-100530819D01*
X82153047Y-100530819D02*
X81914952Y-100530819D01*
X81914952Y-100530819D02*
X81819714Y-100483200D01*
X81819714Y-100483200D02*
X81772095Y-100435580D01*
X76670819Y-102742999D02*
X76908914Y-102742999D01*
X76813676Y-102981094D02*
X76908914Y-102742999D01*
X76908914Y-102742999D02*
X76813676Y-102504904D01*
X77099390Y-102885856D02*
X76908914Y-102742999D01*
X76908914Y-102742999D02*
X77099390Y-102600142D01*
X113953009Y-113293333D02*
X113953009Y-113626666D01*
X114476819Y-113626666D02*
X113476819Y-113626666D01*
X113476819Y-113626666D02*
X113476819Y-113150476D01*
X113572057Y-112817142D02*
X113524438Y-112769523D01*
X113524438Y-112769523D02*
X113476819Y-112674285D01*
X113476819Y-112674285D02*
X113476819Y-112436190D01*
X113476819Y-112436190D02*
X113524438Y-112340952D01*
X113524438Y-112340952D02*
X113572057Y-112293333D01*
X113572057Y-112293333D02*
X113667295Y-112245714D01*
X113667295Y-112245714D02*
X113762533Y-112245714D01*
X113762533Y-112245714D02*
X113905390Y-112293333D01*
X113905390Y-112293333D02*
X114476819Y-112864761D01*
X114476819Y-112864761D02*
X114476819Y-112245714D01*
D12*
G36*
X147236792Y-86696281D02*
G01*
X147261461Y-86720949D01*
X147291266Y-86780559D01*
X147291266Y-86923821D01*
X147261461Y-86983430D01*
X147236792Y-87008098D01*
X147177183Y-87037904D01*
X146986302Y-87037904D01*
X146926692Y-87008099D01*
X146902024Y-86983430D01*
X146872219Y-86923820D01*
X146872219Y-86780559D01*
X146902024Y-86720949D01*
X146926692Y-86696280D01*
X146986302Y-86666476D01*
X147177183Y-86666476D01*
X147236792Y-86696281D01*
G37*
G36*
X147983330Y-88349015D02*
G01*
X146561108Y-88349015D01*
X146561108Y-87546967D01*
X146674140Y-87546967D01*
X146674140Y-87585985D01*
X146689072Y-87622033D01*
X146716662Y-87649623D01*
X146752710Y-87664555D01*
X146772219Y-87666476D01*
X147558135Y-87666476D01*
X147617746Y-87696282D01*
X147642414Y-87720949D01*
X147672219Y-87780559D01*
X147672219Y-87923821D01*
X147642414Y-87983430D01*
X147617746Y-88008097D01*
X147558135Y-88037904D01*
X146772219Y-88037904D01*
X146752710Y-88039825D01*
X146716662Y-88054757D01*
X146689072Y-88082347D01*
X146674140Y-88118395D01*
X146674140Y-88157413D01*
X146689072Y-88193461D01*
X146716662Y-88221051D01*
X146752710Y-88235983D01*
X146772219Y-88237904D01*
X147581742Y-88237904D01*
X147601251Y-88235983D01*
X147604571Y-88234607D01*
X147608155Y-88234353D01*
X147626463Y-88227347D01*
X147721701Y-88179728D01*
X147730093Y-88174444D01*
X147732537Y-88173433D01*
X147735286Y-88171176D01*
X147738291Y-88169285D01*
X147740020Y-88167290D01*
X147747690Y-88160996D01*
X147795310Y-88113378D01*
X147801603Y-88105709D01*
X147803600Y-88103978D01*
X147805493Y-88100969D01*
X147807747Y-88098224D01*
X147808757Y-88095783D01*
X147814043Y-88087387D01*
X147861662Y-87992150D01*
X147868668Y-87973841D01*
X147868922Y-87970257D01*
X147870298Y-87966937D01*
X147872219Y-87947428D01*
X147872219Y-87756952D01*
X147870298Y-87737443D01*
X147868922Y-87734122D01*
X147868668Y-87730539D01*
X147861662Y-87712230D01*
X147814043Y-87616993D01*
X147808757Y-87608596D01*
X147807747Y-87606156D01*
X147805493Y-87603410D01*
X147803600Y-87600402D01*
X147801603Y-87598670D01*
X147795310Y-87591002D01*
X147747690Y-87543384D01*
X147740020Y-87537089D01*
X147738291Y-87535095D01*
X147735286Y-87533203D01*
X147732537Y-87530947D01*
X147730093Y-87529935D01*
X147721701Y-87524652D01*
X147626463Y-87477033D01*
X147608155Y-87470027D01*
X147604571Y-87469772D01*
X147601251Y-87468397D01*
X147581742Y-87466476D01*
X146772219Y-87466476D01*
X146752710Y-87468397D01*
X146716662Y-87483329D01*
X146689072Y-87510919D01*
X146674140Y-87546967D01*
X146561108Y-87546967D01*
X146561108Y-86756952D01*
X146672219Y-86756952D01*
X146672219Y-86947428D01*
X146674140Y-86966937D01*
X146675515Y-86970257D01*
X146675770Y-86973841D01*
X146682776Y-86992149D01*
X146730395Y-87087387D01*
X146735680Y-87095783D01*
X146736691Y-87098223D01*
X146738944Y-87100969D01*
X146740838Y-87103977D01*
X146742832Y-87105706D01*
X146749127Y-87113377D01*
X146796746Y-87160995D01*
X146804412Y-87167287D01*
X146806145Y-87169285D01*
X146809153Y-87171178D01*
X146811899Y-87173432D01*
X146814339Y-87174442D01*
X146822736Y-87179728D01*
X146917973Y-87227347D01*
X146936282Y-87234353D01*
X146939865Y-87234607D01*
X146943186Y-87235983D01*
X146962695Y-87237904D01*
X147200790Y-87237904D01*
X147220299Y-87235983D01*
X147223619Y-87234607D01*
X147227203Y-87234353D01*
X147245511Y-87227347D01*
X147340749Y-87179728D01*
X147349145Y-87174442D01*
X147351585Y-87173432D01*
X147354331Y-87171178D01*
X147357339Y-87169285D01*
X147359068Y-87167290D01*
X147366739Y-87160996D01*
X147414357Y-87113377D01*
X147420649Y-87105710D01*
X147422647Y-87103978D01*
X147424540Y-87100969D01*
X147426794Y-87098224D01*
X147427804Y-87095783D01*
X147433090Y-87087387D01*
X147480709Y-86992150D01*
X147487715Y-86973841D01*
X147487969Y-86970257D01*
X147489345Y-86966937D01*
X147491266Y-86947428D01*
X147491266Y-86756952D01*
X147489345Y-86737443D01*
X147487969Y-86734122D01*
X147487715Y-86730539D01*
X147480709Y-86712230D01*
X147475902Y-86702617D01*
X147493065Y-86706908D01*
X147613272Y-86787046D01*
X147642414Y-86816187D01*
X147672219Y-86875797D01*
X147672219Y-87042666D01*
X147674140Y-87062175D01*
X147689072Y-87098223D01*
X147716662Y-87125813D01*
X147752710Y-87140745D01*
X147791728Y-87140745D01*
X147827776Y-87125813D01*
X147855366Y-87098223D01*
X147870298Y-87062175D01*
X147872219Y-87042666D01*
X147872219Y-86852190D01*
X147870298Y-86832681D01*
X147868922Y-86829360D01*
X147868668Y-86825777D01*
X147861662Y-86807468D01*
X147814043Y-86712231D01*
X147808757Y-86703834D01*
X147807747Y-86701394D01*
X147805493Y-86698648D01*
X147803600Y-86695640D01*
X147801603Y-86693908D01*
X147795310Y-86686240D01*
X147747690Y-86638622D01*
X147747637Y-86638579D01*
X147747617Y-86638548D01*
X147740119Y-86632408D01*
X147732537Y-86626185D01*
X147732501Y-86626170D01*
X147732450Y-86626128D01*
X147589593Y-86530890D01*
X147578823Y-86525147D01*
X147576837Y-86523676D01*
X147574491Y-86522838D01*
X147572295Y-86521667D01*
X147569871Y-86521187D01*
X147558376Y-86517081D01*
X147367901Y-86469462D01*
X147364519Y-86468961D01*
X147363156Y-86468397D01*
X147355805Y-86467673D01*
X147348508Y-86466594D01*
X147347049Y-86466811D01*
X147343647Y-86466476D01*
X146962695Y-86466476D01*
X146943186Y-86468397D01*
X146939865Y-86469772D01*
X146936282Y-86470027D01*
X146917973Y-86477033D01*
X146822736Y-86524652D01*
X146814339Y-86529937D01*
X146811899Y-86530948D01*
X146809153Y-86533201D01*
X146806145Y-86535095D01*
X146804412Y-86537092D01*
X146796746Y-86543385D01*
X146749127Y-86591003D01*
X146742832Y-86598673D01*
X146740838Y-86600403D01*
X146738944Y-86603410D01*
X146736691Y-86606157D01*
X146735680Y-86608596D01*
X146730395Y-86616993D01*
X146682776Y-86712231D01*
X146675770Y-86730539D01*
X146675515Y-86734122D01*
X146674140Y-86737443D01*
X146672219Y-86756952D01*
X146561108Y-86756952D01*
X146561108Y-86355365D01*
X147983330Y-86355365D01*
X147983330Y-88349015D01*
G37*
G36*
X103183220Y-89953613D02*
G01*
X103198366Y-89968758D01*
X103218647Y-90009320D01*
X103218647Y-90152380D01*
X103037695Y-90152380D01*
X103037695Y-90009320D01*
X103057975Y-89968759D01*
X103073120Y-89953613D01*
X103113683Y-89933333D01*
X103142659Y-89933333D01*
X103183220Y-89953613D01*
G37*
G36*
X103602267Y-89915518D02*
G01*
X103617414Y-89930664D01*
X103637695Y-89971225D01*
X103637695Y-90152380D01*
X103418647Y-90152380D01*
X103418647Y-90001940D01*
X103444143Y-89925448D01*
X103454075Y-89915516D01*
X103494635Y-89895237D01*
X103561707Y-89895237D01*
X103602267Y-89915518D01*
G37*
G36*
X103572283Y-89085532D02*
G01*
X103617414Y-89130663D01*
X103637695Y-89171225D01*
X103637695Y-89276392D01*
X103617413Y-89316954D01*
X103572284Y-89362083D01*
X103458718Y-89390476D01*
X103216671Y-89390476D01*
X103103106Y-89362084D01*
X103057975Y-89316953D01*
X103037695Y-89276392D01*
X103037695Y-89171225D01*
X103057976Y-89130662D01*
X103103105Y-89085533D01*
X103216671Y-89057142D01*
X103458719Y-89057142D01*
X103572283Y-89085532D01*
G37*
G36*
X103572283Y-88247437D02*
G01*
X103617414Y-88292568D01*
X103637695Y-88333130D01*
X103637695Y-88438297D01*
X103617413Y-88478859D01*
X103572284Y-88523988D01*
X103458718Y-88552381D01*
X103216671Y-88552381D01*
X103103106Y-88523989D01*
X103057975Y-88478858D01*
X103037695Y-88438297D01*
X103037695Y-88333130D01*
X103057976Y-88292567D01*
X103103105Y-88247438D01*
X103216671Y-88219047D01*
X103458719Y-88219047D01*
X103572283Y-88247437D01*
G37*
G36*
X103937695Y-90452380D02*
G01*
X102737695Y-90452380D01*
X102737695Y-89985714D01*
X102837695Y-89985714D01*
X102837695Y-90252380D01*
X102839616Y-90271889D01*
X102854548Y-90307937D01*
X102882138Y-90335527D01*
X102918186Y-90350459D01*
X102937695Y-90352380D01*
X103737695Y-90352380D01*
X103757204Y-90350459D01*
X103793252Y-90335527D01*
X103820842Y-90307937D01*
X103835774Y-90271889D01*
X103837695Y-90252380D01*
X103837695Y-89947618D01*
X103835774Y-89928109D01*
X103834398Y-89924788D01*
X103834144Y-89921205D01*
X103827138Y-89902897D01*
X103789043Y-89826707D01*
X103783756Y-89818307D01*
X103782746Y-89815869D01*
X103780493Y-89813124D01*
X103778600Y-89810116D01*
X103776603Y-89808384D01*
X103770310Y-89800716D01*
X103732214Y-89762621D01*
X103724544Y-89756327D01*
X103722816Y-89754334D01*
X103719810Y-89752441D01*
X103717060Y-89750185D01*
X103714617Y-89749173D01*
X103706226Y-89743891D01*
X103630036Y-89705795D01*
X103611728Y-89698788D01*
X103608142Y-89698533D01*
X103604823Y-89697158D01*
X103585314Y-89695237D01*
X103471028Y-89695237D01*
X103451519Y-89697158D01*
X103448199Y-89698533D01*
X103444614Y-89698788D01*
X103426305Y-89705795D01*
X103350116Y-89743891D01*
X103341724Y-89749173D01*
X103339282Y-89750185D01*
X103336532Y-89752441D01*
X103333526Y-89754334D01*
X103331795Y-89756329D01*
X103324128Y-89762622D01*
X103298263Y-89788485D01*
X103298014Y-89788281D01*
X103295574Y-89787270D01*
X103287178Y-89781985D01*
X103210987Y-89743890D01*
X103192678Y-89736884D01*
X103189095Y-89736629D01*
X103185775Y-89735254D01*
X103166266Y-89733333D01*
X103090076Y-89733333D01*
X103070567Y-89735254D01*
X103067246Y-89736629D01*
X103063664Y-89736884D01*
X103045355Y-89743890D01*
X102969164Y-89781985D01*
X102960768Y-89787269D01*
X102958327Y-89788281D01*
X102955579Y-89790536D01*
X102952574Y-89792428D01*
X102950843Y-89794423D01*
X102943174Y-89800718D01*
X102905079Y-89838812D01*
X102898784Y-89846481D01*
X102896790Y-89848212D01*
X102894896Y-89851219D01*
X102892643Y-89853966D01*
X102891632Y-89856405D01*
X102886347Y-89864802D01*
X102848252Y-89940993D01*
X102841246Y-89959302D01*
X102840991Y-89962884D01*
X102839616Y-89966205D01*
X102837695Y-89985714D01*
X102737695Y-89985714D01*
X102737695Y-89147618D01*
X102837695Y-89147618D01*
X102837695Y-89299999D01*
X102839616Y-89319508D01*
X102840991Y-89322828D01*
X102841246Y-89326411D01*
X102848252Y-89344720D01*
X102886347Y-89420911D01*
X102891632Y-89429307D01*
X102892643Y-89431747D01*
X102894896Y-89434493D01*
X102896790Y-89437501D01*
X102898784Y-89439231D01*
X102905079Y-89446901D01*
X102981269Y-89523091D01*
X102996423Y-89535527D01*
X103003289Y-89538371D01*
X103009265Y-89542799D01*
X103027726Y-89549394D01*
X103180107Y-89587490D01*
X103183488Y-89587990D01*
X103184852Y-89588555D01*
X103192200Y-89589278D01*
X103199499Y-89590358D01*
X103200957Y-89590140D01*
X103204361Y-89590476D01*
X103471028Y-89590476D01*
X103474431Y-89590140D01*
X103475890Y-89590358D01*
X103483188Y-89589278D01*
X103490537Y-89588555D01*
X103491900Y-89587990D01*
X103495282Y-89587490D01*
X103647663Y-89549394D01*
X103666124Y-89542799D01*
X103672097Y-89538372D01*
X103678966Y-89535528D01*
X103694119Y-89523091D01*
X103770310Y-89446901D01*
X103776604Y-89439231D01*
X103778600Y-89437501D01*
X103780491Y-89434495D01*
X103782747Y-89431748D01*
X103783758Y-89429306D01*
X103789043Y-89420911D01*
X103827138Y-89344720D01*
X103834144Y-89326411D01*
X103834398Y-89322828D01*
X103835774Y-89319508D01*
X103837695Y-89299999D01*
X103837695Y-89147618D01*
X103835774Y-89128109D01*
X103834398Y-89124788D01*
X103834144Y-89121205D01*
X103827138Y-89102897D01*
X103789043Y-89026707D01*
X103783757Y-89018310D01*
X103782747Y-89015870D01*
X103780493Y-89013124D01*
X103778600Y-89010116D01*
X103776602Y-89008383D01*
X103770310Y-89000717D01*
X103694120Y-88924526D01*
X103678966Y-88912090D01*
X103672098Y-88909245D01*
X103666123Y-88904818D01*
X103647663Y-88898223D01*
X103495281Y-88860128D01*
X103491901Y-88859628D01*
X103490537Y-88859063D01*
X103483185Y-88858339D01*
X103475889Y-88857260D01*
X103474430Y-88857477D01*
X103471028Y-88857142D01*
X103204361Y-88857142D01*
X103200958Y-88857477D01*
X103199500Y-88857260D01*
X103192203Y-88858339D01*
X103184852Y-88859063D01*
X103183487Y-88859628D01*
X103180108Y-88860128D01*
X103027727Y-88898223D01*
X103009266Y-88904818D01*
X103003292Y-88909244D01*
X102996422Y-88912090D01*
X102981269Y-88924527D01*
X102905079Y-89000718D01*
X102898786Y-89008384D01*
X102896790Y-89010116D01*
X102894896Y-89013123D01*
X102892642Y-89015871D01*
X102891630Y-89018312D01*
X102886347Y-89026707D01*
X102848252Y-89102897D01*
X102841246Y-89121205D01*
X102840991Y-89124788D01*
X102839616Y-89128109D01*
X102837695Y-89147618D01*
X102737695Y-89147618D01*
X102737695Y-88309523D01*
X102837695Y-88309523D01*
X102837695Y-88461904D01*
X102839616Y-88481413D01*
X102840991Y-88484733D01*
X102841246Y-88488316D01*
X102848252Y-88506625D01*
X102886347Y-88582816D01*
X102891632Y-88591212D01*
X102892643Y-88593652D01*
X102894896Y-88596398D01*
X102896790Y-88599406D01*
X102898784Y-88601136D01*
X102905079Y-88608806D01*
X102981269Y-88684996D01*
X102996423Y-88697432D01*
X103003289Y-88700276D01*
X103009265Y-88704704D01*
X103027726Y-88711299D01*
X103180107Y-88749395D01*
X103183488Y-88749895D01*
X103184852Y-88750460D01*
X103192200Y-88751183D01*
X103199499Y-88752263D01*
X103200957Y-88752045D01*
X103204361Y-88752381D01*
X103471028Y-88752381D01*
X103474431Y-88752045D01*
X103475890Y-88752263D01*
X103483188Y-88751183D01*
X103490537Y-88750460D01*
X103491900Y-88749895D01*
X103495282Y-88749395D01*
X103647663Y-88711299D01*
X103666124Y-88704704D01*
X103672097Y-88700277D01*
X103678966Y-88697433D01*
X103694119Y-88684996D01*
X103770310Y-88608806D01*
X103776604Y-88601136D01*
X103778600Y-88599406D01*
X103780491Y-88596400D01*
X103782747Y-88593653D01*
X103783758Y-88591211D01*
X103789043Y-88582816D01*
X103827138Y-88506625D01*
X103834144Y-88488316D01*
X103834398Y-88484733D01*
X103835774Y-88481413D01*
X103837695Y-88461904D01*
X103837695Y-88309523D01*
X103835774Y-88290014D01*
X103834398Y-88286693D01*
X103834144Y-88283110D01*
X103827138Y-88264802D01*
X103789043Y-88188612D01*
X103783757Y-88180215D01*
X103782747Y-88177775D01*
X103780493Y-88175029D01*
X103778600Y-88172021D01*
X103776602Y-88170288D01*
X103770310Y-88162622D01*
X103694120Y-88086431D01*
X103678966Y-88073995D01*
X103672098Y-88071150D01*
X103666123Y-88066723D01*
X103647663Y-88060128D01*
X103495281Y-88022033D01*
X103491901Y-88021533D01*
X103490537Y-88020968D01*
X103483185Y-88020244D01*
X103475889Y-88019165D01*
X103474430Y-88019382D01*
X103471028Y-88019047D01*
X103204361Y-88019047D01*
X103200958Y-88019382D01*
X103199500Y-88019165D01*
X103192203Y-88020244D01*
X103184852Y-88020968D01*
X103183487Y-88021533D01*
X103180108Y-88022033D01*
X103027727Y-88060128D01*
X103009266Y-88066723D01*
X103003292Y-88071149D01*
X102996422Y-88073995D01*
X102981269Y-88086432D01*
X102905079Y-88162623D01*
X102898786Y-88170289D01*
X102896790Y-88172021D01*
X102894896Y-88175028D01*
X102892642Y-88177776D01*
X102891630Y-88180217D01*
X102886347Y-88188612D01*
X102848252Y-88264802D01*
X102841246Y-88283110D01*
X102840991Y-88286693D01*
X102839616Y-88290014D01*
X102837695Y-88309523D01*
X102737695Y-88309523D01*
X102737695Y-87433333D01*
X102837695Y-87433333D01*
X102837695Y-87890476D01*
X102839616Y-87909985D01*
X102854548Y-87946033D01*
X102882138Y-87973623D01*
X102918186Y-87988555D01*
X102957204Y-87988555D01*
X102993252Y-87973623D01*
X103020842Y-87946033D01*
X103035774Y-87909985D01*
X103037695Y-87890476D01*
X103037695Y-87761905D01*
X103737695Y-87761905D01*
X103757204Y-87759984D01*
X103793252Y-87745052D01*
X103820842Y-87717462D01*
X103835774Y-87681414D01*
X103835774Y-87642396D01*
X103820842Y-87606348D01*
X103793252Y-87578758D01*
X103757204Y-87563826D01*
X103737695Y-87561905D01*
X103037695Y-87561905D01*
X103037695Y-87433333D01*
X103035774Y-87413824D01*
X103020842Y-87377776D01*
X102993252Y-87350186D01*
X102957204Y-87335254D01*
X102918186Y-87335254D01*
X102882138Y-87350186D01*
X102854548Y-87377776D01*
X102839616Y-87413824D01*
X102837695Y-87433333D01*
X102737695Y-87433333D01*
X102737695Y-87235254D01*
X103937695Y-87235254D01*
X103937695Y-90452380D01*
G37*
D11*
X111611580Y-111672666D02*
X111659200Y-111720285D01*
X111659200Y-111720285D02*
X111706819Y-111863142D01*
X111706819Y-111863142D02*
X111706819Y-111958380D01*
X111706819Y-111958380D02*
X111659200Y-112101237D01*
X111659200Y-112101237D02*
X111563961Y-112196475D01*
X111563961Y-112196475D02*
X111468723Y-112244094D01*
X111468723Y-112244094D02*
X111278247Y-112291713D01*
X111278247Y-112291713D02*
X111135390Y-112291713D01*
X111135390Y-112291713D02*
X110944914Y-112244094D01*
X110944914Y-112244094D02*
X110849676Y-112196475D01*
X110849676Y-112196475D02*
X110754438Y-112101237D01*
X110754438Y-112101237D02*
X110706819Y-111958380D01*
X110706819Y-111958380D02*
X110706819Y-111863142D01*
X110706819Y-111863142D02*
X110754438Y-111720285D01*
X110754438Y-111720285D02*
X110802057Y-111672666D01*
X110802057Y-111291713D02*
X110754438Y-111244094D01*
X110754438Y-111244094D02*
X110706819Y-111148856D01*
X110706819Y-111148856D02*
X110706819Y-110910761D01*
X110706819Y-110910761D02*
X110754438Y-110815523D01*
X110754438Y-110815523D02*
X110802057Y-110767904D01*
X110802057Y-110767904D02*
X110897295Y-110720285D01*
X110897295Y-110720285D02*
X110992533Y-110720285D01*
X110992533Y-110720285D02*
X111135390Y-110767904D01*
X111135390Y-110767904D02*
X111706819Y-111339332D01*
X111706819Y-111339332D02*
X111706819Y-110720285D01*
X123898819Y-126118857D02*
X123422628Y-126452190D01*
X123898819Y-126690285D02*
X122898819Y-126690285D01*
X122898819Y-126690285D02*
X122898819Y-126309333D01*
X122898819Y-126309333D02*
X122946438Y-126214095D01*
X122946438Y-126214095D02*
X122994057Y-126166476D01*
X122994057Y-126166476D02*
X123089295Y-126118857D01*
X123089295Y-126118857D02*
X123232152Y-126118857D01*
X123232152Y-126118857D02*
X123327390Y-126166476D01*
X123327390Y-126166476D02*
X123375009Y-126214095D01*
X123375009Y-126214095D02*
X123422628Y-126309333D01*
X123422628Y-126309333D02*
X123422628Y-126690285D01*
X123898819Y-125166476D02*
X123898819Y-125737904D01*
X123898819Y-125452190D02*
X122898819Y-125452190D01*
X122898819Y-125452190D02*
X123041676Y-125547428D01*
X123041676Y-125547428D02*
X123136914Y-125642666D01*
X123136914Y-125642666D02*
X123184533Y-125737904D01*
X123327390Y-124595047D02*
X123279771Y-124690285D01*
X123279771Y-124690285D02*
X123232152Y-124737904D01*
X123232152Y-124737904D02*
X123136914Y-124785523D01*
X123136914Y-124785523D02*
X123089295Y-124785523D01*
X123089295Y-124785523D02*
X122994057Y-124737904D01*
X122994057Y-124737904D02*
X122946438Y-124690285D01*
X122946438Y-124690285D02*
X122898819Y-124595047D01*
X122898819Y-124595047D02*
X122898819Y-124404571D01*
X122898819Y-124404571D02*
X122946438Y-124309333D01*
X122946438Y-124309333D02*
X122994057Y-124261714D01*
X122994057Y-124261714D02*
X123089295Y-124214095D01*
X123089295Y-124214095D02*
X123136914Y-124214095D01*
X123136914Y-124214095D02*
X123232152Y-124261714D01*
X123232152Y-124261714D02*
X123279771Y-124309333D01*
X123279771Y-124309333D02*
X123327390Y-124404571D01*
X123327390Y-124404571D02*
X123327390Y-124595047D01*
X123327390Y-124595047D02*
X123375009Y-124690285D01*
X123375009Y-124690285D02*
X123422628Y-124737904D01*
X123422628Y-124737904D02*
X123517866Y-124785523D01*
X123517866Y-124785523D02*
X123708342Y-124785523D01*
X123708342Y-124785523D02*
X123803580Y-124737904D01*
X123803580Y-124737904D02*
X123851200Y-124690285D01*
X123851200Y-124690285D02*
X123898819Y-124595047D01*
X123898819Y-124595047D02*
X123898819Y-124404571D01*
X123898819Y-124404571D02*
X123851200Y-124309333D01*
X123851200Y-124309333D02*
X123803580Y-124261714D01*
X123803580Y-124261714D02*
X123708342Y-124214095D01*
X123708342Y-124214095D02*
X123517866Y-124214095D01*
X123517866Y-124214095D02*
X123422628Y-124261714D01*
X123422628Y-124261714D02*
X123375009Y-124309333D01*
X123375009Y-124309333D02*
X123327390Y-124404571D01*
X110101142Y-91545580D02*
X110053523Y-91593200D01*
X110053523Y-91593200D02*
X109910666Y-91640819D01*
X109910666Y-91640819D02*
X109815428Y-91640819D01*
X109815428Y-91640819D02*
X109672571Y-91593200D01*
X109672571Y-91593200D02*
X109577333Y-91497961D01*
X109577333Y-91497961D02*
X109529714Y-91402723D01*
X109529714Y-91402723D02*
X109482095Y-91212247D01*
X109482095Y-91212247D02*
X109482095Y-91069390D01*
X109482095Y-91069390D02*
X109529714Y-90878914D01*
X109529714Y-90878914D02*
X109577333Y-90783676D01*
X109577333Y-90783676D02*
X109672571Y-90688438D01*
X109672571Y-90688438D02*
X109815428Y-90640819D01*
X109815428Y-90640819D02*
X109910666Y-90640819D01*
X109910666Y-90640819D02*
X110053523Y-90688438D01*
X110053523Y-90688438D02*
X110101142Y-90736057D01*
X111053523Y-91640819D02*
X110482095Y-91640819D01*
X110767809Y-91640819D02*
X110767809Y-90640819D01*
X110767809Y-90640819D02*
X110672571Y-90783676D01*
X110672571Y-90783676D02*
X110577333Y-90878914D01*
X110577333Y-90878914D02*
X110482095Y-90926533D01*
X111529714Y-91640819D02*
X111720190Y-91640819D01*
X111720190Y-91640819D02*
X111815428Y-91593200D01*
X111815428Y-91593200D02*
X111863047Y-91545580D01*
X111863047Y-91545580D02*
X111958285Y-91402723D01*
X111958285Y-91402723D02*
X112005904Y-91212247D01*
X112005904Y-91212247D02*
X112005904Y-90831295D01*
X112005904Y-90831295D02*
X111958285Y-90736057D01*
X111958285Y-90736057D02*
X111910666Y-90688438D01*
X111910666Y-90688438D02*
X111815428Y-90640819D01*
X111815428Y-90640819D02*
X111624952Y-90640819D01*
X111624952Y-90640819D02*
X111529714Y-90688438D01*
X111529714Y-90688438D02*
X111482095Y-90736057D01*
X111482095Y-90736057D02*
X111434476Y-90831295D01*
X111434476Y-90831295D02*
X111434476Y-91069390D01*
X111434476Y-91069390D02*
X111482095Y-91164628D01*
X111482095Y-91164628D02*
X111529714Y-91212247D01*
X111529714Y-91212247D02*
X111624952Y-91259866D01*
X111624952Y-91259866D02*
X111815428Y-91259866D01*
X111815428Y-91259866D02*
X111910666Y-91212247D01*
X111910666Y-91212247D02*
X111958285Y-91164628D01*
X111958285Y-91164628D02*
X112005904Y-91069390D01*
X134035542Y-130480526D02*
X133035542Y-130480526D01*
X133035542Y-130480526D02*
X133035542Y-130242431D01*
X133035542Y-130242431D02*
X133083161Y-130099574D01*
X133083161Y-130099574D02*
X133178399Y-130004336D01*
X133178399Y-130004336D02*
X133273637Y-129956717D01*
X133273637Y-129956717D02*
X133464113Y-129909098D01*
X133464113Y-129909098D02*
X133606970Y-129909098D01*
X133606970Y-129909098D02*
X133797446Y-129956717D01*
X133797446Y-129956717D02*
X133892684Y-130004336D01*
X133892684Y-130004336D02*
X133987923Y-130099574D01*
X133987923Y-130099574D02*
X134035542Y-130242431D01*
X134035542Y-130242431D02*
X134035542Y-130480526D01*
X133130780Y-129528145D02*
X133083161Y-129480526D01*
X133083161Y-129480526D02*
X133035542Y-129385288D01*
X133035542Y-129385288D02*
X133035542Y-129147193D01*
X133035542Y-129147193D02*
X133083161Y-129051955D01*
X133083161Y-129051955D02*
X133130780Y-129004336D01*
X133130780Y-129004336D02*
X133226018Y-128956717D01*
X133226018Y-128956717D02*
X133321256Y-128956717D01*
X133321256Y-128956717D02*
X133464113Y-129004336D01*
X133464113Y-129004336D02*
X134035542Y-129575764D01*
X134035542Y-129575764D02*
X134035542Y-128956717D01*
X136009142Y-111738580D02*
X135961523Y-111786200D01*
X135961523Y-111786200D02*
X135818666Y-111833819D01*
X135818666Y-111833819D02*
X135723428Y-111833819D01*
X135723428Y-111833819D02*
X135580571Y-111786200D01*
X135580571Y-111786200D02*
X135485333Y-111690961D01*
X135485333Y-111690961D02*
X135437714Y-111595723D01*
X135437714Y-111595723D02*
X135390095Y-111405247D01*
X135390095Y-111405247D02*
X135390095Y-111262390D01*
X135390095Y-111262390D02*
X135437714Y-111071914D01*
X135437714Y-111071914D02*
X135485333Y-110976676D01*
X135485333Y-110976676D02*
X135580571Y-110881438D01*
X135580571Y-110881438D02*
X135723428Y-110833819D01*
X135723428Y-110833819D02*
X135818666Y-110833819D01*
X135818666Y-110833819D02*
X135961523Y-110881438D01*
X135961523Y-110881438D02*
X136009142Y-110929057D01*
X136961523Y-111833819D02*
X136390095Y-111833819D01*
X136675809Y-111833819D02*
X136675809Y-110833819D01*
X136675809Y-110833819D02*
X136580571Y-110976676D01*
X136580571Y-110976676D02*
X136485333Y-111071914D01*
X136485333Y-111071914D02*
X136390095Y-111119533D01*
X137580571Y-110833819D02*
X137675809Y-110833819D01*
X137675809Y-110833819D02*
X137771047Y-110881438D01*
X137771047Y-110881438D02*
X137818666Y-110929057D01*
X137818666Y-110929057D02*
X137866285Y-111024295D01*
X137866285Y-111024295D02*
X137913904Y-111214771D01*
X137913904Y-111214771D02*
X137913904Y-111452866D01*
X137913904Y-111452866D02*
X137866285Y-111643342D01*
X137866285Y-111643342D02*
X137818666Y-111738580D01*
X137818666Y-111738580D02*
X137771047Y-111786200D01*
X137771047Y-111786200D02*
X137675809Y-111833819D01*
X137675809Y-111833819D02*
X137580571Y-111833819D01*
X137580571Y-111833819D02*
X137485333Y-111786200D01*
X137485333Y-111786200D02*
X137437714Y-111738580D01*
X137437714Y-111738580D02*
X137390095Y-111643342D01*
X137390095Y-111643342D02*
X137342476Y-111452866D01*
X137342476Y-111452866D02*
X137342476Y-111214771D01*
X137342476Y-111214771D02*
X137390095Y-111024295D01*
X137390095Y-111024295D02*
X137437714Y-110929057D01*
X137437714Y-110929057D02*
X137485333Y-110881438D01*
X137485333Y-110881438D02*
X137580571Y-110833819D01*
X80780095Y-104610819D02*
X81351523Y-104610819D01*
X81065809Y-105610819D02*
X81065809Y-104610819D01*
X81684857Y-105610819D02*
X81684857Y-104610819D01*
X81684857Y-104610819D02*
X82065809Y-104610819D01*
X82065809Y-104610819D02*
X82161047Y-104658438D01*
X82161047Y-104658438D02*
X82208666Y-104706057D01*
X82208666Y-104706057D02*
X82256285Y-104801295D01*
X82256285Y-104801295D02*
X82256285Y-104944152D01*
X82256285Y-104944152D02*
X82208666Y-105039390D01*
X82208666Y-105039390D02*
X82161047Y-105087009D01*
X82161047Y-105087009D02*
X82065809Y-105134628D01*
X82065809Y-105134628D02*
X81684857Y-105134628D01*
X82589619Y-104610819D02*
X83208666Y-104610819D01*
X83208666Y-104610819D02*
X82875333Y-104991771D01*
X82875333Y-104991771D02*
X83018190Y-104991771D01*
X83018190Y-104991771D02*
X83113428Y-105039390D01*
X83113428Y-105039390D02*
X83161047Y-105087009D01*
X83161047Y-105087009D02*
X83208666Y-105182247D01*
X83208666Y-105182247D02*
X83208666Y-105420342D01*
X83208666Y-105420342D02*
X83161047Y-105515580D01*
X83161047Y-105515580D02*
X83113428Y-105563200D01*
X83113428Y-105563200D02*
X83018190Y-105610819D01*
X83018190Y-105610819D02*
X82732476Y-105610819D01*
X82732476Y-105610819D02*
X82637238Y-105563200D01*
X82637238Y-105563200D02*
X82589619Y-105515580D01*
X137599009Y-129873333D02*
X137599009Y-130206666D01*
X138122819Y-130206666D02*
X137122819Y-130206666D01*
X137122819Y-130206666D02*
X137122819Y-129730476D01*
X138122819Y-128825714D02*
X138122819Y-129397142D01*
X138122819Y-129111428D02*
X137122819Y-129111428D01*
X137122819Y-129111428D02*
X137265676Y-129206666D01*
X137265676Y-129206666D02*
X137360914Y-129301904D01*
X137360914Y-129301904D02*
X137408533Y-129397142D01*
X102481142Y-95355580D02*
X102433523Y-95403200D01*
X102433523Y-95403200D02*
X102290666Y-95450819D01*
X102290666Y-95450819D02*
X102195428Y-95450819D01*
X102195428Y-95450819D02*
X102052571Y-95403200D01*
X102052571Y-95403200D02*
X101957333Y-95307961D01*
X101957333Y-95307961D02*
X101909714Y-95212723D01*
X101909714Y-95212723D02*
X101862095Y-95022247D01*
X101862095Y-95022247D02*
X101862095Y-94879390D01*
X101862095Y-94879390D02*
X101909714Y-94688914D01*
X101909714Y-94688914D02*
X101957333Y-94593676D01*
X101957333Y-94593676D02*
X102052571Y-94498438D01*
X102052571Y-94498438D02*
X102195428Y-94450819D01*
X102195428Y-94450819D02*
X102290666Y-94450819D01*
X102290666Y-94450819D02*
X102433523Y-94498438D01*
X102433523Y-94498438D02*
X102481142Y-94546057D01*
X103433523Y-95450819D02*
X102862095Y-95450819D01*
X103147809Y-95450819D02*
X103147809Y-94450819D01*
X103147809Y-94450819D02*
X103052571Y-94593676D01*
X103052571Y-94593676D02*
X102957333Y-94688914D01*
X102957333Y-94688914D02*
X102862095Y-94736533D01*
X104004952Y-94879390D02*
X103909714Y-94831771D01*
X103909714Y-94831771D02*
X103862095Y-94784152D01*
X103862095Y-94784152D02*
X103814476Y-94688914D01*
X103814476Y-94688914D02*
X103814476Y-94641295D01*
X103814476Y-94641295D02*
X103862095Y-94546057D01*
X103862095Y-94546057D02*
X103909714Y-94498438D01*
X103909714Y-94498438D02*
X104004952Y-94450819D01*
X104004952Y-94450819D02*
X104195428Y-94450819D01*
X104195428Y-94450819D02*
X104290666Y-94498438D01*
X104290666Y-94498438D02*
X104338285Y-94546057D01*
X104338285Y-94546057D02*
X104385904Y-94641295D01*
X104385904Y-94641295D02*
X104385904Y-94688914D01*
X104385904Y-94688914D02*
X104338285Y-94784152D01*
X104338285Y-94784152D02*
X104290666Y-94831771D01*
X104290666Y-94831771D02*
X104195428Y-94879390D01*
X104195428Y-94879390D02*
X104004952Y-94879390D01*
X104004952Y-94879390D02*
X103909714Y-94927009D01*
X103909714Y-94927009D02*
X103862095Y-94974628D01*
X103862095Y-94974628D02*
X103814476Y-95069866D01*
X103814476Y-95069866D02*
X103814476Y-95260342D01*
X103814476Y-95260342D02*
X103862095Y-95355580D01*
X103862095Y-95355580D02*
X103909714Y-95403200D01*
X103909714Y-95403200D02*
X104004952Y-95450819D01*
X104004952Y-95450819D02*
X104195428Y-95450819D01*
X104195428Y-95450819D02*
X104290666Y-95403200D01*
X104290666Y-95403200D02*
X104338285Y-95355580D01*
X104338285Y-95355580D02*
X104385904Y-95260342D01*
X104385904Y-95260342D02*
X104385904Y-95069866D01*
X104385904Y-95069866D02*
X104338285Y-94974628D01*
X104338285Y-94974628D02*
X104290666Y-94927009D01*
X104290666Y-94927009D02*
X104195428Y-94879390D01*
X142711642Y-104086819D02*
X142378309Y-103610628D01*
X142140214Y-104086819D02*
X142140214Y-103086819D01*
X142140214Y-103086819D02*
X142521166Y-103086819D01*
X142521166Y-103086819D02*
X142616404Y-103134438D01*
X142616404Y-103134438D02*
X142664023Y-103182057D01*
X142664023Y-103182057D02*
X142711642Y-103277295D01*
X142711642Y-103277295D02*
X142711642Y-103420152D01*
X142711642Y-103420152D02*
X142664023Y-103515390D01*
X142664023Y-103515390D02*
X142616404Y-103563009D01*
X142616404Y-103563009D02*
X142521166Y-103610628D01*
X142521166Y-103610628D02*
X142140214Y-103610628D01*
X143092595Y-103182057D02*
X143140214Y-103134438D01*
X143140214Y-103134438D02*
X143235452Y-103086819D01*
X143235452Y-103086819D02*
X143473547Y-103086819D01*
X143473547Y-103086819D02*
X143568785Y-103134438D01*
X143568785Y-103134438D02*
X143616404Y-103182057D01*
X143616404Y-103182057D02*
X143664023Y-103277295D01*
X143664023Y-103277295D02*
X143664023Y-103372533D01*
X143664023Y-103372533D02*
X143616404Y-103515390D01*
X143616404Y-103515390D02*
X143044976Y-104086819D01*
X143044976Y-104086819D02*
X143664023Y-104086819D01*
X144616404Y-104086819D02*
X144044976Y-104086819D01*
X144330690Y-104086819D02*
X144330690Y-103086819D01*
X144330690Y-103086819D02*
X144235452Y-103229676D01*
X144235452Y-103229676D02*
X144140214Y-103324914D01*
X144140214Y-103324914D02*
X144044976Y-103372533D01*
X74620142Y-125082819D02*
X74286809Y-124606628D01*
X74048714Y-125082819D02*
X74048714Y-124082819D01*
X74048714Y-124082819D02*
X74429666Y-124082819D01*
X74429666Y-124082819D02*
X74524904Y-124130438D01*
X74524904Y-124130438D02*
X74572523Y-124178057D01*
X74572523Y-124178057D02*
X74620142Y-124273295D01*
X74620142Y-124273295D02*
X74620142Y-124416152D01*
X74620142Y-124416152D02*
X74572523Y-124511390D01*
X74572523Y-124511390D02*
X74524904Y-124559009D01*
X74524904Y-124559009D02*
X74429666Y-124606628D01*
X74429666Y-124606628D02*
X74048714Y-124606628D01*
X74953476Y-124082819D02*
X75572523Y-124082819D01*
X75572523Y-124082819D02*
X75239190Y-124463771D01*
X75239190Y-124463771D02*
X75382047Y-124463771D01*
X75382047Y-124463771D02*
X75477285Y-124511390D01*
X75477285Y-124511390D02*
X75524904Y-124559009D01*
X75524904Y-124559009D02*
X75572523Y-124654247D01*
X75572523Y-124654247D02*
X75572523Y-124892342D01*
X75572523Y-124892342D02*
X75524904Y-124987580D01*
X75524904Y-124987580D02*
X75477285Y-125035200D01*
X75477285Y-125035200D02*
X75382047Y-125082819D01*
X75382047Y-125082819D02*
X75096333Y-125082819D01*
X75096333Y-125082819D02*
X75001095Y-125035200D01*
X75001095Y-125035200D02*
X74953476Y-124987580D01*
X76191571Y-124082819D02*
X76286809Y-124082819D01*
X76286809Y-124082819D02*
X76382047Y-124130438D01*
X76382047Y-124130438D02*
X76429666Y-124178057D01*
X76429666Y-124178057D02*
X76477285Y-124273295D01*
X76477285Y-124273295D02*
X76524904Y-124463771D01*
X76524904Y-124463771D02*
X76524904Y-124701866D01*
X76524904Y-124701866D02*
X76477285Y-124892342D01*
X76477285Y-124892342D02*
X76429666Y-124987580D01*
X76429666Y-124987580D02*
X76382047Y-125035200D01*
X76382047Y-125035200D02*
X76286809Y-125082819D01*
X76286809Y-125082819D02*
X76191571Y-125082819D01*
X76191571Y-125082819D02*
X76096333Y-125035200D01*
X76096333Y-125035200D02*
X76048714Y-124987580D01*
X76048714Y-124987580D02*
X76001095Y-124892342D01*
X76001095Y-124892342D02*
X75953476Y-124701866D01*
X75953476Y-124701866D02*
X75953476Y-124463771D01*
X75953476Y-124463771D02*
X76001095Y-124273295D01*
X76001095Y-124273295D02*
X76048714Y-124178057D01*
X76048714Y-124178057D02*
X76096333Y-124130438D01*
X76096333Y-124130438D02*
X76191571Y-124082819D01*
X74430142Y-118291319D02*
X74096809Y-117815128D01*
X73858714Y-118291319D02*
X73858714Y-117291319D01*
X73858714Y-117291319D02*
X74239666Y-117291319D01*
X74239666Y-117291319D02*
X74334904Y-117338938D01*
X74334904Y-117338938D02*
X74382523Y-117386557D01*
X74382523Y-117386557D02*
X74430142Y-117481795D01*
X74430142Y-117481795D02*
X74430142Y-117624652D01*
X74430142Y-117624652D02*
X74382523Y-117719890D01*
X74382523Y-117719890D02*
X74334904Y-117767509D01*
X74334904Y-117767509D02*
X74239666Y-117815128D01*
X74239666Y-117815128D02*
X73858714Y-117815128D01*
X74811095Y-117386557D02*
X74858714Y-117338938D01*
X74858714Y-117338938D02*
X74953952Y-117291319D01*
X74953952Y-117291319D02*
X75192047Y-117291319D01*
X75192047Y-117291319D02*
X75287285Y-117338938D01*
X75287285Y-117338938D02*
X75334904Y-117386557D01*
X75334904Y-117386557D02*
X75382523Y-117481795D01*
X75382523Y-117481795D02*
X75382523Y-117577033D01*
X75382523Y-117577033D02*
X75334904Y-117719890D01*
X75334904Y-117719890D02*
X74763476Y-118291319D01*
X74763476Y-118291319D02*
X75382523Y-118291319D01*
X75858714Y-118291319D02*
X76049190Y-118291319D01*
X76049190Y-118291319D02*
X76144428Y-118243700D01*
X76144428Y-118243700D02*
X76192047Y-118196080D01*
X76192047Y-118196080D02*
X76287285Y-118053223D01*
X76287285Y-118053223D02*
X76334904Y-117862747D01*
X76334904Y-117862747D02*
X76334904Y-117481795D01*
X76334904Y-117481795D02*
X76287285Y-117386557D01*
X76287285Y-117386557D02*
X76239666Y-117338938D01*
X76239666Y-117338938D02*
X76144428Y-117291319D01*
X76144428Y-117291319D02*
X75953952Y-117291319D01*
X75953952Y-117291319D02*
X75858714Y-117338938D01*
X75858714Y-117338938D02*
X75811095Y-117386557D01*
X75811095Y-117386557D02*
X75763476Y-117481795D01*
X75763476Y-117481795D02*
X75763476Y-117719890D01*
X75763476Y-117719890D02*
X75811095Y-117815128D01*
X75811095Y-117815128D02*
X75858714Y-117862747D01*
X75858714Y-117862747D02*
X75953952Y-117910366D01*
X75953952Y-117910366D02*
X76144428Y-117910366D01*
X76144428Y-117910366D02*
X76239666Y-117862747D01*
X76239666Y-117862747D02*
X76287285Y-117815128D01*
X76287285Y-117815128D02*
X76334904Y-117719890D01*
X125422819Y-130278094D02*
X124422819Y-130278094D01*
X124422819Y-130278094D02*
X124422819Y-130039999D01*
X124422819Y-130039999D02*
X124470438Y-129897142D01*
X124470438Y-129897142D02*
X124565676Y-129801904D01*
X124565676Y-129801904D02*
X124660914Y-129754285D01*
X124660914Y-129754285D02*
X124851390Y-129706666D01*
X124851390Y-129706666D02*
X124994247Y-129706666D01*
X124994247Y-129706666D02*
X125184723Y-129754285D01*
X125184723Y-129754285D02*
X125279961Y-129801904D01*
X125279961Y-129801904D02*
X125375200Y-129897142D01*
X125375200Y-129897142D02*
X125422819Y-130039999D01*
X125422819Y-130039999D02*
X125422819Y-130278094D01*
X124422819Y-128801904D02*
X124422819Y-129278094D01*
X124422819Y-129278094D02*
X124899009Y-129325713D01*
X124899009Y-129325713D02*
X124851390Y-129278094D01*
X124851390Y-129278094D02*
X124803771Y-129182856D01*
X124803771Y-129182856D02*
X124803771Y-128944761D01*
X124803771Y-128944761D02*
X124851390Y-128849523D01*
X124851390Y-128849523D02*
X124899009Y-128801904D01*
X124899009Y-128801904D02*
X124994247Y-128754285D01*
X124994247Y-128754285D02*
X125232342Y-128754285D01*
X125232342Y-128754285D02*
X125327580Y-128801904D01*
X125327580Y-128801904D02*
X125375200Y-128849523D01*
X125375200Y-128849523D02*
X125422819Y-128944761D01*
X125422819Y-128944761D02*
X125422819Y-129182856D01*
X125422819Y-129182856D02*
X125375200Y-129278094D01*
X125375200Y-129278094D02*
X125327580Y-129325713D01*
X86973580Y-127896857D02*
X87021200Y-127944476D01*
X87021200Y-127944476D02*
X87068819Y-128087333D01*
X87068819Y-128087333D02*
X87068819Y-128182571D01*
X87068819Y-128182571D02*
X87021200Y-128325428D01*
X87021200Y-128325428D02*
X86925961Y-128420666D01*
X86925961Y-128420666D02*
X86830723Y-128468285D01*
X86830723Y-128468285D02*
X86640247Y-128515904D01*
X86640247Y-128515904D02*
X86497390Y-128515904D01*
X86497390Y-128515904D02*
X86306914Y-128468285D01*
X86306914Y-128468285D02*
X86211676Y-128420666D01*
X86211676Y-128420666D02*
X86116438Y-128325428D01*
X86116438Y-128325428D02*
X86068819Y-128182571D01*
X86068819Y-128182571D02*
X86068819Y-128087333D01*
X86068819Y-128087333D02*
X86116438Y-127944476D01*
X86116438Y-127944476D02*
X86164057Y-127896857D01*
X87068819Y-126944476D02*
X87068819Y-127515904D01*
X87068819Y-127230190D02*
X86068819Y-127230190D01*
X86068819Y-127230190D02*
X86211676Y-127325428D01*
X86211676Y-127325428D02*
X86306914Y-127420666D01*
X86306914Y-127420666D02*
X86354533Y-127515904D01*
X86402152Y-126087333D02*
X87068819Y-126087333D01*
X86021200Y-126325428D02*
X86735485Y-126563523D01*
X86735485Y-126563523D02*
X86735485Y-125944476D01*
X73368819Y-122253333D02*
X74083104Y-122253333D01*
X74083104Y-122253333D02*
X74225961Y-122300952D01*
X74225961Y-122300952D02*
X74321200Y-122396190D01*
X74321200Y-122396190D02*
X74368819Y-122539047D01*
X74368819Y-122539047D02*
X74368819Y-122634285D01*
X73368819Y-121872380D02*
X73368819Y-121205714D01*
X73368819Y-121205714D02*
X74368819Y-121634285D01*
X136081650Y-129937782D02*
X135605459Y-130271115D01*
X136081650Y-130509210D02*
X135081650Y-130509210D01*
X135081650Y-130509210D02*
X135081650Y-130128258D01*
X135081650Y-130128258D02*
X135129269Y-130033020D01*
X135129269Y-130033020D02*
X135176888Y-129985401D01*
X135176888Y-129985401D02*
X135272126Y-129937782D01*
X135272126Y-129937782D02*
X135414983Y-129937782D01*
X135414983Y-129937782D02*
X135510221Y-129985401D01*
X135510221Y-129985401D02*
X135557840Y-130033020D01*
X135557840Y-130033020D02*
X135605459Y-130128258D01*
X135605459Y-130128258D02*
X135605459Y-130509210D01*
X135510221Y-129366353D02*
X135462602Y-129461591D01*
X135462602Y-129461591D02*
X135414983Y-129509210D01*
X135414983Y-129509210D02*
X135319745Y-129556829D01*
X135319745Y-129556829D02*
X135272126Y-129556829D01*
X135272126Y-129556829D02*
X135176888Y-129509210D01*
X135176888Y-129509210D02*
X135129269Y-129461591D01*
X135129269Y-129461591D02*
X135081650Y-129366353D01*
X135081650Y-129366353D02*
X135081650Y-129175877D01*
X135081650Y-129175877D02*
X135129269Y-129080639D01*
X135129269Y-129080639D02*
X135176888Y-129033020D01*
X135176888Y-129033020D02*
X135272126Y-128985401D01*
X135272126Y-128985401D02*
X135319745Y-128985401D01*
X135319745Y-128985401D02*
X135414983Y-129033020D01*
X135414983Y-129033020D02*
X135462602Y-129080639D01*
X135462602Y-129080639D02*
X135510221Y-129175877D01*
X135510221Y-129175877D02*
X135510221Y-129366353D01*
X135510221Y-129366353D02*
X135557840Y-129461591D01*
X135557840Y-129461591D02*
X135605459Y-129509210D01*
X135605459Y-129509210D02*
X135700697Y-129556829D01*
X135700697Y-129556829D02*
X135891173Y-129556829D01*
X135891173Y-129556829D02*
X135986411Y-129509210D01*
X135986411Y-129509210D02*
X136034031Y-129461591D01*
X136034031Y-129461591D02*
X136081650Y-129366353D01*
X136081650Y-129366353D02*
X136081650Y-129175877D01*
X136081650Y-129175877D02*
X136034031Y-129080639D01*
X136034031Y-129080639D02*
X135986411Y-129033020D01*
X135986411Y-129033020D02*
X135891173Y-128985401D01*
X135891173Y-128985401D02*
X135700697Y-128985401D01*
X135700697Y-128985401D02*
X135605459Y-129033020D01*
X135605459Y-129033020D02*
X135557840Y-129080639D01*
X135557840Y-129080639D02*
X135510221Y-129175877D01*
X129794095Y-119596819D02*
X129794095Y-120406342D01*
X129794095Y-120406342D02*
X129841714Y-120501580D01*
X129841714Y-120501580D02*
X129889333Y-120549200D01*
X129889333Y-120549200D02*
X129984571Y-120596819D01*
X129984571Y-120596819D02*
X130175047Y-120596819D01*
X130175047Y-120596819D02*
X130270285Y-120549200D01*
X130270285Y-120549200D02*
X130317904Y-120501580D01*
X130317904Y-120501580D02*
X130365523Y-120406342D01*
X130365523Y-120406342D02*
X130365523Y-119596819D01*
X130746476Y-119596819D02*
X131365523Y-119596819D01*
X131365523Y-119596819D02*
X131032190Y-119977771D01*
X131032190Y-119977771D02*
X131175047Y-119977771D01*
X131175047Y-119977771D02*
X131270285Y-120025390D01*
X131270285Y-120025390D02*
X131317904Y-120073009D01*
X131317904Y-120073009D02*
X131365523Y-120168247D01*
X131365523Y-120168247D02*
X131365523Y-120406342D01*
X131365523Y-120406342D02*
X131317904Y-120501580D01*
X131317904Y-120501580D02*
X131270285Y-120549200D01*
X131270285Y-120549200D02*
X131175047Y-120596819D01*
X131175047Y-120596819D02*
X130889333Y-120596819D01*
X130889333Y-120596819D02*
X130794095Y-120549200D01*
X130794095Y-120549200D02*
X130746476Y-120501580D01*
X144105333Y-112627580D02*
X144057714Y-112675200D01*
X144057714Y-112675200D02*
X143914857Y-112722819D01*
X143914857Y-112722819D02*
X143819619Y-112722819D01*
X143819619Y-112722819D02*
X143676762Y-112675200D01*
X143676762Y-112675200D02*
X143581524Y-112579961D01*
X143581524Y-112579961D02*
X143533905Y-112484723D01*
X143533905Y-112484723D02*
X143486286Y-112294247D01*
X143486286Y-112294247D02*
X143486286Y-112151390D01*
X143486286Y-112151390D02*
X143533905Y-111960914D01*
X143533905Y-111960914D02*
X143581524Y-111865676D01*
X143581524Y-111865676D02*
X143676762Y-111770438D01*
X143676762Y-111770438D02*
X143819619Y-111722819D01*
X143819619Y-111722819D02*
X143914857Y-111722819D01*
X143914857Y-111722819D02*
X144057714Y-111770438D01*
X144057714Y-111770438D02*
X144105333Y-111818057D01*
X144438667Y-111722819D02*
X145057714Y-111722819D01*
X145057714Y-111722819D02*
X144724381Y-112103771D01*
X144724381Y-112103771D02*
X144867238Y-112103771D01*
X144867238Y-112103771D02*
X144962476Y-112151390D01*
X144962476Y-112151390D02*
X145010095Y-112199009D01*
X145010095Y-112199009D02*
X145057714Y-112294247D01*
X145057714Y-112294247D02*
X145057714Y-112532342D01*
X145057714Y-112532342D02*
X145010095Y-112627580D01*
X145010095Y-112627580D02*
X144962476Y-112675200D01*
X144962476Y-112675200D02*
X144867238Y-112722819D01*
X144867238Y-112722819D02*
X144581524Y-112722819D01*
X144581524Y-112722819D02*
X144486286Y-112675200D01*
X144486286Y-112675200D02*
X144438667Y-112627580D01*
X145139580Y-127314602D02*
X145187200Y-127362221D01*
X145187200Y-127362221D02*
X145234819Y-127505078D01*
X145234819Y-127505078D02*
X145234819Y-127600316D01*
X145234819Y-127600316D02*
X145187200Y-127743173D01*
X145187200Y-127743173D02*
X145091961Y-127838411D01*
X145091961Y-127838411D02*
X144996723Y-127886030D01*
X144996723Y-127886030D02*
X144806247Y-127933649D01*
X144806247Y-127933649D02*
X144663390Y-127933649D01*
X144663390Y-127933649D02*
X144472914Y-127886030D01*
X144472914Y-127886030D02*
X144377676Y-127838411D01*
X144377676Y-127838411D02*
X144282438Y-127743173D01*
X144282438Y-127743173D02*
X144234819Y-127600316D01*
X144234819Y-127600316D02*
X144234819Y-127505078D01*
X144234819Y-127505078D02*
X144282438Y-127362221D01*
X144282438Y-127362221D02*
X144330057Y-127314602D01*
X144234819Y-126457459D02*
X144234819Y-126647935D01*
X144234819Y-126647935D02*
X144282438Y-126743173D01*
X144282438Y-126743173D02*
X144330057Y-126790792D01*
X144330057Y-126790792D02*
X144472914Y-126886030D01*
X144472914Y-126886030D02*
X144663390Y-126933649D01*
X144663390Y-126933649D02*
X145044342Y-126933649D01*
X145044342Y-126933649D02*
X145139580Y-126886030D01*
X145139580Y-126886030D02*
X145187200Y-126838411D01*
X145187200Y-126838411D02*
X145234819Y-126743173D01*
X145234819Y-126743173D02*
X145234819Y-126552697D01*
X145234819Y-126552697D02*
X145187200Y-126457459D01*
X145187200Y-126457459D02*
X145139580Y-126409840D01*
X145139580Y-126409840D02*
X145044342Y-126362221D01*
X145044342Y-126362221D02*
X144806247Y-126362221D01*
X144806247Y-126362221D02*
X144711009Y-126409840D01*
X144711009Y-126409840D02*
X144663390Y-126457459D01*
X144663390Y-126457459D02*
X144615771Y-126552697D01*
X144615771Y-126552697D02*
X144615771Y-126743173D01*
X144615771Y-126743173D02*
X144663390Y-126838411D01*
X144663390Y-126838411D02*
X144711009Y-126886030D01*
X144711009Y-126886030D02*
X144806247Y-126933649D01*
X70477142Y-103832819D02*
X70143809Y-103356628D01*
X69905714Y-103832819D02*
X69905714Y-102832819D01*
X69905714Y-102832819D02*
X70286666Y-102832819D01*
X70286666Y-102832819D02*
X70381904Y-102880438D01*
X70381904Y-102880438D02*
X70429523Y-102928057D01*
X70429523Y-102928057D02*
X70477142Y-103023295D01*
X70477142Y-103023295D02*
X70477142Y-103166152D01*
X70477142Y-103166152D02*
X70429523Y-103261390D01*
X70429523Y-103261390D02*
X70381904Y-103309009D01*
X70381904Y-103309009D02*
X70286666Y-103356628D01*
X70286666Y-103356628D02*
X69905714Y-103356628D01*
X71429523Y-103832819D02*
X70858095Y-103832819D01*
X71143809Y-103832819D02*
X71143809Y-102832819D01*
X71143809Y-102832819D02*
X71048571Y-102975676D01*
X71048571Y-102975676D02*
X70953333Y-103070914D01*
X70953333Y-103070914D02*
X70858095Y-103118533D01*
X72381904Y-103832819D02*
X71810476Y-103832819D01*
X72096190Y-103832819D02*
X72096190Y-102832819D01*
X72096190Y-102832819D02*
X72000952Y-102975676D01*
X72000952Y-102975676D02*
X71905714Y-103070914D01*
X71905714Y-103070914D02*
X71810476Y-103118533D01*
X136993333Y-117707580D02*
X136945714Y-117755200D01*
X136945714Y-117755200D02*
X136802857Y-117802819D01*
X136802857Y-117802819D02*
X136707619Y-117802819D01*
X136707619Y-117802819D02*
X136564762Y-117755200D01*
X136564762Y-117755200D02*
X136469524Y-117659961D01*
X136469524Y-117659961D02*
X136421905Y-117564723D01*
X136421905Y-117564723D02*
X136374286Y-117374247D01*
X136374286Y-117374247D02*
X136374286Y-117231390D01*
X136374286Y-117231390D02*
X136421905Y-117040914D01*
X136421905Y-117040914D02*
X136469524Y-116945676D01*
X136469524Y-116945676D02*
X136564762Y-116850438D01*
X136564762Y-116850438D02*
X136707619Y-116802819D01*
X136707619Y-116802819D02*
X136802857Y-116802819D01*
X136802857Y-116802819D02*
X136945714Y-116850438D01*
X136945714Y-116850438D02*
X136993333Y-116898057D01*
X137564762Y-117231390D02*
X137469524Y-117183771D01*
X137469524Y-117183771D02*
X137421905Y-117136152D01*
X137421905Y-117136152D02*
X137374286Y-117040914D01*
X137374286Y-117040914D02*
X137374286Y-116993295D01*
X137374286Y-116993295D02*
X137421905Y-116898057D01*
X137421905Y-116898057D02*
X137469524Y-116850438D01*
X137469524Y-116850438D02*
X137564762Y-116802819D01*
X137564762Y-116802819D02*
X137755238Y-116802819D01*
X137755238Y-116802819D02*
X137850476Y-116850438D01*
X137850476Y-116850438D02*
X137898095Y-116898057D01*
X137898095Y-116898057D02*
X137945714Y-116993295D01*
X137945714Y-116993295D02*
X137945714Y-117040914D01*
X137945714Y-117040914D02*
X137898095Y-117136152D01*
X137898095Y-117136152D02*
X137850476Y-117183771D01*
X137850476Y-117183771D02*
X137755238Y-117231390D01*
X137755238Y-117231390D02*
X137564762Y-117231390D01*
X137564762Y-117231390D02*
X137469524Y-117279009D01*
X137469524Y-117279009D02*
X137421905Y-117326628D01*
X137421905Y-117326628D02*
X137374286Y-117421866D01*
X137374286Y-117421866D02*
X137374286Y-117612342D01*
X137374286Y-117612342D02*
X137421905Y-117707580D01*
X137421905Y-117707580D02*
X137469524Y-117755200D01*
X137469524Y-117755200D02*
X137564762Y-117802819D01*
X137564762Y-117802819D02*
X137755238Y-117802819D01*
X137755238Y-117802819D02*
X137850476Y-117755200D01*
X137850476Y-117755200D02*
X137898095Y-117707580D01*
X137898095Y-117707580D02*
X137945714Y-117612342D01*
X137945714Y-117612342D02*
X137945714Y-117421866D01*
X137945714Y-117421866D02*
X137898095Y-117326628D01*
X137898095Y-117326628D02*
X137850476Y-117279009D01*
X137850476Y-117279009D02*
X137755238Y-117231390D01*
X130389333Y-117548819D02*
X130056000Y-117072628D01*
X129817905Y-117548819D02*
X129817905Y-116548819D01*
X129817905Y-116548819D02*
X130198857Y-116548819D01*
X130198857Y-116548819D02*
X130294095Y-116596438D01*
X130294095Y-116596438D02*
X130341714Y-116644057D01*
X130341714Y-116644057D02*
X130389333Y-116739295D01*
X130389333Y-116739295D02*
X130389333Y-116882152D01*
X130389333Y-116882152D02*
X130341714Y-116977390D01*
X130341714Y-116977390D02*
X130294095Y-117025009D01*
X130294095Y-117025009D02*
X130198857Y-117072628D01*
X130198857Y-117072628D02*
X129817905Y-117072628D01*
X130722667Y-116548819D02*
X131389333Y-116548819D01*
X131389333Y-116548819D02*
X130960762Y-117548819D01*
X80350580Y-128064857D02*
X80398200Y-128112476D01*
X80398200Y-128112476D02*
X80445819Y-128255333D01*
X80445819Y-128255333D02*
X80445819Y-128350571D01*
X80445819Y-128350571D02*
X80398200Y-128493428D01*
X80398200Y-128493428D02*
X80302961Y-128588666D01*
X80302961Y-128588666D02*
X80207723Y-128636285D01*
X80207723Y-128636285D02*
X80017247Y-128683904D01*
X80017247Y-128683904D02*
X79874390Y-128683904D01*
X79874390Y-128683904D02*
X79683914Y-128636285D01*
X79683914Y-128636285D02*
X79588676Y-128588666D01*
X79588676Y-128588666D02*
X79493438Y-128493428D01*
X79493438Y-128493428D02*
X79445819Y-128350571D01*
X79445819Y-128350571D02*
X79445819Y-128255333D01*
X79445819Y-128255333D02*
X79493438Y-128112476D01*
X79493438Y-128112476D02*
X79541057Y-128064857D01*
X80445819Y-127112476D02*
X80445819Y-127683904D01*
X80445819Y-127398190D02*
X79445819Y-127398190D01*
X79445819Y-127398190D02*
X79588676Y-127493428D01*
X79588676Y-127493428D02*
X79683914Y-127588666D01*
X79683914Y-127588666D02*
X79731533Y-127683904D01*
X79541057Y-126731523D02*
X79493438Y-126683904D01*
X79493438Y-126683904D02*
X79445819Y-126588666D01*
X79445819Y-126588666D02*
X79445819Y-126350571D01*
X79445819Y-126350571D02*
X79493438Y-126255333D01*
X79493438Y-126255333D02*
X79541057Y-126207714D01*
X79541057Y-126207714D02*
X79636295Y-126160095D01*
X79636295Y-126160095D02*
X79731533Y-126160095D01*
X79731533Y-126160095D02*
X79874390Y-126207714D01*
X79874390Y-126207714D02*
X80445819Y-126779142D01*
X80445819Y-126779142D02*
X80445819Y-126160095D01*
X142784642Y-110182819D02*
X142451309Y-109706628D01*
X142213214Y-110182819D02*
X142213214Y-109182819D01*
X142213214Y-109182819D02*
X142594166Y-109182819D01*
X142594166Y-109182819D02*
X142689404Y-109230438D01*
X142689404Y-109230438D02*
X142737023Y-109278057D01*
X142737023Y-109278057D02*
X142784642Y-109373295D01*
X142784642Y-109373295D02*
X142784642Y-109516152D01*
X142784642Y-109516152D02*
X142737023Y-109611390D01*
X142737023Y-109611390D02*
X142689404Y-109659009D01*
X142689404Y-109659009D02*
X142594166Y-109706628D01*
X142594166Y-109706628D02*
X142213214Y-109706628D01*
X143165595Y-109278057D02*
X143213214Y-109230438D01*
X143213214Y-109230438D02*
X143308452Y-109182819D01*
X143308452Y-109182819D02*
X143546547Y-109182819D01*
X143546547Y-109182819D02*
X143641785Y-109230438D01*
X143641785Y-109230438D02*
X143689404Y-109278057D01*
X143689404Y-109278057D02*
X143737023Y-109373295D01*
X143737023Y-109373295D02*
X143737023Y-109468533D01*
X143737023Y-109468533D02*
X143689404Y-109611390D01*
X143689404Y-109611390D02*
X143117976Y-110182819D01*
X143117976Y-110182819D02*
X143737023Y-110182819D01*
X144308452Y-109611390D02*
X144213214Y-109563771D01*
X144213214Y-109563771D02*
X144165595Y-109516152D01*
X144165595Y-109516152D02*
X144117976Y-109420914D01*
X144117976Y-109420914D02*
X144117976Y-109373295D01*
X144117976Y-109373295D02*
X144165595Y-109278057D01*
X144165595Y-109278057D02*
X144213214Y-109230438D01*
X144213214Y-109230438D02*
X144308452Y-109182819D01*
X144308452Y-109182819D02*
X144498928Y-109182819D01*
X144498928Y-109182819D02*
X144594166Y-109230438D01*
X144594166Y-109230438D02*
X144641785Y-109278057D01*
X144641785Y-109278057D02*
X144689404Y-109373295D01*
X144689404Y-109373295D02*
X144689404Y-109420914D01*
X144689404Y-109420914D02*
X144641785Y-109516152D01*
X144641785Y-109516152D02*
X144594166Y-109563771D01*
X144594166Y-109563771D02*
X144498928Y-109611390D01*
X144498928Y-109611390D02*
X144308452Y-109611390D01*
X144308452Y-109611390D02*
X144213214Y-109659009D01*
X144213214Y-109659009D02*
X144165595Y-109706628D01*
X144165595Y-109706628D02*
X144117976Y-109801866D01*
X144117976Y-109801866D02*
X144117976Y-109992342D01*
X144117976Y-109992342D02*
X144165595Y-110087580D01*
X144165595Y-110087580D02*
X144213214Y-110135200D01*
X144213214Y-110135200D02*
X144308452Y-110182819D01*
X144308452Y-110182819D02*
X144498928Y-110182819D01*
X144498928Y-110182819D02*
X144594166Y-110135200D01*
X144594166Y-110135200D02*
X144641785Y-110087580D01*
X144641785Y-110087580D02*
X144689404Y-109992342D01*
X144689404Y-109992342D02*
X144689404Y-109801866D01*
X144689404Y-109801866D02*
X144641785Y-109706628D01*
X144641785Y-109706628D02*
X144594166Y-109659009D01*
X144594166Y-109659009D02*
X144498928Y-109611390D01*
X146689405Y-104254819D02*
X146689405Y-103254819D01*
X146689405Y-103254819D02*
X146927500Y-103254819D01*
X146927500Y-103254819D02*
X147070357Y-103302438D01*
X147070357Y-103302438D02*
X147165595Y-103397676D01*
X147165595Y-103397676D02*
X147213214Y-103492914D01*
X147213214Y-103492914D02*
X147260833Y-103683390D01*
X147260833Y-103683390D02*
X147260833Y-103826247D01*
X147260833Y-103826247D02*
X147213214Y-104016723D01*
X147213214Y-104016723D02*
X147165595Y-104111961D01*
X147165595Y-104111961D02*
X147070357Y-104207200D01*
X147070357Y-104207200D02*
X146927500Y-104254819D01*
X146927500Y-104254819D02*
X146689405Y-104254819D01*
X147594167Y-103254819D02*
X148260833Y-103254819D01*
X148260833Y-103254819D02*
X147832262Y-104254819D01*
X101758761Y-104436057D02*
X101663523Y-104388438D01*
X101663523Y-104388438D02*
X101568285Y-104293200D01*
X101568285Y-104293200D02*
X101425428Y-104150342D01*
X101425428Y-104150342D02*
X101330190Y-104102723D01*
X101330190Y-104102723D02*
X101234952Y-104102723D01*
X101282571Y-104340819D02*
X101187333Y-104293200D01*
X101187333Y-104293200D02*
X101092095Y-104197961D01*
X101092095Y-104197961D02*
X101044476Y-104007485D01*
X101044476Y-104007485D02*
X101044476Y-103674152D01*
X101044476Y-103674152D02*
X101092095Y-103483676D01*
X101092095Y-103483676D02*
X101187333Y-103388438D01*
X101187333Y-103388438D02*
X101282571Y-103340819D01*
X101282571Y-103340819D02*
X101473047Y-103340819D01*
X101473047Y-103340819D02*
X101568285Y-103388438D01*
X101568285Y-103388438D02*
X101663523Y-103483676D01*
X101663523Y-103483676D02*
X101711142Y-103674152D01*
X101711142Y-103674152D02*
X101711142Y-104007485D01*
X101711142Y-104007485D02*
X101663523Y-104197961D01*
X101663523Y-104197961D02*
X101568285Y-104293200D01*
X101568285Y-104293200D02*
X101473047Y-104340819D01*
X101473047Y-104340819D02*
X101282571Y-104340819D01*
X102092095Y-103436057D02*
X102139714Y-103388438D01*
X102139714Y-103388438D02*
X102234952Y-103340819D01*
X102234952Y-103340819D02*
X102473047Y-103340819D01*
X102473047Y-103340819D02*
X102568285Y-103388438D01*
X102568285Y-103388438D02*
X102615904Y-103436057D01*
X102615904Y-103436057D02*
X102663523Y-103531295D01*
X102663523Y-103531295D02*
X102663523Y-103626533D01*
X102663523Y-103626533D02*
X102615904Y-103769390D01*
X102615904Y-103769390D02*
X102044476Y-104340819D01*
X102044476Y-104340819D02*
X102663523Y-104340819D01*
X115421580Y-95130857D02*
X115469200Y-95178476D01*
X115469200Y-95178476D02*
X115516819Y-95321333D01*
X115516819Y-95321333D02*
X115516819Y-95416571D01*
X115516819Y-95416571D02*
X115469200Y-95559428D01*
X115469200Y-95559428D02*
X115373961Y-95654666D01*
X115373961Y-95654666D02*
X115278723Y-95702285D01*
X115278723Y-95702285D02*
X115088247Y-95749904D01*
X115088247Y-95749904D02*
X114945390Y-95749904D01*
X114945390Y-95749904D02*
X114754914Y-95702285D01*
X114754914Y-95702285D02*
X114659676Y-95654666D01*
X114659676Y-95654666D02*
X114564438Y-95559428D01*
X114564438Y-95559428D02*
X114516819Y-95416571D01*
X114516819Y-95416571D02*
X114516819Y-95321333D01*
X114516819Y-95321333D02*
X114564438Y-95178476D01*
X114564438Y-95178476D02*
X114612057Y-95130857D01*
X114612057Y-94749904D02*
X114564438Y-94702285D01*
X114564438Y-94702285D02*
X114516819Y-94607047D01*
X114516819Y-94607047D02*
X114516819Y-94368952D01*
X114516819Y-94368952D02*
X114564438Y-94273714D01*
X114564438Y-94273714D02*
X114612057Y-94226095D01*
X114612057Y-94226095D02*
X114707295Y-94178476D01*
X114707295Y-94178476D02*
X114802533Y-94178476D01*
X114802533Y-94178476D02*
X114945390Y-94226095D01*
X114945390Y-94226095D02*
X115516819Y-94797523D01*
X115516819Y-94797523D02*
X115516819Y-94178476D01*
X115516819Y-93226095D02*
X115516819Y-93797523D01*
X115516819Y-93511809D02*
X114516819Y-93511809D01*
X114516819Y-93511809D02*
X114659676Y-93607047D01*
X114659676Y-93607047D02*
X114754914Y-93702285D01*
X114754914Y-93702285D02*
X114802533Y-93797523D01*
X103044204Y-120866075D02*
X103044204Y-121581350D01*
X103044204Y-121581350D02*
X102996519Y-121724405D01*
X102996519Y-121724405D02*
X102901149Y-121819776D01*
X102901149Y-121819776D02*
X102758094Y-121867461D01*
X102758094Y-121867461D02*
X102662724Y-121867461D01*
X103473370Y-120961445D02*
X103521055Y-120913760D01*
X103521055Y-120913760D02*
X103616425Y-120866075D01*
X103616425Y-120866075D02*
X103854850Y-120866075D01*
X103854850Y-120866075D02*
X103950220Y-120913760D01*
X103950220Y-120913760D02*
X103997905Y-120961445D01*
X103997905Y-120961445D02*
X104045590Y-121056815D01*
X104045590Y-121056815D02*
X104045590Y-121152185D01*
X104045590Y-121152185D02*
X103997905Y-121295240D01*
X103997905Y-121295240D02*
X103425685Y-121867461D01*
X103425685Y-121867461D02*
X104045590Y-121867461D01*
X89781142Y-95355580D02*
X89733523Y-95403200D01*
X89733523Y-95403200D02*
X89590666Y-95450819D01*
X89590666Y-95450819D02*
X89495428Y-95450819D01*
X89495428Y-95450819D02*
X89352571Y-95403200D01*
X89352571Y-95403200D02*
X89257333Y-95307961D01*
X89257333Y-95307961D02*
X89209714Y-95212723D01*
X89209714Y-95212723D02*
X89162095Y-95022247D01*
X89162095Y-95022247D02*
X89162095Y-94879390D01*
X89162095Y-94879390D02*
X89209714Y-94688914D01*
X89209714Y-94688914D02*
X89257333Y-94593676D01*
X89257333Y-94593676D02*
X89352571Y-94498438D01*
X89352571Y-94498438D02*
X89495428Y-94450819D01*
X89495428Y-94450819D02*
X89590666Y-94450819D01*
X89590666Y-94450819D02*
X89733523Y-94498438D01*
X89733523Y-94498438D02*
X89781142Y-94546057D01*
X90162095Y-94546057D02*
X90209714Y-94498438D01*
X90209714Y-94498438D02*
X90304952Y-94450819D01*
X90304952Y-94450819D02*
X90543047Y-94450819D01*
X90543047Y-94450819D02*
X90638285Y-94498438D01*
X90638285Y-94498438D02*
X90685904Y-94546057D01*
X90685904Y-94546057D02*
X90733523Y-94641295D01*
X90733523Y-94641295D02*
X90733523Y-94736533D01*
X90733523Y-94736533D02*
X90685904Y-94879390D01*
X90685904Y-94879390D02*
X90114476Y-95450819D01*
X90114476Y-95450819D02*
X90733523Y-95450819D01*
X91352571Y-94450819D02*
X91447809Y-94450819D01*
X91447809Y-94450819D02*
X91543047Y-94498438D01*
X91543047Y-94498438D02*
X91590666Y-94546057D01*
X91590666Y-94546057D02*
X91638285Y-94641295D01*
X91638285Y-94641295D02*
X91685904Y-94831771D01*
X91685904Y-94831771D02*
X91685904Y-95069866D01*
X91685904Y-95069866D02*
X91638285Y-95260342D01*
X91638285Y-95260342D02*
X91590666Y-95355580D01*
X91590666Y-95355580D02*
X91543047Y-95403200D01*
X91543047Y-95403200D02*
X91447809Y-95450819D01*
X91447809Y-95450819D02*
X91352571Y-95450819D01*
X91352571Y-95450819D02*
X91257333Y-95403200D01*
X91257333Y-95403200D02*
X91209714Y-95355580D01*
X91209714Y-95355580D02*
X91162095Y-95260342D01*
X91162095Y-95260342D02*
X91114476Y-95069866D01*
X91114476Y-95069866D02*
X91114476Y-94831771D01*
X91114476Y-94831771D02*
X91162095Y-94641295D01*
X91162095Y-94641295D02*
X91209714Y-94546057D01*
X91209714Y-94546057D02*
X91257333Y-94498438D01*
X91257333Y-94498438D02*
X91352571Y-94450819D01*
X132056363Y-129899537D02*
X131580172Y-130232870D01*
X132056363Y-130470965D02*
X131056363Y-130470965D01*
X131056363Y-130470965D02*
X131056363Y-130090013D01*
X131056363Y-130090013D02*
X131103982Y-129994775D01*
X131103982Y-129994775D02*
X131151601Y-129947156D01*
X131151601Y-129947156D02*
X131246839Y-129899537D01*
X131246839Y-129899537D02*
X131389696Y-129899537D01*
X131389696Y-129899537D02*
X131484934Y-129947156D01*
X131484934Y-129947156D02*
X131532553Y-129994775D01*
X131532553Y-129994775D02*
X131580172Y-130090013D01*
X131580172Y-130090013D02*
X131580172Y-130470965D01*
X132056363Y-129423346D02*
X132056363Y-129232870D01*
X132056363Y-129232870D02*
X132008744Y-129137632D01*
X132008744Y-129137632D02*
X131961124Y-129090013D01*
X131961124Y-129090013D02*
X131818267Y-128994775D01*
X131818267Y-128994775D02*
X131627791Y-128947156D01*
X131627791Y-128947156D02*
X131246839Y-128947156D01*
X131246839Y-128947156D02*
X131151601Y-128994775D01*
X131151601Y-128994775D02*
X131103982Y-129042394D01*
X131103982Y-129042394D02*
X131056363Y-129137632D01*
X131056363Y-129137632D02*
X131056363Y-129328108D01*
X131056363Y-129328108D02*
X131103982Y-129423346D01*
X131103982Y-129423346D02*
X131151601Y-129470965D01*
X131151601Y-129470965D02*
X131246839Y-129518584D01*
X131246839Y-129518584D02*
X131484934Y-129518584D01*
X131484934Y-129518584D02*
X131580172Y-129470965D01*
X131580172Y-129470965D02*
X131627791Y-129423346D01*
X131627791Y-129423346D02*
X131675410Y-129328108D01*
X131675410Y-129328108D02*
X131675410Y-129137632D01*
X131675410Y-129137632D02*
X131627791Y-129042394D01*
X131627791Y-129042394D02*
X131580172Y-128994775D01*
X131580172Y-128994775D02*
X131484934Y-128947156D01*
D13*
%TO.C,R23*%
X99341000Y-98525064D02*
X99341000Y-98070936D01*
X100811000Y-98525064D02*
X100811000Y-98070936D01*
%TO.C,U6*%
X115562000Y-116850000D02*
X116287000Y-116850000D01*
X115562000Y-117575000D02*
X115562000Y-116850000D01*
X115562000Y-121070000D02*
X115562000Y-120345000D01*
X116287000Y-121070000D02*
X115562000Y-121070000D01*
X119057000Y-116850000D02*
X119782000Y-116850000D01*
X119782000Y-116850000D02*
X119782000Y-117575000D01*
X119782000Y-120345000D02*
X119782000Y-121070000D01*
X119782000Y-121070000D02*
X119057000Y-121070000D01*
X115062000Y-117960000D02*
X114732000Y-118200000D01*
X114732000Y-117720000D01*
X115062000Y-117960000D01*
G36*
X115062000Y-117960000D02*
G01*
X114732000Y-118200000D01*
X114732000Y-117720000D01*
X115062000Y-117960000D01*
G37*
%TO.C,R6*%
X131815064Y-110803000D02*
X131360936Y-110803000D01*
X131815064Y-112273000D02*
X131360936Y-112273000D01*
%TO.C,C7*%
X131849252Y-108803000D02*
X131326748Y-108803000D01*
X131849252Y-110273000D02*
X131326748Y-110273000D01*
%TO.C,C17*%
X68268000Y-94599252D02*
X68268000Y-94076748D01*
X69738000Y-94599252D02*
X69738000Y-94076748D01*
D14*
%TO.C,C16*%
X88173998Y-123556000D02*
X88173998Y-124696000D01*
X89973998Y-123556000D02*
X89973998Y-124696000D01*
D13*
%TO.C,R20*%
X117374936Y-105691000D02*
X117829064Y-105691000D01*
X117374936Y-107161000D02*
X117829064Y-107161000D01*
%TO.C,R24*%
X117350686Y-95964500D02*
X117804814Y-95964500D01*
X117350686Y-97434500D02*
X117804814Y-97434500D01*
D14*
%TO.C,J4*%
X145761000Y-114602000D02*
X145301000Y-114602000D01*
X145761000Y-123542000D02*
X145301000Y-123542000D01*
D12*
X141906000Y-122707000D02*
G75*
G02*
X141706000Y-122707000I-100000J0D01*
G01*
X141706000Y-122707000D02*
G75*
G02*
X141906000Y-122707000I100000J0D01*
G01*
D13*
%TO.C,D6*%
X116896000Y-127600000D02*
X116896000Y-130460000D01*
X118816000Y-127600000D02*
X116896000Y-127600000D01*
X118816000Y-130460000D02*
X118816000Y-127600000D01*
%TO.C,C5*%
X98001000Y-109742747D02*
X98001000Y-110265251D01*
X99471000Y-109742747D02*
X99471000Y-110265251D01*
%TO.C,C13*%
X77640000Y-119092252D02*
X77640000Y-118569748D01*
X79110000Y-119092252D02*
X79110000Y-118569748D01*
%TO.C,J5*%
X66070068Y-111478000D02*
X72810068Y-111478000D01*
X66070068Y-112818000D02*
X66070068Y-111478000D01*
X66070068Y-117298000D02*
X66070068Y-113418000D01*
X66990068Y-111478000D02*
X66990068Y-117298000D01*
X67990068Y-111478000D02*
X67990068Y-117298000D01*
X71090068Y-111478000D02*
X71090068Y-117298000D01*
X72810068Y-111478000D02*
X72810068Y-117298000D01*
X72810068Y-117298000D02*
X66070068Y-117298000D01*
X66070068Y-113118000D02*
X65460068Y-113558000D01*
X65460068Y-112678000D01*
X66070068Y-113118000D01*
G36*
X66070068Y-113118000D02*
G01*
X65460068Y-113558000D01*
X65460068Y-112678000D01*
X66070068Y-113118000D01*
G37*
%TO.C,D1*%
X92776000Y-108973999D02*
X92776000Y-111833999D01*
X92776000Y-111833999D02*
X94696000Y-111833999D01*
X94696000Y-111833999D02*
X94696000Y-108973999D01*
%TO.C,TP1*%
X77916000Y-104902000D02*
G75*
G02*
X76516000Y-104902000I-700000J0D01*
G01*
X76516000Y-104902000D02*
G75*
G02*
X77916000Y-104902000I700000J0D01*
G01*
%TO.C,D8*%
X145567500Y-106990000D02*
X145567500Y-108910000D01*
X145567500Y-108910000D02*
X148427500Y-108910000D01*
X148427500Y-106990000D02*
X145567500Y-106990000D01*
%TO.C,R17*%
X119305000Y-125232936D02*
X119305000Y-125687064D01*
X120775000Y-125232936D02*
X120775000Y-125687064D01*
%TO.C,D3*%
X128644000Y-124612000D02*
X128644000Y-127472000D01*
X130564000Y-124612000D02*
X128644000Y-124612000D01*
X130564000Y-127472000D02*
X130564000Y-124612000D01*
%TO.C,R25*%
X117350686Y-97996500D02*
X117804814Y-97996500D01*
X117350686Y-99466500D02*
X117804814Y-99466500D01*
D14*
%TO.C,C22*%
X117410000Y-91048000D02*
X116270000Y-91048000D01*
X117410000Y-92848000D02*
X116270000Y-92848000D01*
%TO.C,C4*%
X95336000Y-109861999D02*
X95336000Y-111001999D01*
X97136000Y-109861999D02*
X97136000Y-111001999D01*
D13*
%TO.C,R14*%
X111944936Y-119225000D02*
X112399064Y-119225000D01*
X111944936Y-120695000D02*
X112399064Y-120695000D01*
D14*
%TO.C,EN*%
X91730000Y-86650000D02*
X91730000Y-91150000D01*
X91730000Y-86650000D02*
X96230000Y-86650000D01*
X96230000Y-91150000D02*
X91730000Y-91150000D01*
X96230000Y-91150000D02*
X96230000Y-86650000D01*
D12*
X91380000Y-85300000D02*
G75*
G02*
X91180000Y-85300000I-100000J0D01*
G01*
X91180000Y-85300000D02*
G75*
G02*
X91380000Y-85300000I100000J0D01*
G01*
D13*
%TO.C,R22*%
X93499000Y-98525064D02*
X93499000Y-98070936D01*
X94969000Y-98525064D02*
X94969000Y-98070936D01*
%TO.C,R4*%
X92921000Y-113813064D02*
X92921000Y-113358936D01*
X94391000Y-113813064D02*
X94391000Y-113358936D01*
%TO.C,R5*%
X131853000Y-114765064D02*
X131853000Y-114310936D01*
X133323000Y-114765064D02*
X133323000Y-114310936D01*
%TO.C,R1*%
X139800064Y-122399000D02*
X139345936Y-122399000D01*
X139800064Y-123869000D02*
X139345936Y-123869000D01*
%TO.C,R12*%
X123399064Y-117225000D02*
X122944936Y-117225000D01*
X123399064Y-118695000D02*
X122944936Y-118695000D01*
%TO.C,J6*%
X66055818Y-124852000D02*
X72795818Y-124852000D01*
X66055818Y-126192000D02*
X66055818Y-124852000D01*
X66055818Y-130672000D02*
X66055818Y-126792000D01*
X66975818Y-124852000D02*
X66975818Y-130672000D01*
X67975818Y-124852000D02*
X67975818Y-130672000D01*
X71075818Y-124852000D02*
X71075818Y-130672000D01*
X72795818Y-124852000D02*
X72795818Y-130672000D01*
X72795818Y-130672000D02*
X66055818Y-130672000D01*
X66055818Y-126492000D02*
X65445818Y-126932000D01*
X65445818Y-126052000D01*
X66055818Y-126492000D01*
G36*
X66055818Y-126492000D02*
G01*
X65445818Y-126932000D01*
X65445818Y-126052000D01*
X66055818Y-126492000D01*
G37*
%TO.C,R2*%
X139981000Y-116035064D02*
X139981000Y-115580936D01*
X141451000Y-116035064D02*
X141451000Y-115580936D01*
%TO.C,C9*%
X82323000Y-115562748D02*
X82323000Y-116085252D01*
X83793000Y-115562748D02*
X83793000Y-116085252D01*
%TO.C,D4*%
X114712000Y-127600000D02*
X114712000Y-130460000D01*
X116632000Y-127600000D02*
X114712000Y-127600000D01*
X116632000Y-130460000D02*
X116632000Y-127600000D01*
%TO.C,R13*%
X123399064Y-119225000D02*
X122944936Y-119225000D01*
X123399064Y-120695000D02*
X122944936Y-120695000D01*
D10*
%TO.C,U4*%
X84805000Y-114323500D02*
X84805000Y-114473500D01*
X84815000Y-114323500D02*
X84965000Y-114323500D01*
X84815000Y-117023500D02*
X84815000Y-116873500D01*
X84815000Y-117023500D02*
X84965000Y-117023500D01*
X87515000Y-116873500D02*
X87515000Y-117023500D01*
X87515000Y-117023500D02*
X87365000Y-117023500D01*
D13*
X87875000Y-114323500D02*
X87515000Y-114323500D01*
X87515000Y-113963500D01*
X87875000Y-114323500D01*
G36*
X87875000Y-114323500D02*
G01*
X87515000Y-114323500D01*
X87515000Y-113963500D01*
X87875000Y-114323500D01*
G37*
%TO.C,J3*%
X71593000Y-84528000D02*
X71593000Y-84928000D01*
X71593000Y-84528000D02*
X85413000Y-84528000D01*
X71593000Y-87448000D02*
X71593000Y-93228000D01*
X71593000Y-95748000D02*
X71593000Y-98448000D01*
X73003000Y-83628000D02*
X73803000Y-83828000D01*
X73003000Y-84528000D02*
X73003000Y-83528000D01*
X73503000Y-83028000D02*
X83503000Y-83028000D01*
X73803000Y-83828000D02*
X75503000Y-84128000D01*
X75503000Y-84128000D02*
X76303000Y-84228000D01*
X76303000Y-84228000D02*
X77603000Y-84328000D01*
X77603000Y-84328000D02*
X79403000Y-84328000D01*
X79403000Y-84328000D02*
X80703000Y-84228000D01*
X80703000Y-84228000D02*
X82203000Y-84028000D01*
X82203000Y-84028000D02*
X83503000Y-83728000D01*
X83503000Y-83728000D02*
X84003000Y-83628000D01*
X84003000Y-84528000D02*
X84003000Y-83528000D01*
X85413000Y-84528000D02*
X85413000Y-84928000D01*
X85413000Y-87448000D02*
X85413000Y-93228000D01*
X85413000Y-95748000D02*
X85413000Y-98448000D01*
X85413000Y-98448000D02*
X71593000Y-98448000D01*
X73003000Y-83528000D02*
G75*
G02*
X73503000Y-83028000I500001J-1D01*
G01*
X83503000Y-83028000D02*
G75*
G02*
X84003000Y-83528000I0J-500000D01*
G01*
%TO.C,TP4*%
X75630000Y-101346000D02*
G75*
G02*
X74230000Y-101346000I-700000J0D01*
G01*
X74230000Y-101346000D02*
G75*
G02*
X75630000Y-101346000I700000J0D01*
G01*
%TO.C,R16*%
X114937000Y-125232936D02*
X114937000Y-125687064D01*
X116407000Y-125232936D02*
X116407000Y-125687064D01*
%TO.C,TP5*%
X106364000Y-92964000D02*
G75*
G02*
X104964000Y-92964000I-700000J0D01*
G01*
X104964000Y-92964000D02*
G75*
G02*
X106364000Y-92964000I700000J0D01*
G01*
%TO.C,R27*%
X103151000Y-97509064D02*
X103151000Y-97054936D01*
X104621000Y-97509064D02*
X104621000Y-97054936D01*
%TO.C,R26*%
X89707064Y-91665000D02*
X89252936Y-91665000D01*
X89707064Y-93135000D02*
X89252936Y-93135000D01*
%TO.C,R3*%
X147272936Y-125265000D02*
X147727064Y-125265000D01*
X147272936Y-126735000D02*
X147727064Y-126735000D01*
%TO.C,U8*%
X106943750Y-94193500D02*
X112463750Y-94193500D01*
X106943750Y-94463500D02*
X106943750Y-94193500D01*
X106943750Y-99713500D02*
X106943750Y-99443500D01*
X112463750Y-94193500D02*
X112463750Y-94463500D01*
X112463750Y-99443500D02*
X112463750Y-99713500D01*
X112463750Y-99713500D02*
X106943750Y-99713500D01*
X106113750Y-94453500D02*
X105773750Y-93983500D01*
X106453750Y-93983500D01*
X106113750Y-94453500D01*
G36*
X106113750Y-94453500D02*
G01*
X105773750Y-93983500D01*
X106453750Y-93983500D01*
X106113750Y-94453500D01*
G37*
%TO.C,C1*%
X108081000Y-115905253D02*
X108081000Y-115382749D01*
X109551000Y-115905253D02*
X109551000Y-115382749D01*
%TO.C,Q1*%
X91920000Y-101640000D02*
X91970000Y-101640000D01*
X91920000Y-103160000D02*
X91920000Y-101640000D01*
X92920000Y-103160000D02*
X91920000Y-103160000D01*
X93090000Y-101640000D02*
X93870000Y-101640000D01*
X94990000Y-101640000D02*
X95040000Y-101640000D01*
X95040000Y-101640000D02*
X95040000Y-103160000D01*
X95040000Y-103160000D02*
X94040000Y-103160000D01*
X93860000Y-101100000D02*
X93530000Y-101340000D01*
X93530000Y-100860000D01*
X93860000Y-101100000D01*
G36*
X93860000Y-101100000D02*
G01*
X93530000Y-101340000D01*
X93530000Y-100860000D01*
X93860000Y-101100000D01*
G37*
%TO.C,R10*%
X82068936Y-102643000D02*
X82523064Y-102643000D01*
X82068936Y-104113000D02*
X82523064Y-104113000D01*
D12*
%TO.C,U7*%
X80245999Y-124890002D02*
X80245999Y-124730002D01*
X80245999Y-124890002D02*
X80405999Y-124890002D01*
X80246002Y-121489998D02*
X80796001Y-121489998D01*
X80246002Y-121649998D02*
X80246002Y-121489998D01*
X83486003Y-121489998D02*
X83646003Y-121489998D01*
X83486003Y-124890002D02*
X83646003Y-124890002D01*
X83646003Y-121649998D02*
X83646003Y-121489998D01*
X83646003Y-124890002D02*
X83646003Y-124730002D01*
%TO.C,U1*%
X100465999Y-114124000D02*
X100465999Y-111524000D01*
X107165998Y-111524000D02*
X100465999Y-111524000D01*
X107165998Y-114124000D02*
X100465999Y-114124000D01*
X107165998Y-114124000D02*
X107165998Y-111524000D01*
D15*
X100591000Y-115773999D02*
G75*
G02*
X100340998Y-115773999I-125001J0D01*
G01*
X100340998Y-115773999D02*
G75*
G02*
X100591000Y-115773999I125001J0D01*
G01*
D13*
%TO.C,J1*%
X144797000Y-94672000D02*
X144797000Y-94672000D01*
X144797000Y-95672000D02*
X144797000Y-94672000D01*
X144797000Y-97672000D02*
X144797000Y-96892000D01*
X144797000Y-99892000D02*
X144797000Y-98892000D01*
X146287000Y-94672000D02*
X144797000Y-94672000D01*
X146287000Y-96672000D02*
X146287000Y-95892000D01*
X146287000Y-98672000D02*
X146287000Y-97892000D01*
X146287000Y-99892000D02*
X144797000Y-99892000D01*
X146287000Y-99892000D02*
X146287000Y-99892000D01*
X146287000Y-99892000D02*
X147232000Y-99892000D01*
%TO.C,R15*%
X123399064Y-121225000D02*
X122944936Y-121225000D01*
X123399064Y-122695000D02*
X122944936Y-122695000D01*
%TO.C,R19*%
X117374936Y-108191000D02*
X117829064Y-108191000D01*
X117374936Y-109661000D02*
X117829064Y-109661000D01*
%TO.C,TP2*%
X104586000Y-100330000D02*
G75*
G02*
X103186000Y-100330000I-700000J0D01*
G01*
X103186000Y-100330000D02*
G75*
G02*
X104586000Y-100330000I700000J0D01*
G01*
%TO.C,C11*%
X119305000Y-113221252D02*
X119305000Y-112698748D01*
X120775000Y-113221252D02*
X120775000Y-112698748D01*
D14*
%TO.C,C15*%
X65603000Y-94480000D02*
X65603000Y-93340000D01*
X67403000Y-94480000D02*
X67403000Y-93340000D01*
D16*
%TO.C,U5*%
X76574201Y-100703264D02*
X76574201Y-101420536D01*
X80231801Y-101420536D02*
X80231801Y-100703264D01*
D13*
%TO.C,F2*%
X114962000Y-113221252D02*
X114962000Y-112698748D01*
X116382000Y-113221252D02*
X116382000Y-112698748D01*
%TO.C,U9*%
X121774250Y-83812500D02*
X121774250Y-89622500D01*
X121774250Y-83812500D02*
X139994250Y-83812500D01*
X121774250Y-103732500D02*
X121774250Y-104032500D01*
X121774250Y-104032500D02*
X139994250Y-104032500D01*
X139994250Y-83812500D02*
X139994250Y-90312500D01*
X139994250Y-103732500D02*
X139994250Y-104032500D01*
X121784250Y-90322500D02*
X121284250Y-90322500D01*
X121784250Y-89822500D01*
X121784250Y-90322500D01*
G36*
X121784250Y-90322500D02*
G01*
X121284250Y-90322500D01*
X121784250Y-89822500D01*
X121784250Y-90322500D01*
G37*
D14*
%TO.C,BOOT*%
X97730000Y-86650000D02*
X97730000Y-91150000D01*
X97730000Y-86650000D02*
X102230000Y-86650000D01*
X102230000Y-91150000D02*
X97730000Y-91150000D01*
X102230000Y-91150000D02*
X102230000Y-86650000D01*
D12*
X97380000Y-85300000D02*
G75*
G02*
X97180000Y-85300000I-100000J0D01*
G01*
X97180000Y-85300000D02*
G75*
G02*
X97380000Y-85300000I100000J0D01*
G01*
D14*
%TO.C,C2*%
X110416000Y-115786001D02*
X110416000Y-114646001D01*
X112216000Y-115786001D02*
X112216000Y-114646001D01*
D13*
%TO.C,R18*%
X117121000Y-125232936D02*
X117121000Y-125687064D01*
X118591000Y-125232936D02*
X118591000Y-125687064D01*
%TO.C,C19*%
X110965002Y-92218500D02*
X110442498Y-92218500D01*
X110965002Y-93688500D02*
X110442498Y-93688500D01*
%TO.C,D2*%
X132644000Y-124632000D02*
X132644000Y-127492000D01*
X134564000Y-124632000D02*
X132644000Y-124632000D01*
X134564000Y-127492000D02*
X134564000Y-124632000D01*
D14*
%TO.C,C10*%
X136082000Y-112384000D02*
X137222000Y-112384000D01*
X136082000Y-114184000D02*
X137222000Y-114184000D01*
D13*
%TO.C,U2*%
X138013000Y-118984000D02*
X138013000Y-120254000D01*
X141133000Y-120284000D02*
X141133000Y-118984000D01*
X138063000Y-120634000D02*
X137733000Y-120874000D01*
X137733000Y-120394000D01*
X138063000Y-120634000D01*
G36*
X138063000Y-120634000D02*
G01*
X137733000Y-120874000D01*
X137733000Y-120394000D01*
X138063000Y-120634000D01*
G37*
%TO.C,TP3*%
X80202000Y-104902000D02*
G75*
G02*
X78802000Y-104902000I-700000J0D01*
G01*
X78802000Y-104902000D02*
G75*
G02*
X80202000Y-104902000I700000J0D01*
G01*
%TO.C,F1*%
X138640000Y-127147936D02*
X138640000Y-128352064D01*
X141360000Y-127147936D02*
X141360000Y-128352064D01*
%TO.C,C18*%
X99560748Y-94261000D02*
X100083252Y-94261000D01*
X99560748Y-95731000D02*
X100083252Y-95731000D01*
%TO.C,R21*%
X143200436Y-104715000D02*
X143654564Y-104715000D01*
X143200436Y-106185000D02*
X143654564Y-106185000D01*
%TO.C,R30*%
X75538064Y-125757000D02*
X75083936Y-125757000D01*
X75538064Y-127227000D02*
X75083936Y-127227000D01*
%TO.C,R29*%
X75554064Y-119026000D02*
X75099936Y-119026000D01*
X75554064Y-120496000D02*
X75099936Y-120496000D01*
%TO.C,D5*%
X119080000Y-127600000D02*
X119080000Y-130460000D01*
X121000000Y-127600000D02*
X119080000Y-127600000D01*
X121000000Y-130460000D02*
X121000000Y-127600000D01*
%TO.C,C14*%
X85879000Y-123436748D02*
X85879000Y-123959252D01*
X87349000Y-123436748D02*
X87349000Y-123959252D01*
%TO.C,J7*%
X66084318Y-118165000D02*
X72824318Y-118165000D01*
X66084318Y-119505000D02*
X66084318Y-118165000D01*
X66084318Y-123985000D02*
X66084318Y-120105000D01*
X67004318Y-118165000D02*
X67004318Y-123985000D01*
X68004318Y-118165000D02*
X68004318Y-123985000D01*
X71104318Y-118165000D02*
X71104318Y-123985000D01*
X72824318Y-118165000D02*
X72824318Y-123985000D01*
X72824318Y-123985000D02*
X66084318Y-123985000D01*
X66084318Y-119805000D02*
X65474318Y-120245000D01*
X65474318Y-119365000D01*
X66084318Y-119805000D01*
G36*
X66084318Y-119805000D02*
G01*
X65474318Y-120245000D01*
X65474318Y-119365000D01*
X66084318Y-119805000D01*
G37*
%TO.C,R8*%
X134869000Y-126219936D02*
X134869000Y-126674064D01*
X136339000Y-126219936D02*
X136339000Y-126674064D01*
%TO.C,U3*%
X132590000Y-118340000D02*
X132590000Y-118840000D01*
X132590000Y-121660000D02*
X132590000Y-121160000D01*
X133090000Y-118340000D02*
X132590000Y-118340000D01*
X133090000Y-121660000D02*
X132590000Y-121660000D01*
X135410000Y-118340000D02*
X135910000Y-118340000D01*
X135410000Y-121660000D02*
X135610000Y-121660000D01*
X135910000Y-118340000D02*
X135910000Y-118840000D01*
X135910000Y-121160000D02*
X135910000Y-121410000D01*
X136150000Y-121990000D02*
X135670000Y-121990000D01*
X135910000Y-121660000D01*
X136150000Y-121990000D01*
G36*
X136150000Y-121990000D02*
G01*
X135670000Y-121990000D01*
X135910000Y-121660000D01*
X136150000Y-121990000D01*
G37*
%TO.C,C3*%
X147201248Y-111515000D02*
X147723752Y-111515000D01*
X147201248Y-112985000D02*
X147723752Y-112985000D01*
%TO.C,C6*%
X142249000Y-127694252D02*
X142249000Y-127171748D01*
X143719000Y-127694252D02*
X143719000Y-127171748D01*
%TO.C,R11*%
X74649064Y-102643000D02*
X74194936Y-102643000D01*
X74649064Y-104113000D02*
X74194936Y-104113000D01*
%TO.C,C8*%
X136000748Y-114765000D02*
X136523252Y-114765000D01*
X136000748Y-116235000D02*
X136523252Y-116235000D01*
%TO.C,R7*%
X129853000Y-114310936D02*
X129853000Y-114765064D01*
X131323000Y-114310936D02*
X131323000Y-114765064D01*
%TO.C,C12*%
X77576000Y-127160748D02*
X77576000Y-127683252D01*
X79046000Y-127160748D02*
X79046000Y-127683252D01*
%TO.C,R28*%
X143200436Y-107215000D02*
X143654564Y-107215000D01*
X143200436Y-108685000D02*
X143654564Y-108685000D01*
%TO.C,D7*%
X145567500Y-104490000D02*
X145567500Y-106410000D01*
X145567500Y-106410000D02*
X148427500Y-106410000D01*
X148427500Y-104490000D02*
X145567500Y-104490000D01*
%TO.C,Q2*%
X97620000Y-101640000D02*
X97670000Y-101640000D01*
X97620000Y-103160000D02*
X97620000Y-101640000D01*
X98620000Y-103160000D02*
X97620000Y-103160000D01*
X98790000Y-101640000D02*
X99570000Y-101640000D01*
X100690000Y-101640000D02*
X100740000Y-101640000D01*
X100740000Y-101640000D02*
X100740000Y-103160000D01*
X100740000Y-103160000D02*
X99740000Y-103160000D01*
X99560000Y-101100000D02*
X99230000Y-101340000D01*
X99230000Y-100860000D01*
X99560000Y-101100000D01*
G36*
X99560000Y-101100000D02*
G01*
X99230000Y-101340000D01*
X99230000Y-100860000D01*
X99560000Y-101100000D01*
G37*
%TO.C,C21*%
X117601252Y-93713000D02*
X117078748Y-93713000D01*
X117601252Y-95183000D02*
X117078748Y-95183000D01*
%TO.C,J2*%
D14*
X105167500Y-121597000D02*
G75*
G02*
X105040500Y-121597000I-63500J0D01*
G01*
X105040500Y-121597000D02*
G75*
G02*
X105167500Y-121597000I63500J0D01*
G01*
D13*
%TO.C,C20*%
X93464748Y-94261000D02*
X93987252Y-94261000D01*
X93464748Y-95731000D02*
X93987252Y-95731000D01*
%TO.C,R9*%
X130869000Y-126244936D02*
X130869000Y-126699064D01*
X132339000Y-126244936D02*
X132339000Y-126699064D01*
%TD*%
M02*
