M48
; DRILL file {KiCad 9.0.6} date 2025-11-02T17:56:56+0100
; FORMAT={-:-/ absolute / metric / decimal}
; #@! TF.CreationDate,2025-11-02T17:56:56+01:00
; #@! TF.GenerationSoftware,Kicad,Pcbnew,9.0.6
; #@! TF.FileFunction,Plated,1,4,PTH
FMAT,2
METRIC
; #@! TA.AperFunction,Plated,PTH,ComponentDrill
T1C0.200
; #@! TA.AperFunction,Plated,PTH,ComponentDrill
T2C0.203
; #@! TA.AperFunction,Plated,PTH,ViaDrill
T3C0.300
; #@! TA.AperFunction,Plated,PTH,ComponentDrill
T4C0.450
; #@! TA.AperFunction,Plated,PTH,ComponentDrill
T5C0.600
; #@! TA.AperFunction,Plated,PTH,ComponentDrill
T6C1.200
%
G90
G05
T1
X130.744Y-96.672
X130.744Y-97.772
X131.294Y-96.123
X131.294Y-97.222
X131.294Y-98.322
X131.844Y-96.672
X131.844Y-97.772
X132.394Y-96.123
X132.394Y-97.222
X132.394Y-98.322
X132.944Y-96.672
X132.944Y-97.772
T2
X81.596Y-123.19
X81.946Y-122.44
X81.946Y-123.94
X82.296Y-123.19
T3
X67.056Y-88.9
X67.056Y-99.06
X67.056Y-104.14
X67.818Y-95.385
X69.596Y-86.36
X69.596Y-101.6
X69.596Y-106.68
X69.596Y-109.22
X71.628Y-87.884
X71.628Y-92.964
X72.136Y-109.22
X72.136Y-121.92
X72.136Y-124.46
X73.422Y-102.362
X74.676Y-86.36
X74.676Y-91.44
X74.676Y-93.98
X74.676Y-96.52
X74.676Y-121.92
X74.676Y-124.46
X74.676Y-129.54
X75.303Y-87.511
X77.216Y-86.36
X77.216Y-109.22
X78.603Y-87.493
X79.756Y-86.36
X79.756Y-129.54
X80.803Y-87.376
X82.296Y-86.36
X82.296Y-91.44
X82.296Y-93.98
X82.296Y-96.52
X82.296Y-109.22
X82.296Y-111.76
X82.296Y-119.38
X82.296Y-129.54
X83.003Y-87.376
X83.296Y-102.362
X84.201Y-123.444
X84.328Y-114.698
X84.328Y-116.648
X84.836Y-101.6
X84.836Y-111.76
X84.836Y-127.0
X85.365Y-124.735
X85.378Y-87.884
X85.378Y-92.964
X87.376Y-96.52
X87.376Y-99.06
X87.376Y-101.6
X87.376Y-104.14
X87.376Y-109.22
X87.376Y-111.76
X87.376Y-129.54
X87.757Y-114.681
X87.884Y-115.824
X87.884Y-116.586
X88.48Y-91.44
X89.916Y-86.36
X89.916Y-99.06
X89.916Y-104.14
X89.916Y-119.38
X90.401Y-125.6
X92.456Y-116.84
X92.456Y-121.92
X92.456Y-129.54
X92.688Y-96.012
X94.686Y-114.498
X94.996Y-119.38
X94.996Y-127.0
X95.25Y-97.298
X95.48Y-86.614
X95.48Y-90.932
X96.236Y-112.746
X97.536Y-124.46
X98.552Y-96.012
X98.736Y-111.913
X100.076Y-119.38
X100.076Y-121.92
X100.076Y-129.54
X100.6Y-108.8
X100.6Y-109.6
X100.6Y-110.3
X101.092Y-97.298
X101.346Y-117.348
X101.346Y-124.46
X101.346Y-127.0
X101.4Y-108.8
X101.4Y-109.6
X101.4Y-110.3
X101.48Y-86.868
X101.48Y-90.932
X103.886Y-99.314
X105.0Y-121.8
X105.0Y-122.4
X105.0Y-123.0
X105.0Y-123.6
X105.0Y-124.2
X105.156Y-86.36
X105.156Y-91.44
X105.156Y-119.38
X106.2Y-108.8
X106.2Y-109.6
X106.2Y-110.4
X106.934Y-127.0
X106.934Y-129.032
X107.0Y-108.8
X107.0Y-109.6
X107.0Y-110.4
X107.442Y-95.25
X107.442Y-99.06
X108.722Y-92.953
X108.816Y-113.792
X108.966Y-107.95
X108.966Y-109.728
X108.966Y-112.014
X109.1Y-121.8
X109.1Y-122.4
X109.1Y-123.0
X109.1Y-123.6
X109.1Y-124.2
X110.236Y-88.9
X111.252Y-108.204
X111.252Y-110.998
X111.252Y-121.031
X111.327Y-112.924
X112.776Y-86.36
X112.776Y-123.444
X112.776Y-126.746
X113.03Y-130.302
X113.157Y-93.091
X113.284Y-109.982
X114.046Y-100.838
X114.046Y-102.362
X114.8Y-118.4
X114.86Y-119.46
X116.302Y-93.218
X116.602Y-107.696
X116.8Y-130.485
X117.094Y-118.237
X117.094Y-119.634
X117.348Y-100.838
X117.348Y-102.362
X117.602Y-116.168
X117.672Y-118.96
X117.856Y-113.792
X118.11Y-111.506
X118.364Y-118.237
X118.364Y-119.634
X119.0Y-130.485
X119.38Y-106.426
X119.38Y-108.926
X119.6Y-117.0
X119.888Y-110.49
X120.904Y-91.022
X120.904Y-92.71
X120.904Y-103.124
X120.981Y-101.522
X121.066Y-111.922
X122.682Y-115.967
X123.19Y-126.746
X123.243Y-100.022
X123.444Y-130.302
X123.952Y-114.951
X124.172Y-119.015
X124.172Y-121.047
X124.46Y-111.252
X124.968Y-125.222
X124.968Y-128.27
X125.73Y-109.982
X125.73Y-112.268
X125.984Y-116.475
X125.984Y-119.777
X126.238Y-123.698
X126.238Y-130.302
X126.492Y-126.746
X127.508Y-105.664
X127.762Y-129.032
X128.016Y-100.33
X128.016Y-126.492
X128.27Y-98.044
X129.286Y-101.854
X129.54Y-113.538
X130.048Y-120.793
X130.048Y-130.556
X130.55Y-110.49
X130.81Y-100.076
X131.826Y-120.793
X131.873Y-119.007
X132.08Y-102.108
X132.588Y-116.459
X132.842Y-122.063
X132.842Y-130.556
X133.35Y-100.076
X134.366Y-108.966
X134.62Y-102.108
X134.874Y-97.536
X135.25Y-117.643
X135.382Y-110.236
X135.382Y-129.794
X136.398Y-99.822
X136.652Y-120.396
X137.16Y-121.412
X137.16Y-129.54
X137.414Y-126.492
X137.668Y-110.236
X137.773Y-123.134
X137.922Y-108.966
X138.176Y-93.98
X138.176Y-112.014
X138.522Y-103.022
X138.75Y-118.0
X139.0Y-121.25
X139.0Y-125.0
X139.0Y-130.5
X139.7Y-108.966
X139.75Y-125.0
X139.75Y-130.5
X140.5Y-125.0
X140.5Y-130.5
X140.716Y-113.792
X140.97Y-106.172
X140.99Y-91.114
X141.25Y-125.0
X141.25Y-130.5
X141.322Y-107.95
X142.25Y-115.75
X142.424Y-104.349
X142.5Y-122.5
X142.748Y-110.744
X143.51Y-100.838
X143.51Y-102.108
X143.51Y-130.81
X143.764Y-92.71
X143.764Y-93.98
X144.071Y-128.47
X144.461Y-120.461
X144.462Y-117.538
X144.907Y-117.983
X144.907Y-120.015
X145.034Y-100.838
X145.034Y-102.108
X145.066Y-95.282
X145.066Y-99.282
X145.288Y-92.71
X145.288Y-93.98
X145.542Y-110.744
X145.542Y-128.778
X145.796Y-130.302
X146.558Y-100.838
X146.558Y-102.108
X146.812Y-92.71
X146.812Y-93.98
X147.32Y-129.794
X147.955Y-106.68
X148.5Y-111.162
X148.5Y-126.91
T4
X144.256Y-115.752
X144.256Y-122.392
T6
X69.576Y-126.492
X69.576Y-129.032
X69.59Y-113.118
X69.59Y-115.658
X69.604Y-119.805
X69.604Y-122.345
T5
G00X142.981Y-114.452
M15
G01X144.381Y-114.452
M16
G05
G00X142.981Y-123.692
M15
G01X144.381Y-123.692
M16
G05
G00X146.681Y-114.752
M15
G01X147.781Y-114.752
M16
G05
G00X146.681Y-123.392
M15
G01X147.781Y-123.392
M16
G05
M30
